<svg width="24" height="126" viewBox="0 0 24 126" fill="none" xmlns="http://www.w3.org/2000/svg">
<path d="M15.9445 123.7C15.0245 122.627 12.317 120.079 9.94009 117.993C3.61331 112.492 2.39158 110.424 4.35724 108.619C5.38561 107.697 7.90895 108.723 10.9292 111.244C11.6516 111.861 12.3788 112.39 12.4675 112.394C12.5562 112.399 11.4197 109.581 9.95987 106.166C5.18272 95.0569 2.28312 84.5831 0.850443 73.2997C-0.0273813 66.5375 0.846255 52.0887 2.53653 44.7101C5.55233 31.7561 9.62554 21.4387 16.8485 8.80213C20.3382 2.67735 22.0321 0.145795 22.6157 0.044089C23.3766 -0.0479857 23.4089 0.176103 23.1521 1.62956C22.9661 2.59774 21.4482 5.98372 19.8069 9.18513C13.2322 22.1681 8.62471 36.592 6.30101 51.5401C4.30735 64.5051 5.16707 76.5134 9.13329 91.0916C10.4645 96.0553 14.3983 106.318 15.8297 108.62C16.3998 109.584 16.4466 109.542 17.0354 107.707C17.948 104.821 18.8458 103.847 20.3532 103.929C23.0577 104.076 24.2584 108.988 23.53 117.486C23.1297 122.401 22.9486 123.28 22.0903 124.345C21.3304 125.238 20.6461 125.556 19.3555 125.575C17.8409 125.626 17.4095 125.38 15.9445 123.7Z" fill="url(#paint0_linear_201_1734)"/>
<defs>
<linearGradient id="paint0_linear_201_1734" x1="16.9598" y1="-0.296165" x2="10.1492" y2="125.108" gradientUnits="userSpaceOnUse">
<stop stop-color="#FCB236" stop-opacity="0"/>
<stop offset="1" stop-color="#F3808E"/>
</linearGradient>
</defs>
</svg>
