<svg width="80" height="72" viewBox="0 0 80 72" fill="none" xmlns="http://www.w3.org/2000/svg">
<path d="M0 7.96665C0 3.56679 3.56679 0 7.96665 0H72.0333C76.4332 0 80 3.56679 80 7.96665V32.1668C80 54.166 61.9993 72 40 72C18.0007 72 0 54.166 0 32.1668V7.96665Z" fill="#F3808E"/>
<path d="M42.0965 54C42.0965 52.8421 41.1579 51.9035 40 51.9035C38.8421 51.9035 37.9035 52.8421 37.9035 54L42.0965 54ZM38.5176 56.4824C39.3363 57.3012 40.6637 57.3012 41.4824 56.4824L54.8244 43.1405C55.6431 42.3217 55.6431 40.9943 54.8244 40.1756C54.0057 39.3569 52.6782 39.3569 51.8595 40.1756L40 52.0351L28.1405 40.1756C27.3217 39.3569 25.9943 39.3569 25.1756 40.1756C24.3569 40.9943 24.3569 42.3218 25.1756 43.1405L38.5176 56.4824ZM37.9035 54L37.9035 55L42.0965 55L42.0965 54L37.9035 54Z" fill="white"/>
<path d="M42.0965 7C42.0965 5.84214 41.1579 4.90351 40 4.90351C38.8421 4.90351 37.9035 5.84214 37.9035 7L42.0965 7ZM38.5176 39.4824C39.3363 40.3012 40.6637 40.3012 41.4824 39.4824L54.8244 26.1405C55.6431 25.3217 55.6431 23.9943 54.8244 23.1756C54.0057 22.3569 52.6783 22.3569 51.8595 23.1756L40 35.0351L28.1405 23.1756C27.3218 22.3569 25.9943 22.3569 25.1756 23.1756C24.3569 23.9943 24.3569 25.3217 25.1756 26.1405L38.5176 39.4824ZM37.9035 7L37.9035 38L42.0965 38L42.0965 7L37.9035 7Z" fill="white"/>
</svg>
