<svg width="81" height="80" viewBox="0 0 81 80" fill="none" xmlns="http://www.w3.org/2000/svg">
<path d="M0.5 8.30015C0.5 3.90029 4.06679 0.333496 8.46665 0.333496H72.1999C76.5997 0.333496 80.1665 3.90029 80.1665 8.30015V40.1668C80.1665 62.166 62.3325 80 40.3333 80C18.334 80 0.5 62.166 0.5 40.1668V8.30015Z" fill="url(#paint0_linear_100_788)"/>
<path d="M38.8508 57.1829C39.6695 58.0016 40.997 58.0016 41.8157 57.1829L55.1577 43.841C55.9764 43.0222 55.9764 41.6948 55.1577 40.8761C54.3389 40.0573 53.0115 40.0573 52.1928 40.8761L40.3333 52.7356L28.4737 40.8761C27.655 40.0573 26.3276 40.0573 25.5089 40.8761C24.6901 41.6948 24.6901 43.0222 25.5089 43.841L38.8508 57.1829ZM38.2368 17.8589V55.7005H42.4297V17.8589H38.2368Z" fill="#62879D"/>
<defs>
<linearGradient id="paint0_linear_100_788" x1="40.3333" y1="0.333496" x2="40.3333" y2="80" gradientUnits="userSpaceOnUse">
<stop stop-color="#61889E" stop-opacity="0"/>
<stop offset="1" stop-color="white"/>
</linearGradient>
</defs>
</svg>
