<svg width="856" height="154" viewBox="0 0 856 154" fill="none" xmlns="http://www.w3.org/2000/svg">
<path d="M824.922 14.5H40.0878C25.4096 14.5 15.7317 29.7851 22.0091 43.0534L69.0844 142.553C72.3912 149.543 79.4308 154 87.1631 154H779.629C787.468 154 794.585 149.42 797.832 142.286L843.124 42.7859C849.153 29.5429 839.472 14.5 824.922 14.5Z" fill="url(#paint0_linear_282_41)"/>
<path d="M816.922 0.5H32.0878C17.4096 0.5 7.73168 15.7851 14.0091 29.0534L61.0844 128.553C64.3912 135.543 71.4308 140 79.1631 140H771.629C779.468 140 786.585 135.42 789.832 128.286L835.124 28.7859C841.153 15.5429 831.472 0.5 816.922 0.5Z" fill="#62879D"/>
<path d="M73.2064 53V23.2H79.4064V53H73.2064ZM86.4508 35.4V32.4C87.3841 32.1867 88.1441 31.8 88.7308 31.24C89.3441 30.6533 89.7441 29.9733 89.9308 29.2H87.2508V23.2H93.2508V26.68C93.2508 29.0267 92.6774 30.96 91.5308 32.48C90.3841 33.9733 88.6908 34.9467 86.4508 35.4ZM106.52 53L97.9205 31.16H104.4L110.36 47.68H107.88L113.84 31.16H120.32L111.72 53H106.52ZM133.091 53.48C130.771 53.48 128.758 52.9733 127.051 51.96C125.344 50.92 124.024 49.5333 123.091 47.8C122.158 46.0667 121.691 44.1467 121.691 42.04C121.691 39.8533 122.171 37.9067 123.131 36.2C124.118 34.4933 125.438 33.1467 127.091 32.16C128.744 31.1733 130.611 30.68 132.691 30.68C134.424 30.68 135.958 30.96 137.291 31.52C138.624 32.0533 139.744 32.8133 140.651 33.8C141.584 34.7867 142.291 35.9333 142.771 37.24C143.251 38.52 143.491 39.92 143.491 41.44C143.491 41.8667 143.464 42.2933 143.411 42.72C143.384 43.12 143.318 43.4667 143.211 43.76H126.851V39.36H139.811L136.971 41.44C137.238 40.2933 137.224 39.28 136.931 38.4C136.638 37.4933 136.118 36.7867 135.371 36.28C134.651 35.7467 133.758 35.48 132.691 35.48C131.651 35.48 130.758 35.7333 130.011 36.24C129.264 36.7467 128.704 37.4933 128.331 38.48C127.958 39.4667 127.811 40.6667 127.891 42.08C127.784 43.3067 127.931 44.3867 128.331 45.32C128.731 46.2533 129.344 46.9867 130.171 47.52C130.998 48.0267 131.998 48.28 133.171 48.28C134.238 48.28 135.144 48.0667 135.891 47.64C136.664 47.2133 137.264 46.6267 137.691 45.88L142.491 48.16C142.064 49.2267 141.384 50.16 140.451 50.96C139.544 51.76 138.464 52.3867 137.211 52.84C135.958 53.2667 134.584 53.48 133.091 53.48ZM154.652 53V23.2H167.252C169.305 23.2 171.065 23.5467 172.532 24.24C173.998 24.9333 175.118 25.9333 175.892 27.24C176.665 28.52 177.052 30.08 177.052 31.92C177.052 33.2267 176.692 34.48 175.972 35.68C175.252 36.8533 174.065 37.84 172.412 38.64V35.6C173.985 36.2133 175.198 36.9467 176.052 37.8C176.905 38.6533 177.492 39.5867 177.812 40.6C178.132 41.5867 178.292 42.6267 178.292 43.72C178.292 46.6533 177.318 48.9333 175.372 50.56C173.425 52.1867 170.718 53 167.252 53H154.652ZM160.852 47.6H167.972C169.225 47.6 170.225 47.24 170.972 46.52C171.718 45.8 172.092 44.8667 172.092 43.72C172.092 42.5467 171.718 41.6 170.972 40.88C170.225 40.16 169.225 39.8 167.972 39.8H160.852V47.6ZM160.852 34.4H167.692C168.652 34.4 169.412 34.1333 169.972 33.6C170.558 33.04 170.852 32.3067 170.852 31.4C170.852 30.4933 170.558 29.7733 169.972 29.24C169.412 28.68 168.652 28.4 167.692 28.4H160.852V34.4ZM189.669 53.48C187.909 53.48 186.402 53.1067 185.149 52.36C183.922 51.5867 182.989 50.52 182.349 49.16C181.709 47.8 181.389 46.2133 181.389 44.4V31.16H187.389V43.92C187.389 44.7467 187.549 45.48 187.869 46.12C188.216 46.7333 188.696 47.2133 189.309 47.56C189.922 47.9067 190.616 48.08 191.389 48.08C192.189 48.08 192.882 47.9067 193.469 47.56C194.082 47.2133 194.549 46.7333 194.869 46.12C195.216 45.48 195.389 44.7467 195.389 43.92V31.16H201.389V53H195.789V48.68L196.109 49.64C195.602 50.9467 194.776 51.92 193.629 52.56C192.509 53.1733 191.189 53.48 189.669 53.48ZM205.774 53V31.16H211.774V53H205.774ZM205.774 29.2V23.2H211.774V29.2H205.774ZM216.165 53V22.72H222.165V53H216.165ZM237.075 53.24C234.435 53.24 232.382 52.5333 230.915 51.12C229.475 49.68 228.755 47.68 228.755 45.12V36.36H225.075V31.16H225.275C226.395 31.16 227.249 30.88 227.835 30.32C228.449 29.76 228.755 28.92 228.755 27.8V26.2H234.755V31.16H239.875V36.36H234.755V44.72C234.755 45.4667 234.889 46.0933 235.155 46.6C235.422 47.08 235.835 47.44 236.395 47.68C236.955 47.92 237.649 48.04 238.475 48.04C238.662 48.04 238.875 48.0267 239.115 48C239.355 47.9733 239.609 47.9467 239.875 47.92V53C239.475 53.0533 239.022 53.1067 238.515 53.16C238.009 53.2133 237.529 53.24 237.075 53.24ZM248.819 53L258.899 23.2H267.139L277.219 53H270.459L268.459 46.92H257.539L255.539 53H248.819ZM259.259 41.52H266.739L262.179 27.44H263.859L259.259 41.52ZM287.503 53V23.2H298.903C300.957 23.2 302.77 23.56 304.343 24.28C305.943 25 307.197 26.0667 308.103 27.48C309.01 28.8933 309.463 30.64 309.463 32.72C309.463 34.7467 308.997 36.48 308.063 37.92C307.13 39.3333 305.877 40.4 304.303 41.12L311.103 53H304.143L296.783 39.84L300.783 42.2H293.703V53H287.503ZM293.703 36.8H298.943C299.823 36.8 300.583 36.6267 301.223 36.28C301.863 35.9333 302.357 35.4533 302.703 34.84C303.077 34.2267 303.263 33.52 303.263 32.72C303.263 31.8933 303.077 31.1733 302.703 30.56C302.357 29.9467 301.863 29.4667 301.223 29.12C300.583 28.7733 299.823 28.6 298.943 28.6H293.703V36.8ZM323.052 53.48C320.732 53.48 318.719 52.9733 317.012 51.96C315.305 50.92 313.985 49.5333 313.052 47.8C312.119 46.0667 311.652 44.1467 311.652 42.04C311.652 39.8533 312.132 37.9067 313.092 36.2C314.079 34.4933 315.399 33.1467 317.052 32.16C318.705 31.1733 320.572 30.68 322.652 30.68C324.385 30.68 325.919 30.96 327.252 31.52C328.585 32.0533 329.705 32.8133 330.612 33.8C331.545 34.7867 332.252 35.9333 332.732 37.24C333.212 38.52 333.452 39.92 333.452 41.44C333.452 41.8667 333.425 42.2933 333.372 42.72C333.345 43.12 333.279 43.4667 333.172 43.76H316.812V39.36H329.772L326.932 41.44C327.199 40.2933 327.185 39.28 326.892 38.4C326.599 37.4933 326.079 36.7867 325.332 36.28C324.612 35.7467 323.719 35.48 322.652 35.48C321.612 35.48 320.719 35.7333 319.972 36.24C319.225 36.7467 318.665 37.4933 318.292 38.48C317.919 39.4667 317.772 40.6667 317.852 42.08C317.745 43.3067 317.892 44.3867 318.292 45.32C318.692 46.2533 319.305 46.9867 320.132 47.52C320.959 48.0267 321.959 48.28 323.132 48.28C324.199 48.28 325.105 48.0667 325.852 47.64C326.625 47.2133 327.225 46.6267 327.652 45.88L332.452 48.16C332.025 49.2267 331.345 50.16 330.412 50.96C329.505 51.76 328.425 52.3867 327.172 52.84C325.919 53.2667 324.545 53.48 323.052 53.48ZM336.985 61V31.16H342.585V35.32L342.065 34.12C342.785 33.0267 343.758 32.1867 344.985 31.6C346.238 30.9867 347.665 30.68 349.265 30.68C351.345 30.68 353.225 31.1867 354.905 32.2C356.585 33.2133 357.918 34.5867 358.905 36.32C359.892 38.0267 360.385 39.9467 360.385 42.08C360.385 44.1867 359.892 46.1067 358.905 47.84C357.945 49.5733 356.625 50.9467 354.945 51.96C353.265 52.9733 351.358 53.48 349.225 53.48C347.732 53.48 346.345 53.2133 345.065 52.68C343.812 52.12 342.798 51.3067 342.025 50.24L342.985 49V61H336.985ZM348.505 48.08C349.625 48.08 350.612 47.8267 351.465 47.32C352.318 46.8133 352.985 46.1067 353.465 45.2C353.945 44.2933 354.185 43.2533 354.185 42.08C354.185 40.9067 353.945 39.88 353.465 39C352.985 38.0933 352.318 37.3867 351.465 36.88C350.612 36.3467 349.625 36.08 348.505 36.08C347.438 36.08 346.478 36.3333 345.625 36.84C344.798 37.3467 344.145 38.0533 343.665 38.96C343.212 39.8667 342.985 40.9067 342.985 42.08C342.985 43.2533 343.212 44.2933 343.665 45.2C344.145 46.1067 344.798 46.8133 345.625 47.32C346.478 47.8267 347.438 48.08 348.505 48.08ZM371.739 53.48C369.979 53.48 368.473 53.1067 367.219 52.36C365.993 51.5867 365.059 50.52 364.419 49.16C363.779 47.8 363.459 46.2133 363.459 44.4V31.16H369.459V43.92C369.459 44.7467 369.619 45.48 369.939 46.12C370.286 46.7333 370.766 47.2133 371.379 47.56C371.993 47.9067 372.686 48.08 373.459 48.08C374.259 48.08 374.953 47.9067 375.539 47.56C376.153 47.2133 376.619 46.7333 376.939 46.12C377.286 45.48 377.459 44.7467 377.459 43.92V31.16H383.459V53H377.859V48.68L378.179 49.64C377.673 50.9467 376.846 51.92 375.699 52.56C374.579 53.1733 373.259 53.48 371.739 53.48ZM398.365 53.24C395.725 53.24 393.671 52.5333 392.205 51.12C390.765 49.68 390.045 47.68 390.045 45.12V36.36H386.365V31.16H386.565C387.685 31.16 388.538 30.88 389.125 30.32C389.738 29.76 390.045 28.92 390.045 27.8V26.2H396.045V31.16H401.165V36.36H396.045V44.72C396.045 45.4667 396.178 46.0933 396.445 46.6C396.711 47.08 397.125 47.44 397.685 47.68C398.245 47.92 398.938 48.04 399.765 48.04C399.951 48.04 400.165 48.0267 400.405 48C400.645 47.9733 400.898 47.9467 401.165 47.92V53C400.765 53.0533 400.311 53.1067 399.805 53.16C399.298 53.2133 398.818 53.24 398.365 53.24ZM411.44 53.48C409.867 53.48 408.507 53.2267 407.36 52.72C406.214 52.2133 405.334 51.4933 404.72 50.56C404.107 49.6 403.8 48.4667 403.8 47.16C403.8 45.9333 404.08 44.8533 404.64 43.92C405.2 42.96 406.054 42.16 407.2 41.52C408.374 40.88 409.827 40.4267 411.56 40.16L418.24 39.08V43.48L412.64 44.48C411.787 44.64 411.134 44.92 410.68 45.32C410.227 45.6933 410 46.24 410 46.96C410 47.6267 410.254 48.1467 410.76 48.52C411.267 48.8933 411.894 49.08 412.64 49.08C413.627 49.08 414.494 48.8667 415.24 48.44C415.987 48.0133 416.56 47.44 416.96 46.72C417.387 45.9733 417.6 45.16 417.6 44.28V38.6C417.6 37.7733 417.267 37.08 416.6 36.52C415.96 35.96 415.08 35.68 413.96 35.68C412.894 35.68 411.947 35.9733 411.12 36.56C410.32 37.1467 409.734 37.92 409.36 38.88L404.56 36.6C404.987 35.3733 405.667 34.32 406.6 33.44C407.534 32.56 408.654 31.88 409.96 31.4C411.267 30.92 412.694 30.68 414.24 30.68C416.08 30.68 417.707 31.0133 419.12 31.68C420.534 32.3467 421.627 33.28 422.4 34.48C423.2 35.6533 423.6 37.0267 423.6 38.6V53H418V49.48L419.36 49.24C418.72 50.2 418.014 51 417.24 51.64C416.467 52.2533 415.6 52.7067 414.64 53C413.68 53.32 412.614 53.48 411.44 53.48ZM438.13 53.24C435.49 53.24 433.437 52.5333 431.97 51.12C430.53 49.68 429.81 47.68 429.81 45.12V36.36H426.13V31.16H426.33C427.45 31.16 428.303 30.88 428.89 30.32C429.503 29.76 429.81 28.92 429.81 27.8V26.2H435.81V31.16H440.93V36.36H435.81V44.72C435.81 45.4667 435.943 46.0933 436.21 46.6C436.477 47.08 436.89 47.44 437.45 47.68C438.01 47.92 438.703 48.04 439.53 48.04C439.717 48.04 439.93 48.0267 440.17 48C440.41 47.9733 440.663 47.9467 440.93 47.92V53C440.53 53.0533 440.077 53.1067 439.57 53.16C439.063 53.2133 438.583 53.24 438.13 53.24ZM444.446 53V31.16H450.446V53H444.446ZM444.446 29.2V23.2H450.446V29.2H444.446ZM465.677 53.48C463.517 53.48 461.543 52.9867 459.757 52C457.997 51.0133 456.583 49.6667 455.517 47.96C454.477 46.2267 453.957 44.2667 453.957 42.08C453.957 39.8667 454.477 37.9067 455.517 36.2C456.583 34.4933 457.997 33.1467 459.757 32.16C461.543 31.1733 463.517 30.68 465.677 30.68C467.837 30.68 469.797 31.1733 471.557 32.16C473.317 33.1467 474.717 34.4933 475.757 36.2C476.823 37.9067 477.357 39.8667 477.357 42.08C477.357 44.2667 476.823 46.2267 475.757 47.96C474.717 49.6667 473.317 51.0133 471.557 52C469.797 52.9867 467.837 53.48 465.677 53.48ZM465.677 48.08C466.77 48.08 467.717 47.8267 468.517 47.32C469.343 46.8133 469.983 46.1067 470.437 45.2C470.917 44.2933 471.157 43.2533 471.157 42.08C471.157 40.9067 470.917 39.88 470.437 39C469.983 38.0933 469.343 37.3867 468.517 36.88C467.717 36.3467 466.77 36.08 465.677 36.08C464.583 36.08 463.623 36.3467 462.797 36.88C461.97 37.3867 461.317 38.0933 460.837 39C460.383 39.88 460.157 40.9067 460.157 42.08C460.157 43.2533 460.383 44.2933 460.837 45.2C461.317 46.1067 461.97 46.8133 462.797 47.32C463.623 47.8267 464.583 48.08 465.677 48.08ZM480.891 53V31.16H486.491V35.48L486.171 34.52C486.678 33.2133 487.491 32.2533 488.611 31.64C489.758 31 491.091 30.68 492.611 30.68C494.265 30.68 495.705 31.0267 496.931 31.72C498.185 32.4133 499.158 33.3867 499.851 34.64C500.545 35.8667 500.891 37.3067 500.891 38.96V53H494.891V40.24C494.891 39.3867 494.718 38.6533 494.371 38.04C494.051 37.4267 493.585 36.9467 492.971 36.6C492.385 36.2533 491.691 36.08 490.891 36.08C490.118 36.08 489.425 36.2533 488.811 36.6C488.198 36.9467 487.718 37.4267 487.371 38.04C487.051 38.6533 486.891 39.3867 486.891 40.24V53H480.891ZM512.464 53V23.2H532.864V28.6H518.664V36.16H530.864V41.56H518.664V53H512.464ZM545.95 53.48C543.79 53.48 541.817 52.9867 540.03 52C538.27 51.0133 536.857 49.6667 535.79 47.96C534.75 46.2267 534.23 44.2667 534.23 42.08C534.23 39.8667 534.75 37.9067 535.79 36.2C536.857 34.4933 538.27 33.1467 540.03 32.16C541.817 31.1733 543.79 30.68 545.95 30.68C548.11 30.68 550.07 31.1733 551.83 32.16C553.59 33.1467 554.99 34.4933 556.03 36.2C557.097 37.9067 557.63 39.8667 557.63 42.08C557.63 44.2667 557.097 46.2267 556.03 47.96C554.99 49.6667 553.59 51.0133 551.83 52C550.07 52.9867 548.11 53.48 545.95 53.48ZM545.95 48.08C547.043 48.08 547.99 47.8267 548.79 47.32C549.617 46.8133 550.257 46.1067 550.71 45.2C551.19 44.2933 551.43 43.2533 551.43 42.08C551.43 40.9067 551.19 39.88 550.71 39C550.257 38.0933 549.617 37.3867 548.79 36.88C547.99 36.3467 547.043 36.08 545.95 36.08C544.857 36.08 543.897 36.3467 543.07 36.88C542.243 37.3867 541.59 38.0933 541.11 39C540.657 39.88 540.43 40.9067 540.43 42.08C540.43 43.2533 540.657 44.2933 541.11 45.2C541.59 46.1067 542.243 46.8133 543.07 47.32C543.897 47.8267 544.857 48.08 545.95 48.08ZM561.165 53V31.16H566.765V36.4L566.365 35.64C566.845 33.8 567.632 32.56 568.725 31.92C569.845 31.2533 571.165 30.92 572.685 30.92H573.965V36.12H572.085C570.618 36.12 569.432 36.5733 568.525 37.48C567.618 38.36 567.165 39.6133 567.165 41.24V53H561.165ZM584.222 53V23.2H593.942C597.169 23.2 599.969 23.84 602.342 25.12C604.715 26.4 606.555 28.16 607.862 30.4C609.169 32.64 609.822 35.2 609.822 38.08C609.822 40.96 609.169 43.5333 607.862 45.8C606.555 48.04 604.715 49.8 602.342 51.08C599.969 52.36 597.169 53 593.942 53H584.222ZM590.422 47.6H594.102C596.049 47.6 597.729 47.2133 599.142 46.44C600.555 45.64 601.649 44.5333 602.422 43.12C603.222 41.68 603.622 40 603.622 38.08C603.622 36.1333 603.222 34.4533 602.422 33.04C601.649 31.6267 600.555 30.5333 599.142 29.76C597.729 28.9867 596.049 28.6 594.102 28.6H590.422V47.6ZM623.872 53.48C621.552 53.48 619.539 52.9733 617.832 51.96C616.126 50.92 614.806 49.5333 613.872 47.8C612.939 46.0667 612.472 44.1467 612.472 42.04C612.472 39.8533 612.952 37.9067 613.912 36.2C614.899 34.4933 616.219 33.1467 617.872 32.16C619.526 31.1733 621.392 30.68 623.472 30.68C625.206 30.68 626.739 30.96 628.072 31.52C629.406 32.0533 630.526 32.8133 631.432 33.8C632.366 34.7867 633.072 35.9333 633.552 37.24C634.032 38.52 634.272 39.92 634.272 41.44C634.272 41.8667 634.246 42.2933 634.192 42.72C634.166 43.12 634.099 43.4667 633.992 43.76H617.632V39.36H630.592L627.752 41.44C628.019 40.2933 628.006 39.28 627.712 38.4C627.419 37.4933 626.899 36.7867 626.152 36.28C625.432 35.7467 624.539 35.48 623.472 35.48C622.432 35.48 621.539 35.7333 620.792 36.24C620.046 36.7467 619.486 37.4933 619.112 38.48C618.739 39.4667 618.592 40.6667 618.672 42.08C618.566 43.3067 618.712 44.3867 619.112 45.32C619.512 46.2533 620.126 46.9867 620.952 47.52C621.779 48.0267 622.779 48.28 623.952 48.28C625.019 48.28 625.926 48.0667 626.672 47.64C627.446 47.2133 628.046 46.6267 628.472 45.88L633.272 48.16C632.846 49.2267 632.166 50.16 631.232 50.96C630.326 51.76 629.246 52.3867 627.992 52.84C626.739 53.2667 625.366 53.48 623.872 53.48ZM637.805 53V22.72H643.805V53H637.805ZM648.196 53V31.16H654.196V53H648.196ZM648.196 29.2V23.2H654.196V29.2H648.196ZM665.427 53L656.827 31.16H663.307L669.267 47.68H666.787L672.747 31.16H679.227L670.627 53H665.427ZM691.997 53.48C689.677 53.48 687.664 52.9733 685.957 51.96C684.251 50.92 682.931 49.5333 681.997 47.8C681.064 46.0667 680.597 44.1467 680.597 42.04C680.597 39.8533 681.077 37.9067 682.037 36.2C683.024 34.4933 684.344 33.1467 685.997 32.16C687.651 31.1733 689.517 30.68 691.597 30.68C693.331 30.68 694.864 30.96 696.197 31.52C697.531 32.0533 698.651 32.8133 699.557 33.8C700.491 34.7867 701.197 35.9333 701.677 37.24C702.157 38.52 702.397 39.92 702.397 41.44C702.397 41.8667 702.371 42.2933 702.317 42.72C702.291 43.12 702.224 43.4667 702.117 43.76H685.757V39.36H698.717L695.877 41.44C696.144 40.2933 696.131 39.28 695.837 38.4C695.544 37.4933 695.024 36.7867 694.277 36.28C693.557 35.7467 692.664 35.48 691.597 35.48C690.557 35.48 689.664 35.7333 688.917 36.24C688.171 36.7467 687.611 37.4933 687.237 38.48C686.864 39.4667 686.717 40.6667 686.797 42.08C686.691 43.3067 686.837 44.3867 687.237 45.32C687.637 46.2533 688.251 46.9867 689.077 47.52C689.904 48.0267 690.904 48.28 692.077 48.28C693.144 48.28 694.051 48.0667 694.797 47.64C695.571 47.2133 696.171 46.6267 696.597 45.88L701.397 48.16C700.971 49.2267 700.291 50.16 699.357 50.96C698.451 51.76 697.371 52.3867 696.117 52.84C694.864 53.2667 693.491 53.48 691.997 53.48ZM705.93 53V31.16H711.53V36.4L711.13 35.64C711.61 33.8 712.397 32.56 713.49 31.92C714.61 31.2533 715.93 30.92 717.45 30.92H718.73V36.12H716.85C715.384 36.12 714.197 36.5733 713.29 37.48C712.384 38.36 711.93 39.6133 711.93 41.24V53H705.93ZM721.36 53V31.16H727.36V53H721.36ZM721.36 29.2V23.2H727.36V29.2H721.36ZM731.751 53V31.16H737.351V35.48L737.031 34.52C737.537 33.2133 738.351 32.2533 739.471 31.64C740.617 31 741.951 30.68 743.471 30.68C745.124 30.68 746.564 31.0267 747.791 31.72C749.044 32.4133 750.017 33.3867 750.711 34.64C751.404 35.8667 751.751 37.3067 751.751 38.96V53H745.751V40.24C745.751 39.3867 745.577 38.6533 745.231 38.04C744.911 37.4267 744.444 36.9467 743.831 36.6C743.244 36.2533 742.551 36.08 741.751 36.08C740.977 36.08 740.284 36.2533 739.671 36.6C739.057 36.9467 738.577 37.4267 738.231 38.04C737.911 38.6533 737.751 39.3867 737.751 40.24V53H731.751ZM766.416 61.8C764.736 61.8 763.176 61.52 761.736 60.96C760.296 60.4 759.056 59.6133 758.016 58.6C757.003 57.6133 756.269 56.44 755.816 55.08L761.376 53.12C761.669 54.1333 762.269 54.9333 763.176 55.52C764.083 56.1067 765.163 56.4 766.416 56.4C767.403 56.4 768.256 56.2133 768.976 55.84C769.696 55.4933 770.243 54.9733 770.616 54.28C771.016 53.5867 771.216 52.7733 771.216 51.84V46.84L772.376 48.28C771.629 49.5067 770.669 50.4267 769.496 51.04C768.323 51.6267 766.949 51.92 765.376 51.92C763.349 51.92 761.536 51.4667 759.936 50.56C758.336 49.6267 757.083 48.36 756.176 46.76C755.269 45.1333 754.816 43.2933 754.816 41.24C754.816 39.1867 755.269 37.3733 756.176 35.8C757.083 34.2 758.323 32.9467 759.896 32.04C761.469 31.1333 763.256 30.68 765.256 30.68C766.829 30.68 768.203 31 769.376 31.64C770.549 32.2533 771.549 33.2 772.376 34.48L771.616 35.92V31.16H777.216V51.84C777.216 53.76 776.749 55.4667 775.816 56.96C774.883 58.48 773.603 59.6667 771.976 60.52C770.376 61.3733 768.523 61.8 766.416 61.8ZM766.216 46.48C767.229 46.48 768.109 46.2667 768.856 45.84C769.603 45.4133 770.176 44.8133 770.576 44.04C771.003 43.2667 771.216 42.36 771.216 41.32C771.216 40.28 771.003 39.3733 770.576 38.6C770.149 37.8 769.563 37.1867 768.816 36.76C768.069 36.3067 767.203 36.08 766.216 36.08C765.203 36.08 764.296 36.3067 763.496 36.76C762.723 37.1867 762.109 37.8 761.656 38.6C761.229 39.3733 761.016 40.28 761.016 41.32C761.016 42.3333 761.229 43.2267 761.656 44C762.109 44.7733 762.723 45.3867 763.496 45.84C764.296 46.2667 765.203 46.48 766.216 46.48ZM102.269 112V82.2H114.869C116.922 82.2 118.682 82.5467 120.149 83.24C121.616 83.9333 122.736 84.9333 123.509 86.24C124.282 87.52 124.669 89.08 124.669 90.92C124.669 92.2267 124.309 93.48 123.589 94.68C122.869 95.8533 121.682 96.84 120.029 97.64V94.6C121.602 95.2133 122.816 95.9467 123.669 96.8C124.522 97.6533 125.109 98.5867 125.429 99.6C125.749 100.587 125.909 101.627 125.909 102.72C125.909 105.653 124.936 107.933 122.989 109.56C121.042 111.187 118.336 112 114.869 112H102.269ZM108.469 106.6H115.589C116.842 106.6 117.842 106.24 118.589 105.52C119.336 104.8 119.709 103.867 119.709 102.72C119.709 101.547 119.336 100.6 118.589 99.88C117.842 99.16 116.842 98.8 115.589 98.8H108.469V106.6ZM108.469 93.4H115.309C116.269 93.4 117.029 93.1333 117.589 92.6C118.176 92.04 118.469 91.3067 118.469 90.4C118.469 89.4933 118.176 88.7733 117.589 88.24C117.029 87.68 116.269 87.4 115.309 87.4H108.469V93.4ZM129.446 112V90.16H135.446V112H129.446ZM129.446 88.2V82.2H135.446V88.2H129.446ZM150.557 120.8C148.877 120.8 147.317 120.52 145.877 119.96C144.437 119.4 143.197 118.613 142.157 117.6C141.143 116.613 140.41 115.44 139.957 114.08L145.517 112.12C145.81 113.133 146.41 113.933 147.317 114.52C148.223 115.107 149.303 115.4 150.557 115.4C151.543 115.4 152.397 115.213 153.117 114.84C153.837 114.493 154.383 113.973 154.757 113.28C155.157 112.587 155.357 111.773 155.357 110.84V105.84L156.517 107.28C155.77 108.507 154.81 109.427 153.637 110.04C152.463 110.627 151.09 110.92 149.517 110.92C147.49 110.92 145.677 110.467 144.077 109.56C142.477 108.627 141.223 107.36 140.317 105.76C139.41 104.133 138.957 102.293 138.957 100.24C138.957 98.1867 139.41 96.3733 140.317 94.8C141.223 93.2 142.463 91.9467 144.037 91.04C145.61 90.1333 147.397 89.68 149.397 89.68C150.97 89.68 152.343 90 153.517 90.64C154.69 91.2533 155.69 92.2 156.517 93.48L155.757 94.92V90.16H161.357V110.84C161.357 112.76 160.89 114.467 159.957 115.96C159.023 117.48 157.743 118.667 156.117 119.52C154.517 120.373 152.663 120.8 150.557 120.8ZM150.357 105.48C151.37 105.48 152.25 105.267 152.997 104.84C153.743 104.413 154.317 103.813 154.717 103.04C155.143 102.267 155.357 101.36 155.357 100.32C155.357 99.28 155.143 98.3733 154.717 97.6C154.29 96.8 153.703 96.1867 152.957 95.76C152.21 95.3067 151.343 95.08 150.357 95.08C149.343 95.08 148.437 95.3067 147.637 95.76C146.863 96.1867 146.25 96.8 145.797 97.6C145.37 98.3733 145.157 99.28 145.157 100.32C145.157 101.333 145.37 102.227 145.797 103C146.25 103.773 146.863 104.387 147.637 104.84C148.437 105.267 149.343 105.48 150.357 105.48ZM173.402 112V82.2H184.802C186.855 82.2 188.668 82.56 190.242 83.28C191.842 84 193.095 85.0667 194.002 86.48C194.908 87.8933 195.362 89.64 195.362 91.72C195.362 93.7467 194.895 95.48 193.962 96.92C193.028 98.3333 191.775 99.4 190.202 100.12L197.002 112H190.042L182.682 98.84L186.682 101.2H179.602V112H173.402ZM179.602 95.8H184.842C185.722 95.8 186.482 95.6267 187.122 95.28C187.762 94.9333 188.255 94.4533 188.602 93.84C188.975 93.2267 189.162 92.52 189.162 91.72C189.162 90.8933 188.975 90.1733 188.602 89.56C188.255 88.9467 187.762 88.4667 187.122 88.12C186.482 87.7733 185.722 87.6 184.842 87.6H179.602V95.8ZM208.95 112.48C206.63 112.48 204.617 111.973 202.91 110.96C201.204 109.92 199.884 108.533 198.95 106.8C198.017 105.067 197.55 103.147 197.55 101.04C197.55 98.8533 198.03 96.9067 198.99 95.2C199.977 93.4933 201.297 92.1467 202.95 91.16C204.604 90.1733 206.47 89.68 208.55 89.68C210.284 89.68 211.817 89.96 213.15 90.52C214.484 91.0533 215.604 91.8133 216.51 92.8C217.444 93.7867 218.15 94.9333 218.63 96.24C219.11 97.52 219.35 98.92 219.35 100.44C219.35 100.867 219.324 101.293 219.27 101.72C219.244 102.12 219.177 102.467 219.07 102.76H202.71V98.36H215.67L212.83 100.44C213.097 99.2933 213.084 98.28 212.79 97.4C212.497 96.4933 211.977 95.7867 211.23 95.28C210.51 94.7467 209.617 94.48 208.55 94.48C207.51 94.48 206.617 94.7333 205.87 95.24C205.124 95.7467 204.564 96.4933 204.19 97.48C203.817 98.4667 203.67 99.6667 203.75 101.08C203.644 102.307 203.79 103.387 204.19 104.32C204.59 105.253 205.204 105.987 206.03 106.52C206.857 107.027 207.857 107.28 209.03 107.28C210.097 107.28 211.004 107.067 211.75 106.64C212.524 106.213 213.124 105.627 213.55 104.88L218.35 107.16C217.924 108.227 217.244 109.16 216.31 109.96C215.404 110.76 214.324 111.387 213.07 111.84C211.817 112.267 210.444 112.48 208.95 112.48ZM231.444 112.48C229.044 112.48 226.95 111.92 225.164 110.8C223.404 109.653 222.204 108.12 221.564 106.2L225.964 104.12C226.524 105.293 227.284 106.213 228.244 106.88C229.204 107.547 230.27 107.88 231.444 107.88C232.297 107.88 232.95 107.707 233.404 107.36C233.857 107.013 234.084 106.533 234.084 105.92C234.084 105.6 234.004 105.333 233.844 105.12C233.684 104.88 233.444 104.667 233.124 104.48C232.804 104.293 232.404 104.133 231.924 104L228.204 102.96C226.417 102.453 225.044 101.64 224.084 100.52C223.124 99.3733 222.644 98.0267 222.644 96.48C222.644 95.12 222.99 93.9333 223.684 92.92C224.377 91.9067 225.35 91.12 226.604 90.56C227.857 89.9733 229.297 89.68 230.924 89.68C233.057 89.68 234.924 90.1867 236.524 91.2C238.15 92.1867 239.297 93.5867 239.964 95.4L235.524 97.48C235.204 96.5733 234.617 95.8533 233.764 95.32C232.937 94.76 231.99 94.48 230.924 94.48C230.15 94.48 229.537 94.64 229.084 94.96C228.657 95.28 228.444 95.72 228.444 96.28C228.444 96.5733 228.524 96.84 228.684 97.08C228.844 97.32 229.097 97.5333 229.444 97.72C229.817 97.9067 230.27 98.08 230.804 98.24L234.284 99.28C236.097 99.8133 237.484 100.627 238.444 101.72C239.404 102.787 239.884 104.107 239.884 105.68C239.884 107.04 239.524 108.227 238.804 109.24C238.11 110.253 237.137 111.053 235.884 111.64C234.63 112.2 233.15 112.48 231.444 112.48ZM251.31 112.48C249.55 112.48 248.043 112.107 246.79 111.36C245.563 110.587 244.63 109.52 243.99 108.16C243.35 106.8 243.03 105.213 243.03 103.4V90.16H249.03V102.92C249.03 103.747 249.19 104.48 249.51 105.12C249.856 105.733 250.336 106.213 250.95 106.56C251.563 106.907 252.256 107.08 253.03 107.08C253.83 107.08 254.523 106.907 255.11 106.56C255.723 106.213 256.19 105.733 256.51 105.12C256.856 104.48 257.03 103.747 257.03 102.92V90.16H263.03V112H257.43V107.68L257.75 108.64C257.243 109.947 256.416 110.92 255.27 111.56C254.15 112.173 252.83 112.48 251.31 112.48ZM267.415 112V81.72H273.415V112H267.415ZM288.325 112.24C285.685 112.24 283.632 111.533 282.165 110.12C280.725 108.68 280.005 106.68 280.005 104.12V95.36H276.325V90.16H276.525C277.645 90.16 278.499 89.88 279.085 89.32C279.699 88.76 280.005 87.92 280.005 86.8V85.2H286.005V90.16H291.125V95.36H286.005V103.72C286.005 104.467 286.139 105.093 286.405 105.6C286.672 106.08 287.085 106.44 287.645 106.68C288.205 106.92 288.899 107.04 289.725 107.04C289.912 107.04 290.125 107.027 290.365 107C290.605 106.973 290.859 106.947 291.125 106.92V112C290.725 112.053 290.272 112.107 289.765 112.16C289.259 112.213 288.779 112.24 288.325 112.24ZM303.201 112.48C300.801 112.48 298.708 111.92 296.921 110.8C295.161 109.653 293.961 108.12 293.321 106.2L297.721 104.12C298.281 105.293 299.041 106.213 300.001 106.88C300.961 107.547 302.028 107.88 303.201 107.88C304.055 107.88 304.708 107.707 305.161 107.36C305.615 107.013 305.841 106.533 305.841 105.92C305.841 105.6 305.761 105.333 305.601 105.12C305.441 104.88 305.201 104.667 304.881 104.48C304.561 104.293 304.161 104.133 303.681 104L299.961 102.96C298.175 102.453 296.801 101.64 295.841 100.52C294.881 99.3733 294.401 98.0267 294.401 96.48C294.401 95.12 294.748 93.9333 295.441 92.92C296.135 91.9067 297.108 91.12 298.361 90.56C299.615 89.9733 301.055 89.68 302.681 89.68C304.815 89.68 306.681 90.1867 308.281 91.2C309.908 92.1867 311.055 93.5867 311.721 95.4L307.281 97.48C306.961 96.5733 306.375 95.8533 305.521 95.32C304.695 94.76 303.748 94.48 302.681 94.48C301.908 94.48 301.295 94.64 300.841 94.96C300.415 95.28 300.201 95.72 300.201 96.28C300.201 96.5733 300.281 96.84 300.441 97.08C300.601 97.32 300.855 97.5333 301.201 97.72C301.575 97.9067 302.028 98.08 302.561 98.24L306.041 99.28C307.855 99.8133 309.241 100.627 310.201 101.72C311.161 102.787 311.641 104.107 311.641 105.68C311.641 107.04 311.281 108.227 310.561 109.24C309.868 110.253 308.895 111.053 307.641 111.64C306.388 112.2 304.908 112.48 303.201 112.48ZM322.855 112V82.2H343.255V87.6H329.055V95.16H341.255V100.56H329.055V112H322.855ZM356.341 112.48C354.181 112.48 352.207 111.987 350.421 111C348.661 110.013 347.247 108.667 346.181 106.96C345.141 105.227 344.621 103.267 344.621 101.08C344.621 98.8667 345.141 96.9067 346.181 95.2C347.247 93.4933 348.661 92.1467 350.421 91.16C352.207 90.1733 354.181 89.68 356.341 89.68C358.501 89.68 360.461 90.1733 362.221 91.16C363.981 92.1467 365.381 93.4933 366.421 95.2C367.487 96.9067 368.021 98.8667 368.021 101.08C368.021 103.267 367.487 105.227 366.421 106.96C365.381 108.667 363.981 110.013 362.221 111C360.461 111.987 358.501 112.48 356.341 112.48ZM356.341 107.08C357.434 107.08 358.381 106.827 359.181 106.32C360.007 105.813 360.647 105.107 361.101 104.2C361.581 103.293 361.821 102.253 361.821 101.08C361.821 99.9067 361.581 98.88 361.101 98C360.647 97.0933 360.007 96.3867 359.181 95.88C358.381 95.3467 357.434 95.08 356.341 95.08C355.247 95.08 354.287 95.3467 353.461 95.88C352.634 96.3867 351.981 97.0933 351.501 98C351.047 98.88 350.821 99.9067 350.821 101.08C350.821 102.253 351.047 103.293 351.501 104.2C351.981 105.107 352.634 105.813 353.461 106.32C354.287 106.827 355.247 107.08 356.341 107.08ZM371.555 112V90.16H377.155V95.4L376.755 94.64C377.235 92.8 378.022 91.56 379.115 90.92C380.235 90.2533 381.555 89.92 383.075 89.92H384.355V95.12H382.475C381.009 95.12 379.822 95.5733 378.915 96.48C378.009 97.36 377.555 98.6133 377.555 100.24V112H371.555ZM392.413 112L402.493 82.2H410.733L420.813 112H414.053L412.053 105.92H401.133L399.133 112H392.413ZM402.853 100.52H410.333L405.773 86.44H407.453L402.853 100.52ZM423.47 112V81.72H429.47V112H423.47ZM433.86 112V81.72H439.86V112H433.86ZM451.878 112V82.2H457.878L469.038 97H466.238L477.078 82.2H483.078V112H476.878V89.04L479.358 89.6L467.878 104.4H467.078L455.998 89.6L458.078 89.04V112H451.878ZM491.323 120.8C490.683 120.8 490.056 120.747 489.443 120.64C488.856 120.533 488.336 120.36 487.883 120.12V115.2C488.256 115.307 488.696 115.4 489.203 115.48C489.709 115.56 490.176 115.6 490.603 115.6C491.776 115.6 492.616 115.32 493.123 114.76C493.629 114.227 494.043 113.613 494.363 112.92L495.843 109.52L495.763 114.52L486.163 90.16H492.603L498.963 107.48H496.563L502.923 90.16H509.363L500.003 114.04C499.416 115.533 498.696 116.787 497.843 117.8C496.989 118.813 496.016 119.56 494.923 120.04C493.856 120.547 492.656 120.8 491.323 120.8ZM518.293 112V106.4H520.093C521.293 106.4 522.253 106.067 522.973 105.4C523.719 104.707 524.093 103.8 524.093 102.68V82.2H530.293V102.4C530.293 104.32 529.879 106 529.053 107.44C528.226 108.88 527.039 110 525.493 110.8C523.973 111.6 522.173 112 520.093 112H518.293ZM543.472 112L533.272 82.2H540.072L547.752 106.12H546.392L554.072 82.2H560.872L550.672 112H543.472ZM571.136 112V82.2H582.576C584.629 82.2 586.443 82.56 588.016 83.28C589.616 84 590.869 85.0667 591.776 86.48C592.683 87.8933 593.136 89.64 593.136 91.72C593.136 93.7467 592.669 95.4667 591.736 96.88C590.829 98.2933 589.576 99.3733 587.976 100.12C586.403 100.84 584.603 101.2 582.576 101.2H577.336V112H571.136ZM577.336 95.8H582.616C583.496 95.8 584.256 95.6267 584.896 95.28C585.536 94.9333 586.029 94.4533 586.376 93.84C586.749 93.2267 586.936 92.52 586.936 91.72C586.936 90.8933 586.749 90.1733 586.376 89.56C586.029 88.9467 585.536 88.4667 584.896 88.12C584.256 87.7733 583.496 87.6 582.616 87.6H577.336V95.8ZM602.222 112.48C600.648 112.48 599.288 112.227 598.142 111.72C596.995 111.213 596.115 110.493 595.502 109.56C594.888 108.6 594.582 107.467 594.582 106.16C594.582 104.933 594.862 103.853 595.422 102.92C595.982 101.96 596.835 101.16 597.982 100.52C599.155 99.88 600.608 99.4267 602.342 99.16L609.022 98.08V102.48L603.422 103.48C602.568 103.64 601.915 103.92 601.462 104.32C601.008 104.693 600.782 105.24 600.782 105.96C600.782 106.627 601.035 107.147 601.542 107.52C602.048 107.893 602.675 108.08 603.422 108.08C604.408 108.08 605.275 107.867 606.022 107.44C606.768 107.013 607.342 106.44 607.742 105.72C608.168 104.973 608.382 104.16 608.382 103.28V97.6C608.382 96.7733 608.048 96.08 607.382 95.52C606.742 94.96 605.862 94.68 604.742 94.68C603.675 94.68 602.728 94.9733 601.902 95.56C601.102 96.1467 600.515 96.92 600.142 97.88L595.342 95.6C595.768 94.3733 596.448 93.32 597.382 92.44C598.315 91.56 599.435 90.88 600.742 90.4C602.048 89.92 603.475 89.68 605.022 89.68C606.862 89.68 608.488 90.0133 609.902 90.68C611.315 91.3467 612.408 92.28 613.182 93.48C613.982 94.6533 614.382 96.0267 614.382 97.6V112H608.782V108.48L610.142 108.24C609.502 109.2 608.795 110 608.022 110.64C607.248 111.253 606.382 111.707 605.422 112C604.462 112.32 603.395 112.48 602.222 112.48ZM618.782 112V90.16H624.382V95.4L623.982 94.64C624.462 92.8 625.249 91.56 626.342 90.92C627.462 90.2533 628.782 89.92 630.302 89.92H631.582V95.12H629.702C628.235 95.12 627.049 95.5733 626.142 96.48C625.235 97.36 624.782 98.6133 624.782 100.24V112H618.782ZM645.513 112.24C642.873 112.24 640.82 111.533 639.353 110.12C637.913 108.68 637.193 106.68 637.193 104.12V95.36H633.513V90.16H633.713C634.833 90.16 635.686 89.88 636.273 89.32C636.886 88.76 637.193 87.92 637.193 86.8V85.2H643.193V90.16H648.313V95.36H643.193V103.72C643.193 104.467 643.326 105.093 643.593 105.6C643.86 106.08 644.273 106.44 644.833 106.68C645.393 106.92 646.086 107.04 646.913 107.04C647.1 107.04 647.313 107.027 647.553 107C647.793 106.973 648.046 106.947 648.313 106.92V112C647.913 112.053 647.46 112.107 646.953 112.16C646.446 112.213 645.966 112.24 645.513 112.24ZM651.829 112V90.16H657.429V94.48L657.109 93.52C657.616 92.2133 658.429 91.2533 659.549 90.64C660.696 90 662.029 89.68 663.549 89.68C665.202 89.68 666.642 90.0267 667.869 90.72C669.122 91.4133 670.096 92.3867 670.789 93.64C671.482 94.8667 671.829 96.3067 671.829 97.96V112H665.829V99.24C665.829 98.3867 665.656 97.6533 665.309 97.04C664.989 96.4267 664.522 95.9467 663.909 95.6C663.322 95.2533 662.629 95.08 661.829 95.08C661.056 95.08 660.362 95.2533 659.749 95.6C659.136 95.9467 658.656 96.4267 658.309 97.04C657.989 97.6533 657.829 98.3867 657.829 99.24V112H651.829ZM686.294 112.48C683.974 112.48 681.961 111.973 680.254 110.96C678.548 109.92 677.228 108.533 676.294 106.8C675.361 105.067 674.894 103.147 674.894 101.04C674.894 98.8533 675.374 96.9067 676.334 95.2C677.321 93.4933 678.641 92.1467 680.294 91.16C681.948 90.1733 683.814 89.68 685.894 89.68C687.628 89.68 689.161 89.96 690.494 90.52C691.828 91.0533 692.948 91.8133 693.854 92.8C694.788 93.7867 695.494 94.9333 695.974 96.24C696.454 97.52 696.694 98.92 696.694 100.44C696.694 100.867 696.668 101.293 696.614 101.72C696.588 102.12 696.521 102.467 696.414 102.76H680.054V98.36H693.014L690.174 100.44C690.441 99.2933 690.428 98.28 690.134 97.4C689.841 96.4933 689.321 95.7867 688.574 95.28C687.854 94.7467 686.961 94.48 685.894 94.48C684.854 94.48 683.961 94.7333 683.214 95.24C682.468 95.7467 681.908 96.4933 681.534 97.48C681.161 98.4667 681.014 99.6667 681.094 101.08C680.988 102.307 681.134 103.387 681.534 104.32C681.934 105.253 682.548 105.987 683.374 106.52C684.201 107.027 685.201 107.28 686.374 107.28C687.441 107.28 688.348 107.067 689.094 106.64C689.868 106.213 690.468 105.627 690.894 104.88L695.694 107.16C695.268 108.227 694.588 109.16 693.654 109.96C692.748 110.76 691.668 111.387 690.414 111.84C689.161 112.267 687.788 112.48 686.294 112.48ZM700.227 112V90.16H705.827V95.4L705.427 94.64C705.907 92.8 706.694 91.56 707.787 90.92C708.907 90.2533 710.227 89.92 711.747 89.92H713.027V95.12H711.147C709.681 95.12 708.494 95.5733 707.587 96.48C706.681 97.36 706.227 98.6133 706.227 100.24V112H700.227ZM724.217 112.48C721.817 112.48 719.724 111.92 717.937 110.8C716.177 109.653 714.977 108.12 714.337 106.2L718.737 104.12C719.297 105.293 720.057 106.213 721.017 106.88C721.977 107.547 723.044 107.88 724.217 107.88C725.07 107.88 725.724 107.707 726.177 107.36C726.63 107.013 726.857 106.533 726.857 105.92C726.857 105.6 726.777 105.333 726.617 105.12C726.457 104.88 726.217 104.667 725.897 104.48C725.577 104.293 725.177 104.133 724.697 104L720.977 102.96C719.19 102.453 717.817 101.64 716.857 100.52C715.897 99.3733 715.417 98.0267 715.417 96.48C715.417 95.12 715.764 93.9333 716.457 92.92C717.15 91.9067 718.124 91.12 719.377 90.56C720.63 89.9733 722.07 89.68 723.697 89.68C725.83 89.68 727.697 90.1867 729.297 91.2C730.924 92.1867 732.07 93.5867 732.737 95.4L728.297 97.48C727.977 96.5733 727.39 95.8533 726.537 95.32C725.71 94.76 724.764 94.48 723.697 94.48C722.924 94.48 722.31 94.64 721.857 94.96C721.43 95.28 721.217 95.72 721.217 96.28C721.217 96.5733 721.297 96.84 721.457 97.08C721.617 97.32 721.87 97.5333 722.217 97.72C722.59 97.9067 723.044 98.08 723.577 98.24L727.057 99.28C728.87 99.8133 730.257 100.627 731.217 101.72C732.177 102.787 732.657 104.107 732.657 105.68C732.657 107.04 732.297 108.227 731.577 109.24C730.884 110.253 729.91 111.053 728.657 111.64C727.404 112.2 725.924 112.48 724.217 112.48ZM739.203 112V106H745.203V112H739.203Z" fill="white"/>
<defs>
<linearGradient id="paint0_linear_282_41" x1="8.50001" y1="36.4245" x2="21.3621" y2="194.771" gradientUnits="userSpaceOnUse">
<stop offset="0.0216666" stop-color="#78AAC5"/>
<stop offset="0.318199" stop-color="#F3808E"/>
<stop offset="0.693895" stop-color="#FCB236"/>
<stop offset="1" stop-color="#F7EEA6"/>
</linearGradient>
</defs>
</svg>
