<svg width="739" height="96" viewBox="0 0 739 96" fill="none" xmlns="http://www.w3.org/2000/svg">
<path d="M13.9158 27.8851V74.0293V87.6646C13.9158 91.5252 17.0455 94.6549 20.9062 94.6549H265.507C266.812 94.6549 268.091 94.2895 269.2 93.6L280.388 86.6394C282.649 85.2329 285.512 85.2329 287.773 86.6394L298.962 93.6C300.07 94.2895 301.349 94.6549 302.654 94.6549H731.01C734.87 94.6549 738 91.5252 738 87.6646V68.9169C738 66.5016 736.753 64.2573 734.702 62.9814L732.375 61.5334C727.978 58.7979 727.978 52.398 732.375 49.6625L734.702 48.2145C736.753 46.9386 738 44.6943 738 42.279V13.6574C738 9.7967 734.87 6.66699 731.01 6.66699H43.7757C42.4705 6.66699 41.1914 7.03242 40.0831 7.72189L17.2135 21.9497C15.1627 23.2255 13.9158 25.4698 13.9158 27.8851Z" stroke="#F3808E" stroke-width="0.932052"/>
<path d="M1 22.0969V67.7609V81.2069C1 85.0676 4.1297 88.1973 7.99039 88.1973H252.891C254.186 88.1973 255.454 87.838 256.557 87.1594L267.801 80.2359C270.048 78.852 272.884 78.852 275.131 80.2359L286.376 87.1594C287.478 87.838 288.747 88.1973 290.041 88.1973H718.901C722.762 88.1973 725.892 85.0676 725.892 81.2069V62.7523C725.892 60.3254 724.633 58.0722 722.566 56.7998L720.376 55.4512C715.942 52.7212 715.942 46.2761 720.376 43.5462L722.566 42.1976C724.633 40.9251 725.892 38.6719 725.892 36.2451V8.00699C725.892 4.14631 722.762 1.0166 718.901 1.0166H30.8736C29.5793 1.0166 28.3105 1.37591 27.2084 2.05449L4.32524 16.1444C2.25871 17.4168 1 19.67 1 22.0969Z" fill="#62879D" stroke="#BE6B6E" stroke-width="0.932052"/>
<path d="M46.5092 57.7393L38.8991 29.3919H44.4545L50.4283 53.5537H48.9824L55.2226 29.3919H60.5877L66.7899 53.5537H65.344L71.3178 29.3919H76.8731L69.2631 57.7393H63.3273L57.049 34.2243H58.7232L52.445 57.7393H46.5092ZM84.3497 58.1959C82.9038 58.1959 81.6481 57.9549 80.5827 57.4729C79.5173 56.9909 78.6929 56.306 78.1095 55.4182C77.526 54.505 77.2343 53.4523 77.2343 52.26C77.2343 51.1185 77.488 50.1039 77.9953 49.216C78.5026 48.3028 79.289 47.5418 80.3544 46.933C81.4198 46.3242 82.7643 45.893 84.3877 45.6393L91.1606 44.5359V48.3409L85.339 49.3302C84.3497 49.5078 83.614 49.8248 83.1321 50.2814C82.6501 50.738 82.4091 51.3342 82.4091 52.0698C82.4091 52.7801 82.6755 53.3508 83.2082 53.782C83.7662 54.1879 84.4511 54.3908 85.2629 54.3908C86.3029 54.3908 87.2161 54.1752 88.0025 53.744C88.8142 53.2874 89.4357 52.6659 89.8669 51.8795C90.3235 51.0932 90.5518 50.2307 90.5518 49.2921V43.9651C90.5518 43.0773 90.1967 42.3417 89.4864 41.7582C88.8015 41.1494 87.8883 40.845 86.7468 40.845C85.6814 40.845 84.7302 41.1367 83.8931 41.7202C83.0813 42.2782 82.4852 43.0266 82.1047 43.9651L78.0334 41.9865C78.4392 40.8958 79.0734 39.9572 79.9359 39.1708C80.8237 38.3591 81.8637 37.7249 83.056 37.2683C84.2482 36.8117 85.5419 36.5834 86.9371 36.5834C88.6367 36.5834 90.1333 36.9005 91.427 37.5347C92.7207 38.1435 93.7227 39.0059 94.4329 40.1221C95.1686 41.2128 95.5364 42.4939 95.5364 43.9651V57.7393H90.8182V54.2006L91.8836 54.1245C91.3509 55.0123 90.7167 55.7607 89.9811 56.3695C89.2455 56.9529 88.4084 57.4095 87.4698 57.7393C86.5312 58.0437 85.4912 58.1959 84.3497 58.1959ZM109.208 57.9676C106.875 57.9676 105.061 57.3334 103.767 56.0651C102.499 54.7714 101.865 52.9576 101.865 50.6239V41.4919H98.2879V37.04H98.6684C99.6831 37.04 100.469 36.7737 101.028 36.241C101.586 35.7083 101.865 34.9346 101.865 33.9199V32.3218H106.849V37.04H111.605V41.4919H106.849V50.3575C106.849 51.0424 106.963 51.6259 107.192 52.1078C107.445 52.5898 107.826 52.9576 108.333 53.2113C108.866 53.465 109.538 53.5918 110.35 53.5918C110.527 53.5918 110.73 53.5791 110.959 53.5537C111.212 53.5284 111.453 53.503 111.682 53.4776V57.7393C111.326 57.79 110.921 57.8407 110.464 57.8915C110.007 57.9422 109.589 57.9676 109.208 57.9676ZM125.273 58.1959C123.218 58.1959 121.367 57.7266 119.718 56.788C118.094 55.8241 116.813 54.5304 115.875 52.9069C114.936 51.2581 114.467 49.4063 114.467 47.3516C114.467 45.2969 114.936 43.4578 115.875 41.8343C116.813 40.2109 118.094 38.9298 119.718 37.9913C121.367 37.0527 123.218 36.5834 125.273 36.5834C126.744 36.5834 128.114 36.8498 129.383 37.3825C130.651 37.8898 131.742 38.6001 132.655 39.5133C133.593 40.4011 134.266 41.4665 134.672 42.7095L130.296 44.612C129.915 43.5719 129.268 42.7348 128.355 42.1007C127.467 41.4665 126.44 41.1494 125.273 41.1494C124.182 41.1494 123.206 41.4158 122.343 41.9485C121.506 42.4812 120.847 43.2168 120.365 44.1554C119.883 45.0939 119.642 46.172 119.642 47.3896C119.642 48.6072 119.883 49.6853 120.365 50.6239C120.847 51.5625 121.506 52.2981 122.343 52.8308C123.206 53.3635 124.182 53.6298 125.273 53.6298C126.465 53.6298 127.505 53.3128 128.393 52.6786C129.281 52.0444 129.915 51.1946 130.296 50.1292L134.672 52.1078C134.266 53.2747 133.606 54.3274 132.693 55.266C131.78 56.1792 130.689 56.9022 129.421 57.4349C128.152 57.9422 126.77 58.1959 125.273 58.1959ZM138.454 57.7393V28.9353H143.438V41.1114L142.753 40.3884C143.235 39.1454 144.022 38.2069 145.112 37.5727C146.229 36.9132 147.522 36.5834 148.994 36.5834C150.516 36.5834 151.86 36.9132 153.027 37.5727C154.219 38.2322 155.145 39.1581 155.804 40.3504C156.464 41.5172 156.794 42.8744 156.794 44.4217V57.7393H151.809V45.6013C151.809 44.6881 151.632 43.9017 151.277 43.2422C150.921 42.5826 150.427 42.0753 149.793 41.7202C149.184 41.3397 148.461 41.1494 147.624 41.1494C146.812 41.1494 146.089 41.3397 145.455 41.7202C144.821 42.0753 144.326 42.5826 143.971 43.2422C143.616 43.9017 143.438 44.6881 143.438 45.6013V57.7393H138.454ZM168.19 57.7393V29.3919H187.101V33.958H173.365V41.7963H185.389V46.3623H173.365V57.7393H168.19ZM190.066 57.7393V28.9353H195.051V57.7393H190.066ZM205.932 58.1959C204.486 58.1959 203.23 57.9549 202.165 57.4729C201.099 56.9909 200.275 56.306 199.691 55.4182C199.108 54.505 198.816 53.4523 198.816 52.26C198.816 51.1185 199.07 50.1039 199.577 49.216C200.085 48.3028 200.871 47.5418 201.936 46.933C203.002 46.3242 204.346 45.893 205.97 45.6393L212.743 44.5359V48.3409L206.921 49.3302C205.932 49.5078 205.196 49.8248 204.714 50.2814C204.232 50.738 203.991 51.3342 203.991 52.0698C203.991 52.7801 204.257 53.3508 204.79 53.782C205.348 54.1879 206.033 54.3908 206.845 54.3908C207.885 54.3908 208.798 54.1752 209.584 53.744C210.396 53.2874 211.018 52.6659 211.449 51.8795C211.905 51.0932 212.134 50.2307 212.134 49.2921V43.9651C212.134 43.0773 211.779 42.3417 211.068 41.7582C210.383 41.1494 209.47 40.845 208.329 40.845C207.263 40.845 206.312 41.1367 205.475 41.7202C204.663 42.2782 204.067 43.0266 203.687 43.9651L199.615 41.9865C200.021 40.8958 200.655 39.9572 201.518 39.1708C202.406 38.3591 203.446 37.7249 204.638 37.2683C205.83 36.8117 207.124 36.5834 208.519 36.5834C210.219 36.5834 211.715 36.9005 213.009 37.5347C214.303 38.1435 215.305 39.0059 216.015 40.1221C216.751 41.2128 217.118 42.4939 217.118 43.9651V57.7393H212.4V54.2006L213.466 54.1245C212.933 55.0123 212.299 55.7607 211.563 56.3695C210.827 56.9529 209.99 57.4095 209.052 57.7393C208.113 58.0437 207.073 58.1959 205.932 58.1959ZM219.861 57.7393L227.09 47.3516L219.823 37.04H225.683L231.352 45.411H228.727L234.396 37.04H240.218L232.988 47.3516L240.18 57.7393H234.358L228.765 49.4063H231.314L225.721 57.7393H219.861ZM241.078 57.7393L248.308 47.3516L241.04 37.04H246.9L252.569 45.411H249.944L255.613 37.04H261.435L254.206 47.3516L261.397 57.7393H255.575L249.982 49.4063H252.531L246.938 57.7393H241.078ZM270.067 58.1959C268.621 58.1959 267.365 57.9549 266.3 57.4729C265.234 56.9909 264.41 56.306 263.827 55.4182C263.243 54.505 262.951 53.4523 262.951 52.26C262.951 51.1185 263.205 50.1039 263.712 49.216C264.22 48.3028 265.006 47.5418 266.072 46.933C267.137 46.3242 268.481 45.893 270.105 45.6393L276.878 44.5359V48.3409L271.056 49.3302C270.067 49.5078 269.331 49.8248 268.849 50.2814C268.367 50.738 268.126 51.3342 268.126 52.0698C268.126 52.7801 268.393 53.3508 268.925 53.782C269.483 54.1879 270.168 54.3908 270.98 54.3908C272.02 54.3908 272.933 54.1752 273.72 53.744C274.531 53.2874 275.153 52.6659 275.584 51.8795C276.041 51.0932 276.269 50.2307 276.269 49.2921V43.9651C276.269 43.0773 275.914 42.3417 275.204 41.7582C274.519 41.1494 273.605 40.845 272.464 40.845C271.399 40.845 270.447 41.1367 269.61 41.7202C268.798 42.2782 268.202 43.0266 267.822 43.9651L263.75 41.9865C264.156 40.8958 264.791 39.9572 265.653 39.1708C266.541 38.3591 267.581 37.7249 268.773 37.2683C269.965 36.8117 271.259 36.5834 272.654 36.5834C274.354 36.5834 275.85 36.9005 277.144 37.5347C278.438 38.1435 279.44 39.0059 280.15 40.1221C280.886 41.2128 281.254 42.4939 281.254 43.9651V57.7393H276.535V54.2006L277.601 54.1245C277.068 55.0123 276.434 55.7607 275.698 56.3695C274.963 56.9529 274.125 57.4095 273.187 57.7393C272.248 58.0437 271.208 58.1959 270.067 58.1959ZM293.042 57.7393V29.3919H298.217V53.1732H310.355V57.7393H293.042ZM323.1 58.1959C320.969 58.1959 319.105 57.7139 317.507 56.75C315.909 55.786 314.666 54.4796 313.778 52.8308C312.89 51.182 312.446 49.3556 312.446 47.3516C312.446 45.2715 312.89 43.4324 313.778 41.8343C314.691 40.2109 315.922 38.9298 317.469 37.9913C319.042 37.0527 320.792 36.5834 322.72 36.5834C324.343 36.5834 325.764 36.8498 326.981 37.3825C328.224 37.9152 329.277 38.6508 330.14 39.5894C331.002 40.5279 331.662 41.606 332.118 42.8236C332.575 44.0159 332.803 45.3096 332.803 46.7047C332.803 47.0599 332.778 47.4277 332.727 47.8082C332.702 48.1887 332.638 48.5185 332.537 48.7975H316.556V44.9925H329.721L327.362 46.7808C327.59 45.614 327.527 44.5739 327.172 43.6607C326.842 42.7475 326.284 42.0246 325.497 41.4919C324.736 40.9592 323.811 40.6928 322.72 40.6928C321.68 40.6928 320.754 40.9592 319.942 41.4919C319.13 41.9992 318.509 42.7602 318.078 43.7749C317.672 44.7642 317.52 45.9691 317.621 47.3896C317.52 48.658 317.684 49.7868 318.116 50.7761C318.572 51.74 319.232 52.4883 320.094 53.021C320.982 53.5537 321.997 53.8201 323.138 53.8201C324.28 53.8201 325.244 53.5791 326.03 53.0971C326.842 52.6152 327.476 51.9683 327.933 51.1566L331.966 53.1352C331.56 54.1245 330.926 54.9997 330.063 55.7607C329.201 56.5217 328.174 57.1178 326.981 57.549C325.815 57.9802 324.521 58.1959 323.1 58.1959ZM342.786 58.1959C341.34 58.1959 340.084 57.9549 339.019 57.4729C337.953 56.9909 337.129 56.306 336.545 55.4182C335.962 54.505 335.67 53.4523 335.67 52.26C335.67 51.1185 335.924 50.1039 336.431 49.216C336.939 48.3028 337.725 47.5418 338.79 46.933C339.856 46.3242 341.2 45.893 342.824 45.6393L349.597 44.5359V48.3409L343.775 49.3302C342.786 49.5078 342.05 49.8248 341.568 50.2814C341.086 50.738 340.845 51.3342 340.845 52.0698C340.845 52.7801 341.111 53.3508 341.644 53.782C342.202 54.1879 342.887 54.3908 343.699 54.3908C344.739 54.3908 345.652 54.1752 346.438 53.744C347.25 53.2874 347.872 52.6659 348.303 51.8795C348.759 51.0932 348.988 50.2307 348.988 49.2921V43.9651C348.988 43.0773 348.633 42.3417 347.922 41.7582C347.237 41.1494 346.324 40.845 345.183 40.845C344.117 40.845 343.166 41.1367 342.329 41.7202C341.517 42.2782 340.921 43.0266 340.541 43.9651L336.469 41.9865C336.875 40.8958 337.509 39.9572 338.372 39.1708C339.26 38.3591 340.3 37.7249 341.492 37.2683C342.684 36.8117 343.978 36.5834 345.373 36.5834C347.073 36.5834 348.569 36.9005 349.863 37.5347C351.157 38.1435 352.159 39.0059 352.869 40.1221C353.604 41.2128 353.972 42.4939 353.972 43.9651V57.7393H349.254V54.2006L350.319 54.1245C349.787 55.0123 349.153 55.7607 348.417 56.3695C347.681 56.9529 346.844 57.4095 345.906 57.7393C344.967 58.0437 343.927 58.1959 342.786 58.1959ZM368.206 58.1959C366.202 58.1959 364.414 57.7266 362.841 56.788C361.268 55.8241 360.025 54.5177 359.112 52.8688C358.199 51.22 357.742 49.3936 357.742 47.3896C357.742 45.3603 358.199 43.5339 359.112 41.9104C360.025 40.287 361.268 38.9932 362.841 38.0293C364.439 37.0654 366.215 36.5834 368.168 36.5834C369.741 36.5834 371.136 36.9005 372.353 37.5347C373.596 38.1435 374.573 39.0059 375.283 40.1221L374.522 41.1494V28.9353H379.507V57.7393H374.789V53.744L375.321 54.7333C374.611 55.8494 373.622 56.7119 372.353 57.3207C371.085 57.9041 369.703 58.1959 368.206 58.1959ZM368.739 53.6298C369.88 53.6298 370.882 53.3635 371.745 52.8308C372.607 52.2981 373.279 51.5625 373.761 50.6239C374.269 49.6853 374.522 48.6072 374.522 47.3896C374.522 46.1974 374.269 45.132 373.761 44.1934C373.279 43.2295 372.607 42.4812 371.745 41.9485C370.882 41.4158 369.88 41.1494 368.739 41.1494C367.623 41.1494 366.621 41.4285 365.733 41.9865C364.845 42.5192 364.147 43.2549 363.64 44.1934C363.158 45.1066 362.917 46.172 362.917 47.3896C362.917 48.6072 363.158 49.6853 363.64 50.6239C364.147 51.5625 364.845 52.2981 365.733 52.8308C366.621 53.3635 367.623 53.6298 368.739 53.6298ZM392.021 58.1959C389.814 58.1959 387.886 57.6758 386.237 56.6358C384.614 55.5704 383.497 54.1372 382.889 52.3361L386.617 50.5478C387.15 51.7147 387.886 52.6279 388.824 53.2874C389.788 53.9469 390.854 54.2767 392.021 54.2767C392.934 54.2767 393.657 54.0738 394.189 53.6679C394.722 53.262 394.989 52.7293 394.989 52.0698C394.989 51.6639 394.874 51.3342 394.646 51.0805C394.443 50.8015 394.151 50.5732 393.771 50.3956C393.416 50.1927 393.023 50.0278 392.591 49.9009L389.205 48.9497C387.455 48.4424 386.123 47.6687 385.21 46.6286C384.322 45.5886 383.878 44.3583 383.878 42.9378C383.878 41.6694 384.195 40.566 384.829 39.6274C385.489 38.6635 386.389 37.9152 387.531 37.3825C388.698 36.8498 390.029 36.5834 391.526 36.5834C393.479 36.5834 395.204 37.0527 396.701 37.9913C398.197 38.9298 399.263 40.2489 399.897 41.9485L396.092 43.7368C395.737 42.7983 395.141 42.0499 394.304 41.4919C393.467 40.9338 392.528 40.6548 391.488 40.6548C390.651 40.6548 389.991 40.845 389.509 41.2255C389.027 41.606 388.786 42.1007 388.786 42.7095C388.786 43.09 388.888 43.4197 389.091 43.6988C389.294 43.9778 389.573 44.2061 389.928 44.3837C390.308 44.5612 390.74 44.7261 391.222 44.8783L394.532 45.8676C396.231 46.375 397.538 47.136 398.451 48.1506C399.39 49.1653 399.859 50.4083 399.859 51.8795C399.859 53.1225 399.529 54.226 398.87 55.1899C398.21 56.1285 397.297 56.8641 396.13 57.3968C394.963 57.9295 393.593 58.1959 392.021 58.1959ZM404.108 57.7393V29.3919H423.019V33.958H409.283V41.7963H421.307V46.3623H409.283V57.7393H404.108ZM425.984 57.7393V37.04H430.969V57.7393H425.984ZM425.984 34.719V29.3919H430.969V34.719H425.984ZM435.571 57.7393V37.04H440.251V41.1114L439.871 40.3884C440.353 39.1454 441.139 38.2069 442.23 37.5727C443.346 36.9132 444.64 36.5834 446.111 36.5834C447.633 36.5834 448.978 36.9132 450.144 37.5727C451.337 38.2322 452.263 39.1581 452.922 40.3504C453.582 41.5172 453.911 42.8744 453.911 44.4217V57.7393H448.927V45.6013C448.927 44.6881 448.749 43.9017 448.394 43.2422C448.039 42.5826 447.544 42.0753 446.91 41.7202C446.301 41.3397 445.578 41.1494 444.741 41.1494C443.93 41.1494 443.207 41.3397 442.573 41.7202C441.938 42.0753 441.444 42.5826 441.089 43.2422C440.733 43.9017 440.556 44.6881 440.556 45.6013V57.7393H435.571ZM467.753 58.1959C465.749 58.1959 463.961 57.7266 462.388 56.788C460.815 55.8241 459.572 54.5177 458.659 52.8688C457.746 51.22 457.289 49.3936 457.289 47.3896C457.289 45.3603 457.746 43.5339 458.659 41.9104C459.572 40.287 460.815 38.9932 462.388 38.0293C463.986 37.0654 465.762 36.5834 467.715 36.5834C469.288 36.5834 470.683 36.9005 471.901 37.5347C473.143 38.1435 474.12 39.0059 474.83 40.1221L474.069 41.1494V28.9353H479.054V57.7393H474.336V53.744L474.868 54.7333C474.158 55.8494 473.169 56.7119 471.901 57.3207C470.632 57.9041 469.25 58.1959 467.753 58.1959ZM468.286 53.6298C469.427 53.6298 470.429 53.3635 471.292 52.8308C472.154 52.2981 472.826 51.5625 473.308 50.6239C473.816 49.6853 474.069 48.6072 474.069 47.3896C474.069 46.1974 473.816 45.132 473.308 44.1934C472.826 43.2295 472.154 42.4812 471.292 41.9485C470.429 41.4158 469.427 41.1494 468.286 41.1494C467.17 41.1494 466.168 41.4285 465.28 41.9865C464.392 42.5192 463.694 43.2549 463.187 44.1934C462.705 45.1066 462.464 46.172 462.464 47.3896C462.464 48.6072 462.705 49.6853 463.187 50.6239C463.694 51.5625 464.392 52.2981 465.28 52.8308C466.168 53.3635 467.17 53.6298 468.286 53.6298ZM493.508 58.1959C491.377 58.1959 489.513 57.7139 487.915 56.75C486.317 55.786 485.074 54.4796 484.186 52.8308C483.298 51.182 482.854 49.3556 482.854 47.3516C482.854 45.2715 483.298 43.4324 484.186 41.8343C485.099 40.2109 486.329 38.9298 487.877 37.9913C489.45 37.0527 491.2 36.5834 493.128 36.5834C494.751 36.5834 496.172 36.8498 497.389 37.3825C498.632 37.9152 499.685 38.6508 500.547 39.5894C501.41 40.5279 502.069 41.606 502.526 42.8236C502.983 44.0159 503.211 45.3096 503.211 46.7047C503.211 47.0599 503.186 47.4277 503.135 47.8082C503.11 48.1887 503.046 48.5185 502.945 48.7975H486.964V44.9925H500.129L497.77 46.7808C497.998 45.614 497.935 44.5739 497.58 43.6607C497.25 42.7475 496.692 42.0246 495.905 41.4919C495.144 40.9592 494.218 40.6928 493.128 40.6928C492.088 40.6928 491.162 40.9592 490.35 41.4919C489.538 41.9992 488.917 42.7602 488.486 43.7749C488.08 44.7642 487.928 45.9691 488.029 47.3896C487.928 48.658 488.092 49.7868 488.524 50.7761C488.98 51.74 489.64 52.4883 490.502 53.021C491.39 53.5537 492.405 53.8201 493.546 53.8201C494.688 53.8201 495.652 53.5791 496.438 53.0971C497.25 52.6152 497.884 51.9683 498.341 51.1566L502.374 53.1352C501.968 54.1245 501.334 54.9997 500.471 55.7607C499.609 56.5217 498.582 57.1178 497.389 57.549C496.222 57.9802 494.929 58.1959 493.508 58.1959ZM506.99 57.7393V37.04H511.67V41.6441L511.289 40.9592C511.771 39.4118 512.519 38.3337 513.534 37.7249C514.574 37.1161 515.817 36.8117 517.263 36.8117H518.481V41.2255H516.692C515.272 41.2255 514.13 41.6694 513.268 42.5573C512.405 43.4197 511.974 44.6373 511.974 46.2101V57.7393H506.99ZM528.403 57.7393V29.3919H533.577V57.7393H528.403ZM538.611 57.7393V37.04H543.291V41.1114L542.911 40.3884C543.393 39.1454 544.179 38.2069 545.27 37.5727C546.386 36.9132 547.68 36.5834 549.151 36.5834C550.673 36.5834 552.018 36.9132 553.184 37.5727C554.377 38.2322 555.303 39.1581 555.962 40.3504C556.622 41.5172 556.951 42.8744 556.951 44.4217V57.7393H551.967V45.6013C551.967 44.6881 551.789 43.9017 551.434 43.2422C551.079 42.5826 550.584 42.0753 549.95 41.7202C549.341 41.3397 548.618 41.1494 547.781 41.1494C546.97 41.1494 546.247 41.3397 545.612 41.7202C544.978 42.0753 544.484 42.5826 544.129 43.2422C543.773 43.9017 543.596 44.6881 543.596 45.6013V57.7393H538.611ZM566.027 57.7393L575.806 29.3919H582.502L592.281 57.7393H586.65L584.633 51.6512H573.675L571.62 57.7393H566.027ZM575.159 47.0852H583.149L578.431 32.9687H579.877L575.159 47.0852ZM604.243 58.1959C602.189 58.1959 600.337 57.7266 598.688 56.788C597.065 55.8241 595.784 54.5304 594.845 52.9069C593.907 51.2581 593.437 49.4063 593.437 47.3516C593.437 45.2969 593.907 43.4578 594.845 41.8343C595.784 40.2109 597.065 38.9298 598.688 37.9913C600.337 37.0527 602.189 36.5834 604.243 36.5834C605.715 36.5834 607.085 36.8498 608.353 37.3825C609.621 37.8898 610.712 38.6001 611.625 39.5133C612.564 40.4011 613.236 41.4665 613.642 42.7095L609.266 44.612C608.886 43.5719 608.239 42.7348 607.326 42.1007C606.438 41.4665 605.41 41.1494 604.243 41.1494C603.153 41.1494 602.176 41.4158 601.314 41.9485C600.477 42.4812 599.817 43.2168 599.335 44.1554C598.853 45.0939 598.612 46.172 598.612 47.3896C598.612 48.6072 598.853 49.6853 599.335 50.6239C599.817 51.5625 600.477 52.2981 601.314 52.8308C602.176 53.3635 603.153 53.6298 604.243 53.6298C605.436 53.6298 606.476 53.3128 607.364 52.6786C608.251 52.0444 608.886 51.1946 609.266 50.1292L613.642 52.1078C613.236 53.2747 612.576 54.3274 611.663 55.266C610.75 56.1792 609.659 56.9022 608.391 57.4349C607.123 57.9422 605.74 58.1959 604.243 58.1959ZM626.86 57.9676C624.527 57.9676 622.713 57.3334 621.419 56.0651C620.151 54.7714 619.517 52.9576 619.517 50.6239V41.4919H615.94V37.04H616.321C617.335 37.04 618.122 36.7737 618.68 36.241C619.238 35.7083 619.517 34.9346 619.517 33.9199V32.3218H624.501V37.04H629.258V41.4919H624.501V50.3575C624.501 51.0424 624.615 51.6259 624.844 52.1078C625.097 52.5898 625.478 52.9576 625.985 53.2113C626.518 53.465 627.19 53.5918 628.002 53.5918C628.179 53.5918 628.382 53.5791 628.611 53.5537C628.864 53.5284 629.105 53.503 629.334 53.4776V57.7393C628.979 57.79 628.573 57.8407 628.116 57.8915C627.659 57.9422 627.241 57.9676 626.86 57.9676ZM633.142 57.7393V37.04H638.126V57.7393H633.142ZM633.142 34.719V29.3919H638.126V34.719H633.142ZM652.85 58.1959C650.821 58.1959 648.969 57.7266 647.295 56.788C645.646 55.8494 644.327 54.5684 643.338 52.9449C642.374 51.3215 641.892 49.4697 641.892 47.3896C641.892 45.3096 642.374 43.4578 643.338 41.8343C644.327 40.2109 645.646 38.9298 647.295 37.9913C648.944 37.0527 650.795 36.5834 652.85 36.5834C654.879 36.5834 656.719 37.0527 658.367 37.9913C660.016 38.9298 661.323 40.2109 662.287 41.8343C663.276 43.4324 663.77 45.2842 663.77 47.3896C663.77 49.4697 663.276 51.3215 662.287 52.9449C661.297 54.5684 659.978 55.8494 658.329 56.788C656.68 57.7266 654.854 58.1959 652.85 58.1959ZM652.85 53.6298C653.966 53.6298 654.943 53.3635 655.78 52.8308C656.642 52.2981 657.315 51.5625 657.797 50.6239C658.304 49.66 658.558 48.5819 658.558 47.3896C658.558 46.172 658.304 45.1066 657.797 44.1934C657.315 43.2549 656.642 42.5192 655.78 41.9865C654.943 41.4285 653.966 41.1494 652.85 41.1494C651.709 41.1494 650.707 41.4285 649.844 41.9865C648.982 42.5192 648.297 43.2549 647.789 44.1934C647.307 45.1066 647.066 46.172 647.066 47.3896C647.066 48.5819 647.307 49.66 647.789 50.6239C648.297 51.5625 648.982 52.2981 649.844 52.8308C650.707 53.3635 651.709 53.6298 652.85 53.6298ZM667.55 57.7393V37.04H672.231V41.1114L671.85 40.3884C672.332 39.1454 673.118 38.2069 674.209 37.5727C675.325 36.9132 676.619 36.5834 678.09 36.5834C679.612 36.5834 680.957 36.9132 682.124 37.5727C683.316 38.2322 684.242 39.1581 684.901 40.3504C685.561 41.5172 685.891 42.8744 685.891 44.4217V57.7393H680.906V45.6013C680.906 44.6881 680.729 43.9017 680.373 43.2422C680.018 42.5826 679.524 42.0753 678.889 41.7202C678.281 41.3397 677.558 41.1494 676.721 41.1494C675.909 41.1494 675.186 41.3397 674.552 41.7202C673.918 42.0753 673.423 42.5826 673.068 43.2422C672.713 43.9017 672.535 44.6881 672.535 45.6013V57.7393H667.55Z" fill="white"/>
</svg>
