<svg width="406" height="72" viewBox="0 0 406 72" fill="none" xmlns="http://www.w3.org/2000/svg">
<path d="M143.84 1.3335L143.305 0.488715L143.55 0.333496H143.84V1.3335ZM85.9546 38.0002L86.4897 38.8449L86.2447 39.0002H85.9546V38.0002ZM11.3334 38.0002C11.3334 40.9457 8.94556 43.3335 6.00003 43.3335C3.0545 43.3335 0.666718 40.9457 0.666718 38.0002C0.666718 35.0546 3.0545 32.6668 6.00003 32.6668C8.94556 32.6668 11.3334 35.0546 11.3334 38.0002ZM405.773 2.3335H143.84V0.333496H405.773V2.3335ZM144.375 2.17828L86.4897 38.8449L85.4195 37.1554L143.305 0.488715L144.375 2.17828ZM85.9546 39.0002H6.00003V37.0002H85.9546V39.0002Z" fill="url(#paint0_linear_100_774)"/>
<path d="M251.84 64.6668C251.84 68.5942 248.657 71.7779 244.729 71.7779C240.802 71.7779 237.618 68.5942 237.618 64.6668C237.618 60.7395 240.802 57.5557 244.729 57.5557C248.657 57.5557 251.84 60.7395 251.84 64.6668ZM405.773 66.0001H244.729V63.3335H405.773V66.0001Z" fill="url(#paint1_linear_100_774)"/>
<defs>
<linearGradient id="paint0_linear_100_774" x1="541.681" y1="38.0002" x2="529.794" y2="116.908" gradientUnits="userSpaceOnUse">
<stop offset="0.0216666" stop-color="#78AAC5"/>
<stop offset="0.290913" stop-color="#F3808E"/>
<stop offset="0.590653" stop-color="#FCB236"/>
<stop offset="1" stop-color="#F7EEA6"/>
</linearGradient>
<linearGradient id="paint1_linear_100_774" x1="405.773" y1="65.1668" x2="244.729" y2="65.1668" gradientUnits="userSpaceOnUse">
<stop stop-color="#78AAC5"/>
<stop offset="1" stop-color="#F3808E"/>
</linearGradient>
</defs>
</svg>
