<svg width="343" height="185" viewBox="0 0 343 185" fill="none" xmlns="http://www.w3.org/2000/svg">
<path d="M35.3092 118.29L33.4417 115.705L34.9524 112.978L32.3784 113.744L31.1124 111.288L28.2351 112.583L26.1317 110.268L22.5856 111.692L21.0774 108.151L17.6036 108.131L16.8655 104.708L12.8519 104.215L14.2889 100.392L12.5957 97.8807L15.4 96.7607L17.6475 94.9159L20.0371 96.4492L22.1386 94.9529L24.4213 96.1546L26.4442 94.7484L28.7212 95.8658L31.6715 94.3972L33.303 97.2518L36.3886 96.5364L38.7279 98.5812L40.9357 96.1462L43.5954 97.9155L44.3699 95.5768L46.8659 96.1713L43.9307 94.0818L46.47 91.5398L43.9464 91.7941L42.3771 89.8669L39.8824 91.813L37.9363 89.3183L35.4132 90.8428L33.1695 88.961L30.1519 90.6881L27.7786 88.1374L23.8946 88.3137L21.0097 85.7126L18.4187 86.2255L17.9902 83.6288L15.4269 83.2928L15.5942 80.7408L12.5243 79.1685L13.7481 75.9527L11.2401 73.9192L13.3692 71.5742L10.67 69.2148L14.0531 67.8865L12.3819 64.4417L16.142 63.6809L16.359 59.3471L20.7488 59.1368L21.731 56.1066L24.9185 56.9088L27.1426 53.4564L31.0329 54.6348L28.6935 52.59L30.7441 50.3349L29.6467 47.8679L32.1251 46.9392L35.3949 43.9247L39.0386 46.4747L41.505 44.107L41.9902 47.5468L44.1389 50.5361L42.4093 53.7859L46.433 51.9064L48.7226 55.7331L52.1561 53.8933L53.1641 57.5521L55.5695 56.7976L55.998 59.3943L59.6014 60.0838L60.2665 63.6809L63.5107 65.3262L62.034 68.559L59.2524 70.0163L56.3008 68.9442L53.7388 71.1489L50.9049 69.3067L48.2919 70.7526L45.5089 69.6691L42.4517 70.8061L40.9888 67.9402L38.8477 68.8463L37.1381 67.352L35.4645 70.1745L32.2827 69.4567L34.6164 71.4172L32.0204 73.1161L34.7687 72.4233L35.0456 75.2842L38.3727 74.3832L41.2066 76.2254L43.3754 74.4705L45.2932 76.5437L47.7093 74.6875L49.6441 77.0136L52.3867 76.2365L54.6305 78.1184L59.1883 76.6265L61.0174 81.1617L63.7884 80.8062L63.3008 83.6338L66.9715 84.0647L65.0676 87.2415L67.283 88.7019L65.7384 90.9229L67.4146 93.1817L65.6114 95.3355L66.3885 98.0781L64.0454 99.76L65.3453 102.722L62.2031 102.594L60.7661 106.417L56.7475 107.11L54.9506 110.619L51.1559 109.603L49.6566 112.499L46.3571 112.551L49.3483 114.213L46.6006 116.176L48.6254 118.581L45.5116 118.875L43.748 121.619L41.5489 119.141L38.8799 121.014L35.3092 118.29ZM35.5372 47.3028L34.7671 47.1851L34.3851 47.8036L34.7734 48.5398L35.3296 47.9943L35.5372 47.3028ZM36.8428 50.3487L35.6121 50.9395L35.5398 52.3841L36.7145 52.2205L37.5123 51.4894L36.8428 50.3487ZM51.118 57.3508L50.0779 56.9972L49.3475 57.4697L49.6627 58.3801L50.6744 58.3122L51.118 57.3508ZM40.4621 60.0992L39.242 59.5883L38.7425 60.977L39.8165 61.8364L40.8673 61.0883L40.4621 60.0992ZM22.622 61.8058L21.1157 62.0764L20.4702 63.8136L22.1904 64.2062L23.3984 63.2781L22.622 61.8058ZM47.7085 62.0685L46.6187 63.4968L46.8837 64.9187L48.4069 64.9011L48.5749 63.6194L47.7085 62.0685ZM20.9133 72.9306L20.0758 73.0716L19.6882 73.6057L20.1551 74.2519L21.1555 74.0153L20.9133 72.9306ZM26.8894 74.9005L23.3086 74.5482L21.2928 78.5795L25.3467 80.9326L27.5148 77.9074L26.8894 74.9005ZM30.0858 82.1387L28.5398 81.8191L28.3045 83.3593L29.3616 83.9659L30.5979 83.4594L30.0858 82.1387ZM49.9236 84.9559L49.0521 84.591L48.5186 85.4738L49.2384 86.1029L49.8959 85.8047L49.9236 84.9559ZM62.5371 96.2195L62.0143 96.0006L61.621 96.4504L61.9136 97.0236L62.5825 96.894L62.5371 96.2195ZM61.8363 99.6543L61.1781 98.6822L60.2004 99.256L60.2683 100.268L61.3027 100.537L61.8363 99.6543ZM54.873 101.901L53.7594 100.451L52.4223 101.981L53.1315 103.711L55.1606 103.66L54.873 101.901ZM43.2783 104.543L41.4342 103.566L39.405 103.617L39.7266 105.882L41.5758 105.673L43.2783 104.543ZM95.0719 107.839L91.5145 109.094L88.3264 107.021L84.2687 108.395L81.9904 104.737L79.2534 105.598L78.8922 102.743L74.2771 102.122L74.73 97.5177L70.9913 96.075L73.3225 92.9542L74.7431 90.1486L77.4814 91.8279L80.4593 89.5105L83.8048 91.4031L86.9683 89.3274L90.4654 90.9556L93.405 90.5888L94.1877 93.4157L97.5035 92.3461L100.36 94.5255L101.005 91.518L104.013 92.1629L101.83 88.6677L105.229 86.3221L103.301 85.3506L103.749 83.2032L99.9107 84.0539L97.4191 81.003L94.5821 84.1578L90.4728 83.5022L88.377 85.0828L86.0886 83.7968L84.0941 85.6246L81.7887 84.0856L79.3557 85.6888L76.73 84.4255L74.7342 83.7126L75.9756 82.0201L72.8548 79.689L76.1926 77.6862L73.2341 73.9891L76.4756 70.5531L74.8108 68.4629L76.631 66.5621L73.6285 64.7312L76.826 63.1613L73.9468 60.6446L77.0203 58.4902L76.1866 54.9044L78.7203 52.2782L82.1085 49.7639L85.8025 51.8024L88.8024 48.5519L92.2102 51.3719L94.0921 49.1282L96.2571 51.1001L98.7349 48.901L101.569 50.7432L103.214 47.4991L105.278 50.494L107.267 47.3115L109.663 50.1995L112.911 48.1181L116.408 49.7464L119.353 50.7342L117.213 52.9106L119.536 55.9728L117.638 59.2339L117.673 62.2805L114.588 62.9959L112.014 65.032L109.276 63.3527L106.68 65.0516L103.88 63.7152L100.643 65.9653L97.2194 64.1627L95.1575 66.2491L92.8352 64.4572L93.0724 66.728L91.0156 67.6284L92.7484 70.7303L90.7432 73.6598L92.2205 71.6973L94.3346 72.9104L96.9527 70.2784L100.696 70.5351L102.804 69.1232L105.081 70.2406L106.918 68.5927L108.487 70.5199L112.202 70.355L114.913 72.883L117.953 71.4931L117.674 74.8995L122.081 74.9423L121.442 79.3045L125.08 80.4999L123.367 84.0026L125.745 85.3673L123.846 87.3581L126.371 89.6445L123.528 91.4447L125.435 94.6195L121.968 95.9535L122.987 99.7808L119.03 100.131L117.587 103.87L113.541 104.142L113.064 107.138L110.5 105.532L107.804 109.524L103.509 107.357L101.868 109.415L95.0719 107.839ZM107.371 52.6402L104.037 52.1866L103.482 55.2728L105.546 56.9973L107.125 55.2821L107.371 52.6402ZM100.426 58.9504L98.2732 58.4175L96.5876 59.8011L97.8196 61.751L99.8934 61.1035L100.426 58.9504ZM93.9186 61.6743L93.1088 60.9665L92.2437 61.9562L92.9188 63.1812L93.9809 62.6017L93.9186 61.6743ZM106.73 74.6185L105.673 74.0119L105.145 74.979L105.471 76.0581L106.635 75.7258L106.73 74.6185ZM82.6286 77.6773L80.0552 79.7134L81.0406 83.0349L84.4861 82.6341L85.0466 79.6322L82.6286 77.6773ZM107.014 81.3747L106.34 81.42L106.222 82.1902L106.914 82.3978L107.47 81.8523L107.014 81.3747ZM108.445 87.5458L107.36 86.5177L106.23 87.3558L106.411 88.7834L107.749 88.5242L108.445 87.5458ZM120.992 88.9896L118.007 88.682L115.574 90.2852L117.307 93.3871L119.998 91.8512L120.992 88.9896ZM113.506 92.2873L112.326 92.3666L111.63 93.345L112.704 94.2045L113.58 93.3834L113.506 92.2873ZM82.1325 96.7664L80.1776 99.1844L80.9377 101.674L84.0969 102.055L84.8877 98.6986L82.1325 96.7664ZM113.976 99.2852L112.83 99.8703L112.859 101.562L114.838 102.022L115.051 100.145L113.976 99.2852ZM104.388 101.538L102.69 100.213L101.713 102.057L102.484 103.445L104.434 103.483L104.388 101.538ZM132.161 105.94L130.603 104.181L132.446 102.618L129.454 99.6852L132.853 97.3395L130.412 93.7771L133.423 90.6952L134.344 88.008L137.103 87.4838L139.665 85.2791L142.499 87.1213L145.702 84.3654L149.244 86.6682L151.314 89.7474L149.146 92.7726L150.846 96.639L147.182 98.833L148.313 101.806L145.644 103.679L147.754 107.348L143.893 109.132L142.731 112.005L139.718 111.276L136.454 114.375L132.161 105.94ZM144.155 92.8538L140.719 90.8826L136.904 93.3409L138.98 97.7748L144.781 98.4014L144.155 92.8538ZM143.891 104.051L142.89 103.017L141.929 103.844L141.845 105.12L143.397 105.524L143.891 104.051ZM139.8 106.189L137.107 106.455L136.58 108.692L138.301 110.355L139.795 108.645L139.8 106.189ZM183.703 101.969L181.968 105.135L180.313 101.943L178.229 103.692L176.564 101.602L173.547 103.329L171.651 100.323L168.706 101.876L167.974 98.5372L163.393 98.4215L162.665 93.897L158.601 92.6456L159.762 88.5024L157.175 86.5588L158.585 83.5846L155.734 81.4895L158.093 78.7902L154.635 76.4817L157.669 73.7372L154.93 70.7876L157.424 67.5711L155.225 65.0934L157.613 62.8157L155.84 59.1236L159.341 57.0252L158.66 54.4455L161.245 53.8484L160.664 50.2456L164.245 50.5979L165.969 47.2638L169.696 47.2675L171.729 43.4892L175.496 45.3534L177.248 42.4409L179.851 44.6374L183.206 42.8875L186.625 44.6058L189.552 42.8L191.6 45.542L194.758 43.3819L195.766 47.0406L198.997 45.9766L199.477 49.3321L202.809 48.5154L202.271 51.8545L206.128 52.527L205.202 56.4004L208.401 57.3712L206.559 60.2051L209.056 62.0699L207.191 64.5666L210.036 66.5775L207.66 69.0238L210.926 71.0063L207.954 73.408L209.782 75.4025L208.147 77.5449L210.037 80.4669L207.942 83.3178L209.822 87.3414L206.091 89.7941L205.334 93.656L201.9 95.4958L202.104 98.5311L199.158 97.5433L199.228 101.096L196.219 99.1805L193.517 101.818L189.751 101.224L187.588 104.334L183.703 101.969ZM195.469 48.9238L193.158 47.3005L190.91 49.1454L191.929 51.7024L194.436 51.1952L195.469 48.9238ZM170.777 52.0223L170.069 51.5618L169.085 52.0513L169.817 52.8491L170.491 52.8038L170.777 52.0223ZM170.056 58.9308L167.127 58.196L165.689 60.7486L167.567 62.2316L169.731 61.6628L170.056 58.9308ZM185.174 88.5737L185.6 86.089L188.018 86.7736L187.365 84.6155L189.416 83.6307L188.364 81.8382L189.611 80.23L188.058 78.5557L189.463 76.7675L187.748 75.1889L189.236 73.3951L187.937 71.7038L189.004 69.9383L187.289 68.3597L188.687 66.4872L187.652 64.9475L188.292 63.126L186.274 62.0759L187.065 59.9902L184.862 59.9688L184.383 57.8837L182.596 59.02L181.061 57.5987L180.483 60.3476L178.021 58.9886L178.331 61.0851L176.353 61.8955L177.579 63.761L175.989 65.3076L177.12 67.0102L176.053 68.7757L177.768 70.3543L176.279 72.1482L177.241 73.8621L176.511 75.605L177.889 77.2062L176.822 78.9718L178.369 80.5617L177.139 82.4229L179.247 83.5516L178.203 85.6544L180.182 86.1143L180.486 88.1264L182.576 86.4616L185.174 88.5737ZM200.607 62.3834L196.223 62.6779L197.44 66.9155L201.145 69.1227L204.515 65.0851L200.607 62.3834ZM164.624 66.3252L163.062 67.023L162.86 69.0691L165.002 69.4334L166.322 67.6509L164.624 66.3252ZM169.415 69.5604L167.937 70.2526L167.752 72.5516L170.209 72.556L171.169 70.4589L169.415 69.5604ZM173.534 79.1927L171.51 78.0583L170.573 80.4926L172.456 82.0599L174.502 80.9909L173.534 79.1927ZM203.397 77.4405L202.11 77.1883L201.588 78.2396L202.313 78.9531L203.05 78.5649L203.397 77.4405ZM197.032 83.5425L194.003 85.1011L195.606 87.5342L198.148 88.8032L198.208 85.9196L197.032 83.5425ZM171.763 88.1196L168.81 85.7772L163.668 87.3931L165.829 93.0916L171.49 92.8807L171.763 88.1196ZM183.86 90.4406L182.241 90.2952L181.545 91.2736L181.905 92.8586L183.642 92.2338L183.86 90.4406ZM199.725 94.6257L198.707 94.6094L198.101 95.6664L199.231 96.0987L200.304 95.6878L199.725 94.6257ZM188.607 95.542L186.246 95.7006L186.14 97.9097L188.052 99.8985L189.249 97.5315L188.607 95.542ZM244.22 97.9038L242.484 101.069L240.83 97.8774L238.746 99.6266L237.081 97.5365L234.063 99.2636L232.167 96.2574L229.223 97.8103L228.49 94.4718L223.909 94.3561L223.182 89.8316L219.117 88.5802L220.279 84.4369L217.692 82.4934L219.101 79.5192L216.25 77.424L218.61 74.7248L215.152 72.4163L218.186 69.6717L215.447 66.7221L217.941 63.5057L215.742 61.0279L218.13 58.7502L216.357 55.0581L219.858 52.9597L219.176 50.3801L221.762 49.7829L221.181 46.1802L224.762 46.5325L226.486 43.1984L230.212 43.2021L232.245 39.4238L236.012 41.288L237.764 38.3755L240.368 40.5719L243.723 38.8221L247.141 40.5404L250.069 38.7345L252.116 41.4765L255.274 39.3165L256.282 42.9752L259.514 41.9112L259.993 45.2667L263.326 44.4499L262.788 47.7891L266.644 48.4616L265.719 52.3349L268.918 53.3057L267.076 56.1396L269.572 58.0045L267.707 60.5012L270.553 62.512L268.176 64.9583L271.443 66.9409L268.471 69.3426L270.298 71.3371L268.664 73.4795L270.554 76.4014L268.459 79.2523L270.338 83.276L266.607 85.7286L265.85 89.5906L262.417 91.4304L262.621 94.4656L259.675 93.4778L259.744 97.0303L256.736 95.115L254.034 97.7526L250.267 97.1587L248.105 100.268L244.22 97.9038ZM255.985 44.8584L253.674 43.2351L251.427 45.0799L252.445 47.6369L254.952 47.1298L255.985 44.8584ZM231.294 47.9569L230.585 47.4963L229.602 47.9858L230.333 48.7837L231.008 48.7383L231.294 47.9569ZM230.572 54.8654L227.643 54.1306L226.206 56.6832L228.084 58.1662L230.248 57.5974L230.572 54.8654ZM245.691 84.5083L246.117 82.0236L248.534 82.7081L247.881 80.55L249.932 79.5653L248.88 77.7727L250.127 76.1645L248.575 74.4903L249.979 72.7021L248.264 71.1235L249.753 69.3296L248.454 67.6384L249.521 65.8728L247.805 64.2942L249.204 62.4217L248.169 60.8821L248.809 59.0606L246.79 58.0105L247.582 55.9247L245.379 55.9034L244.9 53.8182L243.113 54.9546L241.578 53.5333L241 56.2822L238.537 54.9232L238.848 57.0196L236.869 57.8301L238.096 59.6956L236.506 61.2422L237.636 62.9448L236.569 64.7103L238.285 66.2889L236.796 68.0827L237.758 69.7967L237.028 71.5395L238.406 73.1408L237.339 74.9063L238.886 76.4963L237.656 78.3574L239.764 79.4862L238.72 81.5889L240.698 82.0489L241.003 84.061L243.093 82.3961L245.691 84.5083ZM261.124 58.318L256.74 58.6125L257.956 62.8501L261.661 65.0572L265.032 61.0197L261.124 58.318ZM225.141 62.2597L223.578 62.9575L223.377 65.0037L225.519 65.368L226.839 63.5854L225.141 62.2597ZM229.931 65.495L228.453 66.1871L228.269 68.4862L230.725 68.4905L231.686 66.3934L229.931 65.495ZM234.051 75.1272L232.027 73.9928L231.089 76.4272L232.973 77.9945L235.019 76.9254L234.051 75.1272ZM263.914 73.3751L262.627 73.1228L262.105 74.1742L262.83 74.8877L263.566 74.4995L263.914 73.3751ZM257.549 79.4771L254.52 81.0357L256.123 83.4687L258.664 84.7378L258.725 81.8542L257.549 79.4771ZM232.279 84.0542L229.327 81.7118L224.185 83.3276L226.346 89.0262L232.006 88.8153L232.279 84.0542ZM244.377 86.3751L242.758 86.2298L242.061 87.2082L242.422 88.7931L244.158 88.1683L244.377 86.3751ZM260.241 90.5603L259.224 90.5439L258.617 91.601L259.747 92.0332L260.821 91.6223L260.241 90.5603ZM249.123 91.4765L246.763 91.6351L246.657 93.8442L248.569 95.8331L249.765 93.466L249.123 91.4765ZM304.736 93.8384L303.001 97.0038L301.347 93.812L299.262 95.5612L297.597 93.471L294.58 95.1982L292.684 92.1919L289.739 93.7448L289.007 90.4063L284.426 90.2906L283.698 85.7661L279.634 84.5147L280.795 80.3715L278.209 78.428L279.618 75.4538L276.767 73.3586L279.126 70.6593L275.668 68.3509L278.702 65.6063L275.963 62.6567L278.457 59.4402L276.258 56.9625L278.646 54.6848L276.874 50.9927L280.374 48.8943L279.693 46.3146L282.278 45.7175L281.698 42.1147L285.278 42.467L287.002 39.1329L290.729 39.1367L292.762 35.3583L296.529 37.2226L298.281 34.31L300.885 36.5065L304.239 34.7567L307.658 36.4749L310.585 34.6691L312.633 37.4111L315.791 35.251L316.799 38.9098L320.03 37.8458L320.51 41.2012L323.843 40.3845L323.305 43.7236L327.161 44.3962L326.236 48.2695L329.434 49.2403L327.592 52.0742L330.089 53.9391L328.224 56.4357L331.069 58.4466L328.693 60.8929L331.96 62.8754L328.987 65.2771L330.815 67.2716L329.18 69.414L331.071 72.336L328.975 75.1869L330.855 79.2105L327.124 81.6632L326.367 85.5252L322.934 87.365L323.137 90.4002L320.192 89.4124L320.261 92.9648L317.253 91.0496L314.55 93.6872L310.784 93.0933L308.621 96.2028L304.736 93.8384ZM316.502 40.7929L314.191 39.1697L311.943 41.0145L312.962 43.5715L315.469 43.0643L316.502 40.7929ZM291.811 43.8914L291.102 43.4309L290.119 43.9204L290.85 44.7182L291.524 44.6729L291.811 43.8914ZM291.089 50.8L288.16 50.0651L286.722 52.6178L288.601 54.1007L290.764 53.5319L291.089 50.8ZM306.208 80.4428L306.634 77.9582L309.051 78.6427L308.398 76.4846L310.449 75.4999L309.397 73.7073L310.644 72.0991L309.092 70.4248L310.496 68.6366L308.781 67.058L310.269 65.2642L308.97 63.5729L310.037 61.8074L308.322 60.2288L309.721 58.3563L308.686 56.8167L309.326 54.9952L307.307 53.9451L308.099 51.8593L305.895 51.8379L305.416 49.7528L303.629 50.8891L302.094 49.4678L301.517 52.2168L299.054 50.8577L299.364 52.9542L297.386 53.7646L298.612 55.6302L297.022 57.1767L298.153 58.8793L297.086 60.6448L298.801 62.2235L297.312 64.0173L298.275 65.7312L297.545 67.4741L298.923 69.0754L297.856 70.8409L299.402 72.4308L298.172 74.292L300.281 75.4207L299.236 77.5235L301.215 77.9834L301.52 79.9956L303.61 78.3307L306.208 80.4428ZM321.641 54.2525L317.256 54.5471L318.473 58.7846L322.178 60.9918L325.549 56.9542L321.641 54.2525ZM285.657 58.1943L284.095 58.8921L283.894 60.9382L286.035 61.3025L287.355 59.52L285.657 58.1943ZM290.448 61.4295L288.97 62.1217L288.786 64.4207L291.242 64.4251L292.202 62.328L290.448 61.4295ZM294.567 71.0618L292.543 69.9274L291.606 72.3617L293.49 73.929L295.535 72.86L294.567 71.0618ZM324.431 69.3097L323.143 69.0574L322.621 70.1088L323.347 70.8223L324.083 70.434L324.431 69.3097ZM318.065 75.4117L315.036 76.9702L316.64 79.4033L319.181 80.6723L319.241 77.7887L318.065 75.4117ZM292.796 79.9888L289.844 77.6463L284.701 79.2622L286.863 84.9607L292.523 84.7499L292.796 79.9888ZM304.893 82.3097L303.274 82.1644L302.578 83.1428L302.938 84.7277L304.675 84.1029L304.893 82.3097ZM320.758 86.4948L319.74 86.4785L319.134 87.5355L320.264 87.9678L321.337 87.5569L320.758 86.4948ZM309.64 87.4111L307.279 87.5697L307.174 89.7788L309.086 91.7676L310.282 89.4006L309.64 87.4111Z" fill="#D9D9D9"/>
<path d="M30.2753 113.261L28.4078 110.676L29.9184 107.949L27.3444 108.715L26.0785 106.259L23.2012 107.553L21.0978 105.239L17.5517 106.663L16.0434 103.122L12.5697 103.101L11.8316 99.6787L7.81796 99.1861L9.25498 95.3631L7.56178 92.8514L10.3661 91.7314L12.6135 89.8866L15.0032 91.4199L17.1047 89.9236L19.3874 91.1253L21.4102 89.7191L23.6873 90.8365L26.6376 89.3679L28.2691 92.2225L31.3546 91.5071L33.694 93.5519L35.9018 91.1169L38.5614 92.8862L39.3359 90.5475L41.8319 91.142L38.8967 89.0525L41.4361 86.5105L38.9124 86.7648L37.3432 84.8376L34.8485 86.7837L32.9023 84.289L30.3793 85.8136L28.1356 83.9317L25.118 85.6588L22.7447 83.1081L18.8607 83.2844L15.9758 80.6833L13.3848 81.1962L12.9563 78.5995L10.3929 78.2635L10.5603 75.7115L7.49041 74.1392L8.71414 70.9234L6.20615 68.8899L8.3353 66.5449L5.63604 64.1855L9.01918 62.8572L7.348 59.4124L11.108 58.6516L11.325 54.3178L15.7149 54.1075L16.697 51.0773L19.8845 51.8795L22.1087 48.4271L25.999 49.6055L23.6596 47.5607L25.7101 45.3056L24.6128 42.8386L27.0911 41.9099L30.361 38.8954L34.0047 41.4454L36.4711 39.0777L36.9562 42.5175L39.105 45.5068L37.3754 48.7566L41.399 46.8771L43.6887 50.7038L47.1222 48.864L48.1302 52.5228L50.5356 51.7683L50.9641 54.365L54.5675 55.0545L55.2326 58.6516L58.4767 60.2969L57.0001 63.5297L54.2184 64.987L51.2669 63.9149L48.7049 66.1196L45.8709 64.2774L43.2579 65.7233L40.475 64.6398L37.4178 65.7768L35.9549 62.9109L33.8137 63.817L32.1042 62.3227L30.4306 65.1452L27.2488 64.4274L29.5825 66.3879L26.9865 68.0868L29.7348 67.394L30.0116 70.2549L33.3388 69.3539L36.1727 71.1961L38.3415 69.4412L40.2593 71.5144L42.6754 69.6582L44.6102 71.9843L47.3528 71.2073L49.5965 73.0891L54.1544 71.5972L55.9835 76.1324L58.7544 75.7769L58.2669 78.6045L61.9376 79.0354L60.0337 82.2123L62.2491 83.6726L60.7045 85.8936L62.3807 88.1524L60.5774 90.3062L61.3545 93.0488L59.0114 94.7307L60.3114 97.6922L57.1692 97.5646L55.7322 101.388L51.7135 102.081L49.9166 105.589L46.122 104.574L44.6226 107.469L41.3232 107.522L44.3144 109.184L41.5667 111.147L43.5915 113.552L40.4776 113.846L38.714 116.59L36.515 114.112L33.846 115.985L30.2753 113.261ZM30.5033 42.2735L29.7331 42.1558L29.3512 42.7744L29.7394 43.5105L30.2956 42.965L30.5033 42.2735ZM31.8089 45.3194L30.5782 45.9102L30.5058 47.3548L31.6805 47.1912L32.4783 46.4601L31.8089 45.3194ZM46.0841 52.3215L45.044 51.9679L44.3135 52.4404L44.6288 53.3508L45.6405 53.2829L46.0841 52.3215ZM35.4281 55.0699L34.2081 54.559L33.7086 55.9477L34.7826 56.8071L35.8333 56.059L35.4281 55.0699ZM17.5881 56.7765L16.0818 57.0471L15.4362 58.7843L17.1565 59.1769L18.3645 58.2488L17.5881 56.7765ZM42.6745 57.0392L41.5848 58.4675L41.8497 59.8894L43.373 59.8718L43.541 58.5901L42.6745 57.0392ZM15.8793 67.9013L15.0419 68.0423L14.6543 68.5765L15.1212 69.2226L16.1216 68.986L15.8793 67.9013ZM21.8554 69.8712L18.2747 69.5189L16.2588 73.5502L20.3127 75.9033L22.4809 72.8781L21.8554 69.8712ZM25.0518 77.1094L23.5059 76.7898L23.2706 78.3301L24.3276 78.9366L25.564 78.4301L25.0518 77.1094ZM44.8896 79.9266L44.0182 79.5617L43.4847 80.4445L44.2045 81.0736L44.862 80.7754L44.8896 79.9266ZM57.5032 91.1902L56.9803 90.9713L56.5871 91.4212L56.8797 91.9943L57.5485 91.8647L57.5032 91.1902ZM56.8023 94.625L56.1442 93.6529L55.1664 94.2267L55.2344 95.2385L56.2688 95.5078L56.8023 94.625ZM49.8391 96.8713L48.7254 95.4217L47.3884 96.9512L48.0975 98.6821L50.1267 98.6305L49.8391 96.8713ZM38.2444 99.5135L36.4002 98.5363L34.3711 98.588L34.6926 100.853L36.5418 100.644L38.2444 99.5135ZM90.038 102.809L86.4806 104.065L83.2924 101.992L79.2348 103.366L76.9564 99.7077L74.2195 100.569L73.8583 97.7138L69.2431 97.0922L69.6961 92.4884L65.9574 91.0457L68.2885 87.9249L69.7092 85.1193L72.4475 86.7986L75.4254 84.4812L78.7708 86.3738L81.9344 84.2981L85.4314 85.9264L88.371 85.5595L89.1538 88.3864L92.4696 87.3168L95.3262 89.4962L95.971 86.4887L98.9786 87.1336L96.7959 83.6384L100.195 81.2928L98.2669 80.3213L98.7155 78.1739L94.8768 79.0246L92.3851 75.9737L89.5481 79.1285L85.4389 78.4729L83.3431 80.0535L81.0547 78.7675L79.0602 80.5953L76.7548 79.0563L74.3217 80.6596L71.6961 79.3962L69.7003 78.6833L70.9417 76.9908L67.8208 74.6597L71.1587 72.6569L68.2002 68.9598L71.4417 65.5238L69.7768 63.4336L71.5971 61.5328L68.5945 59.7019L71.7921 58.132L68.9128 55.6153L71.9864 53.4609L71.1527 49.8751L73.6864 47.2489L77.0745 44.7346L80.7686 46.7731L83.7685 43.5226L87.1762 46.3426L89.0581 44.0989L91.2232 46.0708L93.7009 43.8717L96.5348 45.7139L98.1801 42.4698L100.245 45.4647L102.233 42.2822L104.629 45.1702L107.877 43.0888L111.374 44.7171L114.32 45.7049L112.179 47.8813L114.502 50.9435L112.604 54.2046L112.639 57.2512L109.554 57.9666L106.98 60.0027L104.242 58.3234L101.646 60.0223L98.846 58.6859L95.6095 60.936L92.1854 59.1334L90.1236 61.2198L87.8012 59.4279L88.0385 61.6987L85.9816 62.5991L87.7145 65.701L85.7093 68.6305L87.1866 66.668L89.3007 67.8811L91.9187 65.2491L95.6624 65.5058L97.7696 64.0939L100.047 65.2113L101.884 63.5634L103.453 65.4906L107.168 65.3257L109.879 67.8537L112.919 66.4638L112.64 69.8702L117.047 69.913L116.408 74.2752L120.046 75.4706L118.333 78.9733L120.711 80.338L118.813 82.3288L121.337 84.6152L118.494 86.4154L120.401 89.5903L116.934 90.9242L117.953 94.7515L113.996 95.1021L112.554 98.8407L108.507 99.1126L108.03 102.109L105.466 100.503L102.77 104.495L98.4748 102.327L96.8346 104.385L90.038 102.809ZM102.337 47.6109L99.0032 47.1573L98.4483 50.2435L100.512 51.968L102.091 50.2528L102.337 47.6109ZM95.3923 53.9211L93.2392 53.3882L91.5536 54.7718L92.7856 56.7217L94.8594 56.0742L95.3923 53.9211ZM88.8846 56.645L88.0749 55.9372L87.2097 56.9269L87.8849 58.1519L88.947 57.5724L88.8846 56.645ZM101.696 69.5892L100.639 68.9826L100.111 69.9497L100.437 71.0288L101.601 70.6965L101.696 69.5892ZM77.5947 72.648L75.0213 74.6841L76.0067 78.0056L79.4521 77.6048L80.0127 74.6029L77.5947 72.648ZM101.98 76.3454L101.306 76.3907L101.188 77.1609L101.88 77.3685L102.436 76.823L101.98 76.3454ZM103.411 82.5165L102.326 81.4884L101.196 82.3265L101.377 83.7541L102.715 83.4949L103.411 82.5165ZM115.958 83.9603L112.973 83.6527L110.54 85.2559L112.273 88.3578L114.964 86.8219L115.958 83.9603ZM108.472 87.258L107.292 87.3373L106.596 88.3157L107.67 89.1752L108.546 88.3541L108.472 87.258ZM77.0985 91.7371L75.1437 94.1551L75.9038 96.6448L79.0629 97.0254L79.8538 93.6693L77.0985 91.7371ZM108.943 94.2559L107.796 94.841L107.825 96.5329L109.804 96.9928L110.017 95.1153L108.943 94.2559ZM99.3543 96.5091L97.6561 95.1835L96.679 97.0276L97.4498 98.4156L99.4003 98.454L99.3543 96.5091ZM127.127 100.911L125.569 99.1521L127.412 97.5885L124.42 94.6559L127.819 92.3102L125.378 88.7478L128.389 85.6659L129.31 82.9787L132.069 82.4545L134.631 80.2498L137.465 82.092L140.668 79.3361L144.21 81.6389L146.28 84.7181L144.112 87.7433L145.812 91.6097L142.148 93.8037L143.279 96.7766L140.61 98.6498L142.72 102.319L138.859 104.103L137.697 106.976L134.684 106.247L131.42 109.346L127.127 100.911ZM139.121 87.8245L135.685 85.8533L131.87 88.3116L133.946 92.7455L139.748 93.3721L139.121 87.8245ZM138.857 99.0216L137.856 97.9879L136.895 98.8147L136.811 100.091L138.363 100.495L138.857 99.0216ZM134.766 101.16L132.073 101.425L131.546 103.663L133.267 105.326L134.761 103.616L134.766 101.16ZM178.669 96.9399L176.934 100.105L175.28 96.9136L173.195 98.6627L171.53 96.5726L168.513 98.2998L166.617 95.2935L163.672 96.8464L162.94 93.5079L158.359 93.3922L157.631 88.8677L153.567 87.6163L154.728 83.4731L152.141 81.5295L153.551 78.5553L150.7 76.4602L153.059 73.7609L149.601 71.4524L152.635 68.7079L149.896 65.7583L152.39 62.5418L150.191 60.0641L152.579 57.7864L150.806 54.0943L154.307 51.9959L153.626 49.4162L156.211 48.8191L155.63 45.2163L159.211 45.5686L160.935 42.2345L164.662 42.2382L166.695 38.4599L170.462 40.3241L172.214 37.4116L174.817 39.6081L178.172 37.8582L181.591 39.5765L184.518 37.7707L186.566 40.5127L189.724 38.3526L190.732 42.0113L193.963 40.9473L194.443 44.3028L197.775 43.4861L197.238 46.8252L201.094 47.4977L200.168 51.3711L203.367 52.3419L201.525 55.1758L204.022 57.0406L202.157 59.5373L205.002 61.5482L202.626 63.9945L205.892 65.977L202.92 68.3787L204.748 70.3732L203.113 72.5156L205.003 75.4376L202.908 78.2885L204.788 82.3121L201.057 84.7648L200.3 88.6267L196.866 90.4666L197.07 93.5018L194.124 92.514L194.194 96.0664L191.185 94.1512L188.483 96.7888L184.717 96.1949L182.554 99.3044L178.669 96.9399ZM190.435 43.8945L188.124 42.2712L185.876 44.1161L186.895 46.6731L189.402 46.1659L190.435 43.8945ZM165.743 46.993L165.035 46.5325L164.051 47.022L164.783 47.8198L165.457 47.7745L165.743 46.993ZM165.022 53.9016L162.093 53.1667L160.655 55.7194L162.533 57.2023L164.697 56.6335L165.022 53.9016ZM180.14 83.5444L180.566 81.0597L182.984 81.7443L182.331 79.5862L184.382 78.6014L183.33 76.8089L184.577 75.2007L183.025 73.5264L184.429 71.7382L182.714 70.1596L184.202 68.3658L182.903 66.6745L183.97 64.909L182.255 63.3304L183.654 61.4579L182.618 59.9183L183.258 58.0967L181.24 57.0466L182.031 54.9609L179.828 54.9395L179.349 52.8544L177.562 53.9907L176.027 52.5694L175.449 55.3183L172.987 53.9593L173.297 56.0558L171.319 56.8662L172.545 58.7317L170.955 60.2783L172.086 61.9809L171.019 63.7464L172.734 65.325L171.245 67.1189L172.207 68.8328L171.478 70.5757L172.856 72.1769L171.788 73.9425L173.335 75.5324L172.105 77.3936L174.213 78.5223L173.169 80.6251L175.148 81.085L175.452 83.0971L177.542 81.4323L180.14 83.5444ZM195.574 57.3541L191.189 57.6486L192.406 61.8862L196.111 64.0934L199.481 60.0558L195.574 57.3541ZM159.59 61.2959L158.028 61.9937L157.827 64.0398L159.968 64.4041L161.288 62.6216L159.59 61.2959ZM164.381 64.5311L162.903 65.2233L162.719 67.5223L165.175 67.5267L166.135 65.4296L164.381 64.5311ZM168.5 74.1634L166.476 73.029L165.539 75.4633L167.423 77.0306L169.468 75.9616L168.5 74.1634ZM198.364 72.4113L197.076 72.159L196.554 73.2103L197.279 73.9238L198.016 73.5356L198.364 72.4113ZM191.998 78.5132L188.969 80.0718L190.572 82.5049L193.114 83.7739L193.174 80.8903L191.998 78.5132ZM166.729 83.0904L163.776 80.7479L158.634 82.3638L160.795 88.0623L166.456 87.8514L166.729 83.0904ZM178.826 85.4113L177.207 85.2659L176.511 86.2443L176.871 87.8293L178.608 87.2045L178.826 85.4113ZM194.691 89.5964L193.673 89.5801L193.067 90.6371L194.197 91.0694L195.27 90.6585L194.691 89.5964ZM183.573 90.5127L181.212 90.6713L181.106 92.8804L183.019 94.8692L184.215 92.5022L183.573 90.5127ZM239.186 92.8745L237.45 96.04L235.796 92.8481L233.712 94.5973L232.047 92.5072L229.029 94.2343L227.133 91.2281L224.189 92.781L223.456 89.4425L218.875 89.3268L218.148 84.8023L214.083 83.5509L215.245 79.4076L212.658 77.4641L214.067 74.4899L211.216 72.3947L213.576 69.6955L210.118 67.387L213.152 64.6424L210.413 61.6928L212.907 58.4764L210.708 55.9986L213.096 53.7209L211.323 50.0289L214.824 47.9305L214.142 45.3508L216.728 44.7536L216.147 41.1509L219.728 41.5032L221.452 38.1691L225.178 38.1728L227.211 34.3945L230.978 36.2587L232.73 33.3462L235.334 35.5426L238.689 33.7928L242.107 35.5111L245.035 33.7052L247.082 36.4472L250.24 34.2872L251.248 37.9459L254.48 36.8819L254.959 40.2374L258.292 39.4206L257.754 42.7598L261.611 43.4323L260.685 47.3056L263.884 48.2764L262.042 51.1103L264.538 52.9752L262.673 55.4719L265.519 57.4827L263.142 59.9291L266.409 61.9116L263.437 64.3133L265.265 66.3078L263.63 68.4502L265.52 71.3721L263.425 74.223L265.304 78.2467L261.573 80.6993L260.816 84.5613L257.383 86.4011L257.587 89.4363L254.641 88.4485L254.71 92.001L251.702 90.0857L249 92.7234L245.233 92.1294L243.071 95.2389L239.186 92.8745ZM250.951 39.8291L248.64 38.2058L246.393 40.0506L247.412 42.6076L249.918 42.1005L250.951 39.8291ZM226.26 42.9276L225.552 42.467L224.568 42.9566L225.299 43.7544L225.974 43.709L226.26 42.9276ZM225.538 49.8361L222.61 49.1013L221.172 51.6539L223.05 53.1369L225.214 52.5681L225.538 49.8361ZM240.657 79.479L241.083 76.9943L243.5 77.6788L242.847 75.5207L244.898 74.536L243.846 72.7434L245.093 71.1352L243.541 69.461L244.945 67.6728L243.23 66.0942L244.719 64.3003L243.42 62.6091L244.487 60.8435L242.771 59.2649L244.17 57.3924L243.135 55.8528L243.775 54.0313L241.757 52.9812L242.548 50.8954L240.345 50.8741L239.866 48.7889L238.079 49.9253L236.544 48.504L235.966 51.2529L233.503 49.8939L233.814 51.9903L231.835 52.8008L233.062 54.6663L231.472 56.2129L232.602 57.9155L231.535 59.681L233.251 61.2596L231.762 63.0534L232.724 64.7674L231.994 66.5102L233.372 68.1115L232.305 69.877L233.852 71.467L232.622 73.3281L234.73 74.4569L233.686 76.5596L235.664 77.0196L235.969 79.0317L238.059 77.3668L240.657 79.479ZM256.09 53.2887L251.706 53.5832L252.922 57.8208L256.628 60.0279L259.998 55.9904L256.09 53.2887ZM220.107 57.2305L218.544 57.9282L218.343 59.9744L220.485 60.3387L221.805 58.5561L220.107 57.2305ZM224.897 60.4657L223.419 61.1578L223.235 63.4569L225.692 63.4613L226.652 61.3641L224.897 60.4657ZM229.017 70.0979L226.993 68.9635L226.055 71.3979L227.939 72.9652L229.985 71.8961L229.017 70.0979ZM258.88 68.3458L257.593 68.0935L257.071 69.1449L257.796 69.8584L258.532 69.4702L258.88 68.3458ZM252.515 74.4478L249.486 76.0064L251.089 78.4394L253.63 79.7085L253.691 76.8249L252.515 74.4478ZM227.245 79.0249L224.293 76.6825L219.151 78.2983L221.312 83.9969L226.972 83.786L227.245 79.0249ZM239.343 81.3458L237.724 81.2005L237.027 82.1789L237.388 83.7638L239.124 83.139L239.343 81.3458ZM255.207 85.531L254.19 85.5146L253.583 86.5717L254.713 87.0039L255.787 86.593L255.207 85.531ZM244.089 86.4472L241.729 86.6058L241.623 88.8149L243.535 90.8038L244.731 88.4367L244.089 86.4472ZM299.702 88.8091L297.967 91.9745L296.313 88.7827L294.228 90.5319L292.563 88.4417L289.546 90.1689L287.65 87.1626L284.705 88.7155L283.973 85.3771L279.392 85.2613L278.664 80.7368L274.6 79.4854L275.761 75.3422L273.175 73.3987L274.584 70.4245L271.733 68.3293L274.093 65.63L270.634 63.3216L273.668 60.577L270.929 57.6274L273.424 54.4109L271.224 51.9332L273.612 49.6555L271.84 45.9634L275.34 43.865L274.659 41.2853L277.244 40.6882L276.664 37.0854L280.244 37.4377L281.968 34.1036L285.695 34.1074L287.728 30.329L291.495 32.1933L293.247 29.2807L295.851 31.4772L299.206 29.7274L302.624 31.4456L305.552 29.6398L307.599 32.3818L310.757 30.2217L311.765 33.8805L314.996 32.8165L315.476 36.1719L318.809 35.3552L318.271 38.6943L322.127 39.3669L321.202 43.2402L324.4 44.211L322.558 47.0449L325.055 48.9098L323.19 51.4064L326.035 53.4173L323.659 55.8636L326.926 57.8461L323.953 60.2478L325.781 62.2423L324.147 64.3847L326.037 67.3067L323.942 70.1576L325.821 74.1812L322.09 76.6339L321.333 80.4959L317.9 82.3357L318.103 85.3709L315.158 84.3831L315.227 87.9355L312.219 86.0203L309.516 88.6579L305.75 88.064L303.587 91.1735L299.702 88.8091ZM311.468 35.7636L309.157 34.1404L306.909 35.9852L307.928 38.5422L310.435 38.035L311.468 35.7636ZM286.777 38.8621L286.068 38.4016L285.085 38.8911L285.816 39.6889L286.49 39.6436L286.777 38.8621ZM286.055 45.7707L283.126 45.0358L281.688 47.5885L283.567 49.0714L285.73 48.5026L286.055 45.7707ZM301.174 75.4136L301.6 72.9289L304.017 73.6134L303.364 71.4553L305.415 70.4706L304.363 68.678L305.61 67.0698L304.058 65.3955L305.462 63.6073L303.747 62.0287L305.236 60.2349L303.936 58.5436L305.003 56.7781L303.288 55.1995L304.687 53.327L303.652 51.7874L304.292 49.9659L302.273 48.9158L303.065 46.83L300.861 46.8086L300.382 44.7235L298.595 45.8598L297.06 44.4385L296.483 47.1875L294.02 45.8284L294.33 47.9249L292.352 48.7353L293.578 50.6009L291.988 52.1474L293.119 53.85L292.052 55.6155L293.767 57.1942L292.279 58.988L293.241 60.7019L292.511 62.4448L293.889 64.0461L292.822 65.8116L294.368 67.4015L293.138 69.2627L295.247 70.3914L294.202 72.4942L296.181 72.9541L296.486 74.9663L298.576 73.3014L301.174 75.4136ZM316.607 49.2232L312.223 49.5178L313.439 53.7553L317.144 55.9625L320.515 51.9249L316.607 49.2232ZM280.623 53.165L279.061 53.8628L278.86 55.9089L281.002 56.2732L282.322 54.4907L280.623 53.165ZM285.414 56.4002L283.936 57.0924L283.752 59.3914L286.208 59.3958L287.168 57.2987L285.414 56.4002ZM289.533 66.0325L287.509 64.8981L286.572 67.3324L288.456 68.8997L290.501 67.8307L289.533 66.0325ZM319.397 64.2804L318.109 64.0281L317.587 65.0795L318.313 65.793L319.049 65.4047L319.397 64.2804ZM313.031 70.3824L310.002 71.9409L311.606 74.374L314.147 75.643L314.207 72.7594L313.031 70.3824ZM287.762 74.9595L284.81 72.617L279.667 74.2329L281.829 79.9314L287.489 79.7206L287.762 74.9595ZM299.859 77.2804L298.24 77.1351L297.544 78.1135L297.904 79.6984L299.641 79.0736L299.859 77.2804ZM315.724 81.4655L314.706 81.4492L314.1 82.5062L315.23 82.9385L316.303 82.5276L315.724 81.4655ZM304.606 82.3818L302.245 82.5404L302.14 84.7495L304.052 86.7383L305.248 84.3713L304.606 82.3818Z" fill="black"/>
<path d="M151.667 40.6358C161.111 31.5247 183.733 17.0358 198.667 31.9692C217.333 50.6358 224.666 5.96922 250.666 23.3025C276.666 40.6358 292.666 5.96922 320 23.3025" stroke="url(#paint0_linear_201_2185)" stroke-dasharray="3.33 3.33"/>
<path d="M18.665 147.235L18.0252 146.144L18.5135 144.978L17.648 143.903L18.3638 142.75L17.6225 141.837L18.2349 140.832L17.2343 140.276L18.1516 139.591L17.0343 138.986L18.0606 138.237L17.1501 137.335L17.9318 136.32L17.0494 135.416L17.8048 134.43L17.058 133.857L17.7215 133.189L16.7697 132.516L17.6229 131.722L17.2331 130.559L18.2651 129.894L19.0657 129.161L19.9573 129.781L21.0267 128.831L22.2136 129.629L23.1553 128.886L23.6804 129.956L24.3708 130.532L23.7638 131.197L24.5767 132.332L23.923 133.566L24.5946 134.285L24.0272 135.117L24.6291 135.643L24.103 136.245L25.1714 136.966L24.2091 137.824L25.3225 138.373L24.2924 139.065L25.344 139.958L24.4213 140.983L25.2434 141.835L24.5425 142.788L25.3779 143.837L24.6922 145.016L25.4861 145.87L24.8135 146.821L25.126 147.679L24.3667 148.183L23.5058 148.864L22.5616 148.304L21.7629 149.066L20.8694 148.418L19.9768 149.47L18.665 147.235ZM18.9498 130.387L18.7014 130.063L18.2935 130.317L18.461 130.703L18.8917 130.787L18.9498 130.387ZM22.2477 130.137L21.9787 129.928L21.646 130.036L21.5936 130.521L22.105 130.543L22.2477 130.137ZM23.0272 132.039L21.9588 131.318L21.0266 132.202L21.6757 133.008L22.5576 133.062L23.0272 132.039ZM20.0816 133.739L18.9494 133.333L18.4291 134.445L19.1066 135.674L20.3304 134.912L20.0816 133.739ZM23.4839 135.465L22.5717 134.96L21.6865 135.699L22.2398 136.767L23.5052 136.625L23.4839 135.465ZM20.6042 137.302L20.3523 137.347L20.279 137.522L20.4333 137.71L20.6796 137.58L20.6042 137.302ZM20.7949 138.875L20.4188 138.759L20.15 138.975L20.2875 139.334L20.6804 139.28L20.7949 138.875ZM19.8796 139.588L19.4921 139.303L19.0804 139.501L19.1972 139.974L19.6542 140.029L19.8796 139.588ZM22.8639 140.153L21.3616 140.141L21.2363 141.651L22.4495 142.419L23.1974 141.32L22.8639 140.153ZM19.6856 142.605L19.2023 142.58L19.1198 143.039L19.4528 143.357L19.887 143.073L19.6856 142.605ZM22.5786 144.762L21.5912 144.403L21.0935 145.428L21.8706 146.453L23.0737 145.805L22.5786 144.762ZM24.0869 145.284L23.8669 145.383L23.9667 145.603L24.1999 145.701L24.2957 145.44L24.0869 145.284ZM21.2804 146.945L20.8254 146.919L20.8313 147.429L21.2958 147.596L21.6679 147.231L21.2804 146.945ZM23.0724 147.052L22.7847 146.986L22.4877 147.204L22.7849 147.411L23.0068 147.339L23.0724 147.052ZM35.8252 146.195L34.8848 145.692L35.7494 145.067L35.1058 143.92L35.5903 142.698L34.9468 141.976L35.4861 141.147L34.8651 140.338L35.3724 139.454L34.3322 138.731L35.2663 137.875L34.3915 137.084L35.1526 136.183L34.2458 135.337L35.0313 134.378L34.0757 133.649L34.9271 132.826L34.201 132.139L34.8286 131.36L33.9782 130.51L34.7073 129.555L34.9138 128.833L35.6433 128.727L36.5774 127.871L37.6458 128.592L38.8299 127.663L39.9492 128.721L41.3352 129.109L41.2326 130.533L42.4024 131.078L42.5178 132.373L43.6651 133.004L43.8933 134.292L44.8147 134.514L44.7099 135.484L45.6743 135.079L45.7082 135.162L46.2514 134.814L45.5966 133.923L46.1245 132.924L45.3699 131.813L45.9672 130.583L45.4949 129.878L45.8706 129.145L45.714 128.079L46.7839 127.979L47.7743 127.119L48.8709 127.838L49.7598 126.73L50.7606 127.711L51.5806 128.11L51.3855 129.001L52.0818 130.087L51.5371 131.257L52.1976 132.233L51.6716 133.26L52.7569 133.81L51.755 134.501L52.7615 135.566L51.9066 136.757L53.0596 137.473L52.0127 138.336L52.7557 138.853L52.0885 139.465L53.268 140.575L52.2457 141.806L53.1996 142.931L52.4049 144.175L53.0069 144.701L52.4807 145.303L52.4944 146.35L51.447 146.364L50.4414 146.998L49.3317 146.506L48.7228 147.142L48.0062 146.595L46.9946 146.72L46.7854 145.714L45.6759 145.647L45.886 144.556L45.0096 144.161L44.8605 143.208L43.8241 142.541L43.4324 141.349L42.5974 141.15L42.6233 140.27L41.7791 140.355L41.5248 139.523L41.6907 140.305L40.9782 140.664L41.4733 141.708L41.1222 142.808L41.9311 143.462L41.2189 144.246L41.8512 145.224L41.3553 146.277L40.9722 147.322L39.8834 147.141L39.1411 147.899L38.3322 147.245L37.8307 148.213L37.2041 147.321L36.7137 148.034L35.8252 146.195ZM39.6885 129.9L38.6542 129.686L38.2107 130.254L38.2526 131.3L39.486 131.104L39.6885 129.9ZM48.5092 130.044L47.4675 130.142L46.7045 131.015L47.6715 131.914L48.9649 131.345L48.5092 130.044ZM38.9716 132.725L38.1521 133.176L38.4006 133.925L39.0984 134.189L39.2221 133.501L38.9716 132.725ZM51.0322 133.019L50.0994 132.629L49.5224 133.319L49.9121 134.058L50.9087 134.133L51.0322 133.019ZM39.1215 135.378L38.8075 135.342L38.6214 135.525L38.7513 135.771L39.1481 135.773L39.1215 135.378ZM50.2004 135.398L49.2886 135.743L48.7098 136.405L49.5263 137.172L50.4454 136.515L50.2004 135.398ZM36.6201 137.784L36.2063 137.528L35.9695 137.799L35.9434 138.254L36.4548 138.277L36.6201 137.784ZM43.9497 138.085L43.2503 138.217L43.1266 138.905L43.751 139.345L44.5066 138.784L43.9497 138.085ZM40.8723 139.51L40.6806 139.608L40.6977 139.861L40.9195 139.79L41.051 139.639L40.8723 139.51ZM48.8223 139.344L46.9608 139.469L47.0408 141.504L48.7257 141.702L50.408 140.597L48.8223 139.344ZM37.2646 140.63L36.8979 140.655L37.0636 141.012L37.3909 141.245L37.5054 140.841L37.2646 140.63ZM39.2016 141.209L38.0511 141.796L37.5911 142.96L38.8247 143.189L39.6855 142.508L39.2016 141.209ZM46.959 143.237L46.6035 143.006L46.2181 143.174L46.3086 143.678L46.7843 143.589L46.959 143.237ZM50.5563 143.647L49.6952 143.903L49.7501 144.721L50.4912 145.21L50.8631 144.42L50.5563 143.647ZM48.2402 144.596L47.7998 143.946L47.0573 144.279L47.2175 144.976L47.7571 144.997L48.2402 144.596ZM82.14 144.5L80.9876 145.059L80.0245 144.217L78.8816 144.917L78.4034 143.703L77.0308 143.937L76.7124 142.57L75.3923 142.319L75.4724 140.982L74.3855 140.828L75.0338 139.935L73.9336 139.584L74.6985 138.739L73.6865 138.014L74.5002 137.052L73.7176 136.368L74.4017 135.586L73.3951 134.52L74.2783 133.328L73.5595 132.328L74.3469 131.396L74.0303 130.058L75.1035 129.164L74.8417 128.218L75.8269 128.124L75.8471 127.159L76.8136 127.208L77.0706 125.972L78.2554 126.318L78.992 125.475L80.0827 125.685L80.4357 124.613L81.1995 125.44L81.9511 124.398L82.8879 125.27L83.5758 124.544L84.2474 125.263L85.0499 124.558L85.7292 125.391L86.9718 124.91L87.8316 125.901L88.7038 125.389L88.8567 126.399L90.0806 126.061L90.164 127.302L91.1098 127.466L91.1197 128.456L92.2969 128.689L91.7466 129.774L92.2679 130.787L91.3206 131.446L90.4616 132.155L89.5155 131.567L88.8467 132.576L88.0489 131.666L87.1393 132.464L86.1029 131.797L85.0816 131.355L84.9513 130.259L83.8366 130.957L83.6085 129.669L82.7102 130.636L81.5384 130.063L81.6988 131.186L80.582 131.431L81.5622 132.527L80.4985 133.561L81.2569 134.729L80.6596 135.959L81.5457 136.919L80.8825 138.012L81.9319 138.451L81.7238 139.57L82.7126 139.107L83.1757 140.096L83.6433 139.045L84.3019 139.992L84.5515 139.069L85.473 139.29L85.119 138.237L86.1718 137.883L86.9912 137.007L88.097 137.442L88.8223 136.43L89.6764 137.336L90.5747 136.369L91.5943 137.207L92.3463 137.015L92.4539 137.773L93.3571 138.987L92.0788 139.781L92.3992 141.176L91.0362 141.551L90.6664 142.794L89.3728 142.938L88.798 144.081L87.5305 143.77L87.1287 144.958L86.1957 144.143L85.1807 145.061L82.14 144.5ZM86.9068 126.473L85.9948 126.393L85.48 127.164L86.1573 127.968L87.0859 127.453L86.9068 126.473ZM83.0355 127.045L82.3795 127.4L82.3517 128.252L83.2957 128.387L84.0304 127.516L83.0355 127.045ZM88.8251 127.194L88.5054 127.074L88.1539 127.324L88.4549 127.587L88.7933 127.565L88.8251 127.194ZM79.3492 129.106L77.0626 128.806L76.5994 131.188L78.5369 132.617L79.5475 130.792L79.3492 129.106ZM88.6326 129.388L88.0327 129.315L87.717 129.677L87.8959 130.231L88.4768 130.022L88.6326 129.388ZM90.4601 129.181L90.0108 129.239L89.7759 129.538L90.0581 129.944L90.4058 129.638L90.4601 129.181ZM76.3286 134.748L75.7514 135.013L75.7687 135.692L76.4513 135.731L76.5582 135.214L76.3286 134.748ZM79.8016 134.996L79.6099 135.094L79.4821 135.301L79.7116 135.342L79.8751 135.246L79.8016 134.996ZM78.4616 136.135L77.9333 136.283L77.8282 136.829L78.3793 137.018L78.977 136.638L78.4616 136.135ZM89.5529 138.449L88.8082 138.329L88.4984 139.2L89.326 139.711L90.0195 139.07L89.5529 138.449ZM80.8236 140.509L79.8851 140.034L79.1143 140.369L79.205 141.298L80.2732 141.594L80.8236 140.509ZM90.5539 139.855L90.1366 139.968L90.0164 140.288L90.3418 140.493L90.5523 140.252L90.5539 139.855ZM77.4673 140.734L77.112 140.928L77.2533 141.344L77.8325 141.532L77.8209 140.937L77.4673 140.734ZM86.5947 141.226L85.1504 140.813L84.4101 142.025L85.2455 143.073L86.761 142.858L86.5947 141.226ZM101.444 141.844L100.855 141.09L101.738 140.747L101.324 139.642L102.266 138.899L101.789 137.712L102.814 136.935L102.103 136.048L103.152 135.638L102.357 134.359L103.7 133.674L103.289 132.625L104.178 131.942L103.444 131.142L104.473 130.846L103.76 129.93L104.839 129.546L104.445 128.326L105.408 127.468L104.794 126.348L105.886 125.736L105.293 124.501L106.566 124.047L107.06 123.391L107.717 123.885L108.575 122.751L109.606 123.758L110.149 122.985L110.819 123.677L111.552 122.778L112.37 123.572L113.068 122.987L113.626 123.715L114.572 123.878L114.12 124.73L115.248 125.504L115.025 126.822L116.182 127.169L115.633 128.283L116.839 128.514L116.17 129.522L117.466 130.256L117.109 131.697L118.204 131.963L117.619 132.966L118.812 133.424L118.353 134.616L119.209 135.125L118.962 136.077L119.99 136.631L119.668 137.729L120.881 138.498L120.609 139.933L121.715 140.368L121.279 141.474L121.058 142.396L120.39 141.732L119.247 142.432L118.049 141.89L117.322 142.873L116.498 141.994L115.433 142.179L115.192 141.118L113.923 140.779L114.379 139.558L113.545 140.634L112.574 139.679L111.789 140.639L110.91 139.791L109.82 140.431L108.654 139.943L108.538 141.169L107.317 141.137L108.117 142.075L106.921 142.41L106.311 143.443L105.329 142.744L104.361 143.517L103.326 142.879L102.317 143.881L101.444 141.844ZM113.029 124.52L112.664 124.573L112.8 124.904L113.121 125.052L113.326 124.727L113.029 124.52ZM109.969 126.199L109.13 126.368L109.162 127.273L110.007 127.613L110.465 126.845L109.969 126.199ZM114.52 127.309L114.239 126.932L113.654 127.084L113.833 127.639L114.287 127.637L114.52 127.309ZM112.644 128.484L112.151 127.894L111.508 128.447L111.756 129.195L112.582 129.253L112.644 128.484ZM108.868 135.537L109.396 134.963L109.996 135.461L110.513 134.718L111.096 135.387L111.626 134.842L112.224 135.311L112.41 134.704L112.408 134.676L112.646 134.008L112.137 133.589L112.236 132.959L111.7 132.57L111.854 131.908L111.344 131.489L111.443 130.859L110.879 130.472L111.061 129.808L110.527 129.873L110.243 129.438L110.285 130.059L109.666 130.129L109.935 130.762L109.428 131.221L109.783 131.877L109.159 132.288L109.459 132.947L108.921 133.38L109.134 134.017L108.655 134.475L108.982 135.133L108.868 135.537ZM109.348 130.037L109.134 129.796L108.684 129.855L108.641 130.481L109.301 130.606L109.348 130.037ZM106.693 130.583L106 130.8L105.752 131.327L106.299 131.885L106.944 131.36L106.693 130.583ZM116.201 132.098L114.65 133.052L114.971 134.447L116.148 134.68L117.185 133.675L116.201 132.098ZM104.567 134.353L104.226 134.347L104.136 134.693L104.434 134.9L104.672 134.657L104.567 134.353ZM117.267 135.738L116.987 135.785L116.805 136.024L117.066 136.119L117.258 136.021L117.267 135.738ZM107.172 136.869L106.341 136.727L105.935 137.434L106.445 138.278L107.494 137.867L107.172 136.869ZM112.53 137.331L111.851 136.923L111.531 137.653L111.863 138.367L112.573 137.979L112.53 137.331ZM116.221 137.026L114.878 137.286L114.021 138.874L115.814 139.405L117.131 138.353L116.221 137.026ZM109.076 139.064L108.717 139.202L108.913 139.585L109.31 139.587L109.452 139.181L109.076 139.064ZM104.394 139.379L103.706 139.68L104.004 140.312L104.547 140.388L104.908 139.854L104.394 139.379ZM106.589 139.571L106.282 139.649L106.128 139.886L106.371 140.124L106.67 139.934L106.589 139.571ZM119.659 139.713L118.789 140.253L119.162 141.163L119.978 141.08L120.492 140.309L119.659 139.713ZM135.772 140.812L134.99 141.403L134.402 140.649L133.129 141.103L132.32 140.024L130.953 139.918L130.362 138.711L129.017 138.093L129.174 136.638L129.595 135.731L130.563 135.808L131.189 135.001L131.917 135.717L133.002 134.992L134.145 135.567L134.905 135.063L135.383 135.852L136.665 135.539L137.634 136.466L138.449 135.533L139.536 136.111L139.562 135.231L140.414 135.259L139.53 134.752L139.377 133.742L138.659 134.017L138.142 133.485L137.014 133.986L135.975 133.291L135.165 133.884L134.49 133.107L133.204 133.364L132.18 132.469L131.148 132.709L130.824 131.682L129.814 131.41L129.69 130.398L128.469 129.517L129.027 128.12L128.086 127.191L129.195 126.409L128.514 125.548L129.606 125.361L129.442 124.182L130.619 123.99L130.369 122.788L131.506 123.279L131.91 122.118L133.121 122.433L134.014 121.382L135.317 121.804L135.815 120.779L136.554 121.665L137.601 120.801L138.596 121.697L139.523 120.728L140.057 121.939L141.43 121.705L142.322 122.75L143.754 122.569L144.077 123.992L145.043 124.041L144.852 124.988L145.894 125.315L145.306 126.261L144.921 127.279L144.161 126.508L143.473 127.234L142.694 126.607L141.831 127.26L140.889 126.728L139.716 126.977L138.659 126.424L137.802 126.737L137.186 126.013L136.529 127.191L135.209 126.94L136.016 127.565L136.029 128.613L136.787 128.08L137.152 128.877L138.188 128.269L139.119 129.057L139.852 128.582L140.458 129.165L141.167 128.749L141.718 129.364L142.671 129.215L143.45 129.842L144.832 129.749L145.342 131.018L146.301 131.379L146.198 132.377L147.054 133.312L146.566 134.478L146.933 135.728L146.063 136.693L146.327 137.667L145.317 137.82L145.534 138.938L144.413 138.702L144.079 139.631L143.082 139.556L142.575 140.44L141.622 140.164L140.834 141.095L139.727 140.632L139.069 141.809L135.772 140.812ZM135.483 123.436L135.158 123.232L134.742 123.373L134.914 123.815L135.433 123.95L135.483 123.436ZM133.3 123.413L132.93 123.381L132.748 123.62L132.909 123.921L133.272 123.84L133.3 123.413ZM131.599 124.661L131.003 124.219L130.544 124.561L130.633 125.037L131.156 125.229L131.599 124.661ZM138.189 124.076L137.116 124.12L137.184 125.135L137.959 125.706L138.558 124.93L138.189 124.076ZM131.531 127.867L130.96 128.217L130.703 129.027L131.682 129.273L132.107 128.423L131.531 127.867ZM131.811 129.916L131.305 129.978L131.029 130.507L131.553 130.726L132.072 130.437L131.811 129.916ZM133.642 130.19L133.343 130.38L133.481 130.739L133.846 130.686L133.938 130.368L133.642 130.19ZM136.305 131.031L136.048 130.991L135.811 131.262L136.136 131.467L136.525 131.356L136.305 131.031ZM139.171 131.093L138.774 131.091L138.684 131.437L138.955 131.674L139.31 131.48L139.171 131.093ZM141.62 132.968L141.183 132.374L140.509 132.873L140.652 133.742L141.492 133.6L141.62 132.968ZM145.777 132.434L144.585 132.401L143.444 133.129L144.481 134.221L145.607 133.692L145.777 132.434ZM130.028 136.694L129.672 136.462L129.464 136.731L129.511 137.012L129.885 137.1L130.028 136.694ZM142.711 136.975L141.843 135.871L140.937 136.726L140.68 137.961L142.048 138.068L142.711 136.975ZM131.638 137.039L131.124 137.413L131.183 137.862L131.617 138.003L131.818 137.621L131.638 137.039ZM133.819 137.034L133.396 137.062L133.261 137.581L133.78 137.716L134.21 137.376L133.819 137.034ZM137.45 137.951L136.961 138.268L137.065 138.969L137.947 139.023L138.061 138.194L137.45 137.951ZM139.031 139.97L138.771 139.903L138.608 139.999L138.703 140.162L138.905 140.205L139.031 139.97ZM156.8 137.841L155.621 136.731L156.641 135.472L155.943 134.358L156.484 133.131L155.589 132.455L156.385 131.665L155.631 130.979L156.287 130.198L155.168 129.14L156.135 127.942L155.418 126.97L155.999 125.911L155.137 125.317L155.91 124.586L155.076 123.565L155.766 122.442L154.995 121.927L155.69 121.314L155.759 120.658L156.408 120.614L157.464 119.467L158.664 120.462L159.611 119.379L160.695 120.326L161.658 120.743L161.674 121.819L162.341 122.482L161.77 123.257L162.884 123.805L161.854 124.498L162.685 125.065L161.935 125.711L162.856 125.932L162.808 126.899L163.908 125.975L165.149 126.741L166.051 125.831L167.039 126.614L166.724 125.729L167.655 125.666L166.94 124.723L167.52 123.664L166.651 122.532L167.363 121.323L166.254 120.831L167.287 120.195L167.74 119.343L168.592 119.796L169.492 118.857L170.51 119.667L171.205 119.053L171.977 119.568L172.907 119.506L173.248 120.361L174.281 120.972L173.339 121.715L174.372 122.325L173.43 123.069L174.267 124.146L173.58 125.297L174.725 125.9L173.671 126.651L174.786 127.652L173.815 128.794L174.71 129.47L173.913 130.261L174.658 131.23L174.05 132.291L174.748 133.406L174.207 134.632L174.922 135.151L174.283 135.76L175.323 136.484L174.389 137.34L173.707 138.151L172.663 138.221L171.541 139.231L170.294 138.38L169.283 138.929L168.489 138.076L167.565 137.402L168.39 136.61L167.393 136.11L168.314 135.481L167.169 134.878L168.223 134.128L167.219 133.515L168.132 132.774L167.004 132.85L166.928 131.721L166.068 132.827L165.039 131.848L164.176 132.501L163.262 131.968L163.443 132.975L162.428 133.044L163.241 134.179L162.587 135.413L163.313 136.101L162.685 136.879L163.366 137.74L162.807 138.684L162.031 139.785L160.93 139.009L159.84 139.649L158.674 139.16L157.956 140.285L156.8 137.841ZM157.378 122.815L157.133 122.549L156.749 122.744L156.862 123.162L157.257 123.135L157.378 122.815ZM169.923 121.888L169.536 122.452L169.472 123.193L170.254 123.027L170.41 122.393L169.923 121.888ZM157.075 123.799L156.395 123.788L156.434 124.38L156.724 124.899L157.29 124.465L157.075 123.799ZM172.325 124.333L171.853 124.053L171.595 124.438L171.784 124.709L172.188 124.824L172.325 124.333ZM157.45 125.587L157.133 125.495L156.868 125.768L157.043 126.266L157.447 125.956L157.45 125.587ZM159.729 125.774L159.325 125.659L159.154 126.067L159.515 126.383L159.778 126.082L159.729 125.774ZM159.881 127.18L158.189 129.419L158.961 131.208L161.244 131.877L162.006 129.304L159.881 127.18ZM170.927 127.146L169.726 126.972L169.335 127.905L169.81 129.063L171.25 128.57L170.927 127.146ZM167.965 129.017L167.717 128.694L167.154 128.76L167.331 129.286L167.864 129.619L167.965 129.017ZM173.213 129.118L172.805 128.947L172.386 129.032L172.474 129.507L172.926 129.477L173.213 129.118ZM164.912 129.534L164.652 129.891L164.654 130.344L165.07 130.203L165.301 129.848L164.912 129.534ZM173.21 130.761L172.843 130.361L172.095 130.609L172.428 131.352L173.259 131.494L173.21 130.761ZM158.513 133.392L157.757 133.527L157.364 134.007L157.854 134.541L158.66 134.317L158.513 133.392ZM158.399 135.496L157.924 135.584L158.151 136.022L158.624 136.302L158.813 135.751L158.399 135.496ZM173.066 135.785L172.62 135.475L172.22 135.842L172.185 136.581L173.029 136.496L173.066 135.785ZM161.084 138.347L160.807 138.026L160.394 138.195L160.424 138.646L160.817 138.591L161.084 138.347ZM197.358 135.117L196.684 134.369L197.252 133.537L196.345 132.692L197.132 131.761L196.495 131.123L197.041 130.407L196.279 129.608L196.928 128.715L195.893 127.651L196.776 126.458L195.616 125.63L196.655 124.653L195.927 123.512L196.498 122.312L195.675 121.461L196.376 120.507L195.434 119.551L196.24 118.476L196.706 117.822L197.53 117.852L198.608 117.042L199.786 117.7L200.844 117.006L202.014 117.55L202.572 116.578L203.255 117.467L204.116 116.786L205.06 117.346L205.727 116.734L206.418 117.311L207.478 116.645L208.33 117.523L209.33 117.229L209.951 118.037L211.553 117.844L211.885 119.409L213.096 119.724L212.811 120.961L213.917 121.822L213.291 123.054L214.333 123.806L213.277 124.528L213.952 125.304L213.018 125.735L213.233 127.251L211.765 127.746L211.591 128.948L210.385 128.717L209.823 129.633L208.812 129.333L208.243 130.561L207.247 129.664L206.543 130.562L205.672 129.827L204.858 130.788L203.895 129.946L204.249 130.999L203.36 131.682L203.996 132.716L203.502 133.797L204.364 134.816L203.646 135.941L203.124 137.024L202.221 136.235L201.693 137.234L201.008 136.316L200.324 137.099L199.542 136.415L198.651 137.07L197.358 135.117ZM208.289 118.177L207.99 117.942L207.635 118.136L207.796 118.437L208.114 118.529L208.289 118.177ZM200.483 119.636L200.195 119.571L200.129 119.858L200.289 120.131L200.588 119.941L200.483 119.636ZM208.262 119.879L207.132 120.776L207.018 122.03L208.504 122.639L208.915 121.166L208.262 119.879ZM199.466 121.376L198.825 120.683L198.065 121.187L198.148 122.003L199.04 122.198L199.466 121.376ZM203.818 125.844L204.353 125.383L204.918 125.77L205.425 125.311L206.038 125.581L206.222 124.945L206.861 124.761L206.506 124.105L207.098 123.64L206.669 123.159L206.853 122.523L206.11 122.431L206.089 121.696L205.461 122.05L204.97 121.488L204.461 121.919L203.87 121.562L203.338 122.079L202.77 121.636L202.945 122.134L202.605 122.554L203.038 123.091L202.681 123.682L203.027 124.197L202.755 124.782L203.187 125.319L203.818 125.844ZM201.05 122.601L199.915 122.989L200.16 124.106L201.075 124.243L201.507 123.506L201.05 122.601ZM212.25 124.002L210.804 123.986L209.567 124.976L210.783 126.197L212.008 125.463L212.25 124.002ZM199.314 125.863L198.135 125.177L197.083 126.381L198.046 127.648L199.1 126.897L199.314 125.863ZM204.482 126.451L203.861 126.067L203.299 126.558L203.702 127.07L204.268 127.06L204.482 126.451ZM201.526 126.734L200.838 127.035L200.914 127.738L201.542 127.81L202.019 127.324L201.526 126.734ZM206.928 127.023L206.59 127.045L206.438 127.311L206.662 127.692L207.07 127.438L206.928 127.023ZM209.277 127.403L208.816 127.293L208.73 127.695L208.92 127.994L209.337 127.881L209.277 127.403ZM205.099 127.627L204.883 127.783L204.874 128.067L205.191 128.159L205.257 127.872L205.099 127.627ZM200.204 130.676L199.723 130.255L199.176 130.547L199.061 131.376L199.872 131.208L200.204 130.676ZM202.731 130.761L201.915 130.844L201.747 131.706L202.518 131.795L202.918 131.429L202.731 130.761ZM224.005 133.213L223.046 132.428L223.891 131.521L222.851 130.798L223.787 129.97L223.178 129.331L223.696 128.616L222.633 127.554L223.545 126.36L222.674 125.625L223.439 124.78L222.47 124.279L223.363 123.652L222.375 122.869L223.249 121.96L222.201 121.124L223.13 120.183L222.11 119.345L223.009 118.378L222.271 117.521L222.887 116.573L223.488 115.399L224.636 116.031L225.151 115.259L225.764 115.955L226.664 115.016L227.682 115.826L228.411 114.87L229.261 115.72L229.768 114.836L230.389 115.644L231.562 114.97L232.762 115.541L233.377 114.99L233.902 115.635L234.791 114.952L235.365 115.905L236.779 115.442L237.409 116.816L238.725 117.011L238.927 118.329L240.272 118.947L239.769 120.312L240.856 121.315L239.885 122.457L240.295 123.506L239.408 124.218L239.858 125.434L238.562 125.549L238.247 126.76L237.008 126.872L238.003 126.918L237.61 127.823L238.869 128.418L238.849 129.808L240.127 129.864L239.639 131.03L240.596 131.362L240.465 132.363L241.415 132.582L241.193 133.504L240.615 134.591L239.734 133.715L239.062 134.667L238.296 133.812L237.637 134.961L236.829 133.91L235.788 134.858L234.812 133.819L233.693 133.611L234.074 132.537L232.934 132.019L233.133 130.759L232.078 130.235L232.226 129.063L231.558 128.825L231.593 128.086L230.842 129.128L229.958 128.195L230.515 128.895L229.687 129.234L230.344 130.153L229.816 131.151L230.309 132.167L229.958 133.267L230.019 134.169L229.158 134.425L228.073 135.15L226.902 134.577L226.276 135.384L225.548 134.668L224.969 135.33L224.005 133.213ZM230.484 117.054L229.85 116.474L229.33 117.16L229.676 117.675L230.182 117.613L230.484 117.054ZM224.809 117.351L224.003 117.15L223.48 117.808L223.962 118.654L224.782 118.202L224.809 117.351ZM237.746 118.04L235.879 118.08L235.272 119.169L235.841 120.462L237.514 120.067L237.746 118.04ZM230.322 123.921L230.824 123.378L231.422 123.847L231.905 123.447L232.516 123.689L232.76 123.106L233.377 123.008L233.02 122.324L233.7 121.91L233.297 121.398L233.453 120.765L232.791 120.611L232.687 119.909L232.056 120.207L231.568 119.701L231.053 120.047L230.468 119.775L229.957 120.178L229.397 119.847L229.688 120.394L229.111 120.66L229.683 121.159L229.185 121.76L229.731 122.289L229.261 122.888L229.692 123.397L230.322 123.921ZM224.512 120.515L223.942 120.893L224.292 121.465L224.734 121.294L225.101 120.844L224.512 120.515ZM227.544 121.785L227.207 121.411L226.767 121.61L226.717 122.124L227.226 122.118L227.544 121.785ZM236.645 121.882L236.167 121.942L236.022 122.32L236.327 122.64L236.618 122.337L236.645 121.882ZM238.864 123.291L237.939 122.588L237.283 123.369L237.379 124.382L238.325 124.12L238.864 123.291ZM228.696 124.172L228.02 123.821L227.4 124.288L227.782 124.914L228.371 124.817L228.696 124.172ZM234.829 123.534L233.639 123.529L233.227 124.576L234.11 125.055L235.019 124.682L234.829 123.534ZM235.8 125.763L235.511 125.669L235.419 125.987L235.654 126.113L235.844 125.987L235.8 125.763ZM234.075 126.644L233.524 126.454L233.535 127.049L233.868 127.366L234.389 127.105L234.075 126.644ZM227.372 127.236L226.561 127.404L226.753 128.156L227.378 128.595L228.152 127.892L227.372 127.236ZM234.971 128.595L234.461 128.176L233.72 128.538L234.084 129.307L234.753 129.148L234.971 128.595ZM227.222 129.229L226.326 129.799L226.24 130.627L227.082 130.938L227.603 130.252L227.222 129.229ZM237.772 131.07L236.624 130.439L236.063 131.355L236.031 132.575L237.468 132.451L237.772 131.07ZM225.349 132.131L224.875 131.823L224.42 132.222L224.71 132.741L225.274 132.703L225.349 132.131ZM227.729 131.717L227.218 132.119L227.158 132.917L227.908 132.696L228.493 132.119L227.729 131.717ZM251.143 131.617L250.504 130.527L250.992 129.361L250.126 128.285L250.842 127.132L250.101 126.219L250.713 125.215L249.713 124.659L250.63 123.974L249.513 123.369L250.539 122.62L249.628 121.718L250.41 120.702L249.528 119.798L250.283 118.812L249.536 118.239L250.2 117.571L249.248 116.899L250.101 116.105L249.712 114.941L250.743 114.277L251.544 113.543L252.436 114.163L253.505 113.213L254.692 114.011L255.634 113.268L256.159 114.338L256.849 114.915L256.242 115.579L257.055 116.714L256.401 117.948L257.073 118.668L256.506 119.499L257.108 120.025L256.581 120.627L257.65 121.349L256.687 122.207L257.801 122.755L256.771 123.448L257.822 124.34L256.9 125.366L257.722 126.217L257.021 127.171L257.856 128.219L257.171 129.399L257.965 130.252L257.292 131.204L257.604 132.061L256.845 132.565L255.984 133.247L255.04 132.687L254.241 133.449L253.348 132.8L252.455 133.852L251.143 131.617ZM251.428 114.769L251.18 114.446L250.772 114.7L250.939 115.085L251.37 115.17L251.428 114.769ZM254.726 114.519L254.457 114.311L254.124 114.418L254.072 114.903L254.583 114.925L254.726 114.519ZM255.506 116.422L254.437 115.7L253.505 116.584L254.154 117.391L255.036 117.445L255.506 116.422ZM252.56 118.121L251.428 117.715L250.908 118.827L251.585 120.056L252.809 119.294L252.56 118.121ZM255.962 119.847L255.05 119.342L254.165 120.081L254.718 121.149L255.984 121.007L255.962 119.847ZM253.083 121.684L252.831 121.729L252.757 121.904L252.912 122.092L253.158 121.962L253.083 121.684ZM253.273 123.258L252.897 123.141L252.628 123.358L252.766 123.717L253.159 123.662L253.273 123.258ZM252.358 123.971L251.97 123.685L251.559 123.883L251.676 124.357L252.133 124.411L252.358 123.971ZM255.342 124.535L253.84 124.523L253.715 126.033L254.928 126.801L255.676 125.703L255.342 124.535ZM252.164 126.987L251.681 126.963L251.598 127.422L251.931 127.739L252.365 127.455L252.164 126.987ZM255.057 129.144L254.07 128.785L253.572 129.811L254.349 130.835L255.552 130.187L255.057 129.144ZM256.565 129.666L256.345 129.766L256.445 129.986L256.678 130.083L256.774 129.822L256.565 129.666ZM253.759 131.328L253.304 131.302L253.31 131.811L253.774 131.978L254.146 131.613L253.759 131.328ZM255.551 131.434L255.263 131.368L254.966 131.587L255.263 131.793L255.485 131.722L255.551 131.434ZM267.785 131.292L266.653 130.462L267.664 129.487L266.761 128.698L267.55 127.795L266.906 126.648L268.196 126.448L267.853 125.14L269.19 125.22L269.037 124.21L270.085 124.197L270.261 123.023L271.368 122.637L271.407 121.105L272.919 120.833L272.975 119.979L273.783 119.783L273.893 118.473L275.175 118.16L274.722 117.737L274.564 117.918L273.846 117.343L272.928 118.028L271.928 117.472L271.317 118.079L270.602 117.561L269.911 118.23L269.136 117.659L268.653 118.485L268.036 117.733L267.024 117.433L267.067 116.382L266.122 115.822L266.985 115.169L266.022 114.327L266.866 113.392L267.48 112.416L268.404 113.09L269.368 112.261L270.434 112.954L271.004 112.151L271.675 112.871L272.358 112.06L273.142 112.772L274.27 111.846L275.511 112.613L276.137 111.806L276.865 112.522L277.432 111.691L278.106 112.439L279.051 111.327L280.137 112.302L280.776 111.693L281.49 112.211L282.222 111.709L282.724 112.44L283.616 113.485L282.874 114.668L283.912 115.363L282.978 116.219L283.298 117.189L282.328 117.51L282.477 118.463L281.492 118.557L281.208 119.823L280.03 120.412L280.42 121.576L279.194 121.46L279.019 122.661L277.889 123.134L277.992 124.232L276.895 124.362L277.101 125.312L276.14 125.348L276.394 126.181L276.612 126.053L277.775 126.485L278.583 125.864L279.467 126.371L280.017 125.711L280.68 126.29L281.819 125.533L283.021 126.132L283.853 125.878L284.051 126.715L284.676 127.579L284.171 128.492L284.803 129.469L284.307 130.522L283.266 131.47L281.979 130.877L281.117 131.53L280.174 130.998L279.097 131.835L277.918 131.15L277.053 131.774L276.113 131.271L275.521 132.161L274.787 131.36L274.096 132.03L273.321 131.459L272.411 132.256L271.403 131.587L270.497 132.442L269.485 131.716L268.805 132.555L267.785 131.292ZM272.028 114.32L271.676 114.57L271.838 114.871L272.154 114.935L272.274 114.615L272.028 114.32ZM279.241 114.147L278.735 114.209L278.647 114.584L278.891 114.851L279.303 114.653L279.241 114.147ZM270.225 115.744L270.013 115.957L270.03 116.211L270.35 116.331L270.383 115.989L270.225 115.744ZM279.27 115.845L279.023 115.975L279.048 116.342L279.415 116.317L279.563 115.995L279.27 115.845ZM275.248 116.71L275.114 116.408L274.874 116.622L274.891 116.876L275.149 116.915L275.248 116.71ZM280.731 116.937L280.432 117.127L280.568 117.458L280.946 117.602L281.059 117.17L280.731 116.937ZM279.446 118.043L278.507 117.993L277.78 118.552L278.403 119.388L279.254 118.991L279.446 118.043ZM277.676 120.372L277.367 120.421L277.499 120.695L277.7 120.738L277.886 120.556L277.676 120.372ZM274.688 121.451L274.019 121.609L273.803 122.19L274.332 122.466L274.732 122.099L274.688 121.451ZM275.203 123.201L274.915 123.135L274.646 123.352L274.913 123.532L275.165 123.487L275.203 123.201ZM273.324 126.869L270.813 126.187L269.811 128.55L271.526 129.624L273.132 129.063L273.324 126.869ZM278.3 127.554L277.997 127.263L277.702 127.51L277.807 127.814L278.159 127.989L278.3 127.554ZM281.265 127.837L280.949 127.773L280.884 128.061L281.04 128.277L281.373 128.17L281.265 127.837ZM283.219 128.669L282.776 128.812L282.661 129.216L283.063 129.303L283.419 129.109L283.219 128.669ZM277.974 129.871L277.69 129.437L277.257 129.749L277.259 130.202L277.746 130.283L277.974 129.871ZM274.845 130.11L274.341 130.2L274.082 130.558L274.449 130.958L274.969 130.696L274.845 130.11ZM276.368 130.432L276.05 130.34L276.047 130.709L276.338 130.831L276.492 130.594L276.368 130.432ZM294.689 129.711L293.665 128.817L294.56 127.794L293.721 127.113L294.461 126.327L293.317 125.327L294.319 124.212L293.194 123.494L294.213 122.632L293.105 121.743L294.084 120.714L292.995 120.108L293.993 119.361L293.124 118.229L293.834 116.992L292.681 116.276L293.73 115.44L292.731 114.487L293.593 113.41L292.822 112.895L293.518 112.281L294.083 111.422L295.123 111.295L295.955 110.191L296.9 111.176L297.576 110.281L298.366 111.077L298.924 110.105L299.607 110.994L300.5 109.943L301.497 110.867L302.128 110.145L302.851 110.776L303.523 109.824L304.317 110.678L305.293 110.017L306.32 110.543L307.096 109.443L308.012 110.429L309.145 111.26L308.463 112.496L309.593 113.298L308.58 114.244L308.001 115.331L306.839 114.9L305.813 115.648L304.696 115.044L303.957 115.858L303.116 115.15L301.973 115.85L300.747 115.309L300.535 116.371L299.462 116.415L300.474 117.14L299.927 118.282L300.948 117.449L302.042 118.14L302.975 117.681L303.96 118.011L304.936 117.351L305.963 117.877L306.951 117.414L307.993 117.74L308.697 118.515L308.308 119.476L308.989 120.336L308.428 121.252L308.031 122.101L307.138 121.877L306.61 122.451L306.038 121.951L305.341 122.536L304.571 122.05L304.059 122.849L303.443 122.126L302.59 122.919L301.666 122.245L300.9 123.061L299.877 122.592L300.937 123.2L299.966 123.917L300.714 124.519L300.795 124.457L301.636 125.165L302.45 124.629L303.328 125.051L304.372 124.556L305.472 124.907L306.214 124.149L307.051 124.801L308.085 124.165L309.195 124.657L310.323 125.006L309.592 125.934L310.548 126.663L309.696 127.485L310.481 128.197L309.738 128.955L308.652 129.652L307.458 129.165L306.567 129.82L305.568 129.292L304.82 129.966L303.989 129.398L303.156 130.503L302.212 129.518L301.381 130.65L300.407 129.639L299.512 130.662L298.489 129.768L297.643 130.675L296.712 129.887L295.849 130.54L294.689 129.711ZM304.724 111.245L304.564 110.973L304.321 111.159L304.365 111.383L304.602 111.537L304.724 111.245ZM296.878 112.112L296.159 111.962L295.772 112.527L296.105 113.269L297.023 113.009L296.878 112.112ZM306.358 111.532L305.856 111.651L305.753 112.224L306.406 112.662L306.926 111.976L306.358 111.532ZM300.106 112.094L299.817 112L299.567 112.073L299.698 112.348L299.922 112.305L300.106 112.094ZM299.601 113.431L298.868 113.48L298.661 114.202L299.305 114.499L300.019 114.168L299.601 113.431ZM297.176 114.444L296.046 114.491L295.87 115.665L296.901 116.247L297.494 115.386L297.176 114.444ZM295.532 117.387L294.81 117.606L294.775 118.345L295.401 118.388L295.717 118.027L295.532 117.387ZM299.54 119.271L298.214 117.661L296.661 119.011L297.002 120.717L298.584 120.639L299.54 119.271ZM302.624 119.631L302.116 119.24L301.577 119.644L301.976 120.099L302.495 120.234L302.624 119.631ZM304.375 120.391L303.997 120.672L303.967 121.07L304.398 121.155L304.601 120.801L304.375 120.391ZM306.066 121.099L305.84 121.115L305.684 121.323L305.923 121.506L306.167 121.348L306.066 121.099ZM298.914 122.6L298.162 122.367L297.72 122.963L298.2 123.356L298.643 123.213L298.914 122.6ZM298.906 125.009L298.134 124.494L297.153 124.645L297.447 125.645L298.338 125.84L298.906 125.009ZM301.585 125.678L301.26 125.474L301.014 125.603L300.952 125.948L301.351 125.978L301.585 125.678ZM297.18 126.314L296.409 126.224L295.731 126.667L296.357 127.135L296.887 127.014L297.18 126.314ZM305.701 127.47L305.326 127.807L305.436 128.168L305.902 128.363L306.009 127.846L305.701 127.47ZM299.263 128.214L298.966 128.433L298.911 128.889L299.359 128.803L299.564 128.477L299.263 128.214ZM325.6 128.06L324.818 128.651L324.229 127.897L322.957 128.351L322.147 127.272L320.78 127.165L320.189 125.959L318.845 125.341L319.002 123.885L319.423 122.979L320.391 123.055L321.017 122.248L321.745 122.964L322.829 122.24L323.973 122.815L324.732 122.31L325.21 123.1L326.492 122.787L327.461 123.713L328.277 122.78L329.364 123.359L329.39 122.479L330.242 122.507L329.358 122L329.205 120.99L328.487 121.265L327.969 120.733L326.841 121.234L325.803 120.538L324.993 121.131L324.318 120.355L323.032 120.611L322.008 119.717L320.976 119.956L320.652 118.93L319.642 118.657L319.518 117.646L318.297 116.765L318.855 115.367L317.914 114.439L319.023 113.656L318.342 112.795L319.434 112.609L319.27 111.43L320.447 111.237L320.196 110.036L321.334 110.526L321.738 109.366L322.949 109.681L323.842 108.629L325.145 109.052L325.643 108.027L326.382 108.912L327.429 108.048L328.424 108.945L329.351 107.976L329.885 109.187L331.258 108.953L332.149 109.998L333.582 109.817L333.904 111.24L334.871 111.288L334.68 112.236L335.722 112.563L335.133 113.509L334.749 114.526L333.988 113.756L333.301 114.482L332.522 113.854L331.659 114.507L330.717 113.975L329.544 114.224L328.487 113.672L327.629 113.985L327.014 113.261L326.357 114.438L325.036 114.187L325.843 114.813L325.857 115.86L326.615 115.328L326.98 116.125L328.016 115.517L328.947 116.304L329.68 115.83L330.286 116.413L330.994 115.997L331.546 116.611L332.499 116.462L333.278 117.09L334.66 116.997L335.17 118.266L336.129 118.627L336.026 119.625L336.882 120.559L336.394 121.725L336.761 122.975L335.891 123.94L336.155 124.914L335.145 125.067L335.362 126.186L334.241 125.949L333.907 126.879L332.91 126.804L332.403 127.688L331.449 127.412L330.662 128.343L329.554 127.879L328.897 129.057L325.6 128.06ZM325.311 110.684L324.986 110.479L324.57 110.62L324.742 111.062L325.261 111.197L325.311 110.684ZM323.128 110.661L322.758 110.629L322.575 110.868L322.737 111.168L323.1 111.087L323.128 110.661ZM321.427 111.908L320.831 111.467L320.372 111.809L320.461 112.285L320.983 112.476L321.427 111.908ZM328.017 111.324L326.944 111.368L327.012 112.383L327.787 112.954L328.386 112.177L328.017 111.324ZM321.359 115.114L320.788 115.464L320.53 116.275L321.51 116.52L321.935 115.67L321.359 115.114ZM321.638 117.163L321.133 117.226L320.856 117.754L321.381 117.974L321.9 117.684L321.638 117.163ZM323.47 117.437L323.171 117.627L323.309 117.986L323.673 117.933L323.765 117.616L323.47 117.437ZM326.133 118.278L325.875 118.239L325.638 118.51L325.964 118.714L326.353 118.603L326.133 118.278ZM328.999 118.341L328.602 118.339L328.512 118.685L328.783 118.922L329.138 118.728L328.999 118.341ZM331.448 120.216L331.011 119.622L330.336 120.121L330.48 120.989L331.32 120.848L331.448 120.216ZM335.605 119.682L334.413 119.648L333.272 120.377L334.308 121.469L335.434 120.94L335.605 119.682ZM319.856 123.941L319.5 123.71L319.291 123.979L319.339 124.259L319.713 124.347L319.856 123.941ZM332.538 124.222L331.671 123.119L330.765 123.973L330.508 125.209L331.875 125.315L332.538 124.222ZM321.465 124.286L320.952 124.661L321.011 125.11L321.445 125.251L321.646 124.869L321.465 124.286ZM323.646 124.281L323.223 124.31L323.088 124.829L323.607 124.964L324.038 124.623L323.646 124.281ZM327.278 125.199L326.789 125.515L326.893 126.216L327.775 126.271L327.889 125.441L327.278 125.199ZM328.858 127.218L328.599 127.15L328.435 127.246L328.531 127.41L328.732 127.453L328.858 127.218Z" fill="white"/>
<path d="M195.888 149.715C175.788 150.973 142.826 153.833 124.776 155.859C104.637 158.126 76.5161 162.184 58.8525 165.334C47.1882 167.419 27.3911 171.683 24.4147 172.732C22.0175 173.588 21.7177 174.392 23.5844 174.815C24.6859 175.032 26.023 174.883 31.3555 173.934C34.8542 173.294 38.9394 172.626 40.2753 172.449C41.6949 172.269 49.3639 170.984 57.3632 169.574C73.7783 166.677 98.211 162.778 111.983 160.859C161.809 153.883 216.719 149.781 262.567 149.594C280.703 149.496 308.53 150.108 332.762 151.092C337.558 151.286 341.677 151.377 341.926 151.31C343.412 150.718 318.734 149.158 296.612 148.422C270.454 147.563 250.8 147.519 226.058 148.276C212.807 148.699 210.041 148.811 195.888 149.715Z" fill="white" fill-opacity="0.25"/>
<path d="M174.57 160.902C142.871 163.227 113.01 167.155 89.8374 172.01C81.251 173.789 76.9376 175.163 77.8084 175.819C78.678 176.448 82.6164 176.088 91.5542 174.642C96.0645 173.903 104.666 172.474 110.597 171.502C137.072 167.126 165.959 164.001 201.697 161.662C221.495 160.368 244.004 159.475 275.691 158.739C286.786 158.476 295.944 158.203 296.11 158.141C296.773 157.919 283.043 157.561 272.778 157.567C241.562 157.553 201.574 158.922 174.57 160.902Z" fill="white" fill-opacity="0.25"/>
<defs>
<linearGradient id="paint0_linear_201_2185" x1="151.667" y1="21.8094" x2="153.331" y2="47.2224" gradientUnits="userSpaceOnUse">
<stop offset="0.0216666" stop-color="#78AAC5"/>
<stop offset="0.318199" stop-color="#F3808E"/>
<stop offset="0.693895" stop-color="#FCB236"/>
<stop offset="1" stop-color="#F7EEA6"/>
</linearGradient>
</defs>
</svg>
