<svg width="452" height="109" viewBox="0 0 452 109" fill="none" xmlns="http://www.w3.org/2000/svg">
<path d="M246.125 86.0403C221.568 85.9484 181.231 86.5918 159.104 87.4033C134.417 88.3156 99.872 90.4796 78.1241 92.4384C63.7622 93.737 39.3274 96.665 35.6204 97.5115C32.634 98.2048 32.2035 98.9874 34.44 99.5347C35.7625 99.8248 37.4014 99.7657 43.9668 99.1759C48.2757 98.7727 53.3007 98.3793 54.9404 98.2931C56.6824 98.2082 66.1179 97.4402 75.9656 96.5691C96.1739 94.7796 126.219 92.5267 143.131 91.535C204.322 87.9145 271.464 87.5026 327.261 90.3885C349.335 91.5069 383.14 93.9825 412.542 96.5882C418.361 97.103 423.365 97.4707 423.674 97.4206C425.529 96.9294 395.632 93.7187 368.778 91.5015C337.023 88.8908 313.114 87.5298 282.95 86.6268C266.793 86.1605 263.418 86.0871 246.125 86.0403Z" fill="#22303A"/>
<path d="M219.275 95.774C180.518 95.9685 143.866 97.8857 115.277 101.177C104.685 102.376 99.3243 103.459 100.33 104.171C101.337 104.857 106.158 104.762 117.15 103.918C122.698 103.483 133.281 102.634 140.575 102.062C173.144 99.4701 208.545 98.2885 252.217 98.3496C276.411 98.3855 303.869 99.0039 342.481 100.394C356.001 100.875 367.166 101.216 367.373 101.165C368.198 100.988 351.522 99.711 339.033 99.029C301.055 96.9221 252.291 95.6083 219.275 95.774Z" fill="#22303A"/>
<path d="M8.44397 70V23.9079H18.0336V70H8.44397ZM26.207 70V23.9079H33.5694L58.3168 56.5126L54.3573 57.4407V23.9079H63.9469V70H56.5227L32.2083 37.1478L35.7967 36.2197V70H26.207ZM81.2005 70V61.3384H83.9846C85.8406 61.3384 87.3255 60.8228 88.4391 59.7917C89.594 58.7193 90.1715 57.3169 90.1715 55.5846V23.9079H99.7611V55.1515C99.7611 58.1212 99.1218 60.7197 97.8432 62.947C96.5645 65.1742 94.7291 66.9066 92.3369 68.1439C89.9858 69.3813 87.2018 70 83.9846 70H81.2005ZM120.146 70L104.369 23.9079H114.887L126.766 60.9053H124.662L136.541 23.9079H147.059L131.282 70H120.146ZM184.836 70.7424C181.536 70.7424 178.463 70.1444 175.617 68.9482C172.813 67.7521 170.359 66.0817 168.255 63.9369C166.151 61.7921 164.502 59.2761 163.305 56.3889C162.151 53.5017 161.573 50.3464 161.573 46.923C161.573 43.4996 162.151 40.3443 163.305 37.4571C164.46 34.5287 166.09 32.0127 168.193 29.9091C170.297 27.7644 172.751 26.1145 175.555 24.9596C178.401 23.7635 181.495 23.1655 184.836 23.1655C188.177 23.1655 191.167 23.7223 193.807 24.8359C196.488 25.9495 198.756 27.4344 200.612 29.2904C202.468 31.1465 203.788 33.2088 204.572 35.4773L196.096 39.5606C195.312 37.3334 193.93 35.4979 191.951 34.0543C190.012 32.5695 187.64 31.8271 184.836 31.8271C182.114 31.8271 179.721 32.4664 177.659 33.745C175.597 35.0236 173.988 36.7972 172.833 39.0657C171.72 41.293 171.163 43.9121 171.163 46.923C171.163 49.9339 171.72 52.5737 172.833 54.8422C173.988 57.1107 175.597 58.8843 177.659 60.1629C179.721 61.4415 182.114 62.0808 184.836 62.0808C187.64 62.0808 190.012 61.359 191.951 59.9154C193.93 58.4306 195.312 56.5745 196.096 54.3472L204.572 58.4306C203.788 60.6991 202.468 62.7614 200.612 64.6174C198.756 66.4735 196.488 67.9583 193.807 69.072C191.167 70.1856 188.177 70.7424 184.836 70.7424ZM233.802 70.7424C230.338 70.7424 227.121 70.1444 224.151 68.9482C221.181 67.7521 218.583 66.0817 216.355 63.9369C214.169 61.7508 212.458 59.2142 211.22 56.327C209.983 53.4398 209.364 50.3052 209.364 46.923C209.364 43.5409 209.962 40.4062 211.158 37.519C212.396 34.6318 214.108 32.1158 216.294 29.971C218.521 27.8262 221.119 26.1558 224.089 24.9596C227.059 23.7635 230.296 23.1655 233.802 23.1655C237.308 23.1655 240.546 23.7635 243.516 24.9596C246.485 26.1558 249.063 27.8262 251.249 29.971C253.477 32.1158 255.188 34.6318 256.384 37.519C257.622 40.4062 258.24 43.5409 258.24 46.923C258.24 50.3052 257.622 53.4398 256.384 56.327C255.147 59.2142 253.415 61.7508 251.187 63.9369C249.001 66.0817 246.424 67.7521 243.454 68.9482C240.484 70.1444 237.267 70.7424 233.802 70.7424ZM233.802 62.0808C235.906 62.0808 237.844 61.7096 239.618 60.9672C241.433 60.2248 243.021 59.1936 244.382 57.8737C245.743 56.5126 246.795 54.9041 247.537 53.048C248.28 51.1919 248.651 49.1503 248.651 46.923C248.651 44.6957 248.28 42.6747 247.537 40.8599C246.795 39.0038 245.743 37.3952 244.382 36.0341C243.021 34.673 241.433 33.6419 239.618 32.9407C237.844 32.1983 235.906 31.8271 233.802 31.8271C231.699 31.8271 229.74 32.1983 227.925 32.9407C226.151 33.6419 224.584 34.673 223.223 36.0341C221.862 37.3952 220.81 39.0038 220.068 40.8599C219.325 42.6747 218.954 44.6957 218.954 46.923C218.954 49.1503 219.325 51.1919 220.068 53.048C220.81 54.9041 221.862 56.5126 223.223 57.8737C224.584 59.1936 226.151 60.2248 227.925 60.9672C229.74 61.7096 231.699 62.0808 233.802 62.0808ZM265.042 70V23.9079H272.404L297.151 56.5126L293.192 57.4407V23.9079H302.782V70H295.357L271.043 37.1478L274.631 36.2197V70H265.042ZM319.25 70V32.2601H307.557V23.9079H340.347V32.2601H328.84V70H319.25ZM345.096 70V23.9079H376.092V32.2601H354.686V42.7159H374.855V51.0682H354.686V61.6477H376.092V70H345.096ZM398.295 70.7424C395.408 70.7424 392.686 70.2269 390.128 69.1957C387.612 68.1233 385.426 66.6178 383.57 64.6793C381.756 62.7407 380.394 60.4516 379.487 57.8119L387.344 54.2854C388.499 56.8014 390.087 58.7812 392.108 60.2248C394.171 61.6684 396.439 62.3902 398.914 62.3902C400.234 62.3902 401.368 62.1839 402.317 61.7715C403.265 61.359 404.008 60.8022 404.544 60.101C405.08 59.3586 405.348 58.4924 405.348 57.5025C405.348 56.4301 405.018 55.5227 404.358 54.7803C403.698 53.9966 402.667 53.378 401.265 52.9243L392.232 49.9546C388.561 48.7584 385.798 47.0674 383.942 44.8813C382.086 42.6541 381.157 39.9937 381.157 36.9003C381.157 34.1781 381.817 31.7858 383.137 29.7235C384.498 27.6612 386.375 26.0527 388.767 24.8978C391.201 23.7429 393.985 23.1655 397.12 23.1655C399.883 23.1655 402.44 23.6398 404.791 24.5884C407.142 25.5371 409.163 26.8776 410.854 28.6099C412.587 30.3422 413.886 32.4251 414.752 34.8586L406.957 38.3851C406.091 36.2404 404.791 34.5699 403.059 33.3738C401.327 32.1364 399.347 31.5177 397.12 31.5177C395.841 31.5177 394.707 31.7239 393.717 32.1364C392.727 32.5489 391.964 33.1469 391.428 33.9306C390.891 34.673 390.623 35.5392 390.623 36.5291C390.623 37.6015 390.974 38.5501 391.675 39.375C392.376 40.1587 393.428 40.7774 394.83 41.2311L403.678 44.077C407.39 45.2732 410.153 46.9436 411.968 49.0884C413.824 51.2332 414.752 53.8523 414.752 56.9457C414.752 59.6267 414.051 62.0189 412.649 64.1225C411.246 66.1848 409.308 67.814 406.833 69.0101C404.399 70.165 401.554 70.7424 398.295 70.7424ZM429.877 70V32.2601H418.183V23.9079H450.974V32.2601H439.466V70H429.877Z" fill="url(#paint0_linear_201_1955)"/>
<path d="M4.44397 66V19.9079H14.0336V66H4.44397ZM22.207 66V19.9079H29.5694L54.3168 52.5126L50.3573 53.4407V19.9079H59.9469V66H52.5227L28.2083 33.1478L31.7967 32.2197V66H22.207ZM77.2005 66V57.3384H79.9846C81.8406 57.3384 83.3255 56.8228 84.4391 55.7917C85.594 54.7193 86.1715 53.3169 86.1715 51.5846V19.9079H95.7611V51.1515C95.7611 54.1212 95.1218 56.7197 93.8432 58.947C92.5645 61.1742 90.7291 62.9066 88.3369 64.1439C85.9858 65.3813 83.2018 66 79.9846 66H77.2005ZM116.146 66L100.369 19.9079H110.887L122.766 56.9053H120.662L132.541 19.9079H143.059L127.282 66H116.146ZM180.836 66.7424C177.536 66.7424 174.463 66.1444 171.617 64.9482C168.813 63.7521 166.359 62.0817 164.255 59.9369C162.151 57.7921 160.502 55.2761 159.305 52.3889C158.151 49.5017 157.573 46.3464 157.573 42.923C157.573 39.4996 158.151 36.3443 159.305 33.4571C160.46 30.5287 162.09 28.0127 164.193 25.9091C166.297 23.7644 168.751 22.1145 171.555 20.9596C174.401 19.7635 177.495 19.1655 180.836 19.1655C184.177 19.1655 187.167 19.7223 189.807 20.8359C192.488 21.9495 194.756 23.4344 196.612 25.2904C198.468 27.1465 199.788 29.2088 200.572 31.4773L192.096 35.5606C191.312 33.3334 189.93 31.4979 187.951 30.0543C186.012 28.5695 183.64 27.8271 180.836 27.8271C178.114 27.8271 175.721 28.4664 173.659 29.745C171.597 31.0236 169.988 32.7972 168.833 35.0657C167.72 37.293 167.163 39.9121 167.163 42.923C167.163 45.9339 167.72 48.5737 168.833 50.8422C169.988 53.1107 171.597 54.8843 173.659 56.1629C175.721 57.4415 178.114 58.0808 180.836 58.0808C183.64 58.0808 186.012 57.359 187.951 55.9154C189.93 54.4306 191.312 52.5745 192.096 50.3472L200.572 54.4306C199.788 56.6991 198.468 58.7614 196.612 60.6174C194.756 62.4735 192.488 63.9583 189.807 65.072C187.167 66.1856 184.177 66.7424 180.836 66.7424ZM229.802 66.7424C226.338 66.7424 223.121 66.1444 220.151 64.9482C217.181 63.7521 214.583 62.0817 212.355 59.9369C210.169 57.7508 208.458 55.2142 207.22 52.327C205.983 49.4398 205.364 46.3052 205.364 42.923C205.364 39.5409 205.962 36.4062 207.158 33.519C208.396 30.6318 210.108 28.1158 212.294 25.971C214.521 23.8262 217.119 22.1558 220.089 20.9596C223.059 19.7635 226.296 19.1655 229.802 19.1655C233.308 19.1655 236.546 19.7635 239.516 20.9596C242.485 22.1558 245.063 23.8262 247.249 25.971C249.477 28.1158 251.188 30.6318 252.384 33.519C253.622 36.4062 254.24 39.5409 254.24 42.923C254.24 46.3052 253.622 49.4398 252.384 52.327C251.147 55.2142 249.415 57.7508 247.187 59.9369C245.001 62.0817 242.424 63.7521 239.454 64.9482C236.484 66.1444 233.267 66.7424 229.802 66.7424ZM229.802 58.0808C231.906 58.0808 233.844 57.7096 235.618 56.9672C237.433 56.2248 239.021 55.1936 240.382 53.8737C241.743 52.5126 242.795 50.9041 243.537 49.048C244.28 47.1919 244.651 45.1503 244.651 42.923C244.651 40.6957 244.28 38.6747 243.537 36.8599C242.795 35.0038 241.743 33.3952 240.382 32.0341C239.021 30.673 237.433 29.6419 235.618 28.9407C233.844 28.1983 231.906 27.8271 229.802 27.8271C227.699 27.8271 225.74 28.1983 223.925 28.9407C222.151 29.6419 220.584 30.673 219.223 32.0341C217.862 33.3952 216.81 35.0038 216.068 36.8599C215.325 38.6747 214.954 40.6957 214.954 42.923C214.954 45.1503 215.325 47.1919 216.068 49.048C216.81 50.9041 217.862 52.5126 219.223 53.8737C220.584 55.1936 222.151 56.2248 223.925 56.9672C225.74 57.7096 227.699 58.0808 229.802 58.0808ZM261.042 66V19.9079H268.404L293.151 52.5126L289.192 53.4407V19.9079H298.782V66H291.357L267.043 33.1478L270.631 32.2197V66H261.042ZM315.25 66V28.2601H303.557V19.9079H336.347V28.2601H324.84V66H315.25ZM341.096 66V19.9079H372.092V28.2601H350.686V38.7159H370.855V47.0682H350.686V57.6477H372.092V66H341.096ZM394.295 66.7424C391.408 66.7424 388.686 66.2269 386.128 65.1957C383.612 64.1233 381.426 62.6178 379.57 60.6793C377.756 58.7407 376.394 56.4516 375.487 53.8119L383.344 50.2854C384.499 52.8014 386.087 54.7812 388.108 56.2248C390.171 57.6684 392.439 58.3902 394.914 58.3902C396.234 58.3902 397.368 58.1839 398.317 57.7715C399.265 57.359 400.008 56.8022 400.544 56.101C401.08 55.3586 401.348 54.4924 401.348 53.5025C401.348 52.4301 401.018 51.5227 400.358 50.7803C399.698 49.9966 398.667 49.378 397.265 48.9243L388.232 45.9546C384.561 44.7584 381.798 43.0674 379.942 40.8813C378.086 38.6541 377.157 35.9937 377.157 32.9003C377.157 30.1781 377.817 27.7858 379.137 25.7235C380.498 23.6612 382.375 22.0527 384.767 20.8978C387.201 19.7429 389.985 19.1655 393.12 19.1655C395.883 19.1655 398.44 19.6398 400.791 20.5884C403.142 21.5371 405.163 22.8776 406.854 24.6099C408.587 26.3422 409.886 28.4251 410.752 30.8586L402.957 34.3851C402.091 32.2404 400.791 30.5699 399.059 29.3738C397.327 28.1364 395.347 27.5177 393.12 27.5177C391.841 27.5177 390.707 27.7239 389.717 28.1364C388.727 28.5489 387.964 29.1469 387.428 29.9306C386.891 30.673 386.623 31.5392 386.623 32.5291C386.623 33.6015 386.974 34.5501 387.675 35.375C388.376 36.1587 389.428 36.7774 390.83 37.2311L399.678 40.077C403.39 41.2732 406.153 42.9436 407.968 45.0884C409.824 47.2332 410.752 49.8523 410.752 52.9457C410.752 55.6267 410.051 58.0189 408.649 60.1225C407.246 62.1848 405.308 63.814 402.833 65.0101C400.399 66.165 397.554 66.7424 394.295 66.7424ZM425.877 66V28.2601H414.183V19.9079H446.974V28.2601H435.466V66H425.877Z" fill="#22303A"/>
<defs>
<linearGradient id="paint0_linear_201_1955" x1="4.00001" y1="17.0447" x2="12.5985" y2="111.093" gradientUnits="userSpaceOnUse">
<stop offset="0.0216666" stop-color="#78AAC5"/>
<stop offset="0.318199" stop-color="#F3808E"/>
<stop offset="0.693895" stop-color="#FCB236"/>
<stop offset="1" stop-color="#F7EEA6"/>
</linearGradient>
</defs>
</svg>
