<svg width="331" height="138" viewBox="0 0 331 138" fill="none" xmlns="http://www.w3.org/2000/svg">
<path d="M28.7893 97.8481L27.0993 95.144L28.7893 92.5245L26.1698 93.116L25.0712 90.5809L22.1137 91.6795L20.1702 89.2289L16.5366 90.4119L15.2691 86.7784L11.8045 86.5249L11.2975 83.0603L7.32591 82.2998L9.01594 78.5817L7.49491 75.9622L10.368 75.0326L12.734 73.3426L15.0156 75.0326L17.2126 73.6806L19.4096 75.0326L21.5222 73.7651L23.7192 75.0326L26.7613 73.7651L28.1978 76.7227L31.3244 76.2157L33.5214 78.4127L35.8875 76.1312L38.4225 78.0747L39.352 75.7932L41.8026 76.5537L39.014 74.2721L41.7181 71.9061L39.183 71.9906L37.7465 69.9625L35.1269 71.7371L33.3524 69.1175L30.7329 70.4696L28.6203 68.4415L25.4938 69.9625L23.2967 67.2585L19.4096 67.174L16.7056 64.3854L14.086 64.7234L13.8325 62.1039L11.2975 61.5969L11.6355 59.0618L8.67794 57.2873L10.1145 54.1607L7.74842 51.9637L10.03 49.7667L7.49491 47.2316L10.9595 46.1331L9.52295 42.584L13.3255 42.077L13.8325 37.7674L18.2266 37.8519L19.4096 34.8944L22.5362 35.9084L24.9867 32.6128L28.7893 34.0494L26.5923 31.8523L28.7893 29.7398L27.8598 27.2047L30.3949 26.4442L33.8594 23.6557L37.324 26.4442L39.9435 24.2472L40.197 27.7117L42.1406 30.8383L40.197 33.9649L44.3376 32.3593L46.3657 36.3309L49.9147 34.7254L50.6752 38.4434L53.1258 37.8519L53.3793 40.4715L56.9284 41.401L57.3509 45.0346L60.4774 46.8936L58.7874 50.0202L55.9143 51.2877L53.0413 50.0202L50.3372 52.0482L47.6332 50.0202L44.9291 51.2877L42.2251 50.0202L39.0985 50.9497L37.831 47.9921L35.634 48.7526L34.0284 47.1471L32.1694 49.8512L29.0428 48.9216L31.2399 51.0342L28.5358 52.5552L31.3244 52.0482L31.4089 54.9213L34.7889 54.2452L37.493 56.2733L39.7745 54.6677L41.5491 56.8648L44.0841 55.1748L45.8586 57.6253L48.6472 57.0338L50.7597 59.0618L55.4073 57.8788L56.9284 62.5264L59.7169 62.3574L59.0409 65.1459L62.6745 65.822L60.5619 68.864L62.6745 70.4696L60.9844 72.5821L62.5055 74.9481L60.5619 76.9762L61.1534 79.7647L58.7029 81.2858L59.8014 84.3278L56.6749 83.9898L54.9848 87.7079L50.9287 88.1304L48.9007 91.5105L45.1826 90.2429L43.4926 93.0315L40.197 92.8625L43.0701 94.7215L40.197 96.496L42.0561 99.0311L38.9295 99.1156L36.986 101.735L34.9579 99.1156L32.1694 100.806L28.7893 97.8481ZM33.7749 27.0357L33.0144 26.8667L32.5919 27.4582L32.9299 28.2187L33.5214 27.7117L33.7749 27.0357ZM34.8734 30.1623L33.6059 30.6693L33.4369 32.1058L34.6199 32.0213L35.4649 31.3453L34.8734 30.1623ZM48.6472 38.1054L47.6332 37.6829L46.8727 38.1054L47.1262 39.0349H48.1402L48.6472 38.1054ZM37.831 40.1335L36.648 39.542L36.0565 40.894L37.0705 41.8235L38.169 41.1475L37.831 40.1335ZM19.9167 40.6405L18.3956 40.8095L17.6351 42.4995L19.3251 43.0065L20.5927 42.1615L19.9167 40.6405ZM44.9291 42.584L43.7461 43.936L43.9151 45.3726L45.4361 45.4571L45.6896 44.1895L44.9291 42.584ZM17.4661 51.6257L16.6211 51.7102L16.1986 52.2172L16.6211 52.8932L17.6351 52.7242L17.4661 51.6257ZM23.2967 53.9917L19.7476 53.4002L17.4661 57.2873L21.3532 59.9069L23.7192 57.0338L23.2967 53.9917ZM26.0008 61.4279L24.4797 61.0054L24.1417 62.5264L25.1558 63.2024L26.4233 62.7799L26.0008 61.4279ZM45.6051 65.5685L44.7601 65.1459L44.1686 65.991L44.8446 66.667L45.5206 66.4135L45.6051 65.5685ZM57.4354 77.6522L56.9284 77.3987L56.5058 77.8212L56.7594 78.4127L57.4354 78.3282V77.6522ZM56.5058 81.0323L55.9143 80.0182L54.9003 80.5252V81.5393L55.9143 81.8773L56.5058 81.0323ZM49.4077 82.8068L48.3937 81.2858L46.9572 82.7223L47.5487 84.4968L49.5767 84.5813L49.4077 82.8068ZM37.662 84.6658L35.8875 83.5673L33.8594 83.4828L34.0284 85.7643L35.8875 85.6798L37.662 84.6658ZM89.1182 91.426L85.4846 92.44L82.4426 90.1584L78.302 91.2569L76.2739 87.4544L73.4854 88.1304L73.3164 85.2573L68.7533 84.3278L69.5138 79.7647L65.8802 78.0747L68.4153 75.1171L70.0208 72.4131L72.6404 74.2721L75.7669 72.1596L78.978 74.2721L82.2736 72.4131L85.6536 74.2721L88.6112 74.1031L89.2027 76.9762L92.5828 76.1312L95.2868 78.4972L96.1318 75.5396L99.0894 76.3847L97.1458 72.7511L100.695 70.6386L98.8359 69.54L99.4274 67.4275L95.5403 68.019L93.2588 64.8079L90.2167 67.7655L86.1606 66.836L83.9636 68.2725L81.7665 66.836L79.654 68.526L77.457 66.836L74.9219 68.2725L72.3869 66.836L70.4433 65.991L71.7954 64.3854L68.8378 61.8504L72.3024 60.0759L69.5983 56.1888L73.0629 52.9777L71.5419 50.7807L73.4854 49.0061L70.6123 46.9781L73.9079 45.6261L71.2038 42.922L74.4149 40.9785L73.8234 37.3449L76.5274 34.8944L80.0765 32.6128L83.6256 34.8944L86.8366 31.8523L90.0477 34.8944L92.0757 32.7818L94.1038 34.8944L96.7233 32.8663L99.4274 34.8944L101.286 31.7678L103.145 34.8944L105.342 31.8523L107.54 34.8944L110.92 33.0353L114.3 34.8944L117.173 36.0774L114.891 38.1054L117.004 41.3165L114.891 44.4431L114.722 47.4851L111.596 47.9921L108.892 49.8512L106.272 47.9921L103.568 49.5132L100.864 47.9921L97.4838 50.0202L94.1883 47.9921L91.9912 49.9357L89.7942 47.9921L89.8787 50.2737L87.7662 51.0342L89.2872 54.2452L87.0901 57.0338L88.6957 55.1748L90.7237 56.5268L93.5123 54.0762L97.2303 54.5832L99.4274 53.3157L101.624 54.5832L103.568 53.0622L105.004 55.0903L108.723 55.1748L111.258 57.8788L114.384 56.6958L113.877 60.0759L118.271 60.4139L117.342 64.7234L120.891 66.16L118.947 69.54L121.229 71.0611L119.201 72.9201L121.567 75.3706L118.609 76.9762L120.299 80.2717L116.75 81.3703L117.511 85.2573L113.539 85.3418L111.849 88.9754H107.793L107.117 91.933L104.666 90.1584L101.709 93.961L97.5683 91.5105L95.7938 93.454L89.1182 91.426ZM105.089 37.1759L101.793 36.4999L101.033 39.542L102.976 41.401L104.666 39.7955L105.089 37.1759ZM97.7374 43.0065L95.6248 42.3305L93.8503 43.598L94.9488 45.6261L97.0613 45.1191L97.7374 43.0065ZM91.0617 45.2881L90.3012 44.5276L89.3717 45.4571L89.9632 46.7246L91.0617 46.2176V45.2881ZM102.976 59.0618L101.962 58.3858L101.371 59.3153L101.624 60.4139L102.807 60.1604L102.976 59.0618ZM78.7245 60.4984L76.0204 62.3574L76.781 65.7375L80.2455 65.5685L81.006 62.6109L78.7245 60.4984ZM102.807 65.822H102.131L101.962 66.5825L102.638 66.836L103.23 66.329L102.807 65.822ZM103.821 72.0751L102.807 70.9766L101.624 71.7371L101.709 73.1736L103.061 73.0046L103.821 72.0751ZM116.243 74.3566L113.286 73.8496L110.751 75.2861L112.272 78.4972L115.06 77.1452L116.243 74.3566ZM108.554 77.1452H107.371L106.61 78.0747L107.624 79.0042L108.554 78.2437V77.1452ZM76.95 79.5112L74.8374 81.7928L75.4289 84.3278L78.5555 84.9193L79.5695 81.6238L76.95 79.5112ZM108.554 84.1588L107.371 84.6658L107.286 86.3559L109.23 86.9474L109.568 85.0883L108.554 84.1588ZM98.8359 85.7643L97.2303 84.3278L96.1318 86.1023L96.8078 87.5389L98.7514 87.7079L98.8359 85.7643ZM126.251 92.0175L124.814 90.1584L126.758 88.7219L123.969 85.5953L127.518 83.4828L125.321 79.7647L128.532 76.8917L129.631 74.2721L132.419 73.9341L135.123 71.9061L137.827 73.9341L141.207 71.3991L144.588 73.9341L146.447 77.1452L144.081 80.0182L145.517 83.9898L141.715 85.9333L142.644 88.9754L139.855 90.6654L141.715 94.468L137.743 95.989L136.391 98.7776L133.433 97.8481L129.969 100.721L126.251 92.0175ZM139.095 79.7647L135.799 77.5677L131.828 79.7647L133.602 84.3278L139.348 85.3418L139.095 79.7647ZM138.081 90.9189L137.151 89.8204L136.137 90.5809L135.968 91.8485L137.489 92.3555L138.081 90.9189ZM133.856 92.778L131.152 92.8625L130.476 95.0595L132.081 96.8341L133.687 95.2285L133.856 92.778ZM177.943 91.5105L176 94.5525L174.563 91.2569L172.366 92.8625L170.845 90.6654L167.719 92.1865L166.029 89.0599L162.986 90.4119L162.479 87.0319L157.916 86.6094L157.494 82.0463L153.522 80.5252L154.959 76.4692L152.508 74.3566L154.114 71.4836L151.41 69.202L153.945 66.667L150.649 64.1319L153.86 61.5969L151.325 58.4703L154.029 55.4283L152.001 52.8087L154.536 50.6962L153.015 46.8936L156.649 45.0346L156.142 42.415L158.761 41.9925L158.423 38.3589L161.972 38.9504L163.916 35.7394L167.634 35.9929L169.916 32.3593L173.549 34.4719L175.493 31.6833L177.943 34.0494L181.408 32.5283L184.703 34.4719L187.745 32.8663L189.604 35.7394L192.9 33.7959L193.661 37.5139L196.956 36.6689L197.21 40.049L200.59 39.4575L199.829 42.753L203.632 43.6825L202.449 47.4851L205.575 48.6681L203.547 51.3722L205.913 53.4002L203.885 55.7663L206.589 57.9633L204.054 60.2449L207.181 62.4419L204.054 64.6389L205.744 66.7515L203.97 68.7795L205.66 71.8216L203.378 74.5256L204.984 78.6662L201.097 80.8632L200.083 84.6658L196.534 86.2714V89.3134L193.661 88.1304L193.492 91.6795L190.618 89.5669L187.745 92.0175L184.027 91.1724L181.661 94.13L177.943 91.5105ZM193.238 39.373L191.041 37.5984L188.675 39.2885L189.52 41.908L192.055 41.57L193.238 39.373ZM168.395 40.8095L167.719 40.3025L166.705 40.725L167.381 41.57H168.057L168.395 40.8095ZM167.212 47.6541L164.338 46.7246L162.733 49.1751L164.507 50.7807L166.705 50.3582L167.212 47.6541ZM180.309 78.2437L180.901 75.7932L183.267 76.6382L182.76 74.4411L184.872 73.5961L183.943 71.7371L185.295 70.216L183.858 68.4415L185.379 66.7515L183.774 65.0614L185.379 63.3714L184.196 61.5969L185.379 59.9069L183.774 58.2168L185.295 56.4423L184.365 54.8368L185.126 53.0622L183.182 51.8792L184.112 49.8512L181.915 49.6822L181.577 47.5696L179.718 48.5836L178.281 47.0626L177.521 49.7667L175.155 48.2456L175.324 50.3582L173.296 51.0342L174.394 52.9777L172.704 54.4142L173.718 56.1888L172.535 57.8788L174.141 59.5688L172.535 61.2589L173.38 63.0334L172.535 64.7234L173.803 66.4135L172.62 68.1035L174.056 69.7935L172.704 71.5681L174.732 72.8356L173.549 74.8636L175.493 75.4551L175.662 77.4832L177.859 75.9622L180.309 78.2437ZM197.463 53.1467H193.069L193.999 57.4563L197.548 59.9069L201.181 56.1043L197.463 53.1467ZM161.296 54.6677L159.691 55.2593L159.353 57.2873L161.465 57.7943L162.902 56.1043L161.296 54.6677ZM165.86 58.2168L164.338 58.8083L164 61.0899L166.451 61.2589L167.55 59.2308L165.86 58.2168ZM169.324 68.1035L167.381 66.836L166.282 69.202L168.057 70.8921L170.169 69.9625L169.324 68.1035ZM199.238 68.357L197.97 68.019L197.379 69.033L198.055 69.7935L198.815 69.4555L199.238 68.357ZM192.478 74.0186L189.351 75.3706L190.787 77.9057L193.238 79.3422L193.492 76.4692L192.478 74.0186ZM166.958 76.8917L164.169 74.3566L158.93 75.6241L160.705 81.4548L166.367 81.6238L166.958 76.8917ZM178.873 80.0182L177.267 79.7647L176.507 80.6942L176.76 82.2998L178.535 81.7928L178.873 80.0182ZM194.421 85.2573L193.407 85.1728L192.731 86.1869L193.83 86.6939L194.928 86.3559L194.421 85.2573ZM183.267 85.4263H180.901L180.647 87.6234L182.422 89.7359L183.774 87.4544L183.267 85.4263ZM238.596 91.5105L236.653 94.5525L235.216 91.2569L233.019 92.8625L231.498 90.6654L228.372 92.1865L226.682 89.0599L223.639 90.4119L223.132 87.0319L218.569 86.6094L218.147 82.0463L214.175 80.5252L215.612 76.4692L213.161 74.3566L214.767 71.4836L212.063 69.202L214.598 66.667L211.302 64.1319L214.513 61.5969L211.978 58.4703L214.682 55.4283L212.654 52.8087L215.189 50.6962L213.668 46.8936L217.302 45.0346L216.795 42.415L219.414 41.9925L219.076 38.3589L222.625 38.9504L224.569 35.7394L228.287 35.9929L230.569 32.3593L234.202 34.4719L236.146 31.6833L238.596 34.0494L242.061 32.5283L245.356 34.4719L248.398 32.8663L250.257 35.7394L253.553 33.7959L254.314 37.5139L257.609 36.6689L257.863 40.049L261.243 39.4575L260.482 42.753L264.285 43.6825L263.102 47.4851L266.228 48.6681L264.2 51.3722L266.566 53.4002L264.538 55.7663L267.242 57.9633L264.707 60.2449L267.834 62.4419L264.707 64.6389L266.397 66.7515L264.623 68.7795L266.313 71.8216L264.031 74.5256L265.637 78.6662L261.75 80.8632L260.736 84.6658L257.187 86.2714V89.3134L254.314 88.1304L254.145 91.6795L251.272 89.5669L248.398 92.0175L244.68 91.1724L242.314 94.13L238.596 91.5105ZM253.891 39.373L251.694 37.5984L249.328 39.2885L250.173 41.908L252.708 41.57L253.891 39.373ZM229.048 40.8095L228.372 40.3025L227.358 40.725L228.034 41.57H228.71L229.048 40.8095ZM227.865 47.6541L224.992 46.7246L223.386 49.1751L225.161 50.7807L227.358 50.3582L227.865 47.6541ZM240.962 78.2437L241.554 75.7932L243.92 76.6382L243.413 74.4411L245.525 73.5961L244.596 71.7371L245.948 70.216L244.511 68.4415L246.032 66.7515L244.427 65.0614L246.032 63.3714L244.849 61.5969L246.032 59.9069L244.427 58.2168L245.948 56.4423L245.018 54.8368L245.779 53.0622L243.835 51.8792L244.765 49.8512L242.568 49.6822L242.23 47.5696L240.371 48.5836L238.934 47.0626L238.174 49.7667L235.808 48.2456L235.977 50.3582L233.949 51.0342L235.047 52.9777L233.357 54.4142L234.371 56.1888L233.188 57.8788L234.794 59.5688L233.188 61.2589L234.033 63.0334L233.188 64.7234L234.456 66.4135L233.273 68.1035L234.709 69.7935L233.357 71.5681L235.385 72.8356L234.202 74.8636L236.146 75.4551L236.315 77.4832L238.512 75.9622L240.962 78.2437ZM258.116 53.1467H253.722L254.652 57.4563L258.201 59.9069L261.834 56.1043L258.116 53.1467ZM221.949 54.6677L220.344 55.2593L220.006 57.2873L222.118 57.7943L223.555 56.1043L221.949 54.6677ZM226.513 58.2168L224.992 58.8083L224.653 61.0899L227.104 61.2589L228.203 59.2308L226.513 58.2168ZM229.977 68.1035L228.034 66.836L226.935 69.202L228.71 70.8921L230.822 69.9625L229.977 68.1035ZM259.891 68.357L258.623 68.019L258.032 69.033L258.708 69.7935L259.468 69.4555L259.891 68.357ZM253.131 74.0186L250.004 75.3706L251.441 77.9057L253.891 79.3422L254.145 76.4692L253.131 74.0186ZM227.611 76.8917L224.822 74.3566L219.583 75.6241L221.358 81.4548L227.02 81.6238L227.611 76.8917ZM239.526 80.0182L237.92 79.7647L237.16 80.6942L237.413 82.2998L239.188 81.7928L239.526 80.0182ZM255.074 85.2573L254.06 85.1728L253.384 86.1869L254.483 86.6939L255.581 86.3559L255.074 85.2573ZM243.92 85.4263H241.554L241.3 87.6234L243.075 89.7359L244.427 87.4544L243.92 85.4263ZM299.249 91.5105L297.306 94.5525L295.869 91.2569L293.672 92.8625L292.151 90.6654L289.025 92.1865L287.335 89.0599L284.292 90.4119L283.785 87.0319L279.222 86.6094L278.8 82.0463L274.828 80.5252L276.265 76.4692L273.814 74.3566L275.42 71.4836L272.716 69.202L275.251 66.667L271.955 64.1319L275.166 61.5969L272.631 58.4703L275.335 55.4283L273.307 52.8087L275.842 50.6962L274.321 46.8936L277.955 45.0346L277.448 42.415L280.067 41.9925L279.729 38.3589L283.278 38.9504L285.222 35.7394L288.94 35.9929L291.222 32.3593L294.855 34.4719L296.799 31.6833L299.249 34.0494L302.714 32.5283L306.009 34.4719L309.051 32.8663L310.911 35.7394L314.206 33.7959L314.967 37.5139L318.262 36.6689L318.516 40.049L321.896 39.4575L321.135 42.753L324.938 43.6825L323.755 47.4851L326.881 48.6681L324.853 51.3722L327.219 53.4002L325.191 55.7663L327.895 57.9633L325.36 60.2449L328.487 62.4419L325.36 64.6389L327.05 66.7515L325.276 68.7795L326.966 71.8216L324.684 74.5256L326.29 78.6662L322.403 80.8632L321.389 84.6658L317.84 86.2714V89.3134L314.967 88.1304L314.798 91.6795L311.925 89.5669L309.051 92.0175L305.333 91.1724L302.967 94.13L299.249 91.5105ZM314.544 39.373L312.347 37.5984L309.981 39.2885L310.826 41.908L313.361 41.57L314.544 39.373ZM289.701 40.8095L289.025 40.3025L288.011 40.725L288.687 41.57H289.363L289.701 40.8095ZM288.518 47.6541L285.645 46.7246L284.039 49.1751L285.814 50.7807L288.011 50.3582L288.518 47.6541ZM301.615 78.2437L302.207 75.7932L304.573 76.6382L304.066 74.4411L306.178 73.5961L305.249 71.7371L306.601 70.216L305.164 68.4415L306.685 66.7515L305.08 65.0614L306.685 63.3714L305.502 61.5969L306.685 59.9069L305.08 58.2168L306.601 56.4423L305.671 54.8368L306.432 53.0622L304.488 51.8792L305.418 49.8512L303.221 49.6822L302.883 47.5696L301.024 48.5836L299.587 47.0626L298.827 49.7667L296.461 48.2456L296.63 50.3582L294.602 51.0342L295.7 52.9777L294.01 54.4142L295.024 56.1888L293.841 57.8788L295.447 59.5688L293.841 61.2589L294.686 63.0334L293.841 64.7234L295.109 66.4135L293.926 68.1035L295.362 69.7935L294.01 71.5681L296.038 72.8356L294.855 74.8636L296.799 75.4551L296.968 77.4832L299.165 75.9622L301.615 78.2437ZM318.769 53.1467H314.375L315.305 57.4563L318.854 59.9069L322.487 56.1043L318.769 53.1467ZM282.602 54.6677L280.997 55.2593L280.659 57.2873L282.771 57.7943L284.208 56.1043L282.602 54.6677ZM287.166 58.2168L285.645 58.8083L285.307 61.0899L287.757 61.2589L288.856 59.2308L287.166 58.2168ZM290.63 68.1035L288.687 66.836L287.588 69.202L289.363 70.8921L291.475 69.9625L290.63 68.1035ZM320.544 68.357L319.276 68.019L318.685 69.033L319.361 69.7935L320.121 69.4555L320.544 68.357ZM313.784 74.0186L310.657 75.3706L312.094 77.9057L314.544 79.3422L314.798 76.4692L313.784 74.0186ZM288.264 76.8917L285.476 74.3566L280.236 75.6241L282.011 81.4548L287.673 81.6238L288.264 76.8917ZM300.179 80.0182L298.573 79.7647L297.813 80.6942L298.066 82.2998L299.841 81.7928L300.179 80.0182ZM315.727 85.2573L314.713 85.1728L314.037 86.1869L315.136 86.6939L316.234 86.3559L315.727 85.2573ZM304.573 85.4263H302.207L301.953 87.6234L303.728 89.7359L305.08 87.4544L304.573 85.4263Z" fill="url(#paint0_linear_201_1936)"/>
<path d="M24.1038 92.4926L22.4137 89.7886L24.1038 87.169L21.4842 87.7605L20.3857 85.2255L17.4281 86.324L15.4846 83.8734L11.851 85.0565L10.5835 81.4229L7.11895 81.1694L6.61194 77.7048L2.64036 76.9443L4.3304 73.2262L2.80937 70.6067L5.68242 69.6772L8.04847 67.9871L10.33 69.6772L12.5271 68.3251L14.7241 69.6772L16.8366 68.4096L19.0337 69.6772L22.0757 68.4096L23.5123 71.3672L26.6388 70.8602L28.8359 73.0572L31.2019 70.7757L33.737 72.7192L34.6665 70.4377L37.117 71.1982L34.3285 68.9167L37.0325 66.5506L34.4975 66.6351L33.0609 64.6071L30.4414 66.3816L28.6669 63.7621L26.0473 65.1141L23.9348 63.086L20.8082 64.6071L18.6112 61.903L14.7241 61.8185L12.02 59.03L9.40049 59.368L9.14699 56.7484L6.61194 56.2414L6.94995 53.7064L3.99239 51.9318L5.42892 48.8053L3.06287 46.6082L5.34441 44.4112L2.80937 41.8761L6.27393 40.7776L4.83741 37.2285L8.63998 36.7215L9.14699 32.412L13.5411 32.4965L14.7241 29.5389L17.8507 30.5529L20.3012 27.2574L24.1038 28.6939L21.9067 26.4968L24.1038 24.3843L23.1743 21.8493L25.7093 21.0887L29.1739 18.3002L32.6384 21.0887L35.258 18.8917L35.5115 22.3563L37.455 25.4828L35.5115 28.6094L39.6521 27.0039L41.6801 30.9754L45.2292 29.3699L45.9897 33.088L48.4402 32.4965L48.6937 35.116L52.2428 36.0455L52.6653 39.6791L55.7919 41.5381L54.1018 44.6647L51.2288 45.9322L48.3557 44.6647L45.6517 46.6927L42.9476 44.6647L40.2436 45.9322L37.5395 44.6647L34.413 45.5942L33.1454 42.6367L30.9484 43.3972L29.3429 41.7916L27.4838 44.4957L24.3573 43.5662L26.5543 45.6787L23.8503 47.1997L26.6388 46.6927L26.7233 49.5658L30.1034 48.8898L32.8074 50.9178L35.089 49.3123L36.8635 51.5093L39.3986 49.8193L41.1731 52.2698L43.9617 51.6783L46.0742 53.7064L50.7218 52.5233L52.2428 57.1709L55.0314 57.0019L54.3553 59.7905L57.9889 60.4665L55.8764 63.5086L57.9889 65.1141L56.2989 67.2266L57.8199 69.5927L55.8764 71.6207L56.4679 74.4093L54.0173 75.9303L55.1159 78.9723L51.9893 78.6343L50.2993 82.3524L46.2432 82.7749L44.2152 86.155L40.4971 84.8875L38.8071 87.676L35.5115 87.507L38.3845 89.366L35.5115 91.1406L37.3705 93.6756L34.244 93.7601L32.3004 96.3797L30.2724 93.7601L27.4838 95.4502L24.1038 92.4926ZM29.0894 21.6803L28.3289 21.5112L27.9063 22.1028L28.2444 22.8633L28.8359 22.3563L29.0894 21.6803ZM30.1879 24.8068L28.9204 25.3138L28.7514 26.7503L29.9344 26.6658L30.7794 25.9898L30.1879 24.8068ZM43.9617 32.75L42.9476 32.3275L42.1871 32.75L42.4406 33.6795H43.4546L43.9617 32.75ZM33.1454 34.778L31.9624 34.1865L31.3709 35.5385L32.3849 36.468L33.4835 35.792L33.1454 34.778ZM15.2311 35.285L13.7101 35.454L12.9496 37.144L14.6396 37.6511L15.9071 36.806L15.2311 35.285ZM40.2436 37.2285L39.0606 38.5806L39.2296 40.0171L40.7506 40.1016L41.0041 38.8341L40.2436 37.2285ZM12.7806 46.2702L11.9355 46.3547L11.513 46.8617L11.9355 47.5377L12.9496 47.3687L12.7806 46.2702ZM18.6112 48.6363L15.0621 48.0448L12.7806 51.9318L16.6676 54.5514L19.0337 51.6783L18.6112 48.6363ZM21.3152 56.0724L19.7942 55.6499L19.4562 57.1709L20.4702 57.8469L21.7377 57.4244L21.3152 56.0724ZM40.9196 60.213L40.0746 59.7905L39.4831 60.6355L40.1591 61.3115L40.8351 61.058L40.9196 60.213ZM52.7498 72.2967L52.2428 72.0432L51.8203 72.4657L52.0738 73.0572L52.7498 72.9727V72.2967ZM51.8203 75.6768L51.2288 74.6628L50.2148 75.1698V76.1838L51.2288 76.5218L51.8203 75.6768ZM44.7222 77.4513L43.7081 75.9303L42.2716 77.3668L42.8631 79.1414L44.8912 79.2259L44.7222 77.4513ZM32.9764 79.3104L31.2019 78.2118L29.1739 78.1273L29.3429 80.4089L31.2019 80.3244L32.9764 79.3104ZM84.4326 86.0705L80.7991 87.0845L77.757 84.803L73.6164 85.9015L71.5884 82.0989L68.7998 82.7749L68.6308 79.9019L64.0678 78.9723L64.8283 74.4093L61.1947 72.7192L63.7297 69.7617L65.3353 67.0576L67.9548 68.9167L71.0814 66.8041L74.2924 68.9167L77.588 67.0576L80.9681 68.9167L83.9256 68.7477L84.5171 71.6207L87.8972 70.7757L90.6013 73.1417L91.4463 70.1842L94.4038 71.0292L92.4603 67.3956L96.0094 65.2831L94.1503 64.1846L94.7418 62.072L90.8548 62.6635L88.5732 59.4525L85.5312 62.41L81.4751 61.4805L79.278 62.917L77.081 61.4805L74.9685 63.1705L72.7714 61.4805L70.2364 62.917L67.7013 61.4805L65.7578 60.6355L67.1098 59.03L64.1523 56.4949L67.6168 54.7204L64.9128 50.8333L68.3773 47.6222L66.8563 45.4252L68.7998 43.6507L65.9268 41.6226L69.2224 40.2706L66.5183 37.5666L69.7294 35.623L69.1378 31.9895L71.8419 29.5389L75.391 27.2574L78.94 29.5389L82.1511 26.4968L85.3622 29.5389L87.3902 27.4264L89.4182 29.5389L92.0378 27.5109L94.7418 29.5389L96.6009 26.4123L98.4599 29.5389L100.657 26.4968L102.854 29.5389L106.234 27.6799L109.614 29.5389L112.487 30.7219L110.206 32.75L112.318 35.961L110.206 39.0876L110.037 42.1296L106.91 42.6367L104.206 44.4957L101.586 42.6367L98.8824 44.1577L96.1784 42.6367L92.7983 44.6647L89.5027 42.6367L87.3057 44.5802L85.1087 42.6367L85.1932 44.9182L83.0806 45.6787L84.6016 48.8898L82.4046 51.6783L84.0101 49.8193L86.0382 51.1713L88.8267 48.7208L92.5448 49.2278L94.7418 47.9603L96.9389 49.2278L98.8824 47.7067L100.319 49.7348L104.037 49.8193L106.572 52.5233L109.699 51.3403L109.192 54.7204L113.586 55.0584L112.656 59.368L116.205 60.8045L114.262 64.1846L116.543 65.7056L114.515 67.5646L116.881 70.0152L113.924 71.6207L115.614 74.9163L112.065 76.0148L112.825 79.9019L108.854 79.9864L107.164 83.6199H103.107L102.431 86.5775L99.9809 84.803L97.0234 88.6055L92.8828 86.155L91.1083 88.0985L84.4326 86.0705ZM100.403 31.8204L97.1079 31.1444L96.3474 34.1865L98.2909 36.0455L99.9809 34.44L100.403 31.8204ZM93.0518 37.6511L90.9393 36.975L89.1647 38.2426L90.2633 40.2706L92.3758 39.7636L93.0518 37.6511ZM86.3762 39.9326L85.6157 39.1721L84.6861 40.1016L85.2777 41.3691L86.3762 40.8621V39.9326ZM98.2909 53.7064L97.2769 53.0304L96.6854 53.9599L96.9389 55.0584L98.1219 54.8049L98.2909 53.7064ZM74.0389 55.1429L71.3349 57.0019L72.0954 60.382L75.56 60.213L76.3205 57.2554L74.0389 55.1429ZM98.1219 60.4665H97.4459L97.2769 61.227L97.9529 61.4805L98.5444 60.9735L98.1219 60.4665ZM99.1359 66.7196L98.1219 65.6211L96.9389 66.3816L97.0234 67.8181L98.3754 67.6491L99.1359 66.7196ZM111.558 69.0012L108.6 68.4941L106.065 69.9307L107.586 73.1417L110.375 71.7897L111.558 69.0012ZM103.868 71.7897H102.685L101.924 72.7192L102.938 73.6487L103.868 72.8882V71.7897ZM72.2644 74.1558L70.1519 76.4373L70.7434 78.9723L73.8699 79.5639L74.884 76.2683L72.2644 74.1558ZM103.868 78.8033L102.685 79.3104L102.6 81.0004L104.544 81.5919L104.882 79.7329L103.868 78.8033ZM94.1503 80.4089L92.5448 78.9723L91.4463 80.7469L92.1223 82.1834L94.0658 82.3524L94.1503 80.4089ZM121.565 86.662L120.129 84.803L122.072 83.3664L119.284 80.2399L122.833 78.1273L120.636 74.4093L123.847 71.5362L124.945 68.9167L127.734 68.5786L130.438 66.5506L133.142 68.5786L136.522 66.0436L139.902 68.5786L141.761 71.7897L139.395 74.6628L140.832 78.6343L137.029 80.5779L137.958 83.6199L135.17 85.31L137.029 89.1125L133.057 90.6336L131.705 93.4221L128.748 92.4926L125.283 95.3657L121.565 86.662ZM134.409 74.4093L131.114 72.2122L127.142 74.4093L128.917 78.9723L134.663 79.9864L134.409 74.4093ZM133.395 85.5635L132.466 84.465L131.452 85.2255L131.283 86.493L132.804 87L133.395 85.5635ZM129.17 87.4225L126.466 87.507L125.79 89.7041L127.396 91.4786L129.001 89.8731L129.17 87.4225ZM173.258 86.155L171.314 89.197L169.878 85.9015L167.681 87.507L166.16 85.31L163.033 86.831L161.343 83.7044L158.301 85.0565L157.794 81.6764L153.231 81.2539L152.808 76.6908L148.837 75.1698L150.273 71.1137L147.823 69.0012L149.428 66.1281L146.724 63.8466L149.259 61.3115L145.964 58.7765L149.175 56.2414L146.64 53.1149L149.344 50.0728L147.316 47.4532L149.851 45.3407L148.33 41.5381L151.963 39.6791L151.456 37.0595L154.076 36.637L153.738 33.0035L157.287 33.595L159.23 30.3839L162.949 30.6374L165.23 27.0039L168.864 29.1164L170.807 26.3278L173.258 28.6939L176.722 27.1729L180.018 29.1164L183.06 27.5109L184.919 30.3839L188.214 28.4404L188.975 32.1585L192.271 31.3134L192.524 34.6935L195.904 34.102L195.144 37.3976L198.946 38.3271L197.763 42.1296L200.89 43.3127L198.862 46.0167L201.228 48.0448L199.2 50.4108L201.904 52.6078L199.369 54.8894L202.495 57.0864L199.369 59.2835L201.059 61.396L199.284 63.424L200.974 66.4661L198.693 69.1702L200.298 73.3107L196.411 75.5078L195.397 79.3104L191.848 80.9159V83.9579L188.975 82.7749L188.806 86.324L185.933 84.2114L183.06 86.662L179.342 85.817L176.976 88.7745L173.258 86.155ZM188.552 34.0175L186.355 32.243L183.989 33.933L184.834 36.5525L187.369 36.2145L188.552 34.0175ZM163.709 35.454L163.033 34.947L162.019 35.3695L162.695 36.2145H163.371L163.709 35.454ZM162.526 42.2986L159.653 41.3691L158.047 43.8197L159.822 45.4252L162.019 45.0027L162.526 42.2986ZM175.624 72.8882L176.215 70.4377L178.581 71.2827L178.074 69.0857L180.187 68.2406L179.257 66.3816L180.609 64.8606L179.173 63.086L180.694 61.396L179.088 59.706L180.694 58.0159L179.511 56.2414L180.694 54.5514L179.088 52.8613L180.609 51.0868L179.68 49.4813L180.44 47.7067L178.497 46.5237L179.426 44.4957L177.229 44.3267L176.891 42.2141L175.032 43.2282L173.596 41.7071L172.835 44.4112L170.469 42.8902L170.638 45.0027L168.61 45.6787L169.709 47.6222L168.019 49.0588L169.033 50.8333L167.85 52.5233L169.455 54.2134L167.85 55.9034L168.695 57.6779L167.85 59.368L169.117 61.058L167.934 62.748L169.371 64.4381L168.019 66.2126L170.047 67.4801L168.864 69.5082L170.807 70.0997L170.976 72.1277L173.173 70.6067L175.624 72.8882ZM192.778 47.7913H188.383L189.313 52.1008L192.862 54.5514L196.496 50.7488L192.778 47.7913ZM156.611 49.3123L155.005 49.9038L154.667 51.9318L156.78 52.4388L158.216 50.7488L156.611 49.3123ZM161.174 52.8613L159.653 53.4529L159.315 55.7344L161.765 55.9034L162.864 53.8754L161.174 52.8613ZM164.639 62.748L162.695 61.4805L161.596 63.8466L163.371 65.5366L165.484 64.6071L164.639 62.748ZM194.552 63.0015L193.285 62.6635L192.693 63.6776L193.369 64.4381L194.13 64.1001L194.552 63.0015ZM187.792 68.6632L184.665 70.0152L186.102 72.5502L188.552 73.9868L188.806 71.1137L187.792 68.6632ZM162.272 71.5362L159.484 69.0012L154.245 70.2687L156.019 76.0993L161.681 76.2683L162.272 71.5362ZM174.187 74.6628L172.582 74.4093L171.821 75.3388L172.075 76.9443L173.849 76.4373L174.187 74.6628ZM189.736 79.9019L188.721 79.8174L188.045 80.8314L189.144 81.3384L190.243 81.0004L189.736 79.9019ZM178.581 80.0709H176.215L175.962 82.2679L177.736 84.3804L179.088 82.0989L178.581 80.0709ZM233.911 86.155L231.967 89.197L230.531 85.9015L228.334 87.507L226.813 85.31L223.686 86.831L221.996 83.7044L218.954 85.0565L218.447 81.6764L213.884 81.2539L213.461 76.6908L209.49 75.1698L210.926 71.1137L208.476 69.0012L210.081 66.1281L207.377 63.8466L209.912 61.3115L206.617 58.7765L209.828 56.2414L207.293 53.1149L209.997 50.0728L207.969 47.4532L210.504 45.3407L208.983 41.5381L212.616 39.6791L212.109 37.0595L214.729 36.637L214.391 33.0035L217.94 33.595L219.883 30.3839L223.602 30.6374L225.883 27.0039L229.517 29.1164L231.46 26.3278L233.911 28.6939L237.375 27.1729L240.671 29.1164L243.713 27.5109L245.572 30.3839L248.867 28.4404L249.628 32.1585L252.924 31.3134L253.177 34.6935L256.557 34.102L255.797 37.3976L259.599 38.3271L258.416 42.1296L261.543 43.3127L259.515 46.0167L261.881 48.0448L259.853 50.4108L262.557 52.6078L260.022 54.8894L263.148 57.0864L260.022 59.2835L261.712 61.396L259.937 63.424L261.627 66.4661L259.346 69.1702L260.951 73.3107L257.064 75.5078L256.05 79.3104L252.501 80.9159V83.9579L249.628 82.7749L249.459 86.324L246.586 84.2114L243.713 86.662L239.995 85.817L237.629 88.7745L233.911 86.155ZM249.206 34.0175L247.008 32.243L244.642 33.933L245.487 36.5525L248.022 36.2145L249.206 34.0175ZM224.362 35.454L223.686 34.947L222.672 35.3695L223.348 36.2145H224.024L224.362 35.454ZM223.179 42.2986L220.306 41.3691L218.7 43.8197L220.475 45.4252L222.672 45.0027L223.179 42.2986ZM236.277 72.8882L236.868 70.4377L239.234 71.2827L238.727 69.0857L240.84 68.2406L239.91 66.3816L241.262 64.8606L239.826 63.086L241.347 61.396L239.741 59.706L241.347 58.0159L240.164 56.2414L241.347 54.5514L239.741 52.8613L241.262 51.0868L240.333 49.4813L241.093 47.7067L239.15 46.5237L240.079 44.4957L237.882 44.3267L237.544 42.2141L235.685 43.2282L234.249 41.7071L233.488 44.4112L231.122 42.8902L231.291 45.0027L229.263 45.6787L230.362 47.6222L228.672 49.0588L229.686 50.8333L228.503 52.5233L230.108 54.2134L228.503 55.9034L229.348 57.6779L228.503 59.368L229.77 61.058L228.587 62.748L230.024 64.4381L228.672 66.2126L230.7 67.4801L229.517 69.5082L231.46 70.0997L231.629 72.1277L233.826 70.6067L236.277 72.8882ZM253.431 47.7913H249.037L249.966 52.1008L253.515 54.5514L257.149 50.7488L253.431 47.7913ZM217.264 49.3123L215.658 49.9038L215.32 51.9318L217.433 52.4388L218.869 50.7488L217.264 49.3123ZM221.827 52.8613L220.306 53.4529L219.968 55.7344L222.418 55.9034L223.517 53.8754L221.827 52.8613ZM225.292 62.748L223.348 61.4805L222.249 63.8466L224.024 65.5366L226.137 64.6071L225.292 62.748ZM255.205 63.0015L253.938 62.6635L253.346 63.6776L254.022 64.4381L254.783 64.1001L255.205 63.0015ZM248.445 68.6632L245.318 70.0152L246.755 72.5502L249.206 73.9868L249.459 71.1137L248.445 68.6632ZM222.926 71.5362L220.137 69.0012L214.898 70.2687L216.672 76.0993L222.334 76.2683L222.926 71.5362ZM234.84 74.6628L233.235 74.4093L232.474 75.3388L232.728 76.9443L234.502 76.4373L234.84 74.6628ZM250.389 79.9019L249.375 79.8174L248.698 80.8314L249.797 81.3384L250.896 81.0004L250.389 79.9019ZM239.234 80.0709H236.868L236.615 82.2679L238.389 84.3804L239.741 82.0989L239.234 80.0709ZM294.564 86.155L292.62 89.197L291.184 85.9015L288.987 87.507L287.466 85.31L284.339 86.831L282.649 83.7044L279.607 85.0565L279.1 81.6764L274.537 81.2539L274.114 76.6908L270.143 75.1698L271.579 71.1137L269.129 69.0012L270.734 66.1281L268.03 63.8466L270.565 61.3115L267.27 58.7765L270.481 56.2414L267.946 53.1149L270.65 50.0728L268.622 47.4532L271.157 45.3407L269.636 41.5381L273.269 39.6791L272.762 37.0595L275.382 36.637L275.044 33.0035L278.593 33.595L280.536 30.3839L284.255 30.6374L286.536 27.0039L290.17 29.1164L292.113 26.3278L294.564 28.6939L298.028 27.1729L301.324 29.1164L304.366 27.5109L306.225 30.3839L309.521 28.4404L310.281 32.1585L313.577 31.3134L313.83 34.6935L317.21 34.102L316.45 37.3976L320.252 38.3271L319.069 42.1296L322.196 43.3127L320.168 46.0167L322.534 48.0448L320.506 50.4108L323.21 52.6078L320.675 54.8894L323.801 57.0864L320.675 59.2835L322.365 61.396L320.59 63.424L322.28 66.4661L319.999 69.1702L321.604 73.3107L317.717 75.5078L316.703 79.3104L313.154 80.9159V83.9579L310.281 82.7749L310.112 86.324L307.239 84.2114L304.366 86.662L300.648 85.817L298.282 88.7745L294.564 86.155ZM309.859 34.0175L307.661 32.243L305.295 33.933L306.14 36.5525L308.675 36.2145L309.859 34.0175ZM285.015 35.454L284.339 34.947L283.325 35.3695L284.001 36.2145H284.677L285.015 35.454ZM283.832 42.2986L280.959 41.3691L279.353 43.8197L281.128 45.4252L283.325 45.0027L283.832 42.2986ZM296.93 72.8882L297.521 70.4377L299.887 71.2827L299.38 69.0857L301.493 68.2406L300.563 66.3816L301.915 64.8606L300.479 63.086L302 61.396L300.394 59.706L302 58.0159L300.817 56.2414L302 54.5514L300.394 52.8613L301.915 51.0868L300.986 49.4813L301.746 47.7067L299.803 46.5237L300.732 44.4957L298.535 44.3267L298.197 42.2141L296.338 43.2282L294.902 41.7071L294.141 44.4112L291.775 42.8902L291.944 45.0027L289.916 45.6787L291.015 47.6222L289.325 49.0588L290.339 50.8333L289.156 52.5233L290.761 54.2134L289.156 55.9034L290.001 57.6779L289.156 59.368L290.423 61.058L289.24 62.748L290.677 64.4381L289.325 66.2126L291.353 67.4801L290.17 69.5082L292.113 70.0997L292.282 72.1277L294.479 70.6067L296.93 72.8882ZM314.084 47.7913H309.69L310.619 52.1008L314.168 54.5514L317.802 50.7488L314.084 47.7913ZM277.917 49.3123L276.311 49.9038L275.973 51.9318L278.086 52.4388L279.522 50.7488L277.917 49.3123ZM282.48 52.8613L280.959 53.4529L280.621 55.7344L283.072 55.9034L284.17 53.8754L282.48 52.8613ZM285.945 62.748L284.001 61.4805L282.903 63.8466L284.677 65.5366L286.79 64.6071L285.945 62.748ZM315.858 63.0015L314.591 62.6635L313.999 63.6776L314.675 64.4381L315.436 64.1001L315.858 63.0015ZM309.098 68.6632L305.971 70.0152L307.408 72.5502L309.859 73.9868L310.112 71.1137L309.098 68.6632ZM283.579 71.5362L280.79 69.0012L275.551 70.2687L277.325 76.0993L282.987 76.2683L283.579 71.5362ZM295.493 74.6628L293.888 74.4093L293.127 75.3388L293.381 76.9443L295.155 76.4373L295.493 74.6628ZM311.042 79.9019L310.028 79.8174L309.352 80.8314L310.45 81.3384L311.549 81.0004L311.042 79.9019ZM299.887 80.0709H297.521L297.268 82.2679L299.042 84.3804L300.394 82.0989L299.887 80.0709Z" fill="#22303A"/>
<path d="M150.09 28.1676C160.124 19.71 183.666 6.77005 197.565 22.6708C214.938 42.5466 225.249 -1.52799 250.029 17.5091C274.809 36.5461 293.096 3.0299 319.206 22.1563" stroke="url(#paint1_linear_201_1936)" stroke-dasharray="3.33 3.33"/>
<path d="M23.9976 127.193L23.3474 127.984L22.8669 127.08L21.7079 127.645L20.9729 126.599L19.9553 126.967L19.6726 125.921L18.5985 126.288L18.8246 125.186L17.4678 125.073L17.9766 123.829L16.9024 122.981L17.6374 121.822L17.0438 121.059L17.807 120.465L17.5808 119.108L18.8529 118.6L18.8811 117.695L19.7857 117.752L19.7292 116.282L21.1708 116.056L19.9553 115.801L20.0966 114.557L18.9094 114.02L19.6444 112.918L19.2204 111.957L19.8988 111.137L19.7009 109.752L21.086 109.469L21.6796 108.452L22.8386 108.48L23.8845 107.519L25.1848 108.028L26.2307 107.123L27.22 108.084L28.2659 107.236L28.7748 108.48L29.7359 107.773L29.7924 108.96H30.8666L30.9796 110.006L32.3365 110.289L31.7428 111.533L32.5061 112.211L31.8276 113.003L32.2517 114.19L31.1775 114.812L30.8666 115.858L29.8207 116.197L29.4249 117.328L28.2094 117.243L29.0574 117.469L28.7465 118.289L30.3012 118.374L30.2729 119.9L30.9514 119.222L31.4036 120.07L31.2058 119.222L32.0821 119.137L32.0538 117.949L33.2128 117.723L34.1173 116.621L35.0219 117.723L35.8982 116.904L36.8027 117.723L37.5659 118.006L36.8593 118.43L37.1137 119.193L36.3504 119.448L36.407 120.352L35.5307 120.691L35.559 121.681L34.5696 121.935L34.7109 123.094L33.5802 123.207H34.5413L34.5131 124.168L35.4459 124.281L35.5307 125.243L36.8593 125.299V126.628L36.9441 127.419L36.2939 126.939L35.672 127.645L35.0501 126.939L34.2021 127.9L33.3541 126.939L32.5061 127.73L31.658 126.939L30.6969 127.306L30.6404 126.288L29.9903 127.476L29.0574 126.486L28.7465 127.476L27.8702 126.91L27.0504 127.702L26.0611 127.193L25.4957 128.013L23.9976 127.193ZM22.669 108.876L22.3863 109.074L22.358 109.356L22.6407 109.526L22.8386 109.215L22.669 108.876ZM26.9656 113.992V113.342L27.531 113.003L27.0504 112.522L27.3049 111.9L26.5699 111.985L26.4003 111.25L25.8632 111.731L25.2696 111.335L25.1848 112.042L24.4781 112.126L24.9587 112.72L24.3933 113.257L25.1565 113.483L24.9587 114.246L25.6088 114.049L26.9656 113.992ZM30.2447 111.9L28.9161 112.239L28.8878 113.625L30.1033 113.907L30.8666 113.003L30.2447 111.9ZM24.9587 114.981L24.3368 114.727L23.7149 114.812L23.7714 115.603L24.5064 115.518L24.9587 114.981ZM25.3827 116.819L24.6194 116.734L24.1954 117.328L24.7608 117.695L25.3544 117.582L25.3827 116.819ZM28.2377 117.723L27.9833 117.921L27.9267 118.204L28.2377 118.289L28.379 118.034L28.2377 117.723ZM35.8982 118.515L35.4176 118.289L34.9653 118.487V119.165L35.6155 119.024L35.8982 118.515ZM25.9197 123.546L26.259 122.868L26.9939 123.151L26.5134 122.727L27.0222 122.387L26.2872 122.331L26.259 121.596L25.6088 121.455L25.4957 120.776L24.8173 120.691L24.7325 119.985L24.1106 120.296L23.8562 119.646L23.6301 120.267L23.0082 120.409L23.2343 121.087L22.669 121.511L23.3191 121.907L23.0082 122.585L23.6018 122.755L23.828 123.349L24.4498 123.151L25.9197 123.546ZM32.5061 119.9L32.1103 119.702L31.7711 120.041L31.9407 120.55L32.4778 120.381L32.5061 119.9ZM29.1705 120.013L28.0398 120.239L27.8985 121.229L28.7182 121.85L29.7924 121.172L29.1705 120.013ZM28.0681 124.536L27.0787 123.518L26.259 124.847L26.8243 126.232L28.2659 125.695L28.0681 124.536ZM21.3687 124.055L21.0577 123.914L20.8881 124.253L21.1143 124.451L21.4818 124.423L21.3687 124.055ZM65.7698 127.136L64.5826 127.617L63.678 126.712L62.4908 127.334L62.095 126.091L60.7099 126.232L60.4838 124.847L59.1835 124.508L59.3531 123.179L58.2789 122.953L58.9856 122.105L57.9115 121.681L58.7312 120.889L57.7701 120.098L58.6464 119.193L57.9115 118.458L58.6464 117.723L57.7136 116.593L58.6747 115.462L58.0245 114.416L58.8726 113.54L58.6464 112.183L59.7771 111.363L59.5792 110.402L60.5686 110.374L60.6534 109.413L61.6145 109.526L61.9537 108.31L63.1127 108.734L63.9042 107.943L64.9783 108.225L65.4023 107.18L66.109 108.056L66.9288 107.067L67.8051 107.999L68.54 107.321L69.1619 108.084L70.0099 107.434L70.6318 108.31L71.9039 107.915L72.6954 108.96L73.5999 108.508L73.6847 109.526L74.9285 109.271V110.515L75.8613 110.741L75.8048 111.731L76.9637 112.042L76.3419 113.087L76.7941 114.133L75.8048 114.727L74.9002 115.377L73.9957 114.727L73.2607 115.688L72.5257 114.727L71.5647 115.462L70.5753 114.727L69.5859 114.218L69.5294 113.116L68.3704 113.738L68.2291 112.437L67.268 113.342L66.1373 112.692L66.2221 113.822L65.0914 113.992L65.996 115.151L64.8653 116.112L65.5437 117.328L64.8653 118.515L65.685 119.532L64.9501 120.578L65.9677 121.087L65.685 122.19L66.7026 121.794L67.0984 122.812L67.6355 121.794L68.2291 122.783L68.54 121.879L69.4446 122.161L69.1619 121.087L70.2361 120.805L71.1124 119.985L72.1865 120.494L72.978 119.532L73.7695 120.494L74.7306 119.589L75.6917 120.494L76.4549 120.352L76.5115 121.115L77.3312 122.387L76.0026 123.094L76.2288 124.508L74.8437 124.79L74.3914 126.006L73.0911 126.062L72.4409 127.165L71.1972 126.769L70.7166 127.928L69.8403 127.052L68.7662 127.9L65.7698 127.136ZM71.7343 109.469L70.8297 109.328L70.2643 110.063L70.8862 110.911L71.8473 110.459L71.7343 109.469ZM67.8333 109.78L67.1549 110.091L67.0701 110.939L68.003 111.137L68.7944 110.317L67.8333 109.78ZM73.5999 110.317L73.289 110.176L72.9215 110.402L73.2042 110.685H73.5434L73.5999 110.317ZM64.0172 111.589L61.7558 111.137L61.134 113.483L62.9713 115.038L64.102 113.285L64.0172 111.589ZM73.2607 112.494L72.6671 112.381L72.3279 112.72L72.4692 113.285L73.0628 113.116L73.2607 112.494ZM75.0981 112.409L74.6458 112.437L74.3914 112.72L74.6458 113.144L75.0133 112.861L75.0981 112.409ZM60.6251 117.017L60.0315 117.243L60.0033 117.921L60.6817 118.006L60.823 117.497L60.6251 117.017ZM64.0738 117.497L63.8759 117.582L63.7346 117.78L63.9607 117.836L64.1303 117.752L64.0738 117.497ZM62.6604 118.543L62.1233 118.656L61.982 119.193L62.5191 119.419L63.1409 119.08L62.6604 118.543ZM73.5716 121.596L72.8367 121.426L72.4692 122.274L73.2607 122.84L73.9957 122.246L73.5716 121.596ZM64.7239 123.066L63.8194 122.529L63.0279 122.812L63.0561 123.744L64.102 124.112L64.7239 123.066ZM74.4762 123.066L74.0522 123.151L73.9109 123.462L74.2218 123.688L74.4479 123.462L74.4762 123.066ZM61.3601 123.066L60.9926 123.236L61.1057 123.66L61.671 123.886L61.6993 123.292L61.3601 123.066ZM70.434 124.168L69.0206 123.66L68.2008 124.818L68.964 125.921L70.4905 125.808L70.434 124.168ZM85.2081 125.78L84.671 124.988L85.5756 124.705L85.2364 123.575L86.2258 122.896L85.83 121.681L86.9042 120.974L86.254 120.041L87.3282 119.702L86.6215 118.374L88.0066 117.78L87.6674 116.706L88.6002 116.084L87.9218 115.236L88.9677 115.01L88.3175 114.049L89.42 113.738L89.109 112.494L90.1267 111.702L89.5896 110.543L90.7203 110.006L90.2115 108.734L91.5118 108.367L92.0489 107.745L92.6707 108.282L93.6036 107.208L94.5647 108.282L95.1583 107.547L95.7802 108.282L96.5717 107.434L97.3349 108.282L98.0698 107.745L98.5786 108.508L99.5115 108.734L99.0027 109.554L100.077 110.402L99.7659 111.702L100.897 112.126L100.275 113.201L101.462 113.512L100.727 114.473L101.971 115.292L101.518 116.706L102.593 117.045L101.942 118.006L103.101 118.543L102.564 119.702L103.384 120.267L103.073 121.2L104.063 121.822L103.667 122.896L104.826 123.744L104.458 125.158L105.532 125.667L105.024 126.741L104.741 127.645L104.119 126.939L102.932 127.56L101.773 126.939L100.981 127.871L100.218 126.939L99.144 127.052L98.9744 125.977L97.7306 125.553L98.2677 124.366L97.3631 125.384L96.4586 124.366L95.6106 125.271L94.7908 124.366L93.6601 124.932L92.5294 124.366L92.3315 125.582L91.116 125.469L91.851 126.458L90.6355 126.712L89.9571 127.702L89.0242 126.939L88.0066 127.645L87.0172 126.939L85.9431 127.871L85.2081 125.78ZM97.9285 109.271L97.561 109.3L97.6741 109.639L97.985 109.808L98.2112 109.498L97.9285 109.271ZM94.7625 110.741L93.9145 110.854L93.8862 111.759L94.706 112.155L95.2148 111.42L94.7625 110.741ZM99.2288 112.155L98.9744 111.759L98.3808 111.872L98.5221 112.437L98.9744 112.466L99.2288 112.155ZM97.2783 113.201L96.8261 112.579L96.1476 113.087L96.3455 113.851L97.1653 113.964L97.2783 113.201ZM93.0382 119.985L93.6036 119.448L94.1689 119.985L94.7343 119.278L95.2713 119.985L95.8367 119.476L96.402 119.985L96.6282 119.391V119.363L96.9109 118.713L96.4303 118.26L96.5717 117.639L96.0628 117.215L96.2607 116.564L95.7802 116.112L95.9215 115.49L95.3844 115.066L95.6106 114.416L95.0735 114.444L94.8191 113.992V114.614L94.1972 114.642L94.4233 115.292L93.8862 115.716L94.1972 116.395L93.547 116.762L93.8014 117.441L93.2361 117.836L93.4057 118.487L92.8969 118.911L93.1796 119.589L93.0382 119.985ZM93.8862 114.529L93.6884 114.275L93.2361 114.303L93.1513 114.925L93.8014 115.094L93.8862 114.529ZM91.2008 114.897L90.4941 115.066L90.2115 115.575L90.7203 116.169L91.3987 115.688L91.2008 114.897ZM100.586 117.045L98.9744 117.893L99.2005 119.306L100.359 119.617L101.462 118.684L100.586 117.045ZM88.8264 118.515L88.4872 118.487L88.3741 118.826L88.6568 119.052L88.9112 118.826L88.8264 118.515ZM101.405 120.748L101.123 120.776L100.925 121.002L101.179 121.115L101.377 121.031L101.405 120.748ZM91.2574 121.2L90.4376 121.002L89.9853 121.681L90.4376 122.557L91.5118 122.218L91.2574 121.2ZM96.5717 122.02L95.9215 121.568L95.554 122.274L95.8367 123.009L96.5717 122.67V122.02ZM100.275 121.963L98.9179 122.133L97.9568 123.66L99.7093 124.31L101.094 123.349L100.275 121.963ZM93.0099 123.518L92.6425 123.631L92.8121 124.027L93.2078 124.055L93.3774 123.66L93.0099 123.518ZM88.3175 123.518L87.6109 123.773L87.8653 124.423L88.4024 124.536L88.7981 124.027L88.3175 123.518ZM90.4941 123.857L90.1832 123.914L90.0136 124.14L90.2397 124.394L90.5507 124.225L90.4941 123.857ZM103.525 124.875L102.621 125.356L102.932 126.288L103.752 126.26L104.317 125.525L103.525 124.875ZM119.529 127.052L118.709 127.589L118.172 126.797L116.872 127.165L116.137 126.034L114.78 125.836L114.271 124.592L112.971 123.886L113.225 122.444L113.706 121.568L114.667 121.709L115.345 120.946L116.024 121.709L117.154 121.059L118.257 121.709L119.048 121.257L119.472 122.077L120.773 121.85L121.677 122.84L122.553 121.963L123.599 122.614L123.684 121.737L124.532 121.822L123.684 121.257L123.599 120.239L122.864 120.465L122.384 119.9L121.225 120.324L120.236 119.561L119.387 120.098L118.766 119.278L117.465 119.448L116.504 118.487L115.458 118.656L115.204 117.61L114.215 117.271L114.158 116.253L112.999 115.292L113.649 113.936L112.773 112.946L113.932 112.239L113.31 111.335L114.412 111.222L114.328 110.035L115.515 109.922L115.345 108.706L116.448 109.271L116.928 108.141L118.115 108.536L119.077 107.547L120.349 108.056L120.914 107.067L121.592 107.999L122.695 107.208L123.628 108.169L124.617 107.264L125.069 108.508L126.454 108.367L127.274 109.469L128.716 109.384L128.942 110.826L129.903 110.939L129.649 111.872L130.666 112.268L130.016 113.172L129.564 114.162L128.857 113.342L128.122 114.02L127.387 113.342L126.483 113.936L125.578 113.342L124.391 113.512L123.373 112.89L122.497 113.144L121.932 112.381L121.197 113.512L119.896 113.172L120.66 113.851L120.603 114.897L121.394 114.416L121.705 115.236L122.78 114.699L123.656 115.547L124.419 115.123L124.984 115.745L125.719 115.377L126.228 116.027L127.189 115.943L127.924 116.621H129.309L129.733 117.921L130.666 118.345L130.497 119.335L131.288 120.324L130.723 121.455L131.005 122.727L130.073 123.631L130.27 124.621L129.253 124.705L129.394 125.836L128.292 125.525L127.896 126.43L126.907 126.288L126.341 127.136L125.408 126.797L124.56 127.674L123.486 127.136L122.751 128.267L119.529 127.052ZM120.405 109.695L120.094 109.469L119.67 109.582L119.811 110.035L120.32 110.204L120.405 109.695ZM118.229 109.526L117.861 109.469L117.663 109.695L117.804 110.006L118.172 109.95L118.229 109.526ZM116.448 110.656L115.882 110.176L115.402 110.487L115.458 110.967L115.967 111.194L116.448 110.656ZM123.062 110.515L121.988 110.487V111.505L122.723 112.126L123.373 111.391L123.062 110.515ZM116.165 113.851L115.571 114.162L115.26 114.953L116.222 115.264L116.702 114.444L116.165 113.851ZM116.306 115.914L115.798 115.943L115.487 116.451L115.995 116.706L116.532 116.451L116.306 115.914ZM118.115 116.31L117.804 116.48L117.918 116.847L118.285 116.819L118.398 116.508L118.115 116.31ZM120.716 117.328L120.462 117.271L120.207 117.525L120.518 117.752L120.914 117.667L120.716 117.328ZM123.571 117.582L123.175 117.554L123.062 117.893L123.317 118.147L123.684 117.978L123.571 117.582ZM125.889 119.617L125.493 118.995L124.787 119.448L124.871 120.324L125.719 120.239L125.889 119.617ZM130.073 119.363L128.885 119.25L127.698 119.9L128.659 121.059L129.818 120.607L130.073 119.363ZM114.073 122.557L113.734 122.303L113.508 122.557L113.536 122.84L113.904 122.953L114.073 122.557ZM126.709 123.688L125.917 122.529L124.956 123.32L124.617 124.536L125.974 124.734L126.709 123.688ZM115.656 123.009L115.119 123.349L115.147 123.801L115.571 123.97L115.798 123.603L115.656 123.009ZM117.833 123.151H117.409L117.239 123.66L117.748 123.829L118.2 123.518L117.833 123.151ZM121.394 124.31L120.886 124.592L120.942 125.299L121.818 125.412L121.988 124.592L121.394 124.31ZM122.836 126.43L122.582 126.345L122.412 126.43L122.497 126.599L122.695 126.656L122.836 126.43ZM140.709 125.497L139.606 124.31L140.709 123.122L140.087 121.963L140.709 120.776L139.861 120.041L140.709 119.306L140.002 118.571L140.709 117.836L139.663 116.706L140.709 115.575L140.059 114.557L140.709 113.54L139.889 112.89L140.709 112.211L139.945 111.137L140.709 110.063L139.974 109.498L140.709 108.932L140.822 108.282H141.472L142.603 107.208L143.733 108.282L144.751 107.264L145.769 108.282L146.701 108.763L146.645 109.837L147.267 110.543L146.645 111.278L147.719 111.9L146.645 112.522L147.436 113.144L146.645 113.738L147.549 114.02L147.436 114.981L148.595 114.133L149.783 114.981L150.744 114.133L151.676 114.981L151.422 114.077H152.355L151.705 113.087L152.355 112.07L151.563 110.883L152.355 109.724L151.281 109.158L152.355 108.593L152.864 107.773L153.683 108.282L154.645 107.406L155.606 108.282L156.341 107.717L157.076 108.282H158.008L158.291 109.158L159.28 109.837L158.291 110.515L159.28 111.194L158.291 111.872L159.054 113.003L158.291 114.105L159.393 114.784L158.291 115.462L159.337 116.536L158.291 117.61L159.139 118.345L158.291 119.08L158.969 120.098L158.291 121.115L158.913 122.274L158.291 123.462L158.969 124.027L158.291 124.592L159.28 125.384L158.291 126.175L157.556 126.939H156.51L155.323 127.871L154.136 126.939L153.09 127.419L152.355 126.515L151.479 125.78L152.355 125.045L151.394 124.479L152.355 123.914L151.252 123.236L152.355 122.557L151.394 121.879L152.355 121.2H151.224V120.07L150.291 121.115L149.33 120.07L148.426 120.663L147.549 120.07L147.662 121.087H146.645L147.38 122.274L146.645 123.462L147.323 124.197L146.645 124.932L147.267 125.836L146.645 126.741L145.797 127.787L144.751 126.939L143.62 127.504L142.49 126.939L141.698 128.013L140.709 125.497ZM142.292 110.543L142.065 110.261L141.67 110.43L141.755 110.854H142.15L142.292 110.543ZM154.871 110.459L154.447 110.996L154.334 111.731L155.125 111.618L155.323 110.996L154.871 110.459ZM141.924 111.505L141.246 111.448V112.042L141.5 112.579L142.094 112.183L141.924 111.505ZM157.104 113.059L156.652 112.748L156.369 113.116L156.538 113.398L156.934 113.54L157.104 113.059ZM142.179 113.314L141.868 113.201L141.585 113.455L141.726 113.964L142.15 113.681L142.179 113.314ZM144.44 113.653L144.044 113.512L143.846 113.907L144.186 114.246L144.468 113.964L144.44 113.653ZM144.497 115.066L142.659 117.186L143.309 119.024L145.542 119.843L146.475 117.328L144.497 115.066ZM155.521 115.773L154.334 115.518L153.881 116.423L154.277 117.61L155.747 117.215L155.521 115.773ZM152.44 117.441L152.214 117.101L151.648 117.13L151.79 117.667L152.298 118.034L152.44 117.441ZM157.669 117.893L157.273 117.695L156.849 117.752L156.906 118.232H157.358L157.669 117.893ZM149.359 117.752L149.076 118.091L149.048 118.543L149.472 118.43L149.726 118.091L149.359 117.752ZM157.556 119.532L157.217 119.108L156.454 119.306L156.736 120.07L157.556 120.267V119.532ZM142.716 121.172L141.952 121.257L141.528 121.709L141.981 122.274L142.8 122.105L142.716 121.172ZM142.461 123.264L141.981 123.32L142.179 123.773L142.631 124.084L142.857 123.546L142.461 123.264ZM157.076 124.536L156.652 124.197L156.228 124.536L156.143 125.271L156.991 125.243L157.076 124.536ZM144.949 126.288L144.694 125.949L144.27 126.091V126.543L144.666 126.515L144.949 126.288ZM181.358 125.497L180.736 124.705L181.358 123.914L180.509 123.009L181.358 122.133L180.764 121.455L181.358 120.776L180.651 119.928L181.358 119.08L180.396 117.949L181.358 116.819L180.255 115.914L181.358 115.01L180.707 113.822L181.358 112.663L180.594 111.759L181.358 110.854L180.481 109.837L181.358 108.819L181.866 108.197L182.686 108.282L183.817 107.547L184.947 108.282L186.05 107.66L187.181 108.282L187.803 107.349L188.424 108.282L189.329 107.66L190.234 108.282L190.94 107.717L191.59 108.339L192.693 107.745L193.484 108.678L194.502 108.452L195.067 109.3L196.678 109.215L196.905 110.798L198.092 111.194L197.724 112.409L198.77 113.342L198.064 114.529L199.053 115.349L197.951 115.999L198.572 116.819L197.611 117.186L197.724 118.713L196.226 119.108L195.972 120.296L194.785 119.985L194.163 120.861L193.173 120.494L192.523 121.681L191.59 120.72L190.827 121.568L190.007 120.776L189.131 121.681L188.227 120.776L188.509 121.85L187.576 122.472L188.142 123.546L187.576 124.592L188.368 125.667L187.576 126.741L186.983 127.787L186.135 126.939L185.541 127.9L184.919 126.939L184.184 127.674L183.449 126.939L182.516 127.532L181.358 125.497ZM193.399 109.328L193.117 109.074L192.749 109.243L192.891 109.554L193.202 109.667L193.399 109.328ZM185.513 110.261L185.23 110.176L185.145 110.459L185.287 110.741L185.598 110.572L185.513 110.261ZM193.258 111.024L192.071 111.844L191.873 113.087L193.315 113.794L193.823 112.353L193.258 111.024ZM184.382 111.929L183.789 111.194L182.997 111.646L183.025 112.466L183.902 112.72L184.382 111.929ZM188.424 116.677L188.99 116.253L189.527 116.677L190.064 116.253L190.658 116.564L190.884 115.943L191.534 115.801L191.223 115.123L191.845 114.699L191.449 114.19L191.675 113.568L190.94 113.427L190.968 112.692L190.318 113.003L189.866 112.409L189.329 112.805L188.764 112.409L188.198 112.89L187.661 112.409L187.803 112.918L187.435 113.314L187.831 113.879L187.435 114.444L187.746 114.981L187.435 115.547L187.831 116.112L188.424 116.677ZM185.88 113.257L184.721 113.568L184.891 114.699L185.796 114.897L186.276 114.19L185.88 113.257ZM196.961 115.405L195.52 115.292L194.219 116.197L195.35 117.497L196.622 116.847L196.961 115.405ZM183.93 116.395L182.799 115.632L181.668 116.762L182.545 118.091L183.647 117.412L183.93 116.395ZM189.046 117.328L188.453 116.904L187.859 117.356L188.227 117.893L188.792 117.921L189.046 117.328ZM186.078 117.412L185.371 117.667L185.4 118.374L186.022 118.487L186.53 118.034L186.078 117.412ZM191.449 118.063H191.11L190.94 118.317L191.138 118.713L191.562 118.487L191.449 118.063ZM193.767 118.6L193.315 118.458L193.202 118.854L193.371 119.165L193.795 119.08L193.767 118.6ZM189.583 118.543L189.357 118.684L189.329 118.967L189.64 119.08L189.725 118.798L189.583 118.543ZM184.495 121.257L184.043 120.805L183.478 121.059L183.308 121.879L184.128 121.766L184.495 121.257ZM187.011 121.511L186.191 121.539L185.965 122.387L186.728 122.529L187.152 122.19L187.011 121.511ZM208.072 125.384L207.168 124.536L208.072 123.688L207.083 122.896L208.072 122.133L207.507 121.455L208.072 120.776L207.083 119.646L208.072 118.515L207.253 117.723L208.072 116.932L207.14 116.367L208.072 115.801L207.14 114.953L208.072 114.105L207.083 113.201L208.072 112.324L207.111 111.42L208.072 110.515L207.394 109.611L208.072 108.706L208.751 107.575L209.853 108.282L210.419 107.547L210.984 108.282L211.945 107.406L212.906 108.282L213.698 107.377L214.489 108.282L215.055 107.434L215.62 108.282L216.835 107.688L217.994 108.339L218.645 107.83L219.125 108.508L220.058 107.886L220.567 108.876L222.008 108.508L222.545 109.922L223.846 110.204L223.959 111.533L225.259 112.239L224.665 113.568L225.683 114.642L224.637 115.716L224.976 116.791L224.044 117.441L224.411 118.684L223.111 118.713L222.715 119.9L221.471 119.928L222.461 120.041L222.008 120.918L223.224 121.596L223.111 122.981L224.383 123.122L223.817 124.253L224.75 124.649L224.552 125.638L225.485 125.921L225.203 126.825L224.552 127.871L223.733 126.939L222.998 127.843L222.291 126.939L221.556 128.041L220.821 126.939L219.719 127.815L218.814 126.712L217.712 126.43L218.164 125.384L217.062 124.79L217.344 123.546L216.327 122.953L216.553 121.794L215.903 121.511L215.987 120.776L215.168 121.766L214.348 120.776L214.857 121.511L214.009 121.794L214.602 122.755L214.009 123.716L214.433 124.762L214.009 125.836V126.741L213.132 126.939L212.002 127.589L210.871 126.939L210.193 127.702L209.514 126.939L208.892 127.56L208.072 125.384ZM215.62 109.695L215.026 109.074L214.461 109.724L214.772 110.261L215.281 110.232L215.62 109.695ZM209.938 109.611L209.147 109.356L208.581 109.978L209.005 110.854L209.853 110.459L209.938 109.611ZM222.8 111.165L220.934 111.081L220.256 112.126L220.736 113.455L222.432 113.172L222.8 111.165ZM214.998 116.536L215.535 116.027L216.1 116.536L216.609 116.169L217.203 116.451L217.486 115.886L218.107 115.829L217.796 115.123L218.503 114.755L218.136 114.218L218.334 113.596L217.683 113.398L217.627 112.692L216.977 112.946L216.524 112.409L215.987 112.72L215.422 112.409L214.885 112.777L214.348 112.409L214.602 112.974L214.009 113.201L214.546 113.738L214.009 114.303L214.517 114.868L214.009 115.434L214.404 115.971L214.998 116.536ZM209.429 112.748L208.836 113.087L209.147 113.681L209.599 113.54L209.995 113.116L209.429 112.748ZM212.369 114.218L212.058 113.822L211.606 113.992L211.521 114.501L212.03 114.529L212.369 114.218ZM221.443 114.925L220.962 114.953L220.793 115.321L221.076 115.66L221.386 115.377L221.443 114.925ZM223.563 116.48L222.687 115.716L221.98 116.451L222.008 117.469L222.969 117.271L223.563 116.48ZM213.359 116.677L212.708 116.282L212.058 116.706L212.397 117.356L212.991 117.299L213.359 116.677ZM219.521 116.451L218.334 116.367L217.853 117.384L218.701 117.921L219.634 117.61L219.521 116.451ZM220.341 118.741L220.058 118.628L219.945 118.939L220.171 119.08L220.369 118.967L220.341 118.741ZM218.56 119.504L218.023 119.278L217.994 119.872L218.305 120.211L218.842 119.985L218.56 119.504ZM211.832 119.646L211.012 119.759L211.154 120.522L211.747 121.002L212.567 120.352L211.832 119.646ZM219.323 121.511L218.842 121.059L218.079 121.37L218.39 122.161L219.069 122.048L219.323 121.511ZM211.549 121.624L210.617 122.133L210.475 122.953L211.295 123.32L211.86 122.67L211.549 121.624ZM221.952 124.168L220.849 123.462L220.227 124.338L220.114 125.553L221.556 125.525L221.952 124.168ZM209.486 124.394L209.034 124.055L208.553 124.423L208.807 124.96H209.373L209.486 124.394ZM211.889 124.14L211.352 124.508L211.238 125.299L212.002 125.129L212.624 124.592L211.889 124.14ZM235.257 125.61L234.691 124.479L235.257 123.349L234.465 122.218L235.257 121.115L234.578 120.154L235.257 119.193L234.296 118.571L235.257 117.949L234.183 117.271L235.257 116.593L234.409 115.632L235.257 114.67L234.437 113.709L235.257 112.777L234.55 112.155L235.257 111.533L234.352 110.798L235.257 110.063L234.946 108.876L236.02 108.282L236.868 107.604L237.716 108.282L238.847 107.406L239.977 108.282L240.967 107.604L241.419 108.706L242.069 109.328L241.419 109.95L242.154 111.137L241.419 112.324L242.041 113.087L241.419 113.879L241.984 114.444L241.419 115.01L242.437 115.801L241.419 116.593L242.493 117.215L241.419 117.836L242.408 118.798L241.419 119.759L242.182 120.663L241.419 121.568L242.182 122.67L241.419 123.801L242.154 124.705L241.419 125.61L241.673 126.486L240.882 126.939L239.977 127.56L239.073 126.939L238.225 127.645L237.377 126.939L236.416 127.928L235.257 125.61ZM236.67 108.819L236.444 108.48L236.02 108.706L236.161 109.102L236.585 109.215L236.67 108.819ZM239.977 108.791L239.723 108.565L239.384 108.649L239.299 109.13L239.808 109.187L239.977 108.791ZM240.628 110.741L239.61 109.95L238.621 110.77L239.214 111.618L240.09 111.731L240.628 110.741ZM237.575 112.239L236.472 111.759L235.879 112.833L236.472 114.105L237.744 113.427L237.575 112.239ZM240.854 114.19L239.977 113.625L239.045 114.303L239.525 115.405L240.797 115.349L240.854 114.19ZM237.857 115.829L237.603 115.858L237.518 116.027L237.659 116.225L237.914 116.112L237.857 115.829ZM237.942 117.412L237.575 117.271L237.292 117.469L237.405 117.836L237.801 117.808L237.942 117.412ZM236.981 118.063L236.614 117.752L236.19 117.921L236.274 118.402L236.727 118.487L236.981 118.063ZM239.921 118.826L238.423 118.713L238.197 120.211L239.356 121.059L240.175 120.013L239.921 118.826ZM236.585 121.059L236.105 121.002L235.992 121.455L236.303 121.794L236.755 121.539L236.585 121.059ZM239.327 123.405L238.366 122.981L237.801 123.97L238.507 125.045L239.751 124.479L239.327 123.405ZM240.797 124.027L240.571 124.112L240.656 124.338L240.882 124.451L240.995 124.197L240.797 124.027ZM237.886 125.497L237.433 125.44L237.405 125.949L237.857 126.147L238.253 125.808L237.886 125.497ZM239.666 125.723L239.384 125.638L239.073 125.836L239.356 126.062L239.582 126.006L239.666 125.723ZM251.883 126.401L250.808 125.497L251.883 124.592L251.035 123.744L251.883 122.896L251.317 121.709L252.618 121.596L252.363 120.267L253.692 120.437L253.607 119.419L254.653 119.476L254.907 118.317L256.038 118.006L256.179 116.48L257.706 116.31L257.819 115.462L258.639 115.321L258.836 114.02L260.137 113.794L259.713 113.342L259.543 113.512L258.865 112.89L257.904 113.512L256.943 112.89L256.292 113.455L255.614 112.89L254.879 113.512L254.144 112.89L253.607 113.681L253.042 112.89L252.052 112.522L252.165 111.476L251.261 110.854L252.165 110.261L251.261 109.356L252.165 108.48L252.844 107.547L253.72 108.282L254.738 107.519L255.755 108.282L256.377 107.519L256.999 108.282L257.734 107.519L258.469 108.282L259.656 107.434L260.843 108.282L261.522 107.519L262.2 108.282L262.822 107.491L263.444 108.282L264.462 107.236L265.479 108.282L266.158 107.717L266.836 108.282L267.599 107.83L268.052 108.593L268.871 109.695L268.052 110.826L269.041 111.589L268.052 112.381L268.306 113.37L267.317 113.625L267.401 114.586L266.412 114.614L266.045 115.858L264.829 116.367L265.14 117.554L263.925 117.356L263.67 118.543L262.511 118.939L262.539 120.041L261.437 120.098L261.578 121.059L260.617 121.031L260.815 121.879L261.041 121.766L262.172 122.274L263.02 121.709L263.868 122.274L264.462 121.653L265.084 122.274L266.271 121.596L267.43 122.274L268.278 122.077L268.419 122.925L268.984 123.829L268.419 124.705L268.984 125.723L268.419 126.741L267.317 127.617L266.073 126.939L265.168 127.532L264.264 126.939L263.133 127.702L262.002 126.939L261.098 127.504L260.193 126.939L259.543 127.787L258.865 126.939L258.13 127.56L257.395 126.939L256.434 127.674L255.473 126.939L254.512 127.73L253.55 126.939L252.815 127.73L251.883 126.401ZM257.253 109.752L256.886 109.978L257.027 110.289L257.338 110.374L257.48 110.063L257.253 109.752ZM264.462 110.063L263.953 110.091L263.84 110.459L264.066 110.741L264.49 110.572L264.462 110.063ZM255.36 111.052L255.133 111.25V111.505L255.444 111.646L255.501 111.307L255.36 111.052ZM264.377 111.759L264.122 111.872V112.239H264.49L264.66 111.929L264.377 111.759ZM260.306 112.353L260.193 112.042L259.939 112.239V112.494L260.193 112.55L260.306 112.353ZM265.762 112.946L265.451 113.116L265.564 113.455L265.932 113.625L266.073 113.201L265.762 112.946ZM264.405 113.964L263.472 113.851L262.709 114.36L263.274 115.236L264.151 114.897L264.405 113.964ZM262.483 116.169L262.172 116.197L262.285 116.48L262.483 116.536L262.681 116.367L262.483 116.169ZM259.43 117.045L258.752 117.158L258.497 117.723L259.006 118.034L259.43 117.695V117.045ZM259.826 118.826L259.543 118.741L259.26 118.939L259.515 119.137L259.769 119.108L259.826 118.826ZM257.706 122.359L255.246 121.511L254.088 123.801L255.727 124.988L257.367 124.536L257.706 122.359ZM262.624 123.377L262.342 123.066L262.031 123.292L262.115 123.603L262.455 123.801L262.624 123.377ZM265.564 123.857L265.253 123.773L265.168 124.055L265.31 124.281L265.649 124.197L265.564 123.857ZM267.458 124.818L267.006 124.932L266.864 125.327L267.26 125.44L267.628 125.271L267.458 124.818ZM262.144 125.667L261.889 125.214L261.437 125.497L261.409 125.949L261.889 126.062L262.144 125.667ZM259.006 125.695L258.497 125.751L258.215 126.091L258.554 126.515L259.091 126.288L259.006 125.695ZM260.504 126.119L260.193 126.006L260.165 126.373L260.448 126.515L260.617 126.288L260.504 126.119ZM278.832 126.628L277.871 125.667L278.832 124.705L278.04 123.97L278.832 123.236L277.758 122.161L278.832 121.115L277.758 120.324L278.832 119.532L277.786 118.571L278.832 117.61L277.786 116.932L278.832 116.253L278.04 115.066L278.832 113.879L277.729 113.087L278.832 112.324L277.899 111.307L278.832 110.289L278.097 109.724L278.832 109.158L279.454 108.339L280.5 108.282L281.404 107.236L282.28 108.282L283.015 107.434L283.75 108.282L284.372 107.349L284.994 108.282L285.955 107.293L286.888 108.282L287.566 107.604L288.245 108.282L288.98 107.377L289.715 108.282L290.732 107.688L291.722 108.282L292.57 107.236L293.418 108.282L294.492 109.187L293.729 110.374L294.803 111.25L293.729 112.126L293.079 113.172L291.948 112.663L290.874 113.342L289.8 112.663L289.008 113.427L288.217 112.663L287.029 113.285L285.842 112.663L285.559 113.709L284.485 113.681L285.446 114.473L284.824 115.575L285.899 114.812L286.944 115.575L287.906 115.179L288.867 115.575L289.884 114.981L290.874 115.575L291.891 115.179L292.909 115.575L293.559 116.395L293.107 117.328L293.729 118.232L293.107 119.108L292.655 119.928L291.778 119.646L291.213 120.183L290.676 119.646L289.941 120.183L289.206 119.646L288.641 120.409L288.075 119.646L287.171 120.381L286.294 119.646L285.475 120.409L284.485 119.872L285.503 120.55L284.485 121.2L285.192 121.85L285.277 121.794L286.068 122.557L286.916 122.077L287.764 122.557L288.838 122.133L289.913 122.557L290.704 121.85L291.496 122.557L292.57 121.992L293.644 122.557L294.746 122.981L293.955 123.857L294.859 124.649L293.955 125.412L294.69 126.175L293.898 126.882L292.768 127.504L291.609 126.939L290.676 127.532L289.715 126.939L288.923 127.56L288.132 126.939L287.227 127.984L286.351 126.939L285.446 128.013L284.542 126.939L283.581 127.9L282.62 126.939L281.715 127.787L280.839 126.939L279.934 127.532L278.832 126.628ZM290.082 108.876L289.941 108.593L289.686 108.763L289.715 108.989L289.941 109.158L290.082 108.876ZM282.196 109.215L281.489 109.017L281.065 109.554L281.348 110.317L282.28 110.119L282.196 109.215ZM291.693 109.271L291.185 109.356L291.043 109.922L291.665 110.402L292.231 109.752L291.693 109.271ZM285.418 109.413L285.135 109.3L284.881 109.356L284.994 109.639L285.22 109.611L285.418 109.413ZM284.824 110.713H284.089L283.835 111.42L284.457 111.759L285.192 111.476L284.824 110.713ZM282.337 111.561L281.206 111.533L280.952 112.692L281.941 113.342L282.591 112.522L282.337 111.561ZM280.5 114.388L279.765 114.557L279.68 115.292L280.302 115.377L280.641 115.038L280.5 114.388ZM284.372 116.536L283.157 114.84L281.517 116.084L281.743 117.808L283.326 117.836L284.372 116.536ZM287.425 117.101L286.944 116.677L286.379 117.045L286.747 117.525L287.255 117.695L287.425 117.101ZM289.121 117.978L288.725 118.232L288.669 118.628L289.093 118.741L289.319 118.402L289.121 117.978ZM290.761 118.798H290.534L290.365 118.995L290.591 119.193L290.845 119.052L290.761 118.798ZM283.524 119.815L282.789 119.532L282.309 120.098L282.761 120.522L283.213 120.409L283.524 119.815ZM283.355 122.218L282.62 121.653L281.63 121.737L281.856 122.755L282.733 123.009L283.355 122.218ZM285.983 123.066L285.672 122.84L285.418 122.953L285.333 123.292L285.729 123.349L285.983 123.066ZM281.545 123.405L280.782 123.264L280.075 123.66L280.669 124.168L281.206 124.084L281.545 123.405ZM289.969 125.129L289.573 125.44L289.658 125.808L290.11 126.034L290.252 125.525L289.969 125.129ZM283.496 125.44L283.185 125.638L283.1 126.091L283.552 126.034L283.779 125.723L283.496 125.44ZM309.784 127.052L308.965 127.589L308.428 126.797L307.127 127.165L306.392 126.034L305.035 125.836L304.527 124.592L303.226 123.886L303.481 122.444L303.961 121.568L304.922 121.709L305.601 120.946L306.279 121.709L307.41 121.059L308.512 121.709L309.304 121.257L309.728 122.077L311.028 121.85L311.933 122.84L312.809 121.963L313.855 122.614L313.94 121.737L314.788 121.822L313.94 121.257L313.855 120.239L313.12 120.465L312.639 119.9L311.48 120.324L310.491 119.561L309.643 120.098L309.021 119.278L307.721 119.448L306.76 118.487L305.714 118.656L305.459 117.61L304.47 117.271L304.414 116.253L303.255 115.292L303.905 113.936L303.028 112.946L304.187 112.239L303.566 111.335L304.668 111.222L304.583 110.035L305.77 109.922L305.601 108.706L306.703 109.271L307.184 108.141L308.371 108.536L309.332 107.547L310.604 108.056L311.169 107.067L311.848 107.999L312.95 107.208L313.883 108.169L314.873 107.264L315.325 108.508L316.71 108.367L317.53 109.469L318.971 109.384L319.197 110.826L320.159 110.939L319.904 111.872L320.922 112.268L320.272 113.172L319.819 114.162L319.113 113.342L318.378 114.02L317.643 113.342L316.738 113.936L315.834 113.342L314.646 113.512L313.629 112.89L312.752 113.144L312.187 112.381L311.452 113.512L310.152 113.172L310.915 113.851L310.859 114.897L311.65 114.416L311.961 115.236L313.035 114.699L313.911 115.547L314.675 115.123L315.24 115.745L315.975 115.377L316.484 116.027L317.445 115.943L318.18 116.621H319.565L319.989 117.921L320.922 118.345L320.752 119.335L321.544 120.324L320.978 121.455L321.261 122.727L320.328 123.631L320.526 124.621L319.508 124.705L319.65 125.836L318.547 125.525L318.152 126.43L317.162 126.288L316.597 127.136L315.664 126.797L314.816 127.674L313.742 127.136L313.007 128.267L309.784 127.052ZM310.661 109.695L310.35 109.469L309.926 109.582L310.067 110.035L310.576 110.204L310.661 109.695ZM308.484 109.526L308.117 109.469L307.919 109.695L308.06 110.006L308.428 109.95L308.484 109.526ZM306.703 110.656L306.138 110.176L305.657 110.487L305.714 110.967L306.223 111.194L306.703 110.656ZM313.318 110.515L312.244 110.487V111.505L312.979 112.126L313.629 111.391L313.318 110.515ZM306.421 113.851L305.827 114.162L305.516 114.953L306.477 115.264L306.958 114.444L306.421 113.851ZM306.562 115.914L306.053 115.943L305.742 116.451L306.251 116.706L306.788 116.451L306.562 115.914ZM308.371 116.31L308.06 116.48L308.173 116.847L308.541 116.819L308.654 116.508L308.371 116.31ZM310.972 117.328L310.717 117.271L310.463 117.525L310.774 117.752L311.169 117.667L310.972 117.328ZM313.827 117.582L313.431 117.554L313.318 117.893L313.572 118.147L313.94 117.978L313.827 117.582ZM316.145 119.617L315.749 118.995L315.042 119.448L315.127 120.324L315.975 120.239L316.145 119.617ZM320.328 119.363L319.141 119.25L317.954 119.9L318.915 121.059L320.074 120.607L320.328 119.363ZM304.329 122.557L303.99 122.303L303.763 122.557L303.792 122.84L304.159 122.953L304.329 122.557ZM316.964 123.688L316.173 122.529L315.212 123.32L314.873 124.536L316.229 124.734L316.964 123.688ZM305.912 123.009L305.375 123.349L305.403 123.801L305.827 123.97L306.053 123.603L305.912 123.009ZM308.088 123.151H307.664L307.495 123.66L308.004 123.829L308.456 123.518L308.088 123.151ZM311.65 124.31L311.141 124.592L311.198 125.299L312.074 125.412L312.244 124.592L311.65 124.31ZM313.092 126.43L312.837 126.345L312.668 126.43L312.752 126.599L312.95 126.656L313.092 126.43Z" fill="#22303A"/>
<defs>
<linearGradient id="paint0_linear_201_1936" x1="4.68555" y1="23.7438" x2="27.6417" y2="153.361" gradientUnits="userSpaceOnUse">
<stop offset="0.0216666" stop-color="#78AAC5"/>
<stop offset="0.318199" stop-color="#F3808E"/>
<stop offset="0.693895" stop-color="#FCB236"/>
<stop offset="1" stop-color="#F7EEA6"/>
</linearGradient>
<linearGradient id="paint1_linear_201_1936" x1="151.352" y1="9.38356" x2="151.309" y2="34.8509" gradientUnits="userSpaceOnUse">
<stop offset="0.0216666" stop-color="#78AAC5"/>
<stop offset="0.318199" stop-color="#F3808E"/>
<stop offset="0.693895" stop-color="#FCB236"/>
<stop offset="1" stop-color="#F7EEA6"/>
</linearGradient>
</defs>
</svg>
