<svg width="534" height="98" viewBox="0 0 534 98" fill="none" xmlns="http://www.w3.org/2000/svg">
<path d="M93.723 53V17.8832H117.763V24.2466H101.029V33.1555H115.406V39.5189H101.029V53H93.723ZM120.87 53V17.3175H127.94V53H120.87ZM141.08 53.5656C139.226 53.5656 137.624 53.2671 136.272 52.67C134.921 52.073 133.884 51.2245 133.161 50.1247C132.438 48.9934 132.077 47.6578 132.077 46.118C132.077 44.6725 132.407 43.3998 133.067 42.3C133.727 41.1687 134.732 40.226 136.084 39.4718C137.466 38.7176 139.179 38.1834 141.222 37.8691L149.093 36.5964V41.7815L142.494 42.9599C141.489 43.1484 140.719 43.4784 140.185 43.9498C139.65 44.3897 139.383 45.0339 139.383 45.8824C139.383 46.668 139.682 47.2808 140.279 47.7207C140.876 48.1606 141.614 48.3806 142.494 48.3806C143.657 48.3806 144.678 48.1292 145.558 47.6264C146.438 47.1236 147.114 46.448 147.585 45.5995C148.088 44.7197 148.339 43.7612 148.339 42.7242V36.0308C148.339 35.0566 147.946 34.2396 147.161 33.5797C146.407 32.9198 145.37 32.5898 144.05 32.5898C142.793 32.5898 141.677 32.9355 140.703 33.6268C139.76 34.3182 139.069 35.2295 138.629 36.3608L132.973 33.674C133.476 32.2284 134.277 30.9872 135.377 29.9502C136.477 28.9132 137.796 28.1118 139.336 27.5462C140.876 26.9806 142.557 26.6977 144.38 26.6977C146.548 26.6977 148.465 27.0905 150.13 27.8762C151.796 28.6618 153.084 29.7616 153.996 31.1757C154.938 32.5584 155.41 34.1768 155.41 36.0308V53H148.811V48.852L150.413 48.5692C149.659 49.7004 148.826 50.6432 147.915 51.3974C147.004 52.1201 145.982 52.6543 144.851 53C143.72 53.3771 142.463 53.5656 141.08 53.5656ZM158.568 53L167.571 40.0846L158.521 27.2634H166.723L173.511 37.2564H169.928L176.716 27.2634H184.918L175.867 40.0846L184.823 53H176.669L170.023 43.007H173.416L166.77 53H158.568ZM186.003 53L195.006 40.0846L185.956 27.2634H194.158L200.946 37.2564H197.363L204.151 27.2634H212.353L203.302 40.0846L212.258 53H204.104L197.458 43.007H200.851L194.205 53H186.003ZM222.971 53.5656C221.117 53.5656 219.514 53.2671 218.163 52.67C216.812 52.073 215.775 51.2245 215.052 50.1247C214.329 48.9934 213.968 47.6578 213.968 46.118C213.968 44.6725 214.298 43.3998 214.958 42.3C215.618 41.1687 216.623 40.226 217.974 39.4718C219.357 38.7176 221.07 38.1834 223.112 37.8691L230.984 36.5964V41.7815L224.385 42.9599C223.38 43.1484 222.61 43.4784 222.075 43.9498C221.541 44.3897 221.274 45.0339 221.274 45.8824C221.274 46.668 221.573 47.2808 222.17 47.7207C222.767 48.1606 223.505 48.3806 224.385 48.3806C225.548 48.3806 226.569 48.1292 227.449 47.6264C228.329 47.1236 229.004 46.448 229.476 45.5995C229.979 44.7197 230.23 43.7612 230.23 42.7242V36.0308C230.23 35.0566 229.837 34.2396 229.052 33.5797C228.297 32.9198 227.26 32.5898 225.941 32.5898C224.684 32.5898 223.568 32.9355 222.594 33.6268C221.651 34.3182 220.96 35.2295 220.52 36.3608L214.863 33.674C215.366 32.2284 216.168 30.9872 217.267 29.9502C218.367 28.9132 219.687 28.1118 221.227 27.5462C222.767 26.9806 224.448 26.6977 226.271 26.6977C228.439 26.6977 230.356 27.0905 232.021 27.8762C233.687 28.6618 234.975 29.7616 235.886 31.1757C236.829 32.5584 237.301 34.1768 237.301 36.0308V53H230.701V48.852L232.304 48.5692C231.55 49.7004 230.717 50.6432 229.806 51.3974C228.894 52.1201 227.873 52.6543 226.742 53C225.611 53.3771 224.354 53.5656 222.971 53.5656ZM251.474 53V17.8832H258.78V46.6365H273.629V53H251.474ZM289.131 53.5656C286.397 53.5656 284.024 52.9686 282.013 51.7744C280.002 50.5489 278.446 48.9148 277.346 46.8722C276.247 44.8296 275.697 42.5671 275.697 40.0846C275.697 37.5077 276.262 35.2138 277.394 33.2026C278.556 31.1914 280.112 29.6045 282.06 28.4418C284.008 27.2791 286.208 26.6977 288.659 26.6977C290.702 26.6977 292.509 27.0277 294.08 27.6876C295.651 28.3161 296.971 29.2117 298.039 30.3744C299.139 31.5371 299.972 32.8884 300.538 34.4281C301.103 35.9365 301.386 37.5863 301.386 39.3775C301.386 39.8803 301.355 40.3831 301.292 40.8859C301.26 41.3572 301.182 41.7658 301.056 42.1114H281.777V36.9264H297.05L293.703 39.3775C294.017 38.0262 294.001 36.8321 293.656 35.7951C293.31 34.7267 292.697 33.8939 291.817 33.2969C290.969 32.6684 289.916 32.3541 288.659 32.3541C287.434 32.3541 286.381 32.6527 285.501 33.2497C284.621 33.8468 283.961 34.7267 283.521 35.8894C283.081 37.0521 282.909 38.4662 283.003 40.1317C282.877 41.5772 283.05 42.8499 283.521 43.9498C283.993 45.0496 284.715 45.9138 285.69 46.5423C286.664 47.1393 287.842 47.4379 289.225 47.4379C290.482 47.4379 291.55 47.1865 292.43 46.6837C293.341 46.1809 294.049 45.4896 294.551 44.6097L300.208 47.2965C299.705 48.5534 298.904 49.6533 297.804 50.596C296.735 51.5388 295.463 52.2772 293.986 52.8115C292.509 53.3142 290.89 53.5656 289.131 53.5656ZM313.516 53.5656C311.662 53.5656 310.059 53.2671 308.708 52.67C307.357 52.073 306.32 51.2245 305.597 50.1247C304.874 48.9934 304.513 47.6578 304.513 46.118C304.513 44.6725 304.843 43.3998 305.503 42.3C306.162 41.1687 307.168 40.226 308.519 39.4718C309.902 38.7176 311.615 38.1834 313.657 37.8691L321.529 36.5964V41.7815L314.93 42.9599C313.924 43.1484 313.154 43.4784 312.62 43.9498C312.086 44.3897 311.819 45.0339 311.819 45.8824C311.819 46.668 312.117 47.2808 312.714 47.7207C313.311 48.1606 314.05 48.3806 314.93 48.3806C316.093 48.3806 317.114 48.1292 317.994 47.6264C318.874 47.1236 319.549 46.448 320.021 45.5995C320.523 44.7197 320.775 43.7612 320.775 42.7242V36.0308C320.775 35.0566 320.382 34.2396 319.596 33.5797C318.842 32.9198 317.805 32.5898 316.485 32.5898C315.228 32.5898 314.113 32.9355 313.139 33.6268C312.196 34.3182 311.505 35.2295 311.065 36.3608L305.408 33.674C305.911 32.2284 306.712 30.9872 307.812 29.9502C308.912 28.9132 310.232 28.1118 311.772 27.5462C313.311 26.9806 314.993 26.6977 316.815 26.6977C318.984 26.6977 320.9 27.0905 322.566 27.8762C324.231 28.6618 325.52 29.7616 326.431 31.1757C327.374 32.5584 327.845 34.1768 327.845 36.0308V53H321.246V48.852L322.849 48.5692C322.095 49.7004 321.262 50.6432 320.351 51.3974C319.439 52.1201 318.418 52.6543 317.287 53C316.155 53.3771 314.898 53.5656 313.516 53.5656ZM345.145 53.5656C342.631 53.5656 340.384 52.9686 338.404 51.7744C336.425 50.5803 334.853 48.962 333.691 46.9194C332.559 44.8768 331.994 42.6142 331.994 40.1317C331.994 37.6177 332.575 35.3552 333.738 33.344C334.9 31.3014 336.472 29.6831 338.451 28.4889C340.431 27.2948 342.647 26.6977 345.098 26.6977C346.983 26.6977 348.649 27.0591 350.094 27.7819C351.571 28.4732 352.734 29.4631 353.582 30.7515L352.498 32.1656V17.3175H359.569V53H352.97V48.2863L353.629 49.7476C352.75 51.0045 351.555 51.963 350.047 52.6229C348.539 53.2514 346.905 53.5656 345.145 53.5656ZM345.993 47.2022C347.282 47.2022 348.413 46.9037 349.387 46.3066C350.361 45.7095 351.115 44.8768 351.65 43.8083C352.215 42.7399 352.498 41.5144 352.498 40.1317C352.498 38.749 352.215 37.5235 351.65 36.455C351.115 35.3866 350.361 34.5538 349.387 33.9568C348.413 33.3597 347.282 33.0612 345.993 33.0612C344.705 33.0612 343.542 33.3754 342.505 34.0039C341.5 34.601 340.714 35.4337 340.148 36.5022C339.583 37.5392 339.3 38.749 339.3 40.1317C339.3 41.5144 339.583 42.7399 340.148 43.8083C340.714 44.8768 341.5 45.7095 342.505 46.3066C343.542 46.9037 344.705 47.2022 345.993 47.2022ZM374.834 53.5656C372.006 53.5656 369.539 52.9057 367.433 51.5859C365.359 50.2346 363.945 48.4277 363.191 46.1652L368.376 43.7141C369.036 45.0968 369.932 46.1809 371.063 46.9665C372.194 47.7521 373.451 48.1449 374.834 48.1449C375.839 48.1449 376.609 47.9407 377.144 47.5321C377.678 47.1236 377.945 46.558 377.945 45.8352C377.945 45.4581 377.851 45.1439 377.662 44.8925C377.474 44.6097 377.191 44.3583 376.814 44.1383C376.437 43.9183 375.965 43.7298 375.4 43.5727L371.016 42.3471C368.91 41.75 367.292 40.7916 366.161 39.4718C365.029 38.1205 364.464 36.5336 364.464 34.711C364.464 33.1083 364.872 31.7099 365.689 30.5158C366.506 29.3217 367.653 28.3947 369.13 27.7347C370.607 27.0434 372.304 26.6977 374.221 26.6977C376.735 26.6977 378.935 27.2948 380.82 28.4889C382.737 29.6516 384.088 31.3014 384.874 33.4383L379.642 35.8894C379.265 34.821 378.573 33.9725 377.568 33.344C376.594 32.6841 375.478 32.3541 374.221 32.3541C373.31 32.3541 372.587 32.5427 372.053 32.9198C371.55 33.2969 371.299 33.8154 371.299 34.4753C371.299 34.821 371.393 35.1352 371.581 35.418C371.77 35.7008 372.069 35.9522 372.477 36.1722C372.917 36.3922 373.451 36.5964 374.08 36.785L378.181 38.0105C380.317 38.639 381.952 39.5975 383.083 40.8859C384.214 42.1429 384.78 43.6984 384.78 45.5524C384.78 47.1551 384.356 48.5534 383.507 49.7476C382.69 50.9417 381.543 51.8844 380.066 52.5758C378.589 53.2357 376.845 53.5656 374.834 53.5656ZM389.524 53V17.8832H413.564V24.2466H396.83V33.1555H411.207V39.5189H396.83V53H389.524ZM416.671 53V27.2634H423.741V53H416.671ZM416.671 24.9537V17.8832H423.741V24.9537H416.671ZM428.915 53V27.2634H435.514V32.3541L435.137 31.2229C435.734 29.6831 436.693 28.5518 438.013 27.829C439.364 27.0748 440.935 26.6977 442.726 26.6977C444.675 26.6977 446.371 27.1063 447.817 27.9233C449.294 28.7403 450.441 29.8873 451.258 31.3643C452.075 32.8098 452.483 34.5067 452.483 36.455V53H445.413V37.9634C445.413 36.9578 445.209 36.0936 444.8 35.3709C444.423 34.6481 443.873 34.0825 443.15 33.674C442.459 33.2654 441.642 33.0612 440.699 33.0612C439.788 33.0612 438.971 33.2654 438.248 33.674C437.525 34.0825 436.96 34.6481 436.551 35.3709C436.174 36.0936 435.986 36.9578 435.986 37.9634V53H428.915ZM469.247 53.5656C466.733 53.5656 464.486 52.9686 462.506 51.7744C460.527 50.5803 458.955 48.962 457.793 46.9194C456.661 44.8768 456.096 42.6142 456.096 40.1317C456.096 37.6177 456.677 35.3552 457.84 33.344C459.002 31.3014 460.574 29.6831 462.553 28.4889C464.533 27.2948 466.749 26.6977 469.2 26.6977C471.085 26.6977 472.751 27.0591 474.196 27.7819C475.673 28.4732 476.836 29.4631 477.684 30.7515L476.6 32.1656V17.3175H483.671V53H477.072V48.2863L477.731 49.7476C476.852 51.0045 475.657 51.963 474.149 52.6229C472.641 53.2514 471.007 53.5656 469.247 53.5656ZM470.095 47.2022C471.384 47.2022 472.515 46.9037 473.489 46.3066C474.463 45.7095 475.217 44.8768 475.752 43.8083C476.317 42.7399 476.6 41.5144 476.6 40.1317C476.6 38.749 476.317 37.5235 475.752 36.455C475.217 35.3866 474.463 34.5538 473.489 33.9568C472.515 33.3597 471.384 33.0612 470.095 33.0612C468.807 33.0612 467.644 33.3754 466.607 34.0039C465.602 34.601 464.816 35.4337 464.25 36.5022C463.685 37.5392 463.402 38.749 463.402 40.1317C463.402 41.5144 463.685 42.7399 464.25 43.8083C464.816 44.8768 465.602 45.7095 466.607 46.3066C467.644 46.9037 468.807 47.2022 470.095 47.2022ZM501.246 53.5656C498.512 53.5656 496.139 52.9686 494.128 51.7744C492.117 50.5489 490.561 48.9148 489.461 46.8722C488.362 44.8296 487.812 42.5671 487.812 40.0846C487.812 37.5077 488.377 35.2138 489.509 33.2026C490.671 31.1914 492.227 29.6045 494.175 28.4418C496.123 27.2791 498.323 26.6977 500.774 26.6977C502.817 26.6977 504.624 27.0277 506.195 27.6876C507.766 28.3161 509.086 29.2117 510.154 30.3744C511.254 31.5371 512.087 32.8884 512.653 34.4281C513.218 35.9365 513.501 37.5863 513.501 39.3775C513.501 39.8803 513.47 40.3831 513.407 40.8859C513.375 41.3572 513.297 41.7658 513.171 42.1114H493.892V36.9264H509.165L505.818 39.3775C506.132 38.0262 506.116 36.8321 505.771 35.7951C505.425 34.7267 504.812 33.8939 503.932 33.2969C503.084 32.6684 502.031 32.3541 500.774 32.3541C499.549 32.3541 498.496 32.6527 497.616 33.2497C496.736 33.8468 496.076 34.7267 495.636 35.8894C495.196 37.0521 495.024 38.4662 495.118 40.1317C494.992 41.5772 495.165 42.8499 495.636 43.9498C496.108 45.0496 496.831 45.9138 497.805 46.5423C498.779 47.1393 499.957 47.4379 501.34 47.4379C502.597 47.4379 503.665 47.1865 504.545 46.6837C505.457 46.1809 506.164 45.4896 506.666 44.6097L512.323 47.2965C511.82 48.5534 511.019 49.6533 509.919 50.596C508.85 51.5388 507.578 52.2772 506.101 52.8115C504.624 53.3142 503.005 53.5656 501.246 53.5656ZM517.665 53V27.2634H524.264V33.4383L523.792 32.5427C524.358 30.3744 525.285 28.9132 526.573 28.159C527.893 27.3734 529.449 26.9806 531.24 26.9806H532.748V33.1083H530.533C528.805 33.1083 527.406 33.6425 526.338 34.711C525.269 35.748 524.735 37.2249 524.735 39.1418V53H517.665Z" fill="#0C0C0C"/>
<path d="M121.748 89.8508C120.59 89.8508 119.576 89.6027 118.704 89.1067C117.832 88.6107 117.148 87.9268 116.652 87.055C116.171 86.1682 115.931 85.1536 115.931 84.0112V72.783H117.396V84.0563C117.396 84.9281 117.576 85.7022 117.937 86.3786C118.313 87.04 118.824 87.5585 119.47 87.9343C120.132 88.3101 120.891 88.498 121.748 88.498C122.604 88.498 123.356 88.3101 124.002 87.9343C124.664 87.5585 125.175 87.04 125.535 86.3786C125.896 85.7022 126.077 84.9281 126.077 84.0563V72.783H127.542V84.0112C127.542 85.1536 127.302 86.1682 126.821 87.055C126.34 87.9268 125.663 88.6107 124.791 89.1067C123.92 89.6027 122.905 89.8508 121.748 89.8508ZM131.45 89.5802V77.608H132.802V80.0205L132.464 79.9303C132.735 79.1336 133.216 78.5023 133.907 78.0364C134.614 77.5704 135.433 77.3374 136.365 77.3374C137.192 77.3374 137.943 77.5253 138.619 77.9011C139.296 78.2769 139.837 78.8029 140.243 79.4793C140.649 80.1407 140.852 80.8998 140.852 81.7565V89.5802H139.499V82.1398C139.499 81.4183 139.356 80.8021 139.07 80.291C138.785 79.7649 138.386 79.3666 137.875 79.096C137.379 78.8105 136.808 78.6677 136.162 78.6677C135.485 78.6677 134.892 78.8255 134.381 79.1411C133.87 79.4568 133.479 79.8927 133.208 80.4488C132.938 81.005 132.802 81.6438 132.802 82.3653V89.5802H131.45ZM144.352 89.5802V72.5124H145.705V89.5802H144.352ZM154.985 89.8508C153.843 89.8508 152.813 89.5802 151.897 89.0391C150.98 88.498 150.251 87.7539 149.71 86.807C149.183 85.845 148.92 84.7703 148.92 83.5828C148.92 82.3954 149.183 81.3282 149.71 80.3812C150.251 79.4342 150.972 78.6902 151.874 78.1491C152.791 77.608 153.828 77.3374 154.985 77.3374C156.128 77.3374 157.157 77.608 158.074 78.1491C158.991 78.6902 159.713 79.4342 160.239 80.3812C160.765 81.3131 161.028 82.3803 161.028 83.5828C161.028 84.7853 160.757 85.86 160.216 86.807C159.675 87.7539 158.946 88.498 158.029 89.0391C157.127 89.5802 156.113 89.8508 154.985 89.8508ZM154.985 88.5205C155.842 88.5205 156.616 88.3101 157.308 87.8892C158.014 87.4533 158.57 86.8596 158.976 86.108C159.382 85.3565 159.585 84.5147 159.585 83.5828C159.585 82.6509 159.382 81.8167 158.976 81.0801C158.57 80.3436 158.022 79.7574 157.33 79.3215C156.639 78.8856 155.857 78.6677 154.985 78.6677C154.114 78.6677 153.325 78.8856 152.618 79.3215C151.927 79.7424 151.378 80.3286 150.972 81.0801C150.566 81.8167 150.363 82.6509 150.363 83.5828C150.363 84.5147 150.566 85.3565 150.972 86.108C151.393 86.8596 151.949 87.4533 152.641 87.8892C153.332 88.3101 154.114 88.5205 154.985 88.5205ZM169.735 89.8508C168.593 89.8508 167.57 89.5802 166.669 89.0391C165.782 88.4829 165.075 87.7314 164.549 86.7844C164.038 85.8375 163.783 84.7703 163.783 83.5828C163.783 82.3803 164.038 81.3131 164.549 80.3812C165.075 79.4342 165.782 78.6902 166.669 78.1491C167.57 77.608 168.593 77.3374 169.735 77.3374C170.487 77.3374 171.178 77.4652 171.809 77.7207C172.456 77.9762 173.027 78.3219 173.523 78.7578C174.019 79.1937 174.395 79.6973 174.65 80.2685L173.455 80.8998C173.094 80.2083 172.591 79.6597 171.945 79.2539C171.298 78.848 170.562 78.6451 169.735 78.6451C168.878 78.6451 168.104 78.8555 167.413 79.2764C166.736 79.6973 166.195 80.2835 165.789 81.035C165.383 81.7716 165.181 82.6208 165.181 83.5828C165.181 84.5448 165.383 85.4016 165.789 86.1531C166.195 86.8896 166.736 87.4683 167.413 87.8892C168.104 88.3101 168.878 88.5205 169.735 88.5205C170.562 88.5205 171.298 88.3176 171.945 87.9118C172.591 87.5059 173.094 86.9498 173.455 86.2433L174.65 86.8972C174.395 87.4533 174.019 87.9568 173.523 88.4078C173.027 88.8437 172.456 89.1969 171.809 89.4675C171.178 89.723 170.487 89.8508 169.735 89.8508ZM177.886 89.5802V72.5124H179.239V84.7101L178.54 84.6425L185.619 77.608H187.468L182.643 82.4329L187.919 89.5802H186.228L181.223 82.8613L182.125 82.8839L178.878 86.2208L179.239 85.2964V89.5802H177.886ZM194.119 89.5802V72.783H195.359L205.528 87.3706H205.054V72.783H206.52V89.5802H205.28L195.066 74.9024H195.585V89.5802H194.119ZM215.974 89.8508C214.846 89.8508 213.832 89.5802 212.93 89.0391C212.028 88.4829 211.314 87.7314 210.788 86.7844C210.262 85.8224 209.999 84.7477 209.999 83.5603C209.999 82.3728 210.254 81.3131 210.765 80.3812C211.276 79.4342 211.968 78.6902 212.84 78.1491C213.711 77.608 214.688 77.3374 215.771 77.3374C216.597 77.3374 217.341 77.4877 218.003 77.7883C218.679 78.089 219.258 78.5098 219.739 79.051C220.235 79.577 220.611 80.1858 220.866 80.8772C221.137 81.5536 221.272 82.2676 221.272 83.0191C221.272 83.1695 221.265 83.3273 221.249 83.4926C221.234 83.658 221.212 83.8308 221.182 84.0112H210.788V82.7711H220.415L219.806 83.2446C219.897 82.3728 219.769 81.5912 219.423 80.8998C219.077 80.1933 218.581 79.6372 217.935 79.2313C217.304 78.8105 216.582 78.6 215.771 78.6C214.959 78.6 214.215 78.818 213.539 79.2539C212.862 79.6747 212.329 80.2609 211.938 81.0125C211.547 81.749 211.367 82.6058 211.397 83.5828C211.367 84.5598 211.554 85.4241 211.96 86.1757C212.366 86.9272 212.922 87.5209 213.629 87.9568C214.335 88.3777 215.117 88.5882 215.974 88.5882C216.845 88.5882 217.604 88.3852 218.251 87.9794C218.897 87.5585 219.423 87.0024 219.829 86.3109L220.979 86.9197C220.708 87.4759 220.325 87.9794 219.829 88.4303C219.333 88.8662 218.754 89.2119 218.093 89.4675C217.447 89.723 216.74 89.8508 215.974 89.8508ZM227.114 89.5802L223.01 77.608H224.521L228.106 88.4529H227.52L230.766 77.608H232.142L235.388 88.4529H234.802L238.41 77.608H239.92L235.794 89.5802H234.419L231.285 79.1186H231.623L228.489 89.5802H227.114ZM246.126 89.5802V72.783H247.591V88.2274H255.145V89.5802H246.126ZM263.357 89.8508C262.229 89.8508 261.215 89.5802 260.313 89.0391C259.411 88.4829 258.697 87.7314 258.171 86.7844C257.645 85.8224 257.382 84.7477 257.382 83.5603C257.382 82.3728 257.637 81.3131 258.148 80.3812C258.659 79.4342 259.351 78.6902 260.223 78.1491C261.094 77.608 262.071 77.3374 263.154 77.3374C263.98 77.3374 264.724 77.4877 265.386 77.7883C266.062 78.089 266.641 78.5098 267.122 79.051C267.618 79.577 267.994 80.1858 268.249 80.8772C268.52 81.5536 268.655 82.2676 268.655 83.0191C268.655 83.1695 268.648 83.3273 268.633 83.4926C268.617 83.658 268.595 83.8308 268.565 84.0112H258.171V82.7711H267.798L267.19 83.2446C267.28 82.3728 267.152 81.5912 266.806 80.8998C266.461 80.1933 265.965 79.6372 265.318 79.2313C264.687 78.8105 263.965 78.6 263.154 78.6C262.342 78.6 261.598 78.818 260.922 79.2539C260.245 79.6747 259.712 80.2609 259.321 81.0125C258.93 81.749 258.75 82.6058 258.78 83.5828C258.75 84.5598 258.937 85.4241 259.343 86.1757C259.749 86.9272 260.305 87.5209 261.012 87.9568C261.718 88.3777 262.5 88.5882 263.357 88.5882C264.228 88.5882 264.987 88.3852 265.634 87.9794C266.28 87.5585 266.806 87.0024 267.212 86.3109L268.362 86.9197C268.091 87.4759 267.708 87.9794 267.212 88.4303C266.716 88.8662 266.137 89.2119 265.476 89.4675C264.83 89.723 264.123 89.8508 263.357 89.8508ZM275.088 89.8508C274.337 89.8508 273.668 89.708 273.082 89.4224C272.495 89.1368 272.029 88.7385 271.684 88.2274C271.338 87.7164 271.165 87.1301 271.165 86.4688C271.165 85.8826 271.293 85.3339 271.548 84.8229C271.804 84.3118 272.217 83.8759 272.788 83.5152C273.36 83.1394 274.104 82.8764 275.021 82.726L279.868 81.9144V83.177L275.381 83.921C274.359 84.0864 273.638 84.3945 273.217 84.8454C272.796 85.2964 272.586 85.8224 272.586 86.4237C272.586 87.07 272.826 87.5961 273.307 88.0019C273.803 88.4078 274.427 88.6107 275.178 88.6107C276.05 88.6107 276.809 88.4153 277.456 88.0245C278.102 87.6186 278.605 87.0926 278.966 86.4462C279.327 85.7849 279.507 85.0634 279.507 84.2818V81.3056C279.507 80.509 279.222 79.8626 278.651 79.3666C278.079 78.8706 277.335 78.6226 276.418 78.6226C275.667 78.6226 274.991 78.8105 274.389 79.1862C273.788 79.562 273.33 80.0505 273.014 80.6518L271.796 79.9979C272.022 79.5169 272.368 79.0735 272.834 78.6677C273.3 78.2618 273.841 77.9387 274.457 77.6982C275.073 77.4577 275.727 77.3374 276.418 77.3374C277.29 77.3374 278.057 77.5103 278.718 77.856C279.395 78.1867 279.921 78.6526 280.296 79.2539C280.672 79.8401 280.86 80.524 280.86 81.3056V89.5802H279.507V87.0775L279.665 87.1903C279.47 87.6713 279.147 88.1147 278.696 88.5205C278.245 88.9113 277.711 89.2345 277.095 89.49C276.494 89.7305 275.825 89.8508 275.088 89.8508ZM289.974 89.8508C288.862 89.8508 287.855 89.5802 286.953 89.0391C286.066 88.4829 285.367 87.7314 284.856 86.7844C284.345 85.8375 284.09 84.7703 284.09 83.5828C284.09 82.3954 284.345 81.3282 284.856 80.3812C285.367 79.4342 286.066 78.6902 286.953 78.1491C287.855 77.608 288.862 77.3374 289.974 77.3374C291.072 77.3374 292.049 77.6005 292.905 78.1265C293.762 78.6376 294.409 79.329 294.844 80.2008L294.619 80.6292V72.5124H295.972V89.5802H294.619V86.5364L294.844 86.8521C294.424 87.784 293.777 88.5205 292.905 89.0616C292.049 89.5877 291.072 89.8508 289.974 89.8508ZM290.02 88.498C290.891 88.498 291.665 88.2875 292.342 87.8667C293.033 87.4308 293.582 86.8445 293.988 86.108C294.394 85.3565 294.596 84.5147 294.596 83.5828C294.596 82.6509 294.394 81.8167 293.988 81.0801C293.582 80.3436 293.033 79.7649 292.342 79.3441C291.665 78.9082 290.891 78.6902 290.02 78.6902C289.163 78.6902 288.396 78.9082 287.72 79.3441C287.043 79.7649 286.51 80.3436 286.119 81.0801C285.728 81.8167 285.533 82.6509 285.533 83.5828C285.533 84.5147 285.728 85.3565 286.119 86.108C286.51 86.8445 287.043 87.4308 287.72 87.8667C288.396 88.2875 289.163 88.498 290.02 88.498ZM303.748 89.8508C302.636 89.8508 301.659 89.5727 300.817 89.0165C299.975 88.4604 299.359 87.7013 298.968 86.7393L300.141 86.1982C300.516 86.9347 301.02 87.5209 301.651 87.9568C302.283 88.3777 302.982 88.5882 303.748 88.5882C304.53 88.5882 305.184 88.4003 305.71 88.0245C306.251 87.6337 306.521 87.1226 306.521 86.4913C306.521 86.1005 306.416 85.7698 306.206 85.4993C306.01 85.2287 305.755 85.0108 305.439 84.8454C305.123 84.665 304.785 84.5298 304.424 84.4396L302.576 83.921C301.539 83.6354 300.772 83.2146 300.276 82.6584C299.795 82.1023 299.554 81.4484 299.554 80.6968C299.554 80.0205 299.727 79.4342 300.073 78.9382C300.419 78.4272 300.885 78.0364 301.471 77.7658C302.057 77.4802 302.703 77.3374 303.41 77.3374C304.402 77.3374 305.304 77.5929 306.115 78.104C306.927 78.615 307.498 79.3065 307.829 80.1783L306.612 80.7419C306.296 80.0655 305.852 79.5395 305.281 79.1637C304.71 78.7729 304.079 78.5775 303.387 78.5775C302.666 78.5775 302.08 78.7729 301.629 79.1637C301.178 79.5395 300.952 80.0205 300.952 80.6067C300.952 80.9824 301.043 81.2981 301.223 81.5536C301.403 81.7941 301.636 81.997 301.922 82.1624C302.222 82.3127 302.531 82.4329 302.846 82.5231L304.853 83.1093C305.83 83.3799 306.581 83.8083 307.108 84.3945C307.649 84.9807 307.919 85.6721 307.919 86.4688C307.919 87.1151 307.739 87.6938 307.378 88.2049C307.017 88.7159 306.521 89.1218 305.89 89.4224C305.259 89.708 304.545 89.8508 303.748 89.8508ZM311.117 92.4211V91.6545C311.492 91.5342 311.77 91.3088 311.951 90.9781C312.146 90.6474 312.244 90.1814 312.244 89.5802H311.568V87.3255H313.078V89.0616C313.078 90.0086 312.905 90.7601 312.56 91.3163C312.229 91.8875 311.748 92.2557 311.117 92.4211ZM320.966 89.5802V72.783H331.562V74.1358H322.431V80.4714H331.112V81.8242H322.431V88.2274H331.562V89.5802H320.966ZM337.792 89.5802L333.057 77.608H334.567L338.761 88.3852H338.243L342.436 77.608H343.992L339.19 89.5802H337.792ZM351.473 89.8508C350.346 89.8508 349.331 89.5802 348.429 89.0391C347.528 88.4829 346.814 87.7314 346.287 86.7844C345.761 85.8224 345.498 84.7477 345.498 83.5603C345.498 82.3728 345.754 81.3131 346.265 80.3812C346.776 79.4342 347.467 78.6902 348.339 78.1491C349.211 77.608 350.188 77.3374 351.27 77.3374C352.097 77.3374 352.841 77.4877 353.502 77.7883C354.179 78.089 354.757 78.5098 355.238 79.051C355.735 79.577 356.11 80.1858 356.366 80.8772C356.636 81.5536 356.772 82.2676 356.772 83.0191C356.772 83.1695 356.764 83.3273 356.749 83.4926C356.734 83.658 356.712 83.8308 356.681 84.0112H346.287V82.7711H355.915L355.306 83.2446C355.396 82.3728 355.269 81.5912 354.923 80.8998C354.577 80.1933 354.081 79.6372 353.435 79.2313C352.803 78.8105 352.082 78.6 351.27 78.6C350.459 78.6 349.715 78.818 349.038 79.2539C348.362 79.6747 347.828 80.2609 347.437 81.0125C347.047 81.749 346.866 82.6058 346.896 83.5828C346.866 84.5598 347.054 85.4241 347.46 86.1757C347.866 86.9272 348.422 87.5209 349.128 87.9568C349.835 88.3777 350.616 88.5882 351.473 88.5882C352.345 88.5882 353.104 88.3852 353.75 87.9794C354.397 87.5585 354.923 87.0024 355.329 86.3109L356.479 86.9197C356.208 87.4759 355.825 87.9794 355.329 88.4303C354.833 88.8662 354.254 89.2119 353.593 89.4675C352.946 89.723 352.24 89.8508 351.473 89.8508ZM359.998 89.5802V77.608H361.351V79.8401L361.103 79.6372C361.358 78.9608 361.794 78.4272 362.41 78.0364C363.042 77.6455 363.786 77.4501 364.643 77.4501H365.409V78.8029H364.485C363.508 78.8029 362.741 79.1186 362.185 79.7499C361.629 80.3662 361.351 81.2004 361.351 82.2526V89.5802H359.998ZM367.683 94.5404C367.473 94.5404 367.24 94.5179 366.984 94.4728C366.744 94.4427 366.511 94.3901 366.285 94.315V93.0524C366.466 93.0975 366.669 93.135 366.894 93.1651C367.135 93.1952 367.353 93.2102 367.548 93.2102C368.285 93.1952 368.863 93.0148 369.284 92.6691C369.705 92.3234 370.088 91.7522 370.434 90.9555L371.291 88.9489V90.2115L366.218 77.608H367.706L372.057 88.4754H371.516L375.89 77.608H377.401L371.809 91.2486C371.599 91.7447 371.321 92.2482 370.975 92.7593C370.629 93.2703 370.186 93.6912 369.645 94.0219C369.119 94.3676 368.465 94.5404 367.683 94.5404ZM379.208 89.5802V87.3255H380.741V89.5802H379.208ZM394.37 89.8508C393.303 89.8508 392.341 89.6478 391.484 89.242C390.642 88.8362 389.936 88.3026 389.364 87.6412C388.808 86.9798 388.41 86.2659 388.17 85.4993L389.477 85.0258C389.898 86.1682 390.522 87.04 391.349 87.6412C392.19 88.2424 393.19 88.5431 394.347 88.5431C395.114 88.5431 395.783 88.4153 396.354 88.1598C396.94 87.9042 397.399 87.5435 397.729 87.0775C398.06 86.6116 398.225 86.0629 398.225 85.4316C398.225 84.5598 397.977 83.8834 397.481 83.4024C397 82.9214 396.369 82.5757 395.587 82.3653L392.521 81.4634C391.273 81.1027 390.349 80.524 389.748 79.7273C389.162 78.9157 388.868 77.9988 388.868 76.9767C388.868 76.0898 389.079 75.3157 389.5 74.6544C389.936 73.978 390.522 73.4519 391.258 73.0761C391.995 72.7003 392.829 72.5124 393.761 72.5124C394.738 72.5124 395.61 72.7003 396.376 73.0761C397.158 73.4369 397.812 73.9178 398.338 74.5191C398.879 75.1053 399.262 75.7592 399.488 76.4806L398.203 76.9541C397.827 75.917 397.248 75.1354 396.467 74.6093C395.685 74.0682 394.791 73.7976 393.784 73.7976C393.122 73.7976 392.529 73.9254 392.002 74.1809C391.476 74.4364 391.063 74.7972 390.762 75.2631C390.462 75.7291 390.311 76.2777 390.311 76.909C390.311 77.6756 390.529 78.3295 390.965 78.8706C391.401 79.4117 392.13 79.8401 393.152 80.1557L395.903 80.9674C397.105 81.3282 398.03 81.8843 398.676 82.6359C399.338 83.3724 399.668 84.2818 399.668 85.364C399.668 86.2508 399.443 87.0324 398.992 87.7088C398.541 88.3702 397.91 88.8963 397.098 89.2871C396.301 89.6629 395.392 89.8508 394.37 89.8508ZM403.153 89.5802V77.608H404.506V89.5802H403.153ZM403.153 75.2631V72.783H404.506V75.2631H403.153ZM408.218 89.5802V77.608H409.57V80.0205L409.232 79.9303C409.503 79.1336 409.984 78.5023 410.675 78.0364C411.382 77.5704 412.201 77.3374 413.133 77.3374C413.96 77.3374 414.711 77.5253 415.387 77.9011C416.064 78.2769 416.605 78.8029 417.011 79.4793C417.417 80.1407 417.62 80.8998 417.62 81.7565V89.5802H416.267V82.1398C416.267 81.4183 416.124 80.8021 415.838 80.291C415.553 79.7649 415.154 79.3666 414.643 79.096C414.147 78.8105 413.576 78.6677 412.93 78.6677C412.253 78.6677 411.66 78.8255 411.149 79.1411C410.638 79.4568 410.247 79.8927 409.976 80.4488C409.706 81.005 409.57 81.6438 409.57 82.3653V89.5802H408.218ZM426.712 94.5404C425.915 94.5404 425.179 94.4127 424.502 94.1572C423.826 93.9016 423.24 93.5559 422.744 93.12C422.248 92.6841 421.857 92.1881 421.571 91.6319L422.789 90.9781C423.119 91.6244 423.615 92.158 424.277 92.5789C424.953 92.9998 425.757 93.2102 426.689 93.2102C427.441 93.2102 428.14 93.0599 428.786 92.7593C429.432 92.4737 429.959 92.0227 430.364 91.4065C430.785 90.8052 430.996 90.0462 430.996 89.1293V86.0855L431.244 86.4011C430.823 87.3331 430.184 88.0696 429.327 88.6107C428.47 89.1368 427.516 89.3998 426.464 89.3998C425.352 89.3998 424.352 89.1293 423.465 88.5882C422.578 88.047 421.879 87.318 421.368 86.4011C420.872 85.4842 420.624 84.4696 420.624 83.3573C420.624 82.245 420.872 81.238 421.368 80.3361C421.879 79.4192 422.571 78.6902 423.443 78.1491C424.329 77.608 425.336 77.3374 426.464 77.3374C427.516 77.3374 428.463 77.6005 429.305 78.1265C430.146 78.6376 430.793 79.329 431.244 80.2008L430.996 80.6292V77.608H432.348V89.1293C432.348 90.1664 432.108 91.0908 431.627 91.9025C431.146 92.7292 430.477 93.3755 429.62 93.8415C428.779 94.3075 427.809 94.5404 426.712 94.5404ZM426.509 88.047C427.351 88.047 428.102 87.8366 428.764 87.4157C429.44 86.9949 429.974 86.4312 430.364 85.7247C430.755 85.0032 430.951 84.2141 430.951 83.3573C430.951 82.5006 430.755 81.719 430.364 81.0125C429.974 80.306 429.44 79.7424 428.764 79.3215C428.102 78.9006 427.351 78.6902 426.509 78.6902C425.652 78.6902 424.886 78.9006 424.209 79.3215C423.533 79.7424 423.007 80.306 422.631 81.0125C422.255 81.719 422.067 82.5006 422.067 83.3573C422.067 84.2141 422.255 85.0032 422.631 85.7247C423.007 86.4312 423.525 86.9949 424.187 87.4157C424.863 87.8366 425.637 88.047 426.509 88.047ZM436.071 89.5802V72.5124H437.423V89.5802H436.071ZM446.614 89.8508C445.486 89.8508 444.472 89.5802 443.57 89.0391C442.668 88.4829 441.954 87.7314 441.428 86.7844C440.902 85.8224 440.639 84.7477 440.639 83.5603C440.639 82.3728 440.894 81.3131 441.405 80.3812C441.916 79.4342 442.608 78.6902 443.48 78.1491C444.351 77.608 445.328 77.3374 446.411 77.3374C447.237 77.3374 447.981 77.4877 448.643 77.7883C449.319 78.089 449.898 78.5098 450.379 79.051C450.875 79.577 451.251 80.1858 451.506 80.8772C451.777 81.5536 451.912 82.2676 451.912 83.0191C451.912 83.1695 451.905 83.3273 451.889 83.4926C451.874 83.658 451.852 83.8308 451.822 84.0112H441.428V82.7711H451.055L450.446 83.2446C450.537 82.3728 450.409 81.5912 450.063 80.8998C449.717 80.1933 449.221 79.6372 448.575 79.2313C447.944 78.8105 447.222 78.6 446.411 78.6C445.599 78.6 444.855 78.818 444.179 79.2539C443.502 79.6747 442.969 80.2609 442.578 81.0125C442.187 81.749 442.007 82.6058 442.037 83.5828C442.007 84.5598 442.194 85.4241 442.6 86.1757C443.006 86.9272 443.562 87.5209 444.269 87.9568C444.975 88.3777 445.757 88.5882 446.614 88.5882C447.485 88.5882 448.244 88.3852 448.891 87.9794C449.537 87.5585 450.063 87.0024 450.469 86.3109L451.619 86.9197C451.348 87.4759 450.965 87.9794 450.469 88.4303C449.973 88.8662 449.394 89.2119 448.733 89.4675C448.087 89.723 447.38 89.8508 446.614 89.8508ZM455.589 89.5802V87.3255H457.122V89.5802H455.589ZM465.294 89.5802V72.783H470.728C472.382 72.783 473.81 73.1287 475.012 73.8201C476.23 74.4965 477.169 75.466 477.83 76.7287C478.492 77.9762 478.822 79.4568 478.822 81.1703C478.822 82.8688 478.492 84.3494 477.83 85.612C477.169 86.8746 476.23 87.8516 475.012 88.5431C473.81 89.2345 472.382 89.5802 470.728 89.5802H465.294ZM466.76 88.2274H470.706C472.043 88.2274 473.201 87.9343 474.178 87.3481C475.17 86.7619 475.936 85.9427 476.478 84.8905C477.034 83.8233 477.312 82.5832 477.312 81.1703C477.312 79.7424 477.034 78.5023 476.478 77.4501C475.936 76.398 475.17 75.5863 474.178 75.0151C473.186 74.4289 472.028 74.1358 470.706 74.1358H466.76V88.2274ZM484.899 89.8508C484.148 89.8508 483.479 89.708 482.892 89.4224C482.306 89.1368 481.84 88.7385 481.495 88.2274C481.149 87.7164 480.976 87.1301 480.976 86.4688C480.976 85.8826 481.104 85.3339 481.359 84.8229C481.615 84.3118 482.028 83.8759 482.599 83.5152C483.17 83.1394 483.915 82.8764 484.831 82.726L489.679 81.9144V83.177L485.192 83.921C484.17 84.0864 483.449 84.3945 483.028 84.8454C482.607 85.2964 482.396 85.8224 482.396 86.4237C482.396 87.07 482.637 87.5961 483.118 88.0019C483.614 88.4078 484.238 88.6107 484.989 88.6107C485.861 88.6107 486.62 88.4153 487.266 88.0245C487.913 87.6186 488.416 87.0926 488.777 86.4462C489.138 85.7849 489.318 85.0634 489.318 84.2818V81.3056C489.318 80.509 489.033 79.8626 488.461 79.3666C487.89 78.8706 487.146 78.6226 486.229 78.6226C485.478 78.6226 484.801 78.8105 484.2 79.1862C483.599 79.562 483.14 80.0505 482.825 80.6518L481.607 79.9979C481.833 79.5169 482.178 79.0735 482.644 78.6677C483.11 78.2618 483.651 77.9387 484.268 77.6982C484.884 77.4577 485.538 77.3374 486.229 77.3374C487.101 77.3374 487.868 77.5103 488.529 77.856C489.205 78.1867 489.732 78.6526 490.107 79.2539C490.483 79.8401 490.671 80.524 490.671 81.3056V89.5802H489.318V87.0775L489.476 87.1903C489.281 87.6713 488.957 88.1147 488.507 88.5205C488.056 88.9113 487.522 89.2345 486.906 89.49C486.304 89.7305 485.636 89.8508 484.899 89.8508ZM494.442 94.5404C494.231 94.5404 493.998 94.5179 493.743 94.4728C493.502 94.4427 493.269 94.3901 493.044 94.315V93.0524C493.224 93.0975 493.427 93.135 493.653 93.1651C493.893 93.1952 494.111 93.2102 494.306 93.2102C495.043 93.1952 495.622 93.0148 496.043 92.6691C496.463 92.3234 496.847 91.7522 497.192 90.9555L498.049 88.9489V90.2115L492.976 77.608H494.464L498.816 88.4754H498.275L502.649 77.608H504.159L498.568 91.2486C498.357 91.7447 498.079 92.2482 497.734 92.7593C497.388 93.2703 496.944 93.6912 496.403 94.0219C495.877 94.3676 495.223 94.5404 494.442 94.5404ZM505.967 89.5802V87.3255H507.5V89.5802H505.967Z" fill="#0C0C0C"/>
<path d="M35.2087 0.732361C15.7625 0.732361 0.216553 16.2783 0.216553 35.7245C0.216553 42.4495 2.22131 47.6437 5.7023 52.9107L31.5272 92.0946C32.3109 93.2792 33.6595 94.0447 35.2087 94.0447C36.7578 94.0447 38.1247 93.261 38.8901 92.0946L64.7151 52.9107C68.196 47.6437 70.2008 42.4495 70.2008 35.7245C70.2008 16.2783 54.6548 0.732361 35.2087 0.732361Z" fill="url(#paint0_linear_100_586)"/>
<path fill-rule="evenodd" clip-rule="evenodd" d="M27.4788 55.6653C25.5978 55.9721 23.0561 53.8392 22.5279 51.9923C21.7337 49.2189 25.2959 48.5284 27.737 48.0383C27.8683 50.4265 28.4157 53.9757 27.4788 55.6653ZM21.5439 35.3359L26.7933 33.7819C26.9296 34.6238 27.4478 39.942 27.2548 40.9094C27.2443 40.9629 27.2067 41.053 27.1964 41.0954C26.7514 42.8774 11.3016 43.2657 18.7003 55.044C20.1119 57.2914 21.1891 58.2801 22.9541 59.5408C25.4477 61.3217 31.8137 65.0287 34.3859 60.1397C36.1271 56.8296 35.43 50.3297 35.4404 45.9998C43.3898 42.9636 51.145 44.5736 49.464 34.4051L35.1738 38.8042L34.6917 31.6575C37.415 29.847 51.0229 27.8522 53.6298 23.6291C54.6948 21.9027 54.903 19.1221 54.1962 16.7152C49.5281 17.9974 29.6383 24.6731 25.0158 27.0345C22.1359 28.5055 21.2745 31.5603 21.5442 35.3377L21.5439 35.3359Z" fill="white"/>
<defs>
<linearGradient id="paint0_linear_100_586" x1="0.216554" y1="15.3978" x2="49.1732" y2="89.8032" gradientUnits="userSpaceOnUse">
<stop offset="0.0216666" stop-color="#78AAC5"/>
<stop offset="0.318199" stop-color="#F3808E"/>
<stop offset="0.693895" stop-color="#FCB236"/>
<stop offset="1" stop-color="#F7EEA6"/>
</linearGradient>
</defs>
</svg>
