<svg width="406" height="72" viewBox="0 0 406 72" fill="none" xmlns="http://www.w3.org/2000/svg">
<path d="M261.933 1.3335L262.468 0.488715L262.223 0.333496H261.933V1.3335ZM319.818 38.0002L319.283 38.8449L319.528 39.0002H319.818V38.0002ZM394.44 38.0002C394.44 40.9457 396.827 43.3335 399.773 43.3335C402.718 43.3335 405.106 40.9457 405.106 38.0002C405.106 35.0546 402.718 32.6668 399.773 32.6668C396.827 32.6668 394.44 35.0546 394.44 38.0002ZM0 2.3335H261.933V0.333496H0V2.3335ZM261.398 2.17828L319.283 38.8449L320.353 37.1554L262.468 0.488715L261.398 2.17828ZM319.818 39.0002H399.773V37.0002H319.818V39.0002Z" fill="url(#paint0_linear_100_771)"/>
<path d="M153.932 64.6668C153.932 68.5942 157.116 71.7779 161.044 71.7779C164.971 71.7779 168.155 68.5942 168.155 64.6668C168.155 60.7395 164.971 57.5557 161.044 57.5557C157.116 57.5557 153.932 60.7395 153.932 64.6668ZM0 66.0001H161.044V63.3335H0V66.0001Z" fill="url(#paint1_linear_100_771)"/>
<defs>
<linearGradient id="paint0_linear_100_771" x1="-135.908" y1="38.0002" x2="-124.021" y2="116.908" gradientUnits="userSpaceOnUse">
<stop offset="0.0216666" stop-color="#78AAC5"/>
<stop offset="0.290913" stop-color="#F3808E"/>
<stop offset="0.590653" stop-color="#FCB236"/>
<stop offset="1" stop-color="#F7EEA6"/>
</linearGradient>
<linearGradient id="paint1_linear_100_771" x1="0" y1="65.1668" x2="161.044" y2="65.1668" gradientUnits="userSpaceOnUse">
<stop stop-color="#78AAC5"/>
<stop offset="1" stop-color="#F3808E"/>
</linearGradient>
</defs>
</svg>
