<svg width="516" height="47" viewBox="0 0 516 47" fill="none" xmlns="http://www.w3.org/2000/svg">
<path d="M0.948627 36.0001V10.2634H8.01913V36.0001H0.948627ZM0.948627 7.95374V0.883237H8.01913V7.95374H0.948627ZM16.3041 36.0001V16.3912H11.9676V10.2634H16.3041V9.88634C16.3041 7.84375 16.6969 6.11541 17.4826 4.70131C18.2996 3.28721 19.4623 2.20306 20.9707 1.44888C22.479 0.694691 24.3017 0.317598 26.4385 0.317598C26.847 0.317598 27.287 0.349022 27.7583 0.41187C28.2297 0.443296 28.6225 0.490433 28.9368 0.553281V6.58678C28.6225 6.52393 28.3397 6.4925 28.0883 6.4925C27.8683 6.46108 27.6326 6.44537 27.3813 6.44537C26.0614 6.44537 25.0558 6.7439 24.3645 7.34096C23.7046 7.9066 23.3746 8.75506 23.3746 9.88634V10.2634H28.8896V16.3912H23.3746V36.0001H16.3041ZM47.8312 36.0001V7.24669H38.9224V0.883237H63.9048V7.24669H55.1374V36.0001H47.8312ZM67.0044 36.0001V0.317598H74.0749V15.3542L73.2265 14.2229C73.8235 12.6831 74.782 11.5518 76.1018 10.8291C77.453 10.0749 79.0243 9.6978 80.8155 9.6978C82.7638 9.6978 84.4607 10.1063 85.9062 10.9234C87.3832 11.7404 88.5302 12.8874 89.3472 14.3643C90.1642 15.8099 90.5727 17.5068 90.5727 19.4551V36.0001H83.5022V20.9635C83.5022 19.9579 83.298 19.0937 82.8895 18.3709C82.5124 17.6482 81.9625 17.0825 81.2397 16.674C80.5484 16.2655 79.7313 16.0612 78.7886 16.0612C77.8773 16.0612 77.0602 16.2655 76.3375 16.674C75.6147 17.0825 75.0491 17.6482 74.6406 18.3709C74.2635 19.0937 74.0749 19.9579 74.0749 20.9635V36.0001H67.0044ZM107.619 36.5657C104.885 36.5657 102.512 35.9686 100.501 34.7745C98.4901 33.549 96.9346 31.9149 95.8347 29.8723C94.7349 27.8297 94.185 25.5671 94.185 23.0846C94.185 20.5078 94.7506 18.2138 95.8819 16.2027C97.0446 14.1915 98.6001 12.6046 100.548 11.4419C102.497 10.2791 104.696 9.6978 107.148 9.6978C109.19 9.6978 110.997 10.0278 112.568 10.6877C114.139 11.3162 115.459 12.2118 116.528 13.3745C117.628 14.5372 118.46 15.8884 119.026 17.4282C119.592 18.9366 119.874 20.5864 119.874 22.3776C119.874 22.8804 119.843 23.3831 119.78 23.8859C119.749 24.3573 119.67 24.7658 119.544 25.1115H100.266V19.9265H115.538L112.191 22.3776C112.505 21.0263 112.49 19.8322 112.144 18.7952C111.798 17.7267 111.186 16.894 110.306 16.2969C109.457 15.6684 108.405 15.3542 107.148 15.3542C105.922 15.3542 104.869 15.6527 103.989 16.2498C103.11 16.8469 102.45 17.7267 102.01 18.8894C101.57 20.0522 101.397 21.4663 101.491 23.1317C101.365 24.5773 101.538 25.85 102.01 26.9498C102.481 28.0497 103.204 28.9138 104.178 29.5423C105.152 30.1394 106.331 30.4379 107.713 30.4379C108.97 30.4379 110.039 30.1865 110.918 29.6837C111.83 29.181 112.537 28.4896 113.04 27.6097L118.696 30.2965C118.193 31.5535 117.392 32.6534 116.292 33.5961C115.224 34.5388 113.951 35.2773 112.474 35.8115C110.997 36.3143 109.379 36.5657 107.619 36.5657ZM128.045 46.3701C127.29 46.3701 126.552 46.3073 125.829 46.1816C125.138 46.0559 124.525 45.8516 123.991 45.5688V39.771C124.431 39.8967 124.949 40.0067 125.546 40.101C126.143 40.1952 126.693 40.2424 127.196 40.2424C128.579 40.2424 129.569 39.9124 130.166 39.2525C130.763 38.624 131.25 37.9012 131.627 37.0842L133.371 33.0776L133.277 38.9697L121.964 10.2634H129.553L137.048 30.6736H134.219L141.714 10.2634H149.303L138.273 38.404C137.582 40.1638 136.733 41.6407 135.728 42.8349C134.722 44.029 133.575 44.9089 132.287 45.4745C131.03 46.0716 129.616 46.3701 128.045 46.3701ZM154.986 15.2599V11.7247C156.086 11.4733 156.982 11.0176 157.673 10.3577C158.396 9.66637 158.867 8.86505 159.087 7.95374H155.929V0.883237H162.999V4.98413C162.999 7.74948 162.324 10.0278 160.972 11.8189C159.621 13.5787 157.626 14.7257 154.986 15.2599ZM170.576 36.0001V10.2634H177.175V16.4383L176.704 15.5427C177.27 13.3745 178.197 11.9132 179.485 11.159C180.805 10.3734 182.36 9.98062 184.152 9.98062H185.66V16.1084H183.445C181.716 16.1084 180.318 16.6426 179.249 17.711C178.181 18.748 177.647 20.225 177.647 22.1419V36.0001H170.576ZM201.156 36.5657C198.422 36.5657 196.049 35.9686 194.038 34.7745C192.027 33.549 190.471 31.9149 189.372 29.8723C188.272 27.8297 187.722 25.5671 187.722 23.0846C187.722 20.5078 188.287 18.2138 189.419 16.2027C190.581 14.1915 192.137 12.6046 194.085 11.4419C196.034 10.2791 198.233 9.6978 200.684 9.6978C202.727 9.6978 204.534 10.0278 206.105 10.6877C207.676 11.3162 208.996 12.2118 210.065 13.3745C211.164 14.5372 211.997 15.8884 212.563 17.4282C213.128 18.9366 213.411 20.5864 213.411 22.3776C213.411 22.8804 213.38 23.3831 213.317 23.8859C213.286 24.3573 213.207 24.7658 213.081 25.1115H193.802V19.9265H209.075L205.728 22.3776C206.042 21.0263 206.027 19.8322 205.681 18.7952C205.335 17.7267 204.722 16.894 203.843 16.2969C202.994 15.6684 201.941 15.3542 200.684 15.3542C199.459 15.3542 198.406 15.6527 197.526 16.2498C196.646 16.8469 195.986 17.7267 195.546 18.8894C195.107 20.0522 194.934 21.4663 195.028 23.1317C194.902 24.5773 195.075 25.85 195.546 26.9498C196.018 28.0497 196.741 28.9138 197.715 29.5423C198.689 30.1394 199.867 30.4379 201.25 30.4379C202.507 30.4379 203.575 30.1865 204.455 29.6837C205.367 29.181 206.074 28.4896 206.576 27.6097L212.233 30.2965C211.73 31.5535 210.929 32.6534 209.829 33.5961C208.76 34.5388 207.488 35.2773 206.011 35.8115C204.534 36.3143 202.916 36.5657 201.156 36.5657ZM226.563 36.0001V0.883237H233.869V29.6366H248.717V36.0001H226.563ZM264.597 36.5657C262.051 36.5657 259.726 35.9843 257.62 34.8216C255.546 33.6589 253.881 32.072 252.624 30.0608C251.398 28.0183 250.786 25.7086 250.786 23.1317C250.786 20.5235 251.398 18.2138 252.624 16.2027C253.881 14.1915 255.546 12.6046 257.62 11.4419C259.726 10.2791 262.051 9.6978 264.597 9.6978C267.142 9.6978 269.452 10.2791 271.526 11.4419C273.6 12.6046 275.249 14.1915 276.475 16.2027C277.732 18.2138 278.36 20.5235 278.36 23.1317C278.36 25.7086 277.732 28.0183 276.475 30.0608C275.249 32.072 273.6 33.6589 271.526 34.8216C269.452 35.9843 267.142 36.5657 264.597 36.5657ZM264.597 30.2023C265.885 30.2023 267.001 29.9037 267.943 29.3067C268.917 28.7096 269.672 27.8768 270.206 26.8084C270.771 25.74 271.054 24.5144 271.054 23.1317C271.054 21.7491 270.771 20.5392 270.206 19.5022C269.672 18.4338 268.917 17.601 267.943 17.004C267.001 16.3755 265.885 16.0612 264.597 16.0612C263.308 16.0612 262.177 16.3755 261.203 17.004C260.229 17.601 259.459 18.4338 258.893 19.5022C258.359 20.5392 258.092 21.7491 258.092 23.1317C258.092 24.5144 258.359 25.74 258.893 26.8084C259.459 27.8768 260.229 28.7096 261.203 29.3067C262.177 29.9037 263.308 30.2023 264.597 30.2023ZM295.3 36.5657C292.754 36.5657 290.429 35.9843 288.324 34.8216C286.25 33.6589 284.584 32.072 283.327 30.0608C282.102 28.0183 281.489 25.7086 281.489 23.1317C281.489 20.5235 282.102 18.2138 283.327 16.2027C284.584 14.1915 286.25 12.6046 288.324 11.4419C290.429 10.2791 292.754 9.6978 295.3 9.6978C297.845 9.6978 300.155 10.2791 302.229 11.4419C304.303 12.6046 305.953 14.1915 307.178 16.2027C308.435 18.2138 309.064 20.5235 309.064 23.1317C309.064 25.7086 308.435 28.0183 307.178 30.0608C305.953 32.072 304.303 33.6589 302.229 34.8216C300.155 35.9843 297.845 36.5657 295.3 36.5657ZM295.3 30.2023C296.588 30.2023 297.704 29.9037 298.647 29.3067C299.621 28.7096 300.375 27.8768 300.909 26.8084C301.475 25.74 301.758 24.5144 301.758 23.1317C301.758 21.7491 301.475 20.5392 300.909 19.5022C300.375 18.4338 299.621 17.601 298.647 17.004C297.704 16.3755 296.588 16.0612 295.3 16.0612C294.011 16.0612 292.88 16.3755 291.906 17.004C290.932 17.601 290.162 18.4338 289.596 19.5022C289.062 20.5392 288.795 21.7491 288.795 23.1317C288.795 24.5144 289.062 25.74 289.596 26.8084C290.162 27.8768 290.932 28.7096 291.906 29.3067C292.88 29.9037 294.011 30.2023 295.3 30.2023ZM313.229 36.0001V0.317598H320.3V23.1789L317.66 22.3304L329.02 10.2634H337.74L328.407 20.6335L337.693 36.0001H329.68L321.902 22.9432L326.003 21.9062L318.131 30.4851L320.3 26.3842V36.0001H313.229ZM340.848 36.0001V10.2634H347.919V36.0001H340.848ZM340.848 7.95374V0.883237H347.919V7.95374H340.848ZM353.093 36.0001V10.2634H359.692V15.3542L359.315 14.2229C359.912 12.6831 360.87 11.5518 362.19 10.8291C363.541 10.0749 365.113 9.6978 366.904 9.6978C368.852 9.6978 370.549 10.1063 371.995 10.9234C373.471 11.7404 374.618 12.8874 375.436 14.3643C376.253 15.8099 376.661 17.5068 376.661 19.4551V36.0001H369.591V20.9635C369.591 19.9579 369.386 19.0937 368.978 18.3709C368.601 17.6482 368.051 17.0825 367.328 16.674C366.637 16.2655 365.82 16.0612 364.877 16.0612C363.966 16.0612 363.149 16.2655 362.426 16.674C361.703 17.0825 361.137 17.6482 360.729 18.3709C360.352 19.0937 360.163 19.9579 360.163 20.9635V36.0001H353.093ZM393.943 46.3701C391.963 46.3701 390.125 46.0402 388.428 45.3803C386.731 44.7203 385.27 43.7933 384.044 42.5992C382.85 41.4365 381.986 40.0538 381.452 38.4512L388.004 36.1415C388.349 37.3356 389.056 38.2783 390.125 38.9697C391.193 39.661 392.466 40.0067 393.943 40.0067C395.106 40.0067 396.111 39.7867 396.96 39.3468C397.808 38.9382 398.452 38.3255 398.892 37.5084C399.364 36.6914 399.599 35.733 399.599 34.6331V28.741L400.966 30.4379C400.086 31.8835 398.955 32.9676 397.572 33.6904C396.19 34.3817 394.571 34.7274 392.717 34.7274C390.329 34.7274 388.192 34.1932 386.307 33.1247C384.421 32.0249 382.944 30.5322 381.876 28.6467C380.807 26.7298 380.273 24.5616 380.273 22.1419C380.273 19.7222 380.807 17.5853 381.876 15.7313C382.944 13.8458 384.406 12.3689 386.26 11.3004C388.114 10.232 390.219 9.6978 392.576 9.6978C394.43 9.6978 396.048 10.0749 397.431 10.8291C398.814 11.5518 399.992 12.6674 400.966 14.1758L400.071 15.8727V10.2634H406.67V34.6331C406.67 36.8957 406.12 38.9068 405.02 40.6666C403.92 42.4578 402.412 43.8562 400.495 44.8618C398.609 45.8673 396.425 46.3701 393.943 46.3701ZM393.707 28.3168C394.901 28.3168 395.938 28.0654 396.818 27.5626C397.698 27.0598 398.374 26.3528 398.845 25.4414C399.348 24.5301 399.599 23.4617 399.599 22.2362C399.599 21.0106 399.348 19.9422 398.845 19.0309C398.342 18.0881 397.651 17.3654 396.771 16.8626C395.891 16.3284 394.87 16.0612 393.707 16.0612C392.513 16.0612 391.445 16.3284 390.502 16.8626C389.591 17.3654 388.868 18.0881 388.334 19.0309C387.831 19.9422 387.579 21.0106 387.579 22.2362C387.579 23.4303 387.831 24.483 388.334 25.3943C388.868 26.3056 389.591 27.0284 390.502 27.5626C391.445 28.0654 392.513 28.3168 393.707 28.3168ZM423.456 36.0001V16.3912H419.12V10.2634H423.456V9.88634C423.456 7.84375 423.849 6.11541 424.635 4.70131C425.452 3.28721 426.615 2.20306 428.123 1.44888C429.631 0.694691 431.454 0.317598 433.591 0.317598C433.999 0.317598 434.439 0.349022 434.911 0.41187C435.382 0.443296 435.775 0.490433 436.089 0.553281V6.58678C435.775 6.52393 435.492 6.4925 435.241 6.4925C435.021 6.46108 434.785 6.44537 434.533 6.44537C433.214 6.44537 432.208 6.7439 431.517 7.34096C430.857 7.9066 430.527 8.75506 430.527 9.88634V10.2634H436.042V16.3912H430.527V36.0001H423.456ZM451.946 36.5657C449.401 36.5657 447.076 35.9843 444.97 34.8216C442.896 33.6589 441.231 32.072 439.974 30.0608C438.748 28.0183 438.135 25.7086 438.135 23.1317C438.135 20.5235 438.748 18.2138 439.974 16.2027C441.231 14.1915 442.896 12.6046 444.97 11.4419C447.076 10.2791 449.401 9.6978 451.946 9.6978C454.492 9.6978 456.801 10.2791 458.876 11.4419C460.95 12.6046 462.599 14.1915 463.825 16.2027C465.082 18.2138 465.71 20.5235 465.71 23.1317C465.71 25.7086 465.082 28.0183 463.825 30.0608C462.599 32.072 460.95 33.6589 458.876 34.8216C456.801 35.9843 454.492 36.5657 451.946 36.5657ZM451.946 30.2023C453.235 30.2023 454.35 29.9037 455.293 29.3067C456.267 28.7096 457.021 27.8768 457.556 26.8084C458.121 25.74 458.404 24.5144 458.404 23.1317C458.404 21.7491 458.121 20.5392 457.556 19.5022C457.021 18.4338 456.267 17.601 455.293 17.004C454.35 16.3755 453.235 16.0612 451.946 16.0612C450.658 16.0612 449.527 16.3755 448.553 17.004C447.578 17.601 446.809 18.4338 446.243 19.5022C445.709 20.5392 445.442 21.7491 445.442 23.1317C445.442 24.5144 445.709 25.74 446.243 26.8084C446.809 27.8768 447.578 28.7096 448.553 29.3067C449.527 29.9037 450.658 30.2023 451.946 30.2023ZM469.876 36.0001V10.2634H476.475V16.4383L476.003 15.5427C476.569 13.3745 477.496 11.9132 478.784 11.159C480.104 10.3734 481.66 9.98062 483.451 9.98062H484.959V16.1084H482.744C481.016 16.1084 479.617 16.6426 478.549 17.711C477.48 18.748 476.946 20.225 476.946 22.1419V36.0001H469.876ZM489.659 36.0001V28.9296H496.73V36.0001H489.659ZM499.086 36.0001V28.9296H506.157V36.0001H499.086ZM508.514 36.0001V28.9296H515.584V36.0001H508.514Z" fill="url(#paint0_linear_100_595)"/>
<defs>
<linearGradient id="paint0_linear_100_595" x1="-1.99853" y1="-6.15556" x2="3.10293" y2="72.3515" gradientUnits="userSpaceOnUse">
<stop offset="0.0216666" stop-color="#78AAC5"/>
<stop offset="0.318199" stop-color="#F3808E"/>
<stop offset="0.693895" stop-color="#FCB236"/>
<stop offset="1" stop-color="#F7EEA6"/>
</linearGradient>
</defs>
</svg>
