<svg width="515" height="277" viewBox="0 0 515 277" fill="none" xmlns="http://www.w3.org/2000/svg">
<path d="M53.4971 177.503L50.6959 173.626L52.9618 169.536L49.1008 170.684L47.2019 167.001L42.886 168.942L39.7308 165.47L34.4117 167.606L32.1493 162.295L26.9387 162.264L25.8316 157.13L19.8111 156.391L21.9667 150.657L19.4269 146.889L23.6333 145.209L27.0045 142.442L30.589 144.742L33.7412 142.498L37.1653 144.3L40.1996 142.191L43.6151 143.867L48.0405 141.664L50.4878 145.946L55.1162 144.873L58.6252 147.94L61.9369 144.287L65.9263 146.941L67.0881 143.433L70.8321 144.325L66.4293 141.191L70.2383 137.378L66.4528 137.759L64.099 134.868L60.3569 137.788L57.4377 134.046L53.6532 136.332L50.2876 133.51L45.7612 136.1L42.2012 132.274L36.3752 132.539L32.0479 128.637L28.1614 129.406L27.5186 125.511L23.6736 125.007L23.9246 121.179L19.3198 118.821L21.1554 113.997L17.3934 110.947L20.5871 107.429L16.5382 103.89L21.613 101.898L19.1062 96.7307L24.7462 95.5895L25.0718 89.0887L31.6566 88.7734L33.1297 84.2281L37.911 85.4314L41.2472 80.2528L47.0827 82.0204L43.5736 78.9531L46.6494 75.5706L45.0033 71.87L48.7209 70.4769L53.6257 65.9552L59.0912 69.7802L62.7908 66.2287L63.5186 71.3884L66.7417 75.8723L64.1473 80.747L70.1827 77.9278L73.6173 83.6679L78.7675 80.9081L80.2795 86.3963L83.8876 85.2646L84.5304 89.1596L89.9354 90.1939L90.9331 95.5895L95.7993 98.0575L93.5843 102.907L89.4118 105.093L84.9845 103.484L81.1415 106.791L76.8906 104.028L72.9711 106.197L68.7967 104.572L64.2109 106.277L62.0165 101.978L58.8048 103.338L56.2405 101.096L53.7301 105.33L48.9573 104.253L52.4579 107.194L48.5639 109.742L52.6863 108.703L53.1016 112.994L58.0924 111.643L62.3432 114.406L65.5964 111.774L68.4731 114.884L72.0972 112.099L74.9994 115.589L79.1134 114.423L82.479 117.246L89.3157 115.008L92.0594 121.811L96.2158 121.277L95.4845 125.519L100.991 126.165L98.1347 130.93L101.458 133.121L99.1409 136.453L101.655 139.841L98.9503 143.071L100.116 147.185L96.6013 149.708L98.5513 154.15L93.838 153.959L91.6825 159.693L85.6545 160.734L82.9591 165.996L77.2671 164.473L75.0181 168.816L70.0689 168.895L74.5557 171.388L70.4342 174.333L73.4714 177.94L68.8006 178.381L66.1552 182.497L62.8566 178.78L58.8531 181.59L53.4971 177.503ZM53.8391 71.0223L52.6839 70.8459L52.111 71.7736L52.6933 72.8778L53.5276 72.0596L53.8391 71.0223ZM55.7975 75.5912L53.9515 76.4774L53.843 78.6444L55.605 78.399L56.8017 77.3023L55.7975 75.5912ZM77.2103 86.0943L75.6502 85.5639L74.5545 86.2727L75.0273 87.6383L76.5449 87.5364L77.2103 86.0943ZM61.2264 90.217L59.3964 89.4507L58.647 91.5336L60.2581 92.8228L61.8342 91.7006L61.2264 90.217ZM34.4663 92.7769L32.2068 93.1828L31.2386 95.7886L33.8189 96.3775L35.6309 94.9854L34.4663 92.7769ZM72.096 93.1709L70.4614 95.3133L70.8588 97.4462L73.1437 97.4198L73.3956 95.4973L72.096 93.1709ZM31.9032 109.464L30.647 109.675L30.0656 110.477L30.7659 111.446L32.2666 111.091L31.9032 109.464ZM40.8673 112.419L35.4962 111.89L32.4724 117.937L38.5533 121.467L41.8055 116.929L40.8673 112.419ZM45.6619 123.276L43.343 122.797L42.9901 125.107L44.5757 126.017L46.4302 125.257L45.6619 123.276ZM75.4186 127.502L74.1115 126.955L73.3112 128.279L74.3909 129.223L75.3771 128.775L75.4186 127.502ZM94.339 144.397L93.5547 144.069L92.9648 144.744L93.4037 145.604L94.407 145.409L94.339 144.397ZM93.2877 149.55L92.3005 148.091L90.8338 148.952L90.9358 150.47L92.4874 150.874L93.2877 149.55ZM82.8429 152.919L81.1723 150.745L79.1668 153.039L80.2305 155.635L83.2742 155.558L82.8429 152.919ZM65.4508 156.882L62.6845 155.417L59.6408 155.494L60.1231 158.892L62.8969 158.578L65.4508 156.882ZM143.141 161.826L137.805 163.709L133.023 160.6L126.936 162.661L123.519 157.174L119.413 158.466L118.872 154.183L111.949 153.25L112.628 146.345L107.02 144.181L110.517 139.499L112.648 135.291L116.755 137.81L121.222 134.334L126.24 137.173L130.986 134.059L136.231 136.502L140.641 135.951L141.815 140.192L146.789 138.587L151.073 141.856L152.041 137.345L156.552 138.312L153.278 133.07L158.377 129.551L155.484 128.094L156.157 124.873L150.399 126.149L146.662 121.573L142.406 126.305L136.243 125.322L133.099 127.692L129.666 125.763L126.674 128.505L123.216 126.197L119.567 128.601L115.628 126.706L112.635 125.637L114.497 123.098L109.815 119.602L114.822 116.597L110.384 111.052L115.247 105.898L112.749 102.763L115.48 99.9113L110.976 97.1649L115.772 94.8101L111.453 91.035L116.064 87.8034L114.813 82.4248L118.614 78.4854L123.696 74.7139L129.237 77.7717L133.737 72.8961L138.849 77.126L141.671 73.7605L144.919 76.7182L148.636 73.4196L152.886 76.183L155.354 71.3168L158.451 75.8092L161.433 71.0355L165.027 75.3674L169.899 72.2453L175.145 74.6877L179.564 76.1694L176.353 79.434L179.837 84.0274L176.99 88.919L177.043 93.4889L172.415 94.562L168.555 97.6162L164.447 95.0973L160.553 97.6455L156.353 95.641L151.498 99.0161L146.362 96.3122L143.27 99.4418L139.786 96.754L140.142 100.16L137.057 101.511L139.656 106.164L136.648 110.558L138.864 107.614L142.035 109.434L145.962 105.486L151.578 105.871L154.739 103.753L158.154 105.429L160.91 102.957L163.264 105.848L168.837 105.601L172.903 109.393L177.463 107.308L177.044 112.417L183.654 112.482L182.697 119.025L188.153 120.818L185.584 126.072L189.151 128.119L186.303 131.105L190.09 134.535L185.825 137.235L188.686 141.997L183.485 143.998L185.014 149.739L179.079 150.265L176.915 155.873L170.844 156.281L170.13 160.775L166.284 158.366L162.24 164.354L155.796 161.103L153.336 164.19L143.141 161.826ZM161.589 79.0284L156.589 78.348L155.757 82.9773L158.852 85.5641L161.22 82.9914L161.589 79.0284ZM151.173 88.4938L147.943 87.6944L145.415 89.7699L147.263 92.6946L150.373 91.7234L151.173 88.4938ZM141.411 92.5796L140.196 91.5178L138.899 93.0024L139.912 94.84L141.505 93.9707L141.411 92.5796ZM160.628 111.996L159.042 111.086L158.251 112.537L158.74 114.155L160.485 113.657L160.628 111.996ZM124.476 116.584L120.616 119.638L122.094 124.62L127.262 124.019L128.103 119.516L124.476 116.584ZM161.055 122.13L160.043 122.198L159.866 123.353L160.904 123.665L161.738 122.847L161.055 122.13ZM163.201 131.387L161.573 129.845L159.879 131.102L160.15 133.243L162.156 132.854L163.201 131.387ZM182.021 133.553L177.544 133.091L173.894 135.496L176.493 140.149L180.531 137.845L182.021 133.553ZM170.793 138.499L169.022 138.618L167.978 140.086L169.589 141.375L170.903 140.143L170.793 138.499ZM123.732 145.218L120.8 148.845L121.94 152.579L126.679 153.15L127.865 148.116L123.732 145.218ZM171.498 148.996L169.778 149.874L169.822 152.411L172.79 153.101L173.109 150.285L171.498 148.996ZM157.116 152.376L154.568 150.387L153.103 153.154L154.259 155.236L157.185 155.293L157.116 152.376ZM198.774 158.978L196.437 156.34L199.202 153.995L194.714 149.596L199.813 146.077L196.151 140.734L200.668 136.111L202.049 132.08L206.188 131.294L210.031 127.987L214.282 130.75L219.086 126.616L224.399 130.07L227.505 134.689L224.252 139.227L226.802 145.027L221.306 148.318L223.003 152.777L218.999 155.587L222.164 161.091L216.373 163.767L214.63 168.076L210.11 166.982L205.214 171.63L198.774 158.978ZM216.765 139.349L211.612 136.392L205.889 140.08L209.004 146.73L217.705 147.67L216.765 139.349ZM216.369 156.145L214.868 154.594L213.426 155.834L213.301 157.748L215.628 158.354L216.369 156.145ZM210.233 159.352L206.194 159.75L205.403 163.106L207.985 165.6L210.226 163.036L210.233 159.352ZM276.088 153.022L273.485 157.77L271.003 152.982L267.877 155.606L265.379 152.471L260.853 155.062L258.009 150.552L253.592 152.882L252.494 147.874L245.622 147.7L244.531 140.914L238.434 139.037L240.176 132.822L236.296 129.906L238.41 125.445L234.134 122.302L237.673 118.253L232.486 114.791L237.037 110.674L232.928 106.249L236.67 101.425L233.371 97.7082L236.953 94.2916L234.294 88.7535L239.545 85.6059L238.523 81.7364L242.401 80.8407L241.53 75.4366L246.901 75.965L249.487 70.9639L255.077 70.9694L258.126 65.302L263.777 68.0983L266.405 63.7295L270.31 67.0242L275.343 64.3995L280.47 66.9769L284.862 64.2681L287.933 68.3811L292.67 65.141L294.182 70.6291L299.029 69.0331L299.748 74.0663L304.747 72.8412L303.941 77.8499L309.725 78.8587L308.337 84.6687L313.135 86.1249L310.372 90.3757L314.117 93.1731L311.319 96.9181L315.587 99.9343L312.023 103.604L316.923 106.578L312.464 110.18L315.206 113.172L312.754 116.386L315.589 120.768L312.447 125.045L315.266 131.08L309.669 134.759L308.534 140.552L303.384 143.312L303.69 147.865L299.271 146.383L299.375 151.712L294.862 148.839L290.809 152.795L285.159 151.904L281.916 156.569L276.088 153.022ZM293.736 73.4539L290.27 71.019L286.898 73.7862L288.427 77.6217L292.187 76.861L293.736 73.4539ZM256.699 78.1016L255.637 77.4108L254.161 78.1451L255.258 79.3418L256.27 79.2738L256.699 78.1016ZM255.617 88.4644L251.224 87.3621L249.067 91.1911L251.884 93.4156L255.13 92.5624L255.617 88.4644ZM278.295 132.929L278.934 129.202L282.56 130.229L281.58 126.991L284.657 125.514L283.079 122.825L284.949 120.413L282.621 117.902L284.727 115.219L282.155 112.852L284.388 110.161L282.439 107.624L284.039 104.976L281.466 102.608L283.564 99.7989L282.012 97.4895L282.972 94.7572L279.944 93.1821L281.131 90.0534L277.826 90.0214L277.108 86.8937L274.428 88.5982L272.125 86.4662L271.258 90.5896L267.564 88.5511L268.03 91.6958L265.062 92.9114L266.902 95.7097L264.517 98.0296L266.213 100.583L264.612 103.232L267.185 105.6L264.952 108.29L266.395 110.861L265.3 113.476L267.367 115.878L265.767 118.526L268.087 120.911L266.242 123.702L269.404 125.396L267.838 128.55L270.806 129.24L271.263 132.258L274.398 129.761L278.295 132.929ZM301.444 93.6433L294.868 94.0851L296.693 100.441L302.251 103.752L307.306 97.6958L301.444 93.6433ZM247.469 99.5559L245.126 100.603L244.824 103.672L248.037 104.218L250.017 101.544L247.469 99.5559ZM254.655 104.409L252.438 105.447L252.162 108.896L255.847 108.902L257.287 105.756L254.655 104.409ZM260.835 118.857L257.798 117.156L256.392 120.807L259.218 123.158L262.286 121.554L260.835 118.857ZM305.63 116.229L303.699 115.851L302.915 117.428L304.003 118.498L305.108 117.916L305.63 116.229ZM296.081 125.382L291.538 127.72L293.943 131.369L297.755 133.273L297.845 128.948L296.081 125.382ZM258.177 132.248L253.749 128.734L246.035 131.158L249.277 139.706L257.768 139.389L258.177 132.248ZM276.323 135.729L273.895 135.511L272.85 136.979L273.391 139.356L275.996 138.419L276.323 135.729ZM300.12 142.007L298.594 141.982L297.684 143.568L299.379 144.216L300.989 143.6L300.12 142.007ZM283.443 143.381L279.902 143.619L279.744 146.933L282.612 149.916L284.406 146.365L283.443 143.381ZM366.863 146.924L364.26 151.672L361.778 146.884L358.652 149.508L356.154 146.373L351.628 148.964L348.784 144.454L344.367 146.784L343.269 141.776L336.397 141.602L335.306 134.816L329.209 132.938L330.951 126.724L327.071 123.808L329.185 119.347L324.909 116.204L328.448 112.155L323.261 108.693L327.812 104.576L323.703 100.151L327.444 95.3266L324.146 91.61L327.728 88.1935L325.069 82.6554L330.32 79.5078L329.298 75.6383L333.176 74.7426L332.305 69.3384L337.676 69.8669L340.262 64.8657L345.852 64.8713L348.901 59.2038L354.551 62.0002L357.18 57.6313L361.085 60.926L366.118 58.3013L371.245 60.8787L375.637 58.17L378.708 62.2829L383.445 59.0429L384.957 64.531L389.804 62.9349L390.523 67.9682L395.522 66.743L394.715 71.7517L400.5 72.7606L399.112 78.5705L403.91 80.0267L401.147 84.2776L404.892 87.0749L402.094 90.8199L406.362 93.8362L402.797 97.5057L407.698 100.479L403.239 104.082L405.981 107.074L403.529 110.287L406.364 114.67L403.222 118.947L406.041 124.982L400.444 128.661L399.309 134.454L394.159 137.214L394.464 141.767L390.046 140.285L390.15 145.614L385.637 142.741L381.584 146.697L375.934 145.806L372.69 150.471L366.863 146.924ZM384.511 67.3557L381.045 64.9208L377.673 67.688L379.201 71.5236L382.961 70.7628L384.511 67.3557ZM347.474 72.0035L346.411 71.3126L344.936 72.0469L346.033 73.2436L347.045 73.1757L347.474 72.0035ZM346.392 82.3663L341.998 81.264L339.842 85.093L342.659 87.3174L345.905 86.4642L346.392 82.3663ZM369.07 126.831L369.709 123.104L373.335 124.13L372.355 120.893L375.432 119.416L373.854 116.727L375.724 114.315L373.396 111.804L375.502 109.121L372.93 106.753L375.162 104.063L373.214 101.526L374.814 98.8774L372.241 96.5095L374.339 93.7007L372.787 91.3913L373.747 88.659L370.719 87.0839L371.906 83.9552L368.601 83.9232L367.883 80.7955L365.202 82.5L362.9 80.368L362.033 84.4915L358.339 82.4529L358.805 85.5976L355.837 86.8133L357.677 89.6116L355.292 91.9314L356.988 94.4853L355.387 97.1336L357.96 99.5015L355.727 102.192L357.17 104.763L356.075 107.377L358.142 109.779L356.542 112.428L358.862 114.813L357.016 117.604L360.179 119.297L358.613 122.452L361.581 123.141L362.038 126.16L365.173 123.662L369.07 126.831ZM392.219 87.5451L385.643 87.9869L387.467 94.3433L393.025 97.654L398.081 91.5976L392.219 87.5451ZM338.244 93.4578L335.901 94.5045L335.599 97.5737L338.811 98.1201L340.792 95.4463L338.244 93.4578ZM345.43 98.3106L343.213 99.3488L342.937 102.797L346.621 102.804L348.062 99.6583L345.43 98.3106ZM351.609 112.759L348.573 111.057L347.167 114.709L349.993 117.06L353.061 115.456L351.609 112.759ZM396.404 110.131L394.473 109.752L393.69 111.329L394.778 112.4L395.883 111.817L396.404 110.131ZM386.856 119.284L382.313 121.622L384.718 125.271L388.53 127.175L388.62 122.849L386.856 119.284ZM348.952 126.149L344.524 122.636L336.81 125.06L340.052 133.607L348.542 133.291L348.952 126.149ZM367.098 129.631L364.67 129.413L363.625 130.88L364.166 133.258L366.771 132.321L367.098 129.631ZM390.895 135.909L389.369 135.884L388.459 137.47L390.154 138.118L391.764 137.502L390.895 135.909ZM374.218 137.283L370.677 137.521L370.519 140.834L373.387 143.818L375.181 140.267L374.218 137.283ZM457.637 140.826L455.035 145.574L452.553 140.786L449.427 143.41L446.929 140.275L442.403 142.865L439.559 138.356L435.142 140.685L434.044 135.678L427.172 135.504L426.081 128.717L419.984 126.84L421.726 120.625L417.846 117.71L419.96 113.249L415.684 110.106L419.223 106.057L414.036 102.594L418.587 98.4776L414.478 94.0532L418.219 89.2285L414.921 85.5119L418.502 82.0953L415.844 76.5572L421.095 73.4096L420.073 69.5401L423.951 68.6444L423.08 63.2403L428.451 63.7687L431.037 58.7676L436.627 58.7731L439.676 53.1056L445.326 55.902L447.955 51.5332L451.86 54.8279L456.892 52.2031L462.02 54.7805L466.411 52.0718L469.483 56.1848L474.219 52.9447L475.731 58.4328L480.579 56.8368L481.298 61.87L486.297 60.6449L485.49 65.6536L491.275 66.6624L489.887 72.4724L494.685 73.9286L491.922 78.1794L495.666 80.9767L492.869 84.7217L497.137 87.738L493.572 91.4075L498.473 94.3813L494.014 97.9838L496.756 100.976L494.304 104.189L497.139 108.572L493.996 112.848L496.816 118.884L491.219 122.563L490.084 128.356L484.934 131.116L485.239 135.668L480.821 134.187L480.924 139.515L476.412 136.643L472.359 140.599L466.709 139.708L463.465 144.372L457.637 140.826ZM475.286 61.2576L471.82 58.8226L468.448 61.5899L469.976 65.4254L473.736 64.6647L475.286 61.2576ZM438.249 65.9053L437.186 65.2145L435.711 65.9488L436.808 67.1455L437.82 67.0775L438.249 65.9053ZM437.167 76.2681L432.773 75.1658L430.617 78.9948L433.434 81.2193L436.68 80.366L437.167 76.2681ZM459.845 120.732L460.484 117.005L464.11 118.032L463.13 114.795L466.207 113.318L464.629 110.629L466.499 108.217L464.171 105.705L466.277 103.023L463.704 100.655L465.937 97.9644L463.988 95.4275L465.589 92.7793L463.016 90.4113L465.114 87.6026L463.562 85.2932L464.522 82.5609L461.494 80.9857L462.681 77.8571L459.376 77.825L458.658 74.6973L455.977 76.4019L453.674 74.2699L452.808 78.3933L449.114 76.3548L449.579 79.4995L446.612 80.7151L448.452 83.5134L446.067 85.8333L447.763 88.3871L446.162 91.0354L448.735 93.4033L446.502 96.0941L447.945 98.665L446.85 101.279L448.917 103.681L447.317 106.329L449.637 108.714L447.791 111.506L450.954 113.199L449.387 116.353L452.356 117.043L452.813 120.061L455.948 117.564L459.845 120.732ZM482.994 81.4469L476.418 81.8887L478.242 88.2451L483.8 91.5558L488.856 85.4995L482.994 81.4469ZM429.019 87.3596L426.676 88.4063L426.374 91.4755L429.586 92.0219L431.566 89.3481L429.019 87.3596ZM436.205 92.2125L433.988 93.2507L433.712 96.6993L437.396 96.7058L438.837 93.5602L436.205 92.2125ZM442.384 106.661L439.348 104.959L437.942 108.611L440.768 110.962L443.836 109.358L442.384 106.661ZM487.179 104.033L485.248 103.654L484.465 105.231L485.553 106.302L486.657 105.719L487.179 104.033ZM477.631 113.186L473.088 115.523L475.493 119.173L479.305 121.077L479.395 116.751L477.631 113.186ZM439.727 120.051L435.299 116.538L427.585 118.961L430.827 127.509L439.317 127.193L439.727 120.051ZM457.873 123.533L455.445 123.315L454.4 124.782L454.941 127.16L457.546 126.222L457.873 123.533ZM481.67 129.81L480.144 129.786L479.234 131.371L480.929 132.02L482.539 131.403L481.67 129.81ZM464.993 131.185L461.452 131.423L461.294 134.736L464.162 137.72L465.956 134.169L464.993 131.185Z" fill="url(#paint0_linear_71_68)"/>
<path d="M45.9463 169.96L43.1451 166.083L45.4111 161.993L41.55 163.141L39.6511 159.458L35.3352 161.399L32.1801 157.927L26.8609 160.063L24.5986 154.752L19.3879 154.721L18.2808 149.587L12.2603 148.848L14.4159 143.113L11.8761 139.346L16.0825 137.666L19.4537 134.899L23.0382 137.199L26.1904 134.954L29.6145 136.757L32.6488 134.647L36.0644 136.324L40.4897 134.121L42.9371 138.403L47.5654 137.329L51.0744 140.397L54.3861 136.744L58.3755 139.398L59.5373 135.89L63.2813 136.782L58.8785 133.648L62.6876 129.835L58.902 130.216L56.5482 127.325L52.8061 130.244L49.8869 126.502L46.1024 128.789L42.7368 125.966L38.2104 128.557L34.6504 124.731L28.8244 124.995L24.4971 121.094L20.6106 121.863L19.9678 117.968L16.1228 117.464L16.3738 113.636L11.769 111.278L13.6046 106.454L9.84264 103.404L13.0364 99.8861L8.98746 96.347L14.0622 94.3546L11.5554 89.1874L17.1955 88.0463L17.521 81.5455L24.1058 81.2301L25.579 76.6848L30.3602 77.8881L33.6964 72.7095L39.5319 74.4771L36.0228 71.4099L39.0986 68.0273L37.4526 64.3267L41.1701 62.9336L46.0749 58.4119L51.5404 62.237L55.24 58.6854L55.9678 63.8451L59.1909 68.329L56.5965 73.2037L62.6319 70.3845L66.0665 76.1246L71.2167 73.3649L72.7287 78.853L76.3368 77.7213L76.9796 81.6163L82.3847 82.6506L83.3823 88.0463L88.2485 90.5142L86.0335 95.3634L81.8611 97.5493L77.4337 95.9411L73.5907 99.2482L69.3398 96.4849L65.4203 98.6537L61.2459 97.0286L56.6601 98.7341L54.4657 94.4352L51.254 95.7943L48.6897 93.5528L46.1793 97.7867L41.4066 96.7099L44.9071 99.6507L41.0131 102.199L45.1355 101.16L45.5509 105.451L50.5416 104.1L54.7924 106.863L58.0456 104.231L60.9223 107.34L64.5465 104.556L67.4486 108.045L71.5626 106.88L74.9282 109.703L81.7649 107.465L84.5086 114.267L88.6651 113.734L87.9337 117.976L93.4398 118.622L90.5839 123.387L93.907 125.578L91.5901 128.909L94.1044 132.297L91.3995 135.528L92.5652 139.642L89.0506 142.165L91.0005 146.607L86.2872 146.416L84.1317 152.15L78.1037 153.19L75.4083 158.453L69.7163 156.93L67.4674 161.273L62.5181 161.351L67.0049 163.845L62.8835 166.79L65.9206 170.397L61.2498 170.837L58.6045 174.953L55.3059 171.237L51.3024 174.047L45.9463 169.96ZM46.2883 63.4791L45.1331 63.3026L44.5602 64.2304L45.1426 65.3346L45.9769 64.5163L46.2883 63.4791ZM48.2467 68.0479L46.4007 68.9342L46.2922 71.1011L48.0542 70.8557L49.2509 69.759L48.2467 68.0479ZM69.6595 78.551L68.0994 78.0206L67.0037 78.7294L67.4766 80.0951L68.9942 79.9931L69.6595 78.551ZM53.6756 82.6737L51.8456 81.9074L51.0962 83.9903L52.7073 85.2795L54.2834 84.1573L53.6756 82.6737ZM26.9155 85.2336L24.6561 85.6395L23.6878 88.2453L26.2681 88.8342L28.0801 87.4421L26.9155 85.2336ZM64.5452 85.6276L62.9106 87.77L63.308 89.903L65.5929 89.8765L65.8449 87.954L64.5452 85.6276ZM24.3524 101.921L23.0962 102.132L22.5149 102.933L23.2152 103.903L24.7158 103.548L24.3524 101.921ZM33.3165 104.876L27.9454 104.347L24.9216 110.394L31.0025 113.924L34.2547 109.386L33.3165 104.876ZM38.1111 115.733L35.7922 115.254L35.4393 117.564L37.0249 118.474L38.8794 117.714L38.1111 115.733ZM67.8679 119.959L66.5607 119.411L65.7604 120.736L66.8401 121.679L67.8264 121.232L67.8679 119.959ZM86.7882 136.854L86.0039 136.526L85.4141 137.201L85.8529 138.06L86.8562 137.866L86.7882 136.854ZM85.7369 142.006L84.7497 140.548L83.2831 141.409L83.385 142.927L84.9366 143.33L85.7369 142.006ZM75.2921 145.376L73.6215 143.201L71.616 145.496L72.6797 148.092L75.7234 148.015L75.2921 145.376ZM57.9 149.339L55.1338 147.873L52.09 147.951L52.5724 151.348L55.3462 151.035L57.9 149.339ZM135.59 154.283L130.254 156.166L125.472 153.057L119.386 155.117L115.968 149.63L111.863 150.922L111.321 146.64L104.398 145.707L105.078 138.801L99.4695 136.637L102.966 131.956L105.097 127.748L109.205 130.267L113.671 126.791L118.69 129.63L123.435 126.516L128.681 128.958L133.09 128.408L134.264 132.648L139.238 131.044L143.523 134.313L144.49 129.802L149.001 130.769L145.727 125.526L150.826 122.008L147.934 120.551L148.607 117.33L142.849 118.606L139.111 114.029L134.856 118.762L128.692 117.778L125.548 120.149L122.115 118.22L119.124 120.962L115.666 118.653L112.016 121.058L108.078 119.163L105.084 118.094L106.946 115.555L102.265 112.058L107.271 109.054L102.834 103.509L107.696 98.3545L105.199 95.2192L107.929 92.368L103.425 89.6217L108.221 87.2668L103.903 83.4918L108.513 80.2602L107.262 74.8815L111.063 70.9421L116.145 67.1707L121.686 70.2285L126.186 65.3528L131.298 69.5828L134.121 66.2172L137.368 69.175L141.085 65.8764L145.336 68.6397L147.804 63.7735L150.9 68.2659L153.883 63.4922L157.477 67.8241L162.348 64.702L167.594 67.1444L172.013 68.6261L168.802 71.8907L172.287 76.4841L169.439 81.3758L169.492 85.9456L164.864 87.0187L161.004 90.0729L156.896 87.554L153.002 90.1023L148.802 88.0977L143.948 91.4728L138.812 88.7689L135.719 91.8986L132.235 89.2107L132.591 92.6168L129.506 93.9674L132.105 98.6203L129.097 103.015L131.313 100.071L134.484 101.89L138.412 97.9425L144.027 98.3275L147.188 96.2096L150.603 97.8857L153.359 95.4139L155.713 98.3047L161.286 98.0573L165.352 101.849L169.912 99.7645L169.493 104.874L176.104 104.938L175.146 111.482L180.602 113.275L178.033 118.529L181.6 120.576L178.752 123.562L182.54 126.992L178.275 129.692L181.135 134.454L175.934 136.455L177.463 142.196L171.528 142.722L169.364 148.33L163.293 148.738L162.579 153.232L158.733 150.823L154.689 156.811L148.246 153.56L145.785 156.647L135.59 154.283ZM154.038 71.4851L149.038 70.8047L148.206 75.434L151.301 78.0209L153.669 75.4481L154.038 71.4851ZM143.622 80.9505L140.392 80.1512L137.864 82.2266L139.712 85.1514L142.823 84.1802L143.622 80.9505ZM133.86 85.0363L132.646 83.9746L131.348 85.4592L132.361 87.2967L133.954 86.4274L133.86 85.0363ZM153.077 104.453L151.492 103.543L150.7 104.993L151.19 106.612L152.935 106.114L153.077 104.453ZM116.925 109.041L113.065 112.095L114.543 117.077L119.712 116.476L120.552 111.973L116.925 109.041ZM153.504 114.587L152.492 114.655L152.316 115.81L153.353 116.122L154.187 115.303L153.504 114.587ZM155.65 123.844L154.022 122.301L152.328 123.559L152.599 125.7L154.605 125.311L155.65 123.844ZM174.47 126.009L169.993 125.548L166.343 127.953L168.943 132.605L172.98 130.302L174.47 126.009ZM163.242 130.956L161.472 131.075L160.427 132.542L162.038 133.832L163.353 132.6L163.242 130.956ZM116.181 137.674L113.249 141.301L114.389 145.036L119.128 145.607L120.314 140.573L116.181 137.674ZM163.947 141.453L162.228 142.33L162.271 144.868L165.239 145.558L165.558 142.742L163.947 141.453ZM149.565 144.833L147.018 142.844L145.552 145.61L146.708 147.692L149.634 147.75L149.565 144.833ZM191.223 151.435L188.887 148.797L191.651 146.452L187.163 142.053L192.262 138.534L188.6 133.19L193.117 128.568L194.498 124.537L198.637 123.751L202.48 120.443L206.731 123.207L211.535 119.073L216.849 122.527L219.954 127.146L216.702 131.684L219.251 137.483L213.755 140.774L215.452 145.234L211.449 148.043L214.613 153.548L208.822 156.223L207.079 160.533L202.559 159.439L197.663 164.087L191.223 151.435ZM209.215 131.806L204.061 128.849L198.338 132.536L201.453 139.187L210.155 140.127L209.215 131.806ZM208.818 148.601L207.317 147.051L205.876 148.291L205.75 150.205L208.078 150.811L208.818 148.601ZM202.682 151.808L198.643 152.207L197.853 155.563L200.434 158.057L202.675 155.493L202.682 151.808ZM268.537 145.479L265.934 150.227L263.453 145.439L260.326 148.063L257.829 144.928L253.302 147.518L250.459 143.009L246.042 145.338L244.943 140.331L238.071 140.157L236.98 133.37L230.883 131.493L232.625 125.278L228.745 122.363L230.86 117.902L226.583 114.759L230.122 110.71L224.935 107.247L229.486 103.131L225.378 98.7062L229.119 93.8815L225.82 90.1649L229.402 86.7484L226.743 81.2103L231.994 78.0627L230.972 74.1931L234.85 73.2974L233.979 67.8933L239.35 68.4218L241.936 63.4206L247.526 63.4262L250.575 57.7587L256.226 60.555L258.854 56.1862L262.76 59.4809L267.792 56.8562L272.919 59.4336L277.311 56.7248L280.382 60.8378L285.119 57.5977L286.631 63.0858L291.478 61.4898L292.197 66.523L297.197 65.2979L296.39 70.3066L302.174 71.3154L300.786 77.1254L305.584 78.5816L302.821 82.8325L306.566 85.6298L303.769 89.3748L308.036 92.3911L304.472 96.0606L309.372 99.0344L304.914 102.637L307.655 105.629L305.203 108.842L308.039 113.225L304.896 117.502L307.715 123.537L302.118 127.216L300.983 133.009L295.833 135.769L296.139 140.321L291.72 138.84L291.824 144.168L287.312 141.296L283.258 145.252L277.609 144.361L274.365 149.025L268.537 145.479ZM286.185 65.9106L282.719 63.4757L279.348 66.2429L280.876 70.0784L284.636 69.3177L286.185 65.9106ZM249.148 70.5584L248.086 69.8675L246.611 70.6018L247.707 71.7985L248.719 71.7305L249.148 70.5584ZM248.066 80.9212L243.673 79.8189L241.516 83.6479L244.333 85.8723L247.579 85.0191L248.066 80.9212ZM270.744 125.385L271.383 121.658L275.009 122.685L274.029 119.448L277.106 117.971L275.528 115.282L277.399 112.87L275.07 110.358L277.177 107.676L274.604 105.308L276.837 102.617L274.888 100.081L276.488 97.4323L273.916 95.0644L276.014 92.2556L274.461 89.9462L275.421 87.2139L272.393 85.6388L273.58 82.5101L270.275 82.4781L269.557 79.3504L266.877 81.0549L264.574 78.9229L263.708 83.0463L260.014 81.0078L260.479 84.1525L257.512 85.3681L259.351 88.1664L256.966 90.4863L258.662 93.0402L257.062 95.6885L259.634 98.0564L257.401 100.747L258.844 103.318L257.75 105.932L259.817 108.334L258.216 110.983L260.536 113.367L258.691 116.159L261.853 117.852L260.287 121.006L263.255 121.696L263.712 124.715L266.847 122.217L270.744 125.385ZM293.894 86.1L287.317 86.5418L289.142 92.8982L294.7 96.2089L299.756 90.1525L293.894 86.1ZM239.919 92.0127L237.575 93.0594L237.273 96.1286L240.486 96.675L242.466 94.0012L239.919 92.0127ZM247.105 96.8655L244.888 97.9037L244.611 101.352L248.296 101.359L249.736 98.2132L247.105 96.8655ZM253.284 111.314L250.248 109.612L248.841 113.264L251.667 115.615L254.735 114.011L253.284 111.314ZM298.079 108.686L296.148 108.307L295.364 109.884L296.453 110.955L297.557 110.372L298.079 108.686ZM288.531 117.839L283.987 120.177L286.392 123.826L290.204 125.73L290.295 121.404L288.531 117.839ZM250.626 124.704L246.198 121.191L238.484 123.614L241.726 132.162L250.217 131.846L250.626 124.704ZM268.773 128.186L266.344 127.968L265.299 129.435L265.84 131.813L268.445 130.876L268.773 128.186ZM292.569 134.463L291.043 134.439L290.133 136.024L291.828 136.673L293.439 136.057L292.569 134.463ZM275.893 135.838L272.351 136.076L272.193 139.389L275.061 142.373L276.855 138.822L275.893 135.838ZM359.312 139.381L356.709 144.129L354.228 139.341L351.101 141.965L348.604 138.83L344.077 141.42L341.233 136.911L336.817 139.24L335.718 134.233L328.846 134.059L327.755 127.272L321.658 125.395L323.4 119.18L319.52 116.265L321.634 111.804L317.358 108.661L320.897 104.612L315.71 101.149L320.261 97.0325L316.153 92.6081L319.894 87.7834L316.595 84.0668L320.177 80.6502L317.518 75.1121L322.769 71.9645L321.747 68.095L325.625 67.1993L324.754 61.7952L330.125 62.3236L332.711 57.3224L338.301 57.328L341.35 51.6605L347.001 54.4569L349.629 50.0881L353.534 53.3828L358.567 50.758L363.694 53.3354L368.086 50.6267L371.157 54.7397L375.894 51.4996L377.406 56.9877L382.253 55.3917L382.972 60.4249L387.971 59.1998L387.165 64.2085L392.949 65.2173L391.561 71.0273L396.359 72.4834L393.596 76.7343L397.341 79.5316L394.543 83.2766L398.811 86.2929L395.247 89.9624L400.147 92.9362L395.688 96.5387L398.43 99.5305L395.978 102.744L398.813 107.127L395.671 111.403L398.49 117.439L392.893 121.118L391.758 126.911L386.608 129.67L386.914 134.223L382.495 132.742L382.599 138.07L378.086 135.197L374.033 139.154L368.383 138.263L365.14 142.927L359.312 139.381ZM376.96 59.8124L373.494 57.3775L370.123 60.1448L371.651 63.9803L375.411 63.2195L376.96 59.8124ZM339.923 64.4602L338.861 63.7694L337.386 64.5037L338.482 65.7004L339.494 65.6324L339.923 64.4602ZM338.841 74.823L334.448 73.7207L332.291 77.5497L335.108 79.7742L338.354 78.9209L338.841 74.823ZM361.519 119.287L362.158 115.56L365.784 116.587L364.804 113.35L367.881 111.873L366.303 109.184L368.173 106.772L365.845 104.26L367.952 101.578L365.379 99.2101L367.612 96.5193L365.663 93.9824L367.263 91.3341L364.691 88.9662L366.789 86.1575L365.236 83.848L366.196 81.1158L363.168 79.5406L364.355 76.412L361.05 76.3799L360.332 73.2522L357.652 74.9567L355.349 72.8248L354.482 76.9482L350.788 74.9097L351.254 78.0543L348.286 79.27L350.126 82.0683L347.741 84.3881L349.437 86.942L347.836 89.5903L350.409 91.9582L348.176 94.649L349.619 97.2199L348.525 99.8342L350.592 102.236L348.991 104.884L351.311 107.269L349.466 110.061L352.628 111.754L351.062 114.908L354.03 115.598L354.487 118.616L357.622 116.119L361.519 119.287ZM384.669 80.0018L378.092 80.4436L379.917 86.8L385.475 90.1107L390.53 84.0544L384.669 80.0018ZM330.693 85.9145L328.35 86.9612L328.048 90.0304L331.261 90.5768L333.241 87.903L330.693 85.9145ZM337.879 90.7674L335.663 91.8056L335.386 95.2542L339.071 95.2607L340.511 92.115L337.879 90.7674ZM344.059 105.216L341.022 103.514L339.616 107.166L342.442 109.517L345.51 107.913L344.059 105.216ZM388.854 102.588L386.923 102.209L386.139 103.786L387.228 104.856L388.332 104.274L388.854 102.588ZM379.305 111.741L374.762 114.078L377.167 117.728L380.979 119.632L381.069 115.306L379.305 111.741ZM341.401 118.606L336.973 115.093L329.259 117.516L332.501 126.064L340.992 125.748L341.401 118.606ZM359.547 122.088L357.119 121.87L356.074 123.337L356.615 125.715L359.22 124.777L359.547 122.088ZM383.344 128.365L381.818 128.341L380.908 129.926L382.603 130.575L384.213 129.958L383.344 128.365ZM366.667 129.74L363.126 129.978L362.968 133.291L365.836 136.274L367.63 132.724L366.667 129.74ZM450.087 133.282L447.484 138.031L445.003 133.243L441.876 135.867L439.378 132.731L434.852 135.322L432.008 130.813L427.592 133.142L426.493 128.134L419.621 127.961L418.53 121.174L412.433 119.297L414.175 113.082L410.295 110.167L412.409 105.706L408.133 102.563L411.672 98.5139L406.485 95.0512L411.036 90.9343L406.928 86.5099L410.669 81.6852L407.37 77.9686L410.952 74.552L408.293 69.0139L413.544 65.8663L412.522 61.9968L416.4 61.1011L415.529 55.697L420.9 56.2254L423.486 51.2243L429.076 51.2299L432.125 45.5624L437.776 48.3587L440.404 43.9899L444.309 47.2846L449.342 44.6599L454.469 47.2373L458.861 44.5285L461.932 48.6415L466.669 45.4014L468.181 50.8895L473.028 49.2935L473.747 54.3267L478.746 53.1016L477.94 58.1103L483.724 59.1191L482.336 64.9291L487.134 66.3853L484.371 70.6361L488.116 73.4335L485.318 77.1785L489.586 80.1947L486.022 83.8642L490.922 86.838L486.463 90.4405L489.205 93.4323L486.753 96.6459L489.588 101.029L486.446 105.305L489.265 111.341L483.668 115.02L482.533 120.813L477.383 123.572L477.689 128.125L473.27 126.643L473.374 131.972L468.861 129.099L464.808 133.056L459.158 132.165L455.915 136.829L450.087 133.282ZM467.735 53.7143L464.269 51.2794L460.898 54.0466L462.426 57.8821L466.186 57.1214L467.735 53.7143ZM430.698 58.362L429.636 57.6712L428.16 58.4055L429.257 59.6022L430.269 59.5342L430.698 58.362ZM429.616 68.7248L425.223 67.6226L423.066 71.4515L425.883 73.676L429.129 72.8228L429.616 68.7248ZM452.294 113.189L452.933 109.462L456.559 110.489L455.579 107.252L458.656 105.775L457.078 103.086L458.948 100.673L456.62 98.1621L458.727 95.4798L456.154 93.1119L458.387 90.4211L456.438 87.8843L458.038 85.236L455.466 82.8681L457.564 80.0593L456.011 77.7499L456.971 75.0176L453.943 73.4425L455.13 70.3138L451.825 70.2818L451.107 67.1541L448.427 68.8586L446.124 66.7266L445.257 70.85L441.563 68.8115L442.029 71.9562L439.061 73.1718L440.901 75.9701L438.516 78.29L440.212 80.8438L438.611 83.4921L441.184 85.8601L438.951 88.5508L440.394 91.1217L439.3 93.736L441.366 96.1379L439.766 98.7862L442.086 101.171L440.241 103.963L443.403 105.656L441.837 108.81L444.805 109.5L445.262 112.518L448.397 110.021L452.294 113.189ZM475.443 73.9037L468.867 74.3455L470.692 80.7018L476.25 84.0126L481.305 77.9562L475.443 73.9037ZM421.468 79.8163L419.125 80.863L418.823 83.9322L422.036 84.4786L424.016 81.8049L421.468 79.8163ZM428.654 84.6692L426.438 85.7074L426.161 89.156L429.846 89.1625L431.286 86.0169L428.654 84.6692ZM434.834 99.1175L431.797 97.4159L430.391 101.067L433.217 103.418L436.285 101.815L434.834 99.1175ZM479.629 96.4894L477.698 96.1109L476.914 97.688L478.002 98.7583L479.107 98.1759L479.629 96.4894ZM470.08 105.642L465.537 107.98L467.942 111.63L471.754 113.533L471.844 109.208L470.08 105.642ZM432.176 112.508L427.748 108.994L420.034 111.418L423.276 119.966L431.767 119.65L432.176 112.508ZM450.322 115.989L447.894 115.771L446.849 117.239L447.39 119.616L449.995 118.679L450.322 115.989ZM474.119 122.267L472.593 122.243L471.683 123.828L473.378 124.477L474.988 123.86L474.119 122.267ZM457.442 123.642L453.901 123.879L453.743 127.193L456.611 130.176L458.405 126.626L457.442 123.642Z" fill="white" fill-opacity="0.2"/>
<path d="M228 60.5246C242.167 46.8579 276.1 25.1246 298.5 47.5246C326.5 75.5246 337.5 8.52469 376.5 34.5246C415.5 60.5246 439.5 8.52469 480.5 34.5246" stroke="url(#paint1_linear_71_68)" stroke-width="1.5" stroke-dasharray="5 5"/>
<path d="M28.5313 220.919L27.5715 219.284L28.3039 217.535L27.0057 215.922L28.0794 214.193L26.9674 212.823L27.8862 211.316L26.3852 210.482L27.7611 209.455L26.0853 208.547L27.6247 207.424L26.2589 206.071L27.4314 204.547L26.1079 203.191L27.241 201.713L26.1208 200.853L27.116 199.851L25.6883 198.842L26.9682 197.651L26.3834 195.906L27.9314 194.909L29.1323 193.809L30.4697 194.739L32.0739 193.314L33.8542 194.511L35.2667 193.397L36.0544 195.001L37.09 195.866L36.1795 196.862L37.3988 198.565L36.4182 200.416L37.4257 201.496L36.5745 202.743L37.4775 203.532L36.6882 204.435L38.2908 205.517L36.8474 206.804L38.5175 207.627L36.9724 208.666L38.5498 210.005L37.1657 211.543L38.3989 212.82L37.3476 214.25L38.6007 215.823L37.5721 217.592L38.763 218.872L37.754 220.3L38.2228 221.586L37.0837 222.342L35.7925 223.364L34.3762 222.524L33.178 223.667L31.8378 222.695L30.4989 224.272L28.5313 220.919ZM28.9584 195.648L28.5859 195.163L27.974 195.544L28.2253 196.122L28.8713 196.248L28.9584 195.648ZM33.9054 195.273L33.5019 194.96L33.0027 195.121L32.9241 195.849L33.6913 195.882L33.9054 195.273ZM35.0745 198.127L33.4719 197.044L32.0736 198.371L33.0473 199.58L34.3702 199.661L35.0745 198.127ZM30.6561 200.676L28.9578 200.067L28.1774 201.735L29.1937 203.579L31.0293 202.436L30.6561 200.676ZM35.7597 203.265L34.3914 202.507L33.0635 203.616L33.8935 205.218L35.7916 205.005L35.7597 203.265ZM31.4401 206.02L31.0622 206.088L30.9523 206.35L31.1837 206.632L31.5531 206.438L31.4401 206.02ZM31.7262 208.381L31.162 208.206L30.7588 208.531L30.965 209.069L31.5544 208.987L31.7262 208.381ZM30.3531 209.45L29.7719 209.022L29.1544 209.318L29.3296 210.029L30.015 210.111L30.3531 209.45ZM34.8297 210.297L32.5761 210.278L32.3883 212.543L34.2081 213.696L35.3298 212.048L34.8297 210.297ZM30.0621 213.975L29.3372 213.938L29.2135 214.627L29.7129 215.103L30.3643 214.677L30.0621 213.975ZM34.4017 217.21L32.9206 216.672L32.174 218.21L33.3396 219.746L35.1443 218.775L34.4017 217.21ZM36.6641 217.993L36.3342 218.143L36.4838 218.473L36.8336 218.619L36.9773 218.227L36.6641 217.993ZM32.4544 220.486L31.7718 220.447L31.7807 221.211L32.4774 221.462L33.0356 220.914L32.4544 220.486ZM35.1424 220.645L34.7108 220.547L34.2653 220.874L34.7111 221.184L35.0439 221.077L35.1424 220.645ZM54.2716 219.36L52.8609 218.605L54.1579 217.668L53.1924 215.948L53.9192 214.114L52.954 213.032L53.7628 211.787L52.8315 210.575L53.5923 209.249L52.032 208.164L53.4332 206.88L52.121 205.693L53.2626 204.342L51.9025 203.073L53.0808 201.634L51.6474 200.54L52.9244 199.307L51.8352 198.275L52.7767 197.107L51.5011 195.833L52.5948 194.4L52.9045 193.317L53.9987 193.158L55.3999 191.874L57.0024 192.956L58.7786 191.562L60.4576 193.149L62.5366 193.732L62.3826 195.867L64.1374 196.684L64.3104 198.627L66.0314 199.574L66.3736 201.506L67.7558 201.838L67.5986 203.294L69.0452 202.686L69.0961 202.81L69.9109 202.288L68.9287 200.952L69.7205 199.454L68.5886 197.787L69.4846 195.942L68.7761 194.885L69.3397 193.785L69.1048 192.186L70.7095 192.035L72.1953 190.746L73.8402 191.825L75.1734 190.163L76.6747 191.635L77.9047 192.232L77.6121 193.569L78.6565 195.199L77.8394 196.954L78.8302 198.417L78.0412 199.957L79.669 200.783L78.1663 201.819L79.676 203.417L78.3936 205.203L80.1231 206.277L78.5528 207.572L79.6673 208.347L78.6665 209.265L80.4358 210.931L78.9024 212.776L80.3332 214.465L79.1411 216.33L80.044 217.119L79.2548 218.022L79.2753 219.593L77.7043 219.613L76.1958 220.565L74.5314 219.827L73.618 220.78L72.543 219.96L71.0257 220.147L70.7118 218.638L69.0477 218.538L69.3627 216.902L68.0481 216.31L67.8246 214.88L66.27 213.88L65.6824 212.092L64.4299 211.793L64.4687 210.473L63.2024 210.601L62.821 209.352L63.0698 210.525L62.0011 211.064L62.7437 212.629L62.2171 214.279L63.4304 215.26L62.3621 216.437L63.3105 217.903L62.5667 219.483L61.9921 221.051L60.3589 220.779L59.2454 221.916L58.0321 220.935L57.2798 222.388L56.3399 221.049L55.6043 222.118L54.2716 219.36ZM60.0665 194.918L58.5151 194.597L57.8499 195.449L57.9127 197.017L59.7628 196.723L60.0665 194.918ZM73.2975 195.134L71.735 195.281L70.5906 196.591L72.041 197.938L73.9811 197.085L73.2975 195.134ZM58.9912 199.155L57.7618 199.832L58.1347 200.955L59.1813 201.352L59.3669 200.319L58.9912 199.155ZM77.0821 199.597L75.6828 199.011L74.8174 200.046L75.4018 201.154L76.8968 201.267L77.0821 199.597ZM59.2161 203.134L58.745 203.081L58.4659 203.355L58.6607 203.724L59.2559 203.727L59.2161 203.134ZM75.8344 203.165L74.4667 203.682L73.5985 204.675L74.8232 205.825L76.2019 204.84L75.8344 203.165ZM55.4638 206.744L54.8431 206.36L54.488 206.767L54.4488 207.449L55.216 207.483L55.4638 206.744ZM66.4583 207.195L65.4092 207.393L65.2236 208.425L66.1603 209.085L67.2937 208.244L66.4583 207.195ZM61.8423 209.332L61.5547 209.479L61.5803 209.86L61.913 209.753L62.1103 209.527L61.8423 209.332ZM73.7672 209.084L70.975 209.271L71.095 212.323L73.6223 212.621L76.1458 210.964L73.7672 209.084ZM56.4306 211.013L55.8807 211.05L56.1291 211.586L56.6201 211.935L56.7918 211.329L56.4306 211.013ZM59.3362 211.881L57.6105 212.761L56.9204 214.508L58.7708 214.851L60.062 213.829L59.3362 211.881ZM70.9722 214.924L70.439 214.577L69.8609 214.828L69.9967 215.584L70.7102 215.451L70.9722 214.924ZM76.3681 215.538L75.0766 215.923L75.159 217.15L76.2706 217.882L76.8285 216.697L76.3681 215.538ZM72.894 216.962L72.2335 215.986L71.1197 216.486L71.36 217.532L72.1695 217.563L72.894 216.962ZM123.744 216.818L122.015 217.657L120.57 216.394L118.856 217.444L118.139 215.622L116.08 215.973L115.602 213.923L113.622 213.546L113.742 211.54L112.112 211.31L113.084 209.97L111.434 209.443L112.581 208.176L111.063 207.088L112.284 205.646L111.11 204.62L112.136 203.446L110.626 201.848L111.951 200.059L110.873 198.559L112.054 197.162L111.579 195.154L113.189 193.814L112.796 192.395L114.274 192.254L114.304 190.807L115.754 190.879L116.14 189.026L117.917 189.544L119.022 188.28L120.658 188.595L121.187 186.987L122.333 188.227L123.46 186.664L124.866 187.972L125.897 186.883L126.905 187.963L128.109 186.904L129.128 188.153L130.991 187.433L132.281 188.919L133.59 188.151L133.819 189.666L135.655 189.16L135.78 191.021L137.199 191.266L137.213 192.752L138.979 193.101L138.154 194.729L138.936 196.249L137.515 197.237L136.226 198.301L134.807 197.419L133.804 198.931L132.607 197.566L131.243 198.763L129.688 197.763L128.156 197.101L127.961 195.456L126.289 196.504L125.946 194.572L124.599 196.022L122.841 195.163L123.082 196.846L121.407 197.214L122.877 198.858L121.282 200.41L122.419 202.161L121.523 204.006L122.852 205.446L121.857 207.085L123.432 207.745L123.119 209.423L124.603 208.728L125.297 210.212L125.999 208.635L126.987 210.056L127.361 208.671L128.743 209.003L128.212 207.423L129.791 206.892L131.02 205.577L132.679 206.231L133.767 204.713L135.048 206.072L136.396 204.621L137.925 205.879L139.053 205.59L139.215 206.727L140.569 208.548L138.652 209.739L139.133 211.832L137.088 212.394L136.533 214.259L134.593 214.474L133.731 216.19L131.83 215.722L131.227 217.505L129.827 216.282L128.305 217.659L123.744 216.818ZM130.894 189.777L129.526 189.657L128.754 190.813L129.77 192.02L131.163 191.246L130.894 189.777ZM125.087 190.635L124.103 191.168L124.061 192.446L125.477 192.648L126.579 191.342L125.087 190.635ZM133.771 190.859L133.292 190.678L132.765 191.054L133.216 191.449L133.724 191.414L133.771 190.859ZM119.558 193.726L116.128 193.276L115.433 196.85L118.339 198.992L119.855 196.256L119.558 193.726ZM133.483 194.15L132.583 194.041L132.109 194.583L132.378 195.415L133.249 195.101L133.483 194.15ZM136.224 193.839L135.55 193.927L135.198 194.375L135.621 194.984L136.142 194.524L136.224 193.839ZM115.027 202.19L114.161 202.588L114.187 203.606L115.211 203.665L115.371 202.889L115.027 202.19ZM120.236 202.562L119.949 202.709L119.757 203.019L120.101 203.081L120.346 202.937L120.236 202.562ZM118.226 204.27L117.434 204.493L117.276 205.311L118.103 205.595L118.999 205.025L118.226 204.27ZM134.863 207.742L133.746 207.562L133.281 208.868L134.523 209.634L135.563 208.672L134.863 207.742ZM121.769 210.831L120.361 210.118L119.205 210.621L119.341 212.014L120.944 212.459L121.769 210.831ZM136.365 209.851L135.739 210.02L135.558 210.5L136.046 210.807L136.362 210.446L136.365 209.851ZM116.735 211.169L116.202 211.46L116.414 212.083L117.283 212.365L117.265 211.474L116.735 211.169ZM130.426 211.907L128.259 211.288L127.149 213.104L128.402 214.678L130.675 214.355L130.426 211.907ZM152.699 212.833L151.816 211.702L153.141 211.188L152.52 209.53L153.932 208.415L153.218 206.636L154.754 205.47L153.688 204.14L155.261 203.524L154.07 201.607L156.083 200.579L155.467 199.006L156.801 197.981L155.7 196.78L157.243 196.336L156.173 194.963L157.792 194.387L157.202 192.557L158.645 191.27L157.725 189.59L159.363 188.672L158.474 186.819L160.383 186.139L161.124 185.154L162.109 185.895L163.397 184.194L164.943 185.705L165.758 184.545L166.762 185.583L167.862 184.234L169.089 185.426L170.135 184.549L170.973 185.64L172.392 185.884L171.713 187.162L173.406 188.324L173.071 190.301L174.806 190.822L173.983 192.492L175.792 192.838L174.788 194.35L176.732 195.452L176.197 197.613L177.839 198.013L176.963 199.516L178.751 200.204L178.064 201.992L179.348 202.756L178.976 204.183L180.519 205.014L180.035 206.662L181.855 207.815L181.447 209.967L183.106 210.62L182.452 212.279L182.12 213.661L181.118 212.666L179.404 213.716L177.607 212.902L176.516 214.378L175.28 213.058L173.684 213.336L173.322 211.745L171.418 211.235L172.102 209.405L170.851 211.019L169.395 209.587L168.217 211.026L166.899 209.754L165.263 210.714L163.514 209.982L163.34 211.821L161.51 211.774L162.709 213.18L160.916 213.683L160 215.232L158.527 214.184L157.075 215.344L155.523 214.386L154.009 215.89L152.699 212.833ZM170.077 186.847L169.53 186.927L169.733 187.423L170.216 187.646L170.523 187.157L170.077 186.847ZM165.487 189.366L164.229 189.62L164.277 190.977L165.544 191.487L166.232 190.335L165.487 189.366ZM172.313 191.032L171.892 190.465L171.015 190.694L171.284 191.526L171.964 191.523L172.313 191.032ZM169.499 192.793L168.76 191.908L167.795 192.738L168.168 193.86L169.407 193.947L169.499 192.793ZM163.835 203.373L164.627 202.512L165.528 203.259L166.303 202.145L167.177 203.148L167.972 202.33L168.87 203.035L169.148 202.124L169.146 202.081L169.503 201.08L168.739 200.451L168.888 199.506L168.083 198.923L168.314 197.93L167.55 197.301L167.699 196.356L166.852 195.776L167.125 194.78L166.324 194.876L165.898 194.225L165.961 195.156L165.033 195.261L165.436 196.211L164.675 196.9L165.209 197.884L164.273 198.499L164.722 199.489L163.915 200.138L164.235 201.094L163.516 201.78L164.007 202.767L163.835 203.373ZM164.556 195.123L164.234 194.762L163.56 194.85L163.496 195.789L164.486 195.977L164.556 195.123ZM160.574 195.943L159.533 196.268L159.161 197.057L159.983 197.895L160.95 197.107L160.574 195.943ZM174.835 198.214L172.509 199.646L172.99 201.738L174.756 202.087L176.312 200.58L174.835 198.214ZM157.384 201.597L156.873 201.588L156.738 202.107L157.184 202.417L157.542 202.053L157.384 201.597ZM176.435 203.674L176.014 203.745L175.741 204.103L176.133 204.247L176.421 204.1L176.435 203.674ZM161.292 205.371L160.045 205.157L159.437 206.218L160.202 207.484L161.775 206.869L161.292 205.371ZM169.328 206.064L168.31 205.452L167.831 206.547L168.328 207.618L169.394 207.037L169.328 206.064ZM174.865 205.607L172.851 205.997L171.566 208.378L174.254 209.175L176.231 207.597L174.865 205.607ZM164.148 208.664L163.61 208.87L163.903 209.445L164.498 209.448L164.712 208.839L164.148 208.664ZM157.125 209.136L156.093 209.588L156.54 210.535L157.355 210.65L157.896 209.849L157.125 209.136ZM160.417 209.425L159.957 209.541L159.726 209.896L160.09 210.254L160.539 209.969L160.417 209.425ZM180.022 209.638L178.717 210.448L179.276 211.812L180.5 211.688L181.272 210.531L180.022 209.638ZM204.192 211.286L203.019 212.172L202.136 211.042L200.227 211.722L199.013 210.104L196.963 209.944L196.076 208.134L194.059 207.207L194.295 205.024L194.926 203.664L196.379 203.779L197.317 202.569L198.409 203.643L200.036 202.556L201.751 203.418L202.891 202.662L203.608 203.846L205.531 203.377L206.984 204.766L208.207 203.367L209.838 204.235L209.877 202.915L211.155 202.956L209.829 202.196L209.599 200.681L208.522 201.093L207.746 200.296L206.054 201.047L204.497 200.004L203.282 200.893L202.269 199.729L200.339 200.113L198.804 198.771L197.256 199.13L196.77 197.591L195.255 197.183L195.069 195.665L193.237 194.343L194.074 192.247L192.663 190.855L194.327 189.681L193.305 188.389L194.943 188.109L194.697 186.341L196.463 186.052L196.087 184.25L197.793 184.985L198.399 183.245L200.215 183.718L201.554 182.14L203.509 182.774L204.256 181.237L205.365 182.564L206.935 181.269L208.428 182.614L209.818 181.16L210.62 182.976L212.679 182.626L214.016 184.193L216.165 183.921L216.649 186.056L218.099 186.129L217.812 187.55L219.374 188.04L218.492 189.459L217.915 190.986L216.775 189.83L215.743 190.919L214.575 189.978L213.281 190.957L211.867 190.16L210.108 190.533L208.522 189.704L207.236 190.173L206.313 189.088L205.327 190.854L203.347 190.477L204.557 191.416L204.578 192.987L205.714 192.188L206.262 193.383L207.816 192.472L209.212 193.653L210.312 192.941L211.221 193.815L212.284 193.191L213.11 194.113L214.54 193.89L215.708 194.831L217.781 194.692L218.547 196.595L219.985 197.136L219.831 198.634L221.115 200.035L220.383 201.784L220.934 203.659L219.629 205.107L220.024 206.568L218.51 206.797L218.835 208.475L217.154 208.12L216.652 209.514L215.157 209.402L214.397 210.728L212.966 210.314L211.785 211.711L210.124 211.015L209.137 212.781L204.192 211.286ZM203.759 185.222L203.271 184.915L202.647 185.127L202.904 185.79L203.683 185.992L203.759 185.222ZM200.484 185.187L199.929 185.139L199.655 185.498L199.898 185.949L200.442 185.827L200.484 185.187ZM197.933 187.058L197.038 186.396L196.35 186.91L196.483 187.623L197.267 187.911L197.933 187.058ZM207.818 186.182L206.207 186.248L206.31 187.771L207.472 188.627L208.371 187.462L207.818 186.182ZM197.831 191.867L196.974 192.392L196.588 193.608L198.057 193.977L198.694 192.702L197.831 191.867ZM198.25 194.942L197.491 195.035L197.077 195.828L197.864 196.157L198.642 195.723L198.25 194.942ZM200.997 195.352L200.549 195.637L200.755 196.176L201.302 196.096L201.44 195.62L200.997 195.352ZM204.992 196.613L204.605 196.554L204.25 196.961L204.738 197.268L205.322 197.101L204.992 196.613ZM209.29 196.707L208.695 196.705L208.56 197.224L208.966 197.579L209.499 197.288L209.29 196.707ZM212.964 199.52L212.309 198.629L211.297 199.377L211.512 200.68L212.772 200.468L212.964 199.52ZM219.199 198.719L217.411 198.669L215.7 199.761L217.255 201.399L218.944 200.606L219.199 198.719ZM195.575 205.108L195.042 204.761L194.729 205.165L194.8 205.585L195.361 205.717L195.575 205.108ZM214.6 205.53L213.299 203.875L211.94 205.156L211.554 207.009L213.605 207.169L214.6 205.53ZM197.99 205.626L197.22 206.187L197.308 206.861L197.96 207.073L198.261 206.5L197.99 205.626ZM201.262 205.618L200.627 205.661L200.425 206.44L201.203 206.642L201.849 206.131L201.262 205.618ZM206.709 206.995L205.976 207.469L206.131 208.521L207.454 208.602L207.626 207.358L206.709 206.995ZM209.08 210.023L208.69 209.921L208.445 210.065L208.589 210.311L208.891 210.375L209.08 210.023ZM235.734 206.83L233.965 205.164L235.496 203.276L234.448 201.604L235.26 199.765L233.917 198.75L235.112 197.565L233.98 196.536L234.964 195.365L233.285 193.778L234.737 191.98L233.661 190.523L234.532 188.934L233.24 188.044L234.399 186.946L233.148 185.415L234.183 183.731L233.026 182.959L234.069 182.039L234.173 181.054L235.146 180.989L236.73 179.267L238.53 180.761L239.951 179.136L241.576 180.557L243.021 181.182L243.044 182.795L244.046 183.791L243.189 184.953L244.859 185.776L243.314 186.815L244.561 187.666L243.436 188.634L244.818 188.966L244.746 190.416L246.395 189.03L248.257 190.18L249.61 188.814L251.092 189.989L250.62 188.661L252.016 188.567L250.944 187.152L251.814 185.564L250.51 183.866L251.578 182.052L249.914 181.314L251.465 180.36L252.144 179.082L253.422 179.761L254.772 178.353L256.299 179.568L257.342 178.648L258.499 179.42L259.895 179.326L260.406 180.609L261.955 181.525L260.542 182.64L262.091 183.556L260.679 184.671L261.935 186.286L260.903 188.013L262.621 188.917L261.04 190.043L262.713 191.546L261.256 193.259L262.599 194.273L261.403 195.459L262.521 196.913L261.608 198.505L262.655 200.177L261.844 202.016L262.916 202.794L261.958 203.708L263.518 204.793L262.117 206.077L261.094 207.293L259.528 207.399L257.845 208.914L255.975 207.637L254.458 208.462L253.267 207.182L251.881 206.17L253.119 204.982L251.624 204.232L253.005 203.29L251.287 202.385L252.869 201.259L251.362 200.34L252.732 199.228L251.04 199.342L250.926 197.65L249.636 199.309L248.092 197.84L246.798 198.82L245.427 198.019L245.698 199.531L244.175 199.633L245.395 201.336L244.414 203.187L245.503 204.219L244.562 205.387L245.583 206.678L244.744 208.094L243.58 209.745L241.929 208.581L240.294 209.541L238.545 208.808L237.468 210.496L235.734 206.83ZM236.6 184.291L236.233 183.89L235.658 184.184L235.827 184.81L236.42 184.77L236.6 184.291ZM255.418 182.899L254.837 183.746L254.742 184.857L255.915 184.608L256.148 183.658L255.418 182.899ZM236.147 185.766L235.126 185.75L235.185 186.638L235.62 187.416L236.469 186.764L236.147 185.766ZM259.021 186.567L258.313 186.147L257.927 186.725L258.209 187.131L258.816 187.303L259.021 186.567ZM236.709 188.448L236.233 188.31L235.835 188.719L236.098 189.467L236.704 189.001L236.709 188.448ZM240.128 188.728L239.521 188.557L239.265 189.169L239.807 189.642L240.201 189.191L240.128 188.728ZM240.355 190.838L237.818 194.196L238.976 196.88L242.4 197.883L243.543 194.024L240.355 190.838ZM256.925 190.787L255.123 190.526L254.537 191.925L255.248 193.662L257.408 192.922L256.925 190.787ZM252.481 193.593L252.109 193.108L251.265 193.207L251.531 193.997L252.329 194.496L252.481 193.593ZM260.353 193.744L259.741 193.488L259.112 193.615L259.245 194.329L259.922 194.283L260.353 193.744ZM247.901 194.368L247.512 194.904L247.515 195.584L248.139 195.372L248.485 194.839L247.901 194.368ZM260.349 196.209L259.799 195.609L258.676 195.982L259.176 197.096L260.423 197.309L260.349 196.209ZM238.303 200.155L237.169 200.359L236.58 201.078L237.314 201.879L238.524 201.543L238.303 200.155ZM238.133 203.311L237.419 203.444L237.761 204.101L238.469 204.521L238.753 203.695L238.133 203.311ZM260.133 203.746L259.464 203.281L258.864 203.831L258.811 204.94L260.077 204.812L260.133 203.746ZM242.16 207.588L241.745 207.106L241.125 207.36L241.17 208.037L241.759 207.955L242.16 207.588ZM296.57 202.743L295.56 201.621L296.411 200.374L295.051 199.105L296.232 197.708L295.276 196.753L296.096 195.678L294.953 194.48L295.925 193.139L294.373 191.544L295.698 189.755L293.957 188.512L295.516 187.047L294.424 185.336L295.28 183.536L294.047 182.259L295.098 180.828L293.684 179.394L294.894 177.782L295.593 176.801L296.828 176.845L298.446 175.631L300.213 176.618L301.8 175.576L303.555 176.393L304.392 174.935L305.416 176.268L306.707 175.246L308.124 176.086L309.125 175.169L310.16 176.034L311.75 175.035L313.029 176.352L314.529 175.911L315.46 177.123L317.863 176.834L318.361 179.181L320.177 179.654L319.75 181.51L321.409 182.801L320.471 184.649L322.034 185.776L320.449 186.86L321.462 188.024L320.061 188.671L320.383 190.944L318.181 191.687L317.92 193.489L316.112 193.143L315.269 194.517L313.751 194.067L312.898 195.909L311.405 194.564L310.348 195.91L309.041 194.808L307.821 196.25L306.376 194.987L306.907 196.566L305.574 197.591L306.528 199.142L305.787 200.764L307.079 202.292L306.003 203.979L305.22 205.604L303.865 204.42L303.073 205.918L302.046 204.542L301.02 205.716L299.846 204.69L298.51 205.672L296.57 202.743ZM312.967 177.333L312.518 176.981L311.986 177.272L312.228 177.723L312.705 177.861L312.967 177.333ZM301.258 179.522L300.826 179.424L300.727 179.855L300.967 180.264L301.416 179.979L301.258 179.522ZM312.926 179.886L311.232 181.232L311.061 183.113L313.289 184.026L313.906 181.817L312.926 179.886ZM299.733 182.132L298.771 181.092L297.632 181.848L297.756 183.072L299.093 183.365L299.733 182.132ZM306.26 188.833L307.064 188.141L307.91 188.722L308.671 188.033L309.591 188.439L309.867 187.486L310.826 187.209L310.292 186.225L311.18 185.528L310.537 184.806L310.813 183.852L309.699 183.715L309.667 182.612L308.725 183.143L307.989 182.3L307.225 182.946L306.339 182.411L305.541 183.187L304.689 182.521L304.951 183.269L304.441 183.898L305.09 184.704L304.555 185.59L305.074 186.363L304.666 187.24L305.315 188.046L306.26 188.833ZM302.109 183.97L300.406 184.552L300.773 186.227L302.147 186.432L302.795 185.326L302.109 183.97ZM318.909 186.071L316.74 186.047L314.885 187.531L316.708 189.363L318.546 188.263L318.909 186.071ZM299.505 188.862L297.736 187.833L296.158 189.639L297.603 191.539L299.184 190.413L299.505 188.862ZM307.256 189.743L306.325 189.169L305.482 189.905L306.086 190.672L306.935 190.657L307.256 189.743ZM302.823 190.169L301.791 190.621L301.904 191.675L302.846 191.782L303.562 191.054L302.823 190.169ZM310.926 190.602L310.419 190.636L310.19 191.034L310.526 191.606L311.138 191.225L310.926 190.602ZM314.449 191.173L313.758 191.007L313.629 191.61L313.914 192.058L314.54 191.889L314.449 191.173ZM308.182 191.509L307.858 191.743L307.844 192.169L308.321 192.307L308.419 191.875L308.182 191.509ZM300.84 196.082L300.118 195.45L299.297 195.888L299.126 197.132L300.341 196.88L300.84 196.082ZM304.631 196.209L303.407 196.334L303.154 197.626L304.31 197.761L304.911 197.21L304.631 196.209ZM336.541 199.888L335.102 198.709L336.371 197.349L334.811 196.264L336.215 195.022L335.3 194.064L336.078 192.992L334.484 191.399L335.851 189.607L334.544 188.505L335.692 187.238L334.239 186.486L335.578 185.546L334.097 184.371L335.408 183.008L333.836 181.753L335.228 180.342L333.699 179.085L335.047 177.635L333.94 176.349L334.865 174.927L335.766 173.167L337.487 174.114L338.26 172.957L339.18 174L340.53 172.592L342.056 173.807L343.15 172.373L344.425 173.647L345.186 172.321L346.118 173.534L347.877 172.523L349.677 173.38L350.599 172.553L351.386 173.52L352.72 172.495L353.581 173.925L355.702 173.23L356.647 175.291L358.622 175.584L358.925 177.561L360.942 178.487L360.187 180.536L361.818 182.041L360.361 183.754L360.976 185.327L359.646 186.394L360.321 188.218L358.377 188.392L357.905 190.208L356.046 190.375L357.538 190.445L356.949 191.802L358.837 192.695L358.807 194.78L360.725 194.863L359.992 196.612L361.428 197.111L361.231 198.611L362.656 198.941L362.324 200.323L361.456 201.954L360.135 200.64L359.126 202.068L357.978 200.785L356.989 202.509L355.778 200.933L354.216 202.355L352.751 200.796L351.073 200.484L351.645 198.873L349.935 198.095L350.233 196.206L348.65 195.419L348.872 193.662L347.871 193.305L347.924 192.196L346.796 193.759L345.47 192.361L346.306 193.41L345.065 193.918L346.05 195.297L345.258 196.795L345.998 198.317L345.471 199.968L345.562 201.322L344.271 201.706L342.644 202.792L340.886 201.933L339.947 203.144L338.855 202.07L337.987 203.063L336.541 199.888ZM346.26 175.649L345.309 174.778L344.528 175.808L345.047 176.58L345.806 176.487L346.26 175.649ZM337.748 176.093L336.538 175.792L335.754 176.78L336.477 178.049L337.706 177.371L337.748 176.093ZM357.153 177.127L354.353 177.188L353.442 178.821L354.295 180.761L356.805 180.168L357.153 177.127ZM346.017 185.95L346.77 185.134L347.667 185.839L348.391 185.238L349.308 185.601L349.674 184.726L350.599 184.579L350.063 183.553L351.084 182.932L350.48 182.165L350.713 181.214L349.72 180.984L349.565 179.932L348.617 180.378L347.886 179.62L347.114 180.139L346.237 179.73L345.47 180.334L344.629 179.838L345.066 180.659L344.201 181.057L345.059 181.807L344.312 182.707L345.13 183.502L344.425 184.399L345.072 185.163L346.017 185.95ZM337.302 180.841L336.447 181.408L336.973 182.265L337.635 182.008L338.185 181.334L337.302 180.841ZM341.849 182.745L341.344 182.184L340.684 182.483L340.609 183.253L341.373 183.244L341.849 182.745ZM355.501 182.89L354.784 182.981L354.567 183.548L355.025 184.027L355.461 183.573L355.501 182.89ZM358.83 185.004L357.442 183.95L356.458 185.121L356.603 186.641L358.021 186.248L358.83 185.004ZM343.577 186.326L342.565 185.799L341.634 186.499L342.207 187.438L343.09 187.294L343.577 186.326ZM352.777 185.368L350.992 185.36L350.375 186.932L351.698 187.65L353.063 187.091L352.777 185.368ZM354.234 188.712L353.8 188.572L353.662 189.048L354.015 189.237L354.299 189.048L354.234 188.712ZM351.646 190.034L350.819 189.749L350.837 190.64L351.336 191.117L352.117 190.724L351.646 190.034ZM341.591 190.922L340.376 191.173L340.664 192.301L341.601 192.961L342.762 191.905L341.591 190.922ZM352.99 192.961L352.225 192.332L351.114 192.874L351.659 194.027L352.663 193.79L352.99 192.961ZM341.367 193.911L340.022 194.767L339.893 196.008L341.157 196.475L341.938 195.445L341.367 193.911ZM357.191 196.673L355.47 195.726L354.628 197.1L354.581 198.931L356.736 198.744L357.191 196.673ZM338.557 198.265L337.846 197.803L337.164 198.401L337.599 199.179L338.445 199.122L338.557 198.265ZM342.128 197.643L341.361 198.247L341.271 199.442L342.396 199.112L343.273 198.246L342.128 197.643ZM377.249 197.493L376.289 195.858L377.022 194.108L375.723 192.496L376.797 190.766L375.685 189.396L376.604 187.89L375.103 187.055L376.479 186.028L374.803 185.121L376.342 183.997L374.976 182.644L376.149 181.121L374.826 179.765L375.959 178.286L374.838 177.426L375.834 176.425L374.406 175.416L375.686 174.225L375.101 172.479L376.649 171.483L377.85 170.382L379.187 171.312L380.791 169.887L382.572 171.085L383.984 169.97L384.772 171.574L385.808 172.44L384.897 173.436L386.116 175.139L385.136 176.99L386.143 178.069L385.292 179.316L386.195 180.106L385.406 181.009L387.008 182.091L385.565 183.378L387.235 184.201L385.69 185.239L387.267 186.578L385.883 188.116L387.116 189.393L386.065 190.824L387.318 192.397L386.29 194.166L387.481 195.446L386.472 196.873L386.94 198.159L385.801 198.916L384.51 199.937L383.094 199.098L381.896 200.241L380.555 199.268L379.216 200.846L377.249 197.493ZM377.676 172.221L377.303 171.736L376.692 172.117L376.943 172.695L377.589 172.822L377.676 172.221ZM382.623 171.846L382.219 171.533L381.72 171.695L381.642 172.422L382.409 172.456L382.623 171.846ZM383.792 174.7L382.189 173.618L380.791 174.944L381.765 176.154L383.088 176.235L383.792 174.7ZM379.374 177.249L377.675 176.641L376.895 178.308L377.911 180.152L379.747 179.009L379.374 177.249ZM384.477 179.839L383.109 179.081L381.781 180.19L382.611 181.791L384.509 181.579L384.477 179.839ZM380.158 182.594L379.78 182.662L379.67 182.924L379.901 183.206L380.271 183.011L380.158 182.594ZM380.444 184.954L379.88 184.78L379.476 185.104L379.683 185.643L380.272 185.561L380.444 184.954ZM379.071 186.024L378.489 185.596L377.872 185.892L378.047 186.603L378.733 186.684L379.071 186.024ZM383.547 186.871L381.294 186.852L381.106 189.117L382.926 190.27L384.047 188.622L383.547 186.871ZM378.78 190.548L378.055 190.512L377.931 191.2L378.431 191.677L379.082 191.25L378.78 190.548ZM383.119 193.784L381.638 193.246L380.892 194.783L382.057 196.32L383.862 195.349L383.119 193.784ZM385.382 194.567L385.052 194.716L385.201 195.046L385.551 195.193L385.695 194.801L385.382 194.567ZM381.172 197.059L380.489 197.02L380.498 197.785L381.195 198.035L381.753 197.488L381.172 197.059ZM383.86 197.219L383.428 197.12L382.983 197.448L383.429 197.758L383.761 197.65L383.86 197.219ZM402.211 197.006L400.513 195.76L402.029 194.298L400.675 193.114L401.859 191.76L400.893 190.04L402.828 189.74L402.314 187.777L404.319 187.898L404.09 186.383L405.661 186.362L405.925 184.602L407.586 184.023L407.644 181.725L409.912 181.317L409.996 180.037L411.208 179.743L411.374 177.777L413.297 177.308L412.617 176.673L412.38 176.944L411.302 176.082L409.926 177.109L408.425 176.275L407.509 177.186L406.437 176.409L405.4 177.413L404.237 176.556L403.513 177.795L402.587 176.667L401.07 176.217L401.134 174.64L399.717 173.8L401.011 172.821L399.567 171.558L400.832 170.156L401.754 168.691L403.139 169.703L404.586 168.459L406.185 169.499L407.039 168.294L408.047 169.373L409.07 168.157L410.247 169.226L411.938 167.837L413.8 168.987L414.739 167.776L415.831 168.851L416.682 167.603L417.693 168.725L419.11 167.058L420.739 168.521L421.697 167.607L422.769 168.384L423.866 167.631L424.62 168.728L425.957 170.295L424.844 172.07L426.402 173.113L425.001 174.397L425.481 175.852L424.026 176.332L424.249 177.762L422.771 177.904L422.346 179.802L420.578 180.686L421.163 182.431L419.324 182.257L419.063 184.06L417.368 184.769L417.521 186.416L415.877 186.611L416.185 188.035L414.744 188.09L415.125 189.339L415.452 189.147L417.196 189.795L418.408 188.863L419.734 189.624L420.56 188.634L421.553 189.502L423.262 188.367L425.065 189.266L426.314 188.885L426.611 190.14L427.548 191.437L426.79 192.805L427.738 194.271L426.994 195.851L425.432 197.273L423.503 196.383L422.209 197.362L420.795 196.565L419.18 197.821L417.411 196.792L416.114 197.729L414.703 196.974L413.815 198.309L412.715 197.108L411.677 198.112L410.515 197.256L409.15 198.452L407.638 197.449L406.279 198.73L404.761 197.642L403.741 198.901L402.211 197.006ZM408.575 171.548L408.048 171.923L408.291 172.374L408.765 172.47L408.945 171.99L408.575 171.548ZM419.395 171.288L418.636 171.382L418.504 171.943L418.871 172.344L419.488 172.047L419.395 171.288ZM405.872 173.684L405.553 174.003L405.579 174.384L406.058 174.564L406.109 174.051L405.872 173.684ZM419.438 173.835L419.069 174.03L419.106 174.58L419.656 174.543L419.878 174.061L419.438 173.835ZM413.406 175.133L413.205 174.679L412.845 175.001L412.87 175.381L413.257 175.44L413.406 175.133ZM421.631 175.473L421.182 175.758L421.386 176.254L421.953 176.471L422.122 175.822L421.631 175.473ZM419.702 177.132L418.295 177.057L417.204 177.895L418.138 179.15L419.415 178.554L419.702 177.132ZM417.047 180.625L416.585 180.699L416.782 181.111L417.084 181.175L417.363 180.902L417.047 180.625ZM412.566 182.244L411.562 182.481L411.238 183.353L412.031 183.767L412.632 183.217L412.566 182.244ZM413.338 184.869L412.906 184.771L412.503 185.095L412.903 185.366L413.281 185.298L413.338 184.869ZM410.52 190.371L406.754 189.349L405.25 192.892L407.823 194.504L410.231 193.662L410.52 190.371ZM417.983 191.399L417.529 190.962L417.086 191.332L417.245 191.789L417.772 192.051L417.983 191.399ZM422.431 191.823L421.958 191.727L421.859 192.159L422.093 192.483L422.593 192.322L422.431 191.823ZM425.363 193.071L424.697 193.286L424.525 193.892L425.129 194.021L425.662 193.731L425.363 193.071ZM417.494 194.874L417.068 194.223L416.42 194.692L416.423 195.371L417.153 195.492L417.494 194.874ZM412.801 195.232L412.045 195.368L411.656 195.904L412.207 196.504L412.988 196.112L412.801 195.232ZM415.086 195.716L414.609 195.578L414.604 196.131L415.041 196.314L415.272 195.959L415.086 195.716ZM442.567 194.635L441.032 193.293L442.373 191.758L441.115 190.738L442.226 189.558L440.51 188.059L442.012 186.385L440.325 185.309L441.853 184.016L440.191 182.683L441.66 181.139L440.027 180.229L441.524 179.109L440.22 177.411L441.285 175.555L439.555 174.481L441.129 173.228L439.63 171.799L440.924 170.182L439.767 169.41L440.81 168.49L441.659 167.2L443.218 167.011L444.467 165.354L445.883 166.832L446.898 165.489L448.083 166.684L448.92 165.225L449.945 166.559L451.284 164.981L452.779 166.368L453.726 165.285L454.81 166.232L455.819 164.804L457.01 166.084L458.473 165.093L460.014 165.882L461.178 164.232L462.552 165.712L464.251 166.958L463.228 168.811L464.923 170.015L463.404 171.434L462.536 173.065L460.793 172.417L459.253 173.54L457.577 172.633L456.47 173.855L455.208 172.792L453.494 173.842L451.655 173.031L451.337 174.625L449.726 174.69L451.244 175.778L450.424 177.491L451.955 176.241L453.597 177.278L454.996 176.589L456.474 177.084L457.937 176.094L459.478 176.883L460.961 176.188L462.524 176.678L463.579 177.839L462.996 179.281L464.018 180.572L463.175 181.946L462.581 183.219L461.241 182.884L460.449 183.744L459.591 182.995L458.545 183.872L457.391 183.142L456.622 184.341L455.699 183.256L454.419 184.447L453.033 183.435L451.883 184.66L450.349 183.955L451.94 184.868L450.482 185.944L451.605 186.846L451.726 186.753L452.988 187.815L454.209 187.011L455.526 187.645L457.091 186.902L458.741 187.429L459.855 186.292L461.11 187.27L462.661 186.315L464.326 187.054L466.018 187.577L464.922 188.968L466.355 190.062L465.078 191.295L466.255 192.364L465.141 193.501L463.512 194.545L461.72 193.816L460.384 194.798L458.886 194.006L457.764 195.016L456.517 194.165L455.268 195.821L453.851 194.344L452.605 196.043L451.144 194.526L449.802 196.061L448.267 194.719L446.998 196.08L445.602 194.898L444.308 195.878L442.567 194.635ZM457.62 166.936L457.38 166.527L457.016 166.806L457.081 167.142L457.436 167.373L457.62 166.936ZM445.85 168.236L444.773 168.011L444.192 168.858L444.692 169.971L446.068 169.582L445.85 168.236ZM460.071 167.366L459.318 167.544L459.163 168.404L460.142 169.061L460.923 168.031L460.071 167.366ZM450.693 168.208L450.259 168.068L449.884 168.178L450.081 168.589L450.417 168.524L450.693 168.208ZM449.935 170.214L448.835 170.288L448.526 171.371L449.491 171.816L450.562 171.319L449.935 170.214ZM446.298 171.733L444.603 171.805L444.338 173.565L445.885 174.438L446.775 173.146L446.298 171.733ZM443.832 176.149L442.749 176.476L442.696 177.585L443.635 177.649L444.109 177.108L443.832 176.149ZM449.844 178.975L447.854 176.558L445.526 178.585L446.037 181.143L448.409 181.026L449.844 178.975ZM454.47 179.514L453.708 178.928L452.899 179.534L453.497 180.217L454.276 180.419L454.47 179.514ZM457.096 180.655L456.53 181.075L456.485 181.673L457.131 181.8L457.435 181.269L457.096 180.655ZM459.632 181.717L459.294 181.74L459.06 182.053L459.418 182.326L459.785 182.089L459.632 181.717ZM448.904 183.967L447.776 183.618L447.114 184.513L447.833 185.102L448.499 184.887L448.904 183.967ZM448.892 187.58L447.735 186.808L446.263 187.035L446.704 188.535L448.041 188.828L448.892 187.58ZM452.912 188.585L452.424 188.278L452.054 188.473L451.962 188.989L452.56 189.034L452.912 188.585ZM446.304 189.539L445.148 189.404L444.13 190.068L445.069 190.77L445.865 190.589L446.304 189.539ZM459.085 191.273L458.524 191.778L458.687 192.319L459.387 192.612L459.547 191.837L459.085 191.273ZM449.428 192.389L448.982 192.716L448.901 193.402L449.572 193.272L449.879 192.784L449.428 192.389ZM488.934 192.157L487.761 193.044L486.878 191.913L484.968 192.594L483.755 190.975L481.704 190.816L480.818 189.005L478.801 188.079L479.036 185.895L479.668 184.536L481.12 184.65L482.059 183.44L483.151 184.514L484.778 183.427L486.493 184.29L487.632 183.533L488.349 184.717L490.272 184.248L491.726 185.638L492.949 184.238L494.58 185.106L494.619 183.786L495.896 183.828L494.57 183.067L494.341 181.552L493.264 181.965L492.488 181.167L490.796 181.918L489.238 180.875L488.023 181.764L487.01 180.6L485.081 180.985L483.546 179.643L481.998 180.002L481.512 178.462L479.997 178.054L479.81 176.537L477.979 175.215L478.816 173.119L477.405 171.726L479.068 170.552L478.046 169.261L479.685 168.981L479.439 167.212L481.204 166.924L480.828 165.122L482.535 165.857L483.14 164.116L484.957 164.589L486.296 163.012L488.251 163.645L488.998 162.108L490.107 163.436L491.677 162.14L493.17 163.485L494.559 162.032L495.361 163.848L497.42 163.497L498.758 165.064L500.907 164.793L501.39 166.927L502.84 167L502.553 168.422L504.116 168.912L503.234 170.331L502.656 171.857L501.516 170.701L500.485 171.79L499.317 170.849L498.022 171.828L496.609 171.031L494.849 171.404L493.264 170.576L491.978 171.045L491.055 169.959L490.069 171.725L488.088 171.348L489.299 172.287L489.319 173.858L490.456 173.059L491.003 174.255L492.557 173.343L493.954 174.524L495.053 173.813L495.962 174.687L497.025 174.063L497.852 174.985L499.282 174.761L500.45 175.702L502.523 175.563L503.288 177.467L504.727 178.007L504.573 179.505L505.857 180.906L505.124 182.655L505.675 184.531L504.37 185.978L504.766 187.439L503.251 187.668L503.576 189.346L501.895 188.992L501.394 190.385L499.899 190.273L499.138 191.599L497.708 191.186L496.527 192.582L494.865 191.886L493.879 193.653L488.934 192.157ZM488.5 166.094L488.012 165.786L487.389 165.998L487.646 166.661L488.425 166.864L488.5 166.094ZM485.226 166.059L484.67 166.011L484.397 166.369L484.639 166.82L485.184 166.699L485.226 166.059ZM482.674 167.93L481.78 167.267L481.092 167.781L481.225 168.495L482.009 168.782L482.674 167.93ZM492.559 167.053L490.949 167.119L491.051 168.642L492.214 169.499L493.113 168.333L492.559 167.053ZM482.572 172.739L481.715 173.264L481.329 174.48L482.799 174.848L483.436 173.573L482.572 172.739ZM482.991 175.813L482.233 175.906L481.818 176.699L482.605 177.029L483.384 176.594L482.991 175.813ZM485.739 176.223L485.29 176.508L485.496 177.047L486.044 176.968L486.182 176.491L485.739 176.223ZM489.733 177.485L489.347 177.426L488.991 177.832L489.48 178.139L490.063 177.973L489.733 177.485ZM494.032 177.579L493.436 177.576L493.301 178.095L493.708 178.45L494.241 178.159L494.032 177.579ZM497.705 180.392L497.05 179.501L496.038 180.249L496.253 181.551L497.514 181.339L497.705 180.392ZM503.941 179.59L502.153 179.54L500.441 180.633L501.996 182.271L503.685 181.477L503.941 179.59ZM480.317 185.979L479.784 185.633L479.471 186.036L479.542 186.456L480.103 186.589L480.317 185.979ZM499.341 186.401L498.04 184.746L496.681 186.027L496.296 187.881L498.347 188.04L499.341 186.401ZM482.732 186.497L481.962 187.059L482.05 187.733L482.701 187.944L483.003 187.371L482.732 186.497ZM486.003 186.49L485.369 186.532L485.166 187.311L485.945 187.514L486.59 187.003L486.003 186.49ZM491.45 187.866L490.717 188.34L490.873 189.392L492.196 189.473L492.367 188.23L491.45 187.866ZM493.821 190.894L493.432 190.793L493.187 190.937L493.331 191.182L493.632 191.247L493.821 190.894Z" fill="white"/>
<path d="M294.332 224.142C264.182 226.029 214.739 230.318 187.664 233.357C157.456 236.758 115.274 242.845 88.779 247.57C71.2825 250.697 41.5869 257.094 37.1222 258.667C33.5265 259.951 33.0768 261.157 35.8768 261.792C37.5291 262.117 39.5348 261.894 47.5334 260.47C52.7815 259.511 58.9094 258.508 60.9132 258.244C63.0427 257.973 74.5461 256.045 86.5451 253.93C111.168 249.585 147.817 243.736 168.474 240.858C243.213 230.394 325.579 224.241 394.351 223.96C421.555 223.814 463.295 224.732 499.643 226.207C506.837 226.498 513.016 226.635 513.39 226.535C515.618 225.647 478.601 223.307 445.419 222.203C406.182 220.914 376.7 220.848 339.587 221.984C319.711 222.618 315.561 222.786 294.332 224.142Z" fill="white" fill-opacity="0.25"/>
<path d="M262.356 240.925C214.806 244.412 170.015 250.303 135.256 257.586C122.377 260.254 115.906 262.316 117.213 263.3C118.517 264.244 124.425 263.704 137.831 261.534C144.597 260.426 157.5 258.282 166.395 256.824C206.108 250.26 249.439 245.573 303.045 242.063C332.743 240.122 366.506 238.784 414.037 237.68C430.678 237.285 444.417 236.876 444.665 236.782C445.66 236.45 425.064 235.913 409.667 235.922C362.843 235.9 302.861 237.955 262.356 240.925Z" fill="white" fill-opacity="0.25"/>
<defs>
<linearGradient id="paint0_linear_71_68" x1="9.93337" y1="68.4429" x2="57.0976" y2="259.617" gradientUnits="userSpaceOnUse">
<stop offset="0.0216666" stop-color="#78AAC5"/>
<stop offset="0.318199" stop-color="#F3808E"/>
<stop offset="0.693895" stop-color="#FCB236"/>
<stop offset="1" stop-color="#F7EEA6"/>
</linearGradient>
<linearGradient id="paint1_linear_71_68" x1="228" y1="32.285" x2="230.496" y2="70.4045" gradientUnits="userSpaceOnUse">
<stop offset="0.0216666" stop-color="#78AAC5"/>
<stop offset="0.318199" stop-color="#F3808E"/>
<stop offset="0.693895" stop-color="#FCB236"/>
<stop offset="1" stop-color="#F7EEA6"/>
</linearGradient>
</defs>
</svg>
