<svg width="516" height="21" viewBox="0 0 516 21" fill="none" xmlns="http://www.w3.org/2000/svg">
<path d="M434.146 6.55074C431.853 6.80263 425.069 8.25056 419.288 9.75992C413.507 11.2693 407.411 12.6122 405.7 12.7036C403.468 12.8121 401.016 12.2206 395.306 10.2037C384.096 6.28099 381.058 5.55553 373.785 5.1102C366.137 4.64183 359.59 5.22165 347.347 7.4141C336.5 9.34872 323.014 10.8276 318.751 10.5666C316.369 10.4207 313.095 9.33757 308.048 6.969C297.827 2.22419 292.483 0.867147 281.574 0.199148C270.018 -0.459439 262.723 0.368798 241.644 4.91322C222.27 9.07175 213.064 10.4694 207.547 10.1316C204.788 9.96265 200.135 8.79508 193.106 6.55036C181.671 2.85893 177.063 1.89025 168.035 1.33742C158.63 0.761561 150.593 2.13271 136.029 6.7819C120.737 11.6317 113.322 12.7468 99.2628 12.2291C91.6589 11.9596 88.354 11.5611 80.0401 9.92419C66.0298 7.15388 54.1179 6.42446 43.2163 7.57121C22.7475 9.75029 1.81155 15.4804 0.180192 19.3523C-0.182332 20.2128 0.0171166 20.9605 0.644057 20.9989C1.271 21.0373 4.5129 20.059 8.00103 18.8015C15.0176 16.191 27.1101 13.7441 41.4686 12.0245C54.598 10.4748 59.9897 10.8049 73.1717 14.0149C82.8337 16.4208 83.3151 16.4994 98.7378 17.4438C121.809 18.8565 126.997 18.1445 150.033 10.4835C155.267 8.74453 161.339 7.15492 163.612 6.95084C169.637 6.38811 177.671 7.4685 183.987 9.57155C202.983 16.0796 203.715 16.1735 220.386 14.1541C227.159 13.343 237.967 11.504 244.48 10.0885C261.916 6.25268 266.497 5.45441 272.587 5.04277C284.913 4.17937 291.071 5.43907 300.819 10.6943C304.357 12.6763 308.728 14.5131 310.297 14.7563C318.481 16.0911 333.581 15.0543 353.259 11.699C367.107 9.35964 373.242 9.14688 379.76 10.7719C382.443 11.4265 387.23 13.1908 390.489 14.6162C400.433 19.0989 407.952 19.2651 422.78 15.5148C434.281 12.6395 439.359 11.5774 441.616 11.7156C442.619 11.777 445.602 12.9404 448.379 14.2873C455.952 17.9874 459.703 18.8545 469.709 19.2221C476.917 19.5163 480.338 19.3335 491.466 17.9554C505.844 16.188 516.186 13.9282 515.997 12.5436C515.8 10.5701 512.981 10.5446 493.255 12.1808C468.714 14.2576 466.271 14.2551 460.556 11.9437C447.699 6.74319 442.609 5.696 434.146 6.55074Z" fill="url(#paint0_linear_47_287)"/>
<defs>
<linearGradient id="paint0_linear_47_287" x1="6.34376e-06" y1="3.30046" x2="0.4817" y2="27.2851" gradientUnits="userSpaceOnUse">
<stop offset="0.0216666" stop-color="#78AAC5"/>
<stop offset="0.318199" stop-color="#F3808E"/>
<stop offset="0.693895" stop-color="#FCB236"/>
<stop offset="1" stop-color="#F7EEA6"/>
</linearGradient>
</defs>
</svg>
