<svg width="307" height="12" viewBox="0 0 307 12" fill="none" xmlns="http://www.w3.org/2000/svg">
<path d="M257.93 4.3331C256.57 4.46382 252.546 5.21523 249.118 5.99851C245.689 6.78179 242.073 7.4787 241.058 7.52613C239.734 7.58242 238.28 7.27548 234.893 6.22883C228.245 4.19311 226.442 3.81664 222.129 3.58553C217.592 3.34247 213.709 3.64337 206.448 4.78115C200.014 5.78512 192.015 6.55259 189.487 6.41711C188.074 6.34141 186.132 5.77933 183.138 4.55016C177.077 2.08784 173.906 1.3836 167.436 1.03694C160.582 0.695167 156.256 1.12498 143.753 3.48331C132.262 5.64138 126.801 6.3667 123.529 6.19138C121.893 6.10371 119.133 5.49781 114.964 4.3329C108.181 2.41724 105.448 1.91454 100.094 1.62765C94.5157 1.32881 89.7483 2.04037 81.1102 4.45307C72.0404 6.96988 67.6422 7.54853 59.3034 7.2799C54.7934 7.14005 52.8332 6.93324 47.902 6.08376C39.5922 4.6461 32.527 4.26757 26.061 4.86268C13.9205 5.99351 1.50294 8.96713 0.535343 10.9765C0.320322 11.423 0.438619 11.8111 0.810471 11.831C1.18232 11.8509 3.10517 11.3432 5.17406 10.6906C9.33572 9.3359 16.508 8.06611 25.0244 7.17371C32.8117 6.36948 36.0097 6.54082 43.8282 8.20662C49.559 9.45519 49.8445 9.49594 58.9921 9.98604C72.6762 10.7192 75.7531 10.3497 89.4161 6.37401C92.5208 5.47157 96.1222 4.64665 97.4701 4.54073C101.044 4.24871 105.809 4.80937 109.555 5.90075C120.822 9.27811 121.256 9.32682 131.144 8.27889C135.162 7.85795 141.572 6.90359 145.435 6.16902C155.777 4.17843 158.494 3.76416 162.106 3.55054C169.417 3.10248 173.069 3.7562 178.851 6.48343C180.949 7.51196 183.542 8.46516 184.473 8.59138C189.327 9.28405 198.283 8.74602 209.954 7.00478C218.168 5.79078 221.807 5.68037 225.673 6.52368C227.264 6.8634 230.103 7.77895 232.036 8.51866C237.934 10.845 242.394 10.9312 251.189 8.98499C258.01 7.49284 261.022 6.94169 262.361 7.01342C262.956 7.04529 264.725 7.64902 266.372 8.34798C270.864 10.2681 273.088 10.7181 279.023 10.9089C283.298 11.0616 285.327 10.9667 291.928 10.2516C300.456 9.33436 306.59 8.16163 306.478 7.44312C306.361 6.41897 304.689 6.40573 292.989 7.25482C278.433 8.33256 276.984 8.33128 273.595 7.1318C265.968 4.43298 262.95 3.88953 257.93 4.3331Z" fill="url(#paint0_linear_201_1663)"/>
<defs>
<linearGradient id="paint0_linear_201_1663" x1="0.428471" y1="2.64637" x2="0.647206" y2="15.0944" gradientUnits="userSpaceOnUse">
<stop offset="0.0216666" stop-color="#78AAC5"/>
<stop offset="0.318199" stop-color="#F3808E"/>
<stop offset="0.693895" stop-color="#FCB236"/>
<stop offset="1" stop-color="#F7EEA6"/>
</linearGradient>
</defs>
</svg>
