<svg width="45" height="44" viewBox="0 0 45 44" fill="none" xmlns="http://www.w3.org/2000/svg">
<path d="M0.416504 0H44.4165V22.9977C44.4165 34.5969 35.0135 44 23.4142 44C10.7129 44 0.416504 33.7036 0.416504 21.0023V0Z" fill="#F3808E"/>
<path d="M15.7535 31.0742V28.0303L21.7232 21.7946C22.9053 20.5534 23.8116 19.5683 24.442 18.8393C25.0922 18.0906 25.5454 17.4503 25.8015 16.9184C26.0576 16.3864 26.1857 15.8446 26.1857 15.2929C26.1857 14.3669 25.8901 13.638 25.2991 13.106C24.7277 12.5741 23.9889 12.3081 23.0826 12.3081C22.1369 12.3081 21.3193 12.5839 20.6297 13.1356C19.9401 13.6675 19.4377 14.4556 19.1225 15.4998L15.6057 14.4064C15.8421 13.2439 16.3248 12.2391 17.0538 11.392C17.7828 10.5251 18.6694 9.86505 19.7136 9.4119C20.7775 8.93906 21.9005 8.70263 23.0826 8.70263C24.5012 8.70263 25.7424 8.95876 26.8063 9.47101C27.8899 9.98326 28.7272 10.7024 29.3183 11.6284C29.929 12.5544 30.2344 13.638 30.2344 14.8792C30.2344 15.6673 30.0867 16.4455 29.7911 17.2139C29.4956 17.9823 29.0523 18.7703 28.4612 19.5781C27.8702 20.3662 27.1018 21.2528 26.1561 22.2379L20.9844 27.6756H30.53V31.0742H15.7535Z" fill="white"/>
</svg>
