<svg width="45" height="44" viewBox="0 0 45 44" fill="none" xmlns="http://www.w3.org/2000/svg">
<path d="M0.416504 0H44.4165V22.9977C44.4165 34.5969 35.0135 44 23.4142 44C10.7129 44 0.416504 33.7036 0.416504 21.0023V0Z" fill="#F3808E"/>
<path d="M23.0531 31.4289C21.8512 31.4289 20.7085 31.2121 19.6249 30.7787C18.561 30.3255 17.6449 29.6951 16.8765 28.8873C16.1278 28.0598 15.6156 27.0846 15.3397 25.9616L18.8565 24.7203C19.2112 25.7251 19.753 26.4935 20.482 27.0255C21.2109 27.5377 22.068 27.7938 23.0531 27.7938C23.8411 27.7938 24.5209 27.6461 25.0922 27.3505C25.6833 27.055 26.1463 26.6314 26.4812 26.0798C26.8161 25.5084 26.9836 24.8385 26.9836 24.0702C26.9836 23.3018 26.8161 22.6516 26.4812 22.1197C26.166 21.568 25.7128 21.1444 25.1218 20.8489C24.5307 20.5534 23.8313 20.4056 23.0235 20.4056C22.6492 20.4056 22.2551 20.445 21.8414 20.5238C21.4473 20.6026 21.0927 20.7208 20.7775 20.8784L19.8613 18.9575L25.5651 12.4559H16.581V9.05727H30.0867V12.2194L24.3534 18.928L24.4125 17.4208C25.7325 17.4405 26.8851 17.7261 27.8702 18.2778C28.8553 18.8294 29.6237 19.588 30.1753 20.5534C30.727 21.5188 31.0028 22.6516 31.0028 23.952C31.0028 25.3705 30.658 26.6511 29.9684 27.7938C29.2789 28.9169 28.3332 29.8034 27.1314 30.4536C25.9295 31.1038 24.5701 31.4289 23.0531 31.4289Z" fill="white"/>
</svg>
