<svg width="45" height="44" viewBox="0 0 45 44" fill="none" xmlns="http://www.w3.org/2000/svg">
<path d="M0.416504 0H44.4165V22.9977C44.4165 34.5969 35.0135 44 23.4142 44C10.7129 44 0.416504 33.7036 0.416504 21.0023V0Z" fill="#F3808E"/>
<path d="M23.1713 31.4289C22.0089 31.4289 20.8957 31.2121 19.8318 30.7787C18.7876 30.3452 17.8813 29.7345 17.1129 28.9464C16.3642 28.1386 15.852 27.1831 15.5762 26.0798L19.0634 24.8385C19.3983 25.8433 19.9401 26.592 20.6888 27.0846C21.4375 27.5574 22.265 27.7938 23.1713 27.7938C23.9199 27.7938 24.58 27.6362 25.1513 27.321C25.7424 26.9861 26.1955 26.5329 26.5108 25.9616C26.826 25.3705 26.9836 24.6908 26.9836 23.9224C26.9836 23.154 26.8161 22.4842 26.4812 21.9128C26.166 21.3414 25.7227 20.8982 25.1513 20.5829C24.58 20.248 23.9199 20.0805 23.1713 20.0805C22.4029 20.0805 21.7035 20.248 21.073 20.5829C20.4622 20.9179 20.019 21.4006 19.7431 22.031L16.4627 21.2922L18.2064 9.05727H30.2049V12.4559H19.8022L21.3094 10.7122L20.0682 19.9328L18.9156 18.9871C19.4673 18.1793 20.1372 17.5882 20.9252 17.2139C21.733 16.8395 22.7083 16.6524 23.851 16.6524C25.3089 16.6524 26.5699 16.9676 27.6338 17.5981C28.7174 18.2285 29.5547 19.0856 30.1458 20.1692C30.7368 21.2528 31.0324 22.5039 31.0324 23.9224C31.0324 25.3409 30.6876 26.6216 29.998 27.7643C29.3084 28.907 28.3726 29.8034 27.1905 30.4536C26.0084 31.1038 24.6686 31.4289 23.1713 31.4289Z" fill="white"/>
</svg>
